G04 #@! TF.GenerationSoftware,KiCad,Pcbnew,7.0.5-4d25ed1034~172~ubuntu22.04.1*
G04 #@! TF.CreationDate,2023-06-02T09:39:04+03:00*
G04 #@! TF.ProjectId,AgonLight2-PROTO_Rev_A,41676f6e-4c69-4676-9874-322d50524f54,A*
G04 #@! TF.SameCoordinates,Original*
G04 #@! TF.FileFunction,Legend,Top*
G04 #@! TF.FilePolarity,Positive*
%FSLAX46Y46*%
G04 Gerber Fmt 4.6, Leading zero omitted, Abs format (unit mm)*
G04 Created by KiCad (PCBNEW 7.0.5-4d25ed1034~172~ubuntu22.04.1) date 2023-06-02 09:39:04*
%MOMM*%
%LPD*%
G01*
G04 APERTURE LIST*
%ADD10C,0.241300*%
%ADD11C,0.254000*%
%ADD12C,0.222250*%
%ADD13C,0.381000*%
%ADD14C,0.190500*%
%ADD15C,0.200000*%
%ADD16C,0.150000*%
%ADD17C,0.127000*%
%ADD18C,0.700000*%
%ADD19C,0.100000*%
%ADD20C,0.500000*%
%ADD21C,0.400000*%
%ADD22C,0.010000*%
%ADD23C,0.300000*%
G04 APERTURE END LIST*
D10*
X124975559Y-76196329D02*
X124975559Y-75231129D01*
X125389216Y-76196329D02*
X125389216Y-75690748D01*
X125389216Y-75690748D02*
X125343254Y-75598825D01*
X125343254Y-75598825D02*
X125251330Y-75552863D01*
X125251330Y-75552863D02*
X125113445Y-75552863D01*
X125113445Y-75552863D02*
X125021521Y-75598825D01*
X125021521Y-75598825D02*
X124975559Y-75644787D01*
X125710949Y-75552863D02*
X126078645Y-75552863D01*
X125848835Y-75231129D02*
X125848835Y-76058444D01*
X125848835Y-76058444D02*
X125894797Y-76150368D01*
X125894797Y-76150368D02*
X125986721Y-76196329D01*
X125986721Y-76196329D02*
X126078645Y-76196329D01*
X126262492Y-75552863D02*
X126630188Y-75552863D01*
X126400378Y-75231129D02*
X126400378Y-76058444D01*
X126400378Y-76058444D02*
X126446340Y-76150368D01*
X126446340Y-76150368D02*
X126538264Y-76196329D01*
X126538264Y-76196329D02*
X126630188Y-76196329D01*
X126951921Y-75552863D02*
X126951921Y-76518063D01*
X126951921Y-75598825D02*
X127043845Y-75552863D01*
X127043845Y-75552863D02*
X127227692Y-75552863D01*
X127227692Y-75552863D02*
X127319616Y-75598825D01*
X127319616Y-75598825D02*
X127365578Y-75644787D01*
X127365578Y-75644787D02*
X127411540Y-75736710D01*
X127411540Y-75736710D02*
X127411540Y-76012482D01*
X127411540Y-76012482D02*
X127365578Y-76104406D01*
X127365578Y-76104406D02*
X127319616Y-76150368D01*
X127319616Y-76150368D02*
X127227692Y-76196329D01*
X127227692Y-76196329D02*
X127043845Y-76196329D01*
X127043845Y-76196329D02*
X126951921Y-76150368D01*
X127779235Y-76150368D02*
X127871159Y-76196329D01*
X127871159Y-76196329D02*
X128055007Y-76196329D01*
X128055007Y-76196329D02*
X128146930Y-76150368D01*
X128146930Y-76150368D02*
X128192892Y-76058444D01*
X128192892Y-76058444D02*
X128192892Y-76012482D01*
X128192892Y-76012482D02*
X128146930Y-75920558D01*
X128146930Y-75920558D02*
X128055007Y-75874596D01*
X128055007Y-75874596D02*
X127917121Y-75874596D01*
X127917121Y-75874596D02*
X127825197Y-75828634D01*
X127825197Y-75828634D02*
X127779235Y-75736710D01*
X127779235Y-75736710D02*
X127779235Y-75690748D01*
X127779235Y-75690748D02*
X127825197Y-75598825D01*
X127825197Y-75598825D02*
X127917121Y-75552863D01*
X127917121Y-75552863D02*
X128055007Y-75552863D01*
X128055007Y-75552863D02*
X128146930Y-75598825D01*
X128606549Y-76104406D02*
X128652511Y-76150368D01*
X128652511Y-76150368D02*
X128606549Y-76196329D01*
X128606549Y-76196329D02*
X128560587Y-76150368D01*
X128560587Y-76150368D02*
X128606549Y-76104406D01*
X128606549Y-76104406D02*
X128606549Y-76196329D01*
X128606549Y-75598825D02*
X128652511Y-75644787D01*
X128652511Y-75644787D02*
X128606549Y-75690748D01*
X128606549Y-75690748D02*
X128560587Y-75644787D01*
X128560587Y-75644787D02*
X128606549Y-75598825D01*
X128606549Y-75598825D02*
X128606549Y-75690748D01*
X129755597Y-75185168D02*
X128928282Y-76426139D01*
X130766759Y-75185168D02*
X129939444Y-76426139D01*
X130996568Y-75552863D02*
X131180416Y-76196329D01*
X131180416Y-76196329D02*
X131364263Y-75736710D01*
X131364263Y-75736710D02*
X131548111Y-76196329D01*
X131548111Y-76196329D02*
X131731959Y-75552863D01*
X132007730Y-75552863D02*
X132191578Y-76196329D01*
X132191578Y-76196329D02*
X132375425Y-75736710D01*
X132375425Y-75736710D02*
X132559273Y-76196329D01*
X132559273Y-76196329D02*
X132743121Y-75552863D01*
X133018892Y-75552863D02*
X133202740Y-76196329D01*
X133202740Y-76196329D02*
X133386587Y-75736710D01*
X133386587Y-75736710D02*
X133570435Y-76196329D01*
X133570435Y-76196329D02*
X133754283Y-75552863D01*
X134121978Y-76104406D02*
X134167940Y-76150368D01*
X134167940Y-76150368D02*
X134121978Y-76196329D01*
X134121978Y-76196329D02*
X134076016Y-76150368D01*
X134076016Y-76150368D02*
X134121978Y-76104406D01*
X134121978Y-76104406D02*
X134121978Y-76196329D01*
X134719483Y-76196329D02*
X134627559Y-76150368D01*
X134627559Y-76150368D02*
X134581597Y-76104406D01*
X134581597Y-76104406D02*
X134535635Y-76012482D01*
X134535635Y-76012482D02*
X134535635Y-75736710D01*
X134535635Y-75736710D02*
X134581597Y-75644787D01*
X134581597Y-75644787D02*
X134627559Y-75598825D01*
X134627559Y-75598825D02*
X134719483Y-75552863D01*
X134719483Y-75552863D02*
X134857368Y-75552863D01*
X134857368Y-75552863D02*
X134949292Y-75598825D01*
X134949292Y-75598825D02*
X134995254Y-75644787D01*
X134995254Y-75644787D02*
X135041216Y-75736710D01*
X135041216Y-75736710D02*
X135041216Y-76012482D01*
X135041216Y-76012482D02*
X134995254Y-76104406D01*
X134995254Y-76104406D02*
X134949292Y-76150368D01*
X134949292Y-76150368D02*
X134857368Y-76196329D01*
X134857368Y-76196329D02*
X134719483Y-76196329D01*
X135592759Y-76196329D02*
X135500835Y-76150368D01*
X135500835Y-76150368D02*
X135454873Y-76058444D01*
X135454873Y-76058444D02*
X135454873Y-75231129D01*
X135960454Y-76196329D02*
X135960454Y-75552863D01*
X135960454Y-75231129D02*
X135914492Y-75277091D01*
X135914492Y-75277091D02*
X135960454Y-75323053D01*
X135960454Y-75323053D02*
X136006416Y-75277091D01*
X136006416Y-75277091D02*
X135960454Y-75231129D01*
X135960454Y-75231129D02*
X135960454Y-75323053D01*
X136420073Y-76196329D02*
X136420073Y-75552863D01*
X136420073Y-75644787D02*
X136466035Y-75598825D01*
X136466035Y-75598825D02*
X136557959Y-75552863D01*
X136557959Y-75552863D02*
X136695844Y-75552863D01*
X136695844Y-75552863D02*
X136787768Y-75598825D01*
X136787768Y-75598825D02*
X136833730Y-75690748D01*
X136833730Y-75690748D02*
X136833730Y-76196329D01*
X136833730Y-75690748D02*
X136879692Y-75598825D01*
X136879692Y-75598825D02*
X136971616Y-75552863D01*
X136971616Y-75552863D02*
X137109502Y-75552863D01*
X137109502Y-75552863D02*
X137201425Y-75598825D01*
X137201425Y-75598825D02*
X137247387Y-75690748D01*
X137247387Y-75690748D02*
X137247387Y-76196329D01*
X138074701Y-76150368D02*
X137982777Y-76196329D01*
X137982777Y-76196329D02*
X137798930Y-76196329D01*
X137798930Y-76196329D02*
X137707006Y-76150368D01*
X137707006Y-76150368D02*
X137661044Y-76058444D01*
X137661044Y-76058444D02*
X137661044Y-75690748D01*
X137661044Y-75690748D02*
X137707006Y-75598825D01*
X137707006Y-75598825D02*
X137798930Y-75552863D01*
X137798930Y-75552863D02*
X137982777Y-75552863D01*
X137982777Y-75552863D02*
X138074701Y-75598825D01*
X138074701Y-75598825D02*
X138120663Y-75690748D01*
X138120663Y-75690748D02*
X138120663Y-75782672D01*
X138120663Y-75782672D02*
X137661044Y-75874596D01*
X138442396Y-76196329D02*
X138947977Y-75552863D01*
X138442396Y-75552863D02*
X138947977Y-76196329D01*
X139315672Y-76104406D02*
X139361634Y-76150368D01*
X139361634Y-76150368D02*
X139315672Y-76196329D01*
X139315672Y-76196329D02*
X139269710Y-76150368D01*
X139269710Y-76150368D02*
X139315672Y-76104406D01*
X139315672Y-76104406D02*
X139315672Y-76196329D01*
X140188948Y-76150368D02*
X140097024Y-76196329D01*
X140097024Y-76196329D02*
X139913177Y-76196329D01*
X139913177Y-76196329D02*
X139821253Y-76150368D01*
X139821253Y-76150368D02*
X139775291Y-76104406D01*
X139775291Y-76104406D02*
X139729329Y-76012482D01*
X139729329Y-76012482D02*
X139729329Y-75736710D01*
X139729329Y-75736710D02*
X139775291Y-75644787D01*
X139775291Y-75644787D02*
X139821253Y-75598825D01*
X139821253Y-75598825D02*
X139913177Y-75552863D01*
X139913177Y-75552863D02*
X140097024Y-75552863D01*
X140097024Y-75552863D02*
X140188948Y-75598825D01*
X140740491Y-76196329D02*
X140648567Y-76150368D01*
X140648567Y-76150368D02*
X140602605Y-76104406D01*
X140602605Y-76104406D02*
X140556643Y-76012482D01*
X140556643Y-76012482D02*
X140556643Y-75736710D01*
X140556643Y-75736710D02*
X140602605Y-75644787D01*
X140602605Y-75644787D02*
X140648567Y-75598825D01*
X140648567Y-75598825D02*
X140740491Y-75552863D01*
X140740491Y-75552863D02*
X140878376Y-75552863D01*
X140878376Y-75552863D02*
X140970300Y-75598825D01*
X140970300Y-75598825D02*
X141016262Y-75644787D01*
X141016262Y-75644787D02*
X141062224Y-75736710D01*
X141062224Y-75736710D02*
X141062224Y-76012482D01*
X141062224Y-76012482D02*
X141016262Y-76104406D01*
X141016262Y-76104406D02*
X140970300Y-76150368D01*
X140970300Y-76150368D02*
X140878376Y-76196329D01*
X140878376Y-76196329D02*
X140740491Y-76196329D01*
X141475881Y-76196329D02*
X141475881Y-75552863D01*
X141475881Y-75644787D02*
X141521843Y-75598825D01*
X141521843Y-75598825D02*
X141613767Y-75552863D01*
X141613767Y-75552863D02*
X141751652Y-75552863D01*
X141751652Y-75552863D02*
X141843576Y-75598825D01*
X141843576Y-75598825D02*
X141889538Y-75690748D01*
X141889538Y-75690748D02*
X141889538Y-76196329D01*
X141889538Y-75690748D02*
X141935500Y-75598825D01*
X141935500Y-75598825D02*
X142027424Y-75552863D01*
X142027424Y-75552863D02*
X142165310Y-75552863D01*
X142165310Y-75552863D02*
X142257233Y-75598825D01*
X142257233Y-75598825D02*
X142303195Y-75690748D01*
X142303195Y-75690748D02*
X142303195Y-76196329D01*
X143452243Y-75185168D02*
X142624928Y-76426139D01*
D11*
X128116581Y-79872452D02*
X127777914Y-79388643D01*
X127536009Y-79872452D02*
X127536009Y-78856452D01*
X127536009Y-78856452D02*
X127923057Y-78856452D01*
X127923057Y-78856452D02*
X128019819Y-78904833D01*
X128019819Y-78904833D02*
X128068200Y-78953214D01*
X128068200Y-78953214D02*
X128116581Y-79049976D01*
X128116581Y-79049976D02*
X128116581Y-79195119D01*
X128116581Y-79195119D02*
X128068200Y-79291881D01*
X128068200Y-79291881D02*
X128019819Y-79340262D01*
X128019819Y-79340262D02*
X127923057Y-79388643D01*
X127923057Y-79388643D02*
X127536009Y-79388643D01*
X128939057Y-79824072D02*
X128842295Y-79872452D01*
X128842295Y-79872452D02*
X128648771Y-79872452D01*
X128648771Y-79872452D02*
X128552009Y-79824072D01*
X128552009Y-79824072D02*
X128503628Y-79727310D01*
X128503628Y-79727310D02*
X128503628Y-79340262D01*
X128503628Y-79340262D02*
X128552009Y-79243500D01*
X128552009Y-79243500D02*
X128648771Y-79195119D01*
X128648771Y-79195119D02*
X128842295Y-79195119D01*
X128842295Y-79195119D02*
X128939057Y-79243500D01*
X128939057Y-79243500D02*
X128987438Y-79340262D01*
X128987438Y-79340262D02*
X128987438Y-79437024D01*
X128987438Y-79437024D02*
X128503628Y-79533786D01*
X129326104Y-79195119D02*
X129568009Y-79872452D01*
X129568009Y-79872452D02*
X129809914Y-79195119D01*
X130196961Y-79775691D02*
X130245342Y-79824072D01*
X130245342Y-79824072D02*
X130196961Y-79872452D01*
X130196961Y-79872452D02*
X130148580Y-79824072D01*
X130148580Y-79824072D02*
X130196961Y-79775691D01*
X130196961Y-79775691D02*
X130196961Y-79872452D01*
X130632390Y-79582167D02*
X131116200Y-79582167D01*
X130535628Y-79872452D02*
X130874295Y-78856452D01*
X130874295Y-78856452D02*
X131212962Y-79872452D01*
D12*
X125579883Y-77984647D02*
X125283550Y-77561314D01*
X125071883Y-77984647D02*
X125071883Y-77095647D01*
X125071883Y-77095647D02*
X125410550Y-77095647D01*
X125410550Y-77095647D02*
X125495217Y-77137980D01*
X125495217Y-77137980D02*
X125537550Y-77180314D01*
X125537550Y-77180314D02*
X125579883Y-77264980D01*
X125579883Y-77264980D02*
X125579883Y-77391980D01*
X125579883Y-77391980D02*
X125537550Y-77476647D01*
X125537550Y-77476647D02*
X125495217Y-77518980D01*
X125495217Y-77518980D02*
X125410550Y-77561314D01*
X125410550Y-77561314D02*
X125071883Y-77561314D01*
X126087883Y-77984647D02*
X126003217Y-77942314D01*
X126003217Y-77942314D02*
X125960883Y-77899980D01*
X125960883Y-77899980D02*
X125918550Y-77815314D01*
X125918550Y-77815314D02*
X125918550Y-77561314D01*
X125918550Y-77561314D02*
X125960883Y-77476647D01*
X125960883Y-77476647D02*
X126003217Y-77434314D01*
X126003217Y-77434314D02*
X126087883Y-77391980D01*
X126087883Y-77391980D02*
X126214883Y-77391980D01*
X126214883Y-77391980D02*
X126299550Y-77434314D01*
X126299550Y-77434314D02*
X126341883Y-77476647D01*
X126341883Y-77476647D02*
X126384217Y-77561314D01*
X126384217Y-77561314D02*
X126384217Y-77815314D01*
X126384217Y-77815314D02*
X126341883Y-77899980D01*
X126341883Y-77899980D02*
X126299550Y-77942314D01*
X126299550Y-77942314D02*
X126214883Y-77984647D01*
X126214883Y-77984647D02*
X126087883Y-77984647D01*
X126765216Y-77984647D02*
X126765216Y-77095647D01*
X126765216Y-77518980D02*
X127273216Y-77518980D01*
X127273216Y-77984647D02*
X127273216Y-77095647D01*
X127654216Y-77942314D02*
X127781216Y-77984647D01*
X127781216Y-77984647D02*
X127992883Y-77984647D01*
X127992883Y-77984647D02*
X128077549Y-77942314D01*
X128077549Y-77942314D02*
X128119883Y-77899980D01*
X128119883Y-77899980D02*
X128162216Y-77815314D01*
X128162216Y-77815314D02*
X128162216Y-77730647D01*
X128162216Y-77730647D02*
X128119883Y-77645980D01*
X128119883Y-77645980D02*
X128077549Y-77603647D01*
X128077549Y-77603647D02*
X127992883Y-77561314D01*
X127992883Y-77561314D02*
X127823549Y-77518980D01*
X127823549Y-77518980D02*
X127738883Y-77476647D01*
X127738883Y-77476647D02*
X127696549Y-77434314D01*
X127696549Y-77434314D02*
X127654216Y-77349647D01*
X127654216Y-77349647D02*
X127654216Y-77264980D01*
X127654216Y-77264980D02*
X127696549Y-77180314D01*
X127696549Y-77180314D02*
X127738883Y-77137980D01*
X127738883Y-77137980D02*
X127823549Y-77095647D01*
X127823549Y-77095647D02*
X128035216Y-77095647D01*
X128035216Y-77095647D02*
X128162216Y-77137980D01*
X129728549Y-77899980D02*
X129686216Y-77942314D01*
X129686216Y-77942314D02*
X129559216Y-77984647D01*
X129559216Y-77984647D02*
X129474549Y-77984647D01*
X129474549Y-77984647D02*
X129347549Y-77942314D01*
X129347549Y-77942314D02*
X129262883Y-77857647D01*
X129262883Y-77857647D02*
X129220549Y-77772980D01*
X129220549Y-77772980D02*
X129178216Y-77603647D01*
X129178216Y-77603647D02*
X129178216Y-77476647D01*
X129178216Y-77476647D02*
X129220549Y-77307314D01*
X129220549Y-77307314D02*
X129262883Y-77222647D01*
X129262883Y-77222647D02*
X129347549Y-77137980D01*
X129347549Y-77137980D02*
X129474549Y-77095647D01*
X129474549Y-77095647D02*
X129559216Y-77095647D01*
X129559216Y-77095647D02*
X129686216Y-77137980D01*
X129686216Y-77137980D02*
X129728549Y-77180314D01*
X130236549Y-77984647D02*
X130151883Y-77942314D01*
X130151883Y-77942314D02*
X130109549Y-77899980D01*
X130109549Y-77899980D02*
X130067216Y-77815314D01*
X130067216Y-77815314D02*
X130067216Y-77561314D01*
X130067216Y-77561314D02*
X130109549Y-77476647D01*
X130109549Y-77476647D02*
X130151883Y-77434314D01*
X130151883Y-77434314D02*
X130236549Y-77391980D01*
X130236549Y-77391980D02*
X130363549Y-77391980D01*
X130363549Y-77391980D02*
X130448216Y-77434314D01*
X130448216Y-77434314D02*
X130490549Y-77476647D01*
X130490549Y-77476647D02*
X130532883Y-77561314D01*
X130532883Y-77561314D02*
X130532883Y-77815314D01*
X130532883Y-77815314D02*
X130490549Y-77899980D01*
X130490549Y-77899980D02*
X130448216Y-77942314D01*
X130448216Y-77942314D02*
X130363549Y-77984647D01*
X130363549Y-77984647D02*
X130236549Y-77984647D01*
X130913882Y-77984647D02*
X130913882Y-77391980D01*
X130913882Y-77476647D02*
X130956216Y-77434314D01*
X130956216Y-77434314D02*
X131040882Y-77391980D01*
X131040882Y-77391980D02*
X131167882Y-77391980D01*
X131167882Y-77391980D02*
X131252549Y-77434314D01*
X131252549Y-77434314D02*
X131294882Y-77518980D01*
X131294882Y-77518980D02*
X131294882Y-77984647D01*
X131294882Y-77518980D02*
X131337216Y-77434314D01*
X131337216Y-77434314D02*
X131421882Y-77391980D01*
X131421882Y-77391980D02*
X131548882Y-77391980D01*
X131548882Y-77391980D02*
X131633549Y-77434314D01*
X131633549Y-77434314D02*
X131675882Y-77518980D01*
X131675882Y-77518980D02*
X131675882Y-77984647D01*
X132099215Y-77391980D02*
X132099215Y-78280980D01*
X132099215Y-77434314D02*
X132183882Y-77391980D01*
X132183882Y-77391980D02*
X132353215Y-77391980D01*
X132353215Y-77391980D02*
X132437882Y-77434314D01*
X132437882Y-77434314D02*
X132480215Y-77476647D01*
X132480215Y-77476647D02*
X132522549Y-77561314D01*
X132522549Y-77561314D02*
X132522549Y-77815314D01*
X132522549Y-77815314D02*
X132480215Y-77899980D01*
X132480215Y-77899980D02*
X132437882Y-77942314D01*
X132437882Y-77942314D02*
X132353215Y-77984647D01*
X132353215Y-77984647D02*
X132183882Y-77984647D01*
X132183882Y-77984647D02*
X132099215Y-77942314D01*
X133030548Y-77984647D02*
X132945882Y-77942314D01*
X132945882Y-77942314D02*
X132903548Y-77857647D01*
X132903548Y-77857647D02*
X132903548Y-77095647D01*
X133369215Y-77984647D02*
X133369215Y-77391980D01*
X133369215Y-77095647D02*
X133326882Y-77137980D01*
X133326882Y-77137980D02*
X133369215Y-77180314D01*
X133369215Y-77180314D02*
X133411549Y-77137980D01*
X133411549Y-77137980D02*
X133369215Y-77095647D01*
X133369215Y-77095647D02*
X133369215Y-77180314D01*
X134173548Y-77984647D02*
X134173548Y-77518980D01*
X134173548Y-77518980D02*
X134131215Y-77434314D01*
X134131215Y-77434314D02*
X134046548Y-77391980D01*
X134046548Y-77391980D02*
X133877215Y-77391980D01*
X133877215Y-77391980D02*
X133792548Y-77434314D01*
X134173548Y-77942314D02*
X134088882Y-77984647D01*
X134088882Y-77984647D02*
X133877215Y-77984647D01*
X133877215Y-77984647D02*
X133792548Y-77942314D01*
X133792548Y-77942314D02*
X133750215Y-77857647D01*
X133750215Y-77857647D02*
X133750215Y-77772980D01*
X133750215Y-77772980D02*
X133792548Y-77688314D01*
X133792548Y-77688314D02*
X133877215Y-77645980D01*
X133877215Y-77645980D02*
X134088882Y-77645980D01*
X134088882Y-77645980D02*
X134173548Y-77603647D01*
X134596881Y-77391980D02*
X134596881Y-77984647D01*
X134596881Y-77476647D02*
X134639215Y-77434314D01*
X134639215Y-77434314D02*
X134723881Y-77391980D01*
X134723881Y-77391980D02*
X134850881Y-77391980D01*
X134850881Y-77391980D02*
X134935548Y-77434314D01*
X134935548Y-77434314D02*
X134977881Y-77518980D01*
X134977881Y-77518980D02*
X134977881Y-77984647D01*
X135274214Y-77391980D02*
X135612881Y-77391980D01*
X135401214Y-77095647D02*
X135401214Y-77857647D01*
X135401214Y-77857647D02*
X135443548Y-77942314D01*
X135443548Y-77942314D02*
X135528214Y-77984647D01*
X135528214Y-77984647D02*
X135612881Y-77984647D01*
D11*
X127826295Y-82291500D02*
X127777914Y-82243119D01*
X127777914Y-82243119D02*
X127681152Y-82097976D01*
X127681152Y-82097976D02*
X127632771Y-82001214D01*
X127632771Y-82001214D02*
X127584390Y-81856072D01*
X127584390Y-81856072D02*
X127536009Y-81614167D01*
X127536009Y-81614167D02*
X127536009Y-81420643D01*
X127536009Y-81420643D02*
X127584390Y-81178738D01*
X127584390Y-81178738D02*
X127632771Y-81033595D01*
X127632771Y-81033595D02*
X127681152Y-80936833D01*
X127681152Y-80936833D02*
X127777914Y-80791691D01*
X127777914Y-80791691D02*
X127826295Y-80743310D01*
X128793914Y-81807691D02*
X128745533Y-81856072D01*
X128745533Y-81856072D02*
X128600390Y-81904452D01*
X128600390Y-81904452D02*
X128503628Y-81904452D01*
X128503628Y-81904452D02*
X128358485Y-81856072D01*
X128358485Y-81856072D02*
X128261723Y-81759310D01*
X128261723Y-81759310D02*
X128213342Y-81662548D01*
X128213342Y-81662548D02*
X128164961Y-81469024D01*
X128164961Y-81469024D02*
X128164961Y-81323881D01*
X128164961Y-81323881D02*
X128213342Y-81130357D01*
X128213342Y-81130357D02*
X128261723Y-81033595D01*
X128261723Y-81033595D02*
X128358485Y-80936833D01*
X128358485Y-80936833D02*
X128503628Y-80888452D01*
X128503628Y-80888452D02*
X128600390Y-80888452D01*
X128600390Y-80888452D02*
X128745533Y-80936833D01*
X128745533Y-80936833D02*
X128793914Y-80985214D01*
X129132580Y-82291500D02*
X129180961Y-82243119D01*
X129180961Y-82243119D02*
X129277723Y-82097976D01*
X129277723Y-82097976D02*
X129326104Y-82001214D01*
X129326104Y-82001214D02*
X129374485Y-81856072D01*
X129374485Y-81856072D02*
X129422866Y-81614167D01*
X129422866Y-81614167D02*
X129422866Y-81420643D01*
X129422866Y-81420643D02*
X129374485Y-81178738D01*
X129374485Y-81178738D02*
X129326104Y-81033595D01*
X129326104Y-81033595D02*
X129277723Y-80936833D01*
X129277723Y-80936833D02*
X129180961Y-80791691D01*
X129180961Y-80791691D02*
X129132580Y-80743310D01*
X129858294Y-80985214D02*
X129906675Y-80936833D01*
X129906675Y-80936833D02*
X130003437Y-80888452D01*
X130003437Y-80888452D02*
X130245342Y-80888452D01*
X130245342Y-80888452D02*
X130342104Y-80936833D01*
X130342104Y-80936833D02*
X130390485Y-80985214D01*
X130390485Y-80985214D02*
X130438866Y-81081976D01*
X130438866Y-81081976D02*
X130438866Y-81178738D01*
X130438866Y-81178738D02*
X130390485Y-81323881D01*
X130390485Y-81323881D02*
X129809913Y-81904452D01*
X129809913Y-81904452D02*
X130438866Y-81904452D01*
X131067818Y-80888452D02*
X131164580Y-80888452D01*
X131164580Y-80888452D02*
X131261342Y-80936833D01*
X131261342Y-80936833D02*
X131309723Y-80985214D01*
X131309723Y-80985214D02*
X131358104Y-81081976D01*
X131358104Y-81081976D02*
X131406485Y-81275500D01*
X131406485Y-81275500D02*
X131406485Y-81517405D01*
X131406485Y-81517405D02*
X131358104Y-81710929D01*
X131358104Y-81710929D02*
X131309723Y-81807691D01*
X131309723Y-81807691D02*
X131261342Y-81856072D01*
X131261342Y-81856072D02*
X131164580Y-81904452D01*
X131164580Y-81904452D02*
X131067818Y-81904452D01*
X131067818Y-81904452D02*
X130971056Y-81856072D01*
X130971056Y-81856072D02*
X130922675Y-81807691D01*
X130922675Y-81807691D02*
X130874294Y-81710929D01*
X130874294Y-81710929D02*
X130825913Y-81517405D01*
X130825913Y-81517405D02*
X130825913Y-81275500D01*
X130825913Y-81275500D02*
X130874294Y-81081976D01*
X130874294Y-81081976D02*
X130922675Y-80985214D01*
X130922675Y-80985214D02*
X130971056Y-80936833D01*
X130971056Y-80936833D02*
X131067818Y-80888452D01*
X131793532Y-80985214D02*
X131841913Y-80936833D01*
X131841913Y-80936833D02*
X131938675Y-80888452D01*
X131938675Y-80888452D02*
X132180580Y-80888452D01*
X132180580Y-80888452D02*
X132277342Y-80936833D01*
X132277342Y-80936833D02*
X132325723Y-80985214D01*
X132325723Y-80985214D02*
X132374104Y-81081976D01*
X132374104Y-81081976D02*
X132374104Y-81178738D01*
X132374104Y-81178738D02*
X132325723Y-81323881D01*
X132325723Y-81323881D02*
X131745151Y-81904452D01*
X131745151Y-81904452D02*
X132374104Y-81904452D01*
X132712770Y-80888452D02*
X133341723Y-80888452D01*
X133341723Y-80888452D02*
X133003056Y-81275500D01*
X133003056Y-81275500D02*
X133148199Y-81275500D01*
X133148199Y-81275500D02*
X133244961Y-81323881D01*
X133244961Y-81323881D02*
X133293342Y-81372262D01*
X133293342Y-81372262D02*
X133341723Y-81469024D01*
X133341723Y-81469024D02*
X133341723Y-81710929D01*
X133341723Y-81710929D02*
X133293342Y-81807691D01*
X133293342Y-81807691D02*
X133244961Y-81856072D01*
X133244961Y-81856072D02*
X133148199Y-81904452D01*
X133148199Y-81904452D02*
X132857913Y-81904452D01*
X132857913Y-81904452D02*
X132761151Y-81856072D01*
X132761151Y-81856072D02*
X132712770Y-81807691D01*
D13*
X100919323Y-80407595D02*
X101765990Y-80407595D01*
X100749990Y-80915595D02*
X101342657Y-79137595D01*
X101342657Y-79137595D02*
X101935323Y-80915595D01*
X103289990Y-79730262D02*
X103289990Y-81169595D01*
X103289990Y-81169595D02*
X103205323Y-81338929D01*
X103205323Y-81338929D02*
X103120657Y-81423595D01*
X103120657Y-81423595D02*
X102951323Y-81508262D01*
X102951323Y-81508262D02*
X102697323Y-81508262D01*
X102697323Y-81508262D02*
X102527990Y-81423595D01*
X103289990Y-80830929D02*
X103120657Y-80915595D01*
X103120657Y-80915595D02*
X102781990Y-80915595D01*
X102781990Y-80915595D02*
X102612657Y-80830929D01*
X102612657Y-80830929D02*
X102527990Y-80746262D01*
X102527990Y-80746262D02*
X102443323Y-80576929D01*
X102443323Y-80576929D02*
X102443323Y-80068929D01*
X102443323Y-80068929D02*
X102527990Y-79899595D01*
X102527990Y-79899595D02*
X102612657Y-79814929D01*
X102612657Y-79814929D02*
X102781990Y-79730262D01*
X102781990Y-79730262D02*
X103120657Y-79730262D01*
X103120657Y-79730262D02*
X103289990Y-79814929D01*
X104390657Y-80915595D02*
X104221324Y-80830929D01*
X104221324Y-80830929D02*
X104136657Y-80746262D01*
X104136657Y-80746262D02*
X104051990Y-80576929D01*
X104051990Y-80576929D02*
X104051990Y-80068929D01*
X104051990Y-80068929D02*
X104136657Y-79899595D01*
X104136657Y-79899595D02*
X104221324Y-79814929D01*
X104221324Y-79814929D02*
X104390657Y-79730262D01*
X104390657Y-79730262D02*
X104644657Y-79730262D01*
X104644657Y-79730262D02*
X104813990Y-79814929D01*
X104813990Y-79814929D02*
X104898657Y-79899595D01*
X104898657Y-79899595D02*
X104983324Y-80068929D01*
X104983324Y-80068929D02*
X104983324Y-80576929D01*
X104983324Y-80576929D02*
X104898657Y-80746262D01*
X104898657Y-80746262D02*
X104813990Y-80830929D01*
X104813990Y-80830929D02*
X104644657Y-80915595D01*
X104644657Y-80915595D02*
X104390657Y-80915595D01*
X105745324Y-79730262D02*
X105745324Y-80915595D01*
X105745324Y-79899595D02*
X105829991Y-79814929D01*
X105829991Y-79814929D02*
X105999324Y-79730262D01*
X105999324Y-79730262D02*
X106253324Y-79730262D01*
X106253324Y-79730262D02*
X106422657Y-79814929D01*
X106422657Y-79814929D02*
X106507324Y-79984262D01*
X106507324Y-79984262D02*
X106507324Y-80915595D01*
X108200658Y-80915595D02*
X107353991Y-80915595D01*
X107353991Y-80915595D02*
X107353991Y-79137595D01*
X108793324Y-80915595D02*
X108793324Y-79730262D01*
X108793324Y-79137595D02*
X108708657Y-79222262D01*
X108708657Y-79222262D02*
X108793324Y-79306929D01*
X108793324Y-79306929D02*
X108877991Y-79222262D01*
X108877991Y-79222262D02*
X108793324Y-79137595D01*
X108793324Y-79137595D02*
X108793324Y-79306929D01*
X110401991Y-79730262D02*
X110401991Y-81169595D01*
X110401991Y-81169595D02*
X110317324Y-81338929D01*
X110317324Y-81338929D02*
X110232658Y-81423595D01*
X110232658Y-81423595D02*
X110063324Y-81508262D01*
X110063324Y-81508262D02*
X109809324Y-81508262D01*
X109809324Y-81508262D02*
X109639991Y-81423595D01*
X110401991Y-80830929D02*
X110232658Y-80915595D01*
X110232658Y-80915595D02*
X109893991Y-80915595D01*
X109893991Y-80915595D02*
X109724658Y-80830929D01*
X109724658Y-80830929D02*
X109639991Y-80746262D01*
X109639991Y-80746262D02*
X109555324Y-80576929D01*
X109555324Y-80576929D02*
X109555324Y-80068929D01*
X109555324Y-80068929D02*
X109639991Y-79899595D01*
X109639991Y-79899595D02*
X109724658Y-79814929D01*
X109724658Y-79814929D02*
X109893991Y-79730262D01*
X109893991Y-79730262D02*
X110232658Y-79730262D01*
X110232658Y-79730262D02*
X110401991Y-79814929D01*
X111248658Y-80915595D02*
X111248658Y-79137595D01*
X112010658Y-80915595D02*
X112010658Y-79984262D01*
X112010658Y-79984262D02*
X111925991Y-79814929D01*
X111925991Y-79814929D02*
X111756658Y-79730262D01*
X111756658Y-79730262D02*
X111502658Y-79730262D01*
X111502658Y-79730262D02*
X111333325Y-79814929D01*
X111333325Y-79814929D02*
X111248658Y-79899595D01*
X112603325Y-79730262D02*
X113280658Y-79730262D01*
X112857325Y-79137595D02*
X112857325Y-80661595D01*
X112857325Y-80661595D02*
X112941992Y-80830929D01*
X112941992Y-80830929D02*
X113111325Y-80915595D01*
X113111325Y-80915595D02*
X113280658Y-80915595D01*
X113788658Y-79306929D02*
X113873325Y-79222262D01*
X113873325Y-79222262D02*
X114042658Y-79137595D01*
X114042658Y-79137595D02*
X114465992Y-79137595D01*
X114465992Y-79137595D02*
X114635325Y-79222262D01*
X114635325Y-79222262D02*
X114719992Y-79306929D01*
X114719992Y-79306929D02*
X114804658Y-79476262D01*
X114804658Y-79476262D02*
X114804658Y-79645595D01*
X114804658Y-79645595D02*
X114719992Y-79899595D01*
X114719992Y-79899595D02*
X113703992Y-80915595D01*
X113703992Y-80915595D02*
X114804658Y-80915595D01*
X115566658Y-80238262D02*
X116921325Y-80238262D01*
X117767991Y-80915595D02*
X117767991Y-79137595D01*
X117767991Y-79137595D02*
X118445324Y-79137595D01*
X118445324Y-79137595D02*
X118614658Y-79222262D01*
X118614658Y-79222262D02*
X118699324Y-79306929D01*
X118699324Y-79306929D02*
X118783991Y-79476262D01*
X118783991Y-79476262D02*
X118783991Y-79730262D01*
X118783991Y-79730262D02*
X118699324Y-79899595D01*
X118699324Y-79899595D02*
X118614658Y-79984262D01*
X118614658Y-79984262D02*
X118445324Y-80068929D01*
X118445324Y-80068929D02*
X117767991Y-80068929D01*
X120561991Y-80915595D02*
X119969324Y-80068929D01*
X119545991Y-80915595D02*
X119545991Y-79137595D01*
X119545991Y-79137595D02*
X120223324Y-79137595D01*
X120223324Y-79137595D02*
X120392658Y-79222262D01*
X120392658Y-79222262D02*
X120477324Y-79306929D01*
X120477324Y-79306929D02*
X120561991Y-79476262D01*
X120561991Y-79476262D02*
X120561991Y-79730262D01*
X120561991Y-79730262D02*
X120477324Y-79899595D01*
X120477324Y-79899595D02*
X120392658Y-79984262D01*
X120392658Y-79984262D02*
X120223324Y-80068929D01*
X120223324Y-80068929D02*
X119545991Y-80068929D01*
X121662658Y-79137595D02*
X122001324Y-79137595D01*
X122001324Y-79137595D02*
X122170658Y-79222262D01*
X122170658Y-79222262D02*
X122339991Y-79391595D01*
X122339991Y-79391595D02*
X122424658Y-79730262D01*
X122424658Y-79730262D02*
X122424658Y-80322929D01*
X122424658Y-80322929D02*
X122339991Y-80661595D01*
X122339991Y-80661595D02*
X122170658Y-80830929D01*
X122170658Y-80830929D02*
X122001324Y-80915595D01*
X122001324Y-80915595D02*
X121662658Y-80915595D01*
X121662658Y-80915595D02*
X121493324Y-80830929D01*
X121493324Y-80830929D02*
X121323991Y-80661595D01*
X121323991Y-80661595D02*
X121239324Y-80322929D01*
X121239324Y-80322929D02*
X121239324Y-79730262D01*
X121239324Y-79730262D02*
X121323991Y-79391595D01*
X121323991Y-79391595D02*
X121493324Y-79222262D01*
X121493324Y-79222262D02*
X121662658Y-79137595D01*
X122932658Y-79137595D02*
X123948658Y-79137595D01*
X123440658Y-80915595D02*
X123440658Y-79137595D01*
X124879992Y-79137595D02*
X125218658Y-79137595D01*
X125218658Y-79137595D02*
X125387992Y-79222262D01*
X125387992Y-79222262D02*
X125557325Y-79391595D01*
X125557325Y-79391595D02*
X125641992Y-79730262D01*
X125641992Y-79730262D02*
X125641992Y-80322929D01*
X125641992Y-80322929D02*
X125557325Y-80661595D01*
X125557325Y-80661595D02*
X125387992Y-80830929D01*
X125387992Y-80830929D02*
X125218658Y-80915595D01*
X125218658Y-80915595D02*
X124879992Y-80915595D01*
X124879992Y-80915595D02*
X124710658Y-80830929D01*
X124710658Y-80830929D02*
X124541325Y-80661595D01*
X124541325Y-80661595D02*
X124456658Y-80322929D01*
X124456658Y-80322929D02*
X124456658Y-79730262D01*
X124456658Y-79730262D02*
X124541325Y-79391595D01*
X124541325Y-79391595D02*
X124710658Y-79222262D01*
X124710658Y-79222262D02*
X124879992Y-79137595D01*
D11*
X103566994Y-85743142D02*
X103512565Y-85852000D01*
X103512565Y-85852000D02*
X103512565Y-86015285D01*
X103512565Y-86015285D02*
X103566994Y-86178571D01*
X103566994Y-86178571D02*
X103675851Y-86287428D01*
X103675851Y-86287428D02*
X103784708Y-86341857D01*
X103784708Y-86341857D02*
X104002422Y-86396285D01*
X104002422Y-86396285D02*
X104165708Y-86396285D01*
X104165708Y-86396285D02*
X104383422Y-86341857D01*
X104383422Y-86341857D02*
X104492279Y-86287428D01*
X104492279Y-86287428D02*
X104601137Y-86178571D01*
X104601137Y-86178571D02*
X104655565Y-86015285D01*
X104655565Y-86015285D02*
X104655565Y-85906428D01*
X104655565Y-85906428D02*
X104601137Y-85743142D01*
X104601137Y-85743142D02*
X104546708Y-85688714D01*
X104546708Y-85688714D02*
X104165708Y-85688714D01*
X104165708Y-85688714D02*
X104165708Y-85906428D01*
X104655565Y-85198857D02*
X103512565Y-85198857D01*
X103512565Y-85198857D02*
X104655565Y-84545714D01*
X104655565Y-84545714D02*
X103512565Y-84545714D01*
X104655565Y-84001428D02*
X103512565Y-84001428D01*
X103512565Y-84001428D02*
X103512565Y-83729285D01*
X103512565Y-83729285D02*
X103566994Y-83565999D01*
X103566994Y-83565999D02*
X103675851Y-83457142D01*
X103675851Y-83457142D02*
X103784708Y-83402713D01*
X103784708Y-83402713D02*
X104002422Y-83348285D01*
X104002422Y-83348285D02*
X104165708Y-83348285D01*
X104165708Y-83348285D02*
X104383422Y-83402713D01*
X104383422Y-83402713D02*
X104492279Y-83457142D01*
X104492279Y-83457142D02*
X104601137Y-83565999D01*
X104601137Y-83565999D02*
X104655565Y-83729285D01*
X104655565Y-83729285D02*
X104655565Y-84001428D01*
X104655565Y-82259713D02*
X104655565Y-82912856D01*
X104655565Y-82586285D02*
X103512565Y-82586285D01*
X103512565Y-82586285D02*
X103675851Y-82695142D01*
X103675851Y-82695142D02*
X103784708Y-82803999D01*
X103784708Y-82803999D02*
X103839137Y-82912856D01*
X121242667Y-73100812D02*
X120904000Y-72617003D01*
X120662095Y-73100812D02*
X120662095Y-72084812D01*
X120662095Y-72084812D02*
X121049143Y-72084812D01*
X121049143Y-72084812D02*
X121145905Y-72133193D01*
X121145905Y-72133193D02*
X121194286Y-72181574D01*
X121194286Y-72181574D02*
X121242667Y-72278336D01*
X121242667Y-72278336D02*
X121242667Y-72423479D01*
X121242667Y-72423479D02*
X121194286Y-72520241D01*
X121194286Y-72520241D02*
X121145905Y-72568622D01*
X121145905Y-72568622D02*
X121049143Y-72617003D01*
X121049143Y-72617003D02*
X120662095Y-72617003D01*
X122210286Y-73100812D02*
X121629714Y-73100812D01*
X121920000Y-73100812D02*
X121920000Y-72084812D01*
X121920000Y-72084812D02*
X121823238Y-72229955D01*
X121823238Y-72229955D02*
X121726476Y-72326717D01*
X121726476Y-72326717D02*
X121629714Y-72375098D01*
X198210508Y-86311619D02*
X198210508Y-85344000D01*
X198694318Y-85827809D02*
X197726699Y-85827809D01*
X197424318Y-84134476D02*
X197424318Y-84739238D01*
X197424318Y-84739238D02*
X198029080Y-84799714D01*
X198029080Y-84799714D02*
X197968603Y-84739238D01*
X197968603Y-84739238D02*
X197908127Y-84618285D01*
X197908127Y-84618285D02*
X197908127Y-84315904D01*
X197908127Y-84315904D02*
X197968603Y-84194952D01*
X197968603Y-84194952D02*
X198029080Y-84134476D01*
X198029080Y-84134476D02*
X198150032Y-84073999D01*
X198150032Y-84073999D02*
X198452413Y-84073999D01*
X198452413Y-84073999D02*
X198573365Y-84134476D01*
X198573365Y-84134476D02*
X198633842Y-84194952D01*
X198633842Y-84194952D02*
X198694318Y-84315904D01*
X198694318Y-84315904D02*
X198694318Y-84618285D01*
X198694318Y-84618285D02*
X198633842Y-84739238D01*
X198633842Y-84739238D02*
X198573365Y-84799714D01*
X197424318Y-83711142D02*
X198694318Y-83287809D01*
X198694318Y-83287809D02*
X197424318Y-82864475D01*
X197424318Y-82199238D02*
X197424318Y-82078285D01*
X197424318Y-82078285D02*
X197484794Y-81957333D01*
X197484794Y-81957333D02*
X197545270Y-81896857D01*
X197545270Y-81896857D02*
X197666222Y-81836381D01*
X197666222Y-81836381D02*
X197908127Y-81775904D01*
X197908127Y-81775904D02*
X198210508Y-81775904D01*
X198210508Y-81775904D02*
X198452413Y-81836381D01*
X198452413Y-81836381D02*
X198573365Y-81896857D01*
X198573365Y-81896857D02*
X198633842Y-81957333D01*
X198633842Y-81957333D02*
X198694318Y-82078285D01*
X198694318Y-82078285D02*
X198694318Y-82199238D01*
X198694318Y-82199238D02*
X198633842Y-82320190D01*
X198633842Y-82320190D02*
X198573365Y-82380666D01*
X198573365Y-82380666D02*
X198452413Y-82441143D01*
X198452413Y-82441143D02*
X198210508Y-82501619D01*
X198210508Y-82501619D02*
X197908127Y-82501619D01*
X197908127Y-82501619D02*
X197666222Y-82441143D01*
X197666222Y-82441143D02*
X197545270Y-82380666D01*
X197545270Y-82380666D02*
X197484794Y-82320190D01*
X197484794Y-82320190D02*
X197424318Y-82199238D01*
X178242994Y-85706856D02*
X178188565Y-85815714D01*
X178188565Y-85815714D02*
X178188565Y-85978999D01*
X178188565Y-85978999D02*
X178242994Y-86142285D01*
X178242994Y-86142285D02*
X178351851Y-86251142D01*
X178351851Y-86251142D02*
X178460708Y-86305571D01*
X178460708Y-86305571D02*
X178678422Y-86359999D01*
X178678422Y-86359999D02*
X178841708Y-86359999D01*
X178841708Y-86359999D02*
X179059422Y-86305571D01*
X179059422Y-86305571D02*
X179168279Y-86251142D01*
X179168279Y-86251142D02*
X179277137Y-86142285D01*
X179277137Y-86142285D02*
X179331565Y-85978999D01*
X179331565Y-85978999D02*
X179331565Y-85870142D01*
X179331565Y-85870142D02*
X179277137Y-85706856D01*
X179277137Y-85706856D02*
X179222708Y-85652428D01*
X179222708Y-85652428D02*
X178841708Y-85652428D01*
X178841708Y-85652428D02*
X178841708Y-85870142D01*
X179331565Y-85162571D02*
X178188565Y-85162571D01*
X178188565Y-85162571D02*
X178188565Y-84727142D01*
X178188565Y-84727142D02*
X178242994Y-84618285D01*
X178242994Y-84618285D02*
X178297422Y-84563856D01*
X178297422Y-84563856D02*
X178406279Y-84509428D01*
X178406279Y-84509428D02*
X178569565Y-84509428D01*
X178569565Y-84509428D02*
X178678422Y-84563856D01*
X178678422Y-84563856D02*
X178732851Y-84618285D01*
X178732851Y-84618285D02*
X178787279Y-84727142D01*
X178787279Y-84727142D02*
X178787279Y-85162571D01*
X179331565Y-84019571D02*
X178188565Y-84019571D01*
X178188565Y-83584142D02*
X178188565Y-82876570D01*
X178188565Y-82876570D02*
X178623994Y-83257570D01*
X178623994Y-83257570D02*
X178623994Y-83094285D01*
X178623994Y-83094285D02*
X178678422Y-82985428D01*
X178678422Y-82985428D02*
X178732851Y-82930999D01*
X178732851Y-82930999D02*
X178841708Y-82876570D01*
X178841708Y-82876570D02*
X179113851Y-82876570D01*
X179113851Y-82876570D02*
X179222708Y-82930999D01*
X179222708Y-82930999D02*
X179277137Y-82985428D01*
X179277137Y-82985428D02*
X179331565Y-83094285D01*
X179331565Y-83094285D02*
X179331565Y-83420856D01*
X179331565Y-83420856D02*
X179277137Y-83529713D01*
X179277137Y-83529713D02*
X179222708Y-83584142D01*
X178188565Y-81842428D02*
X178188565Y-82386714D01*
X178188565Y-82386714D02*
X178732851Y-82441142D01*
X178732851Y-82441142D02*
X178678422Y-82386714D01*
X178678422Y-82386714D02*
X178623994Y-82277857D01*
X178623994Y-82277857D02*
X178623994Y-82005714D01*
X178623994Y-82005714D02*
X178678422Y-81896857D01*
X178678422Y-81896857D02*
X178732851Y-81842428D01*
X178732851Y-81842428D02*
X178841708Y-81787999D01*
X178841708Y-81787999D02*
X179113851Y-81787999D01*
X179113851Y-81787999D02*
X179222708Y-81842428D01*
X179222708Y-81842428D02*
X179277137Y-81896857D01*
X179277137Y-81896857D02*
X179331565Y-82005714D01*
X179331565Y-82005714D02*
X179331565Y-82277857D01*
X179331565Y-82277857D02*
X179277137Y-82386714D01*
X179277137Y-82386714D02*
X179222708Y-82441142D01*
X163134318Y-86281381D02*
X161864318Y-86281381D01*
X161864318Y-86281381D02*
X161864318Y-85797571D01*
X161864318Y-85797571D02*
X161924794Y-85676619D01*
X161924794Y-85676619D02*
X161985270Y-85616142D01*
X161985270Y-85616142D02*
X162106222Y-85555666D01*
X162106222Y-85555666D02*
X162287651Y-85555666D01*
X162287651Y-85555666D02*
X162408603Y-85616142D01*
X162408603Y-85616142D02*
X162469080Y-85676619D01*
X162469080Y-85676619D02*
X162529556Y-85797571D01*
X162529556Y-85797571D02*
X162529556Y-86281381D01*
X163134318Y-85011381D02*
X161864318Y-85011381D01*
X161864318Y-85011381D02*
X161864318Y-84709000D01*
X161864318Y-84709000D02*
X161924794Y-84527571D01*
X161924794Y-84527571D02*
X162045746Y-84406619D01*
X162045746Y-84406619D02*
X162166699Y-84346142D01*
X162166699Y-84346142D02*
X162408603Y-84285666D01*
X162408603Y-84285666D02*
X162590032Y-84285666D01*
X162590032Y-84285666D02*
X162831937Y-84346142D01*
X162831937Y-84346142D02*
X162952889Y-84406619D01*
X162952889Y-84406619D02*
X163073842Y-84527571D01*
X163073842Y-84527571D02*
X163134318Y-84709000D01*
X163134318Y-84709000D02*
X163134318Y-85011381D01*
X162287651Y-83197095D02*
X163134318Y-83197095D01*
X161803842Y-83499476D02*
X162710984Y-83801857D01*
X162710984Y-83801857D02*
X162710984Y-83015666D01*
X175575994Y-85706856D02*
X175521565Y-85815714D01*
X175521565Y-85815714D02*
X175521565Y-85978999D01*
X175521565Y-85978999D02*
X175575994Y-86142285D01*
X175575994Y-86142285D02*
X175684851Y-86251142D01*
X175684851Y-86251142D02*
X175793708Y-86305571D01*
X175793708Y-86305571D02*
X176011422Y-86359999D01*
X176011422Y-86359999D02*
X176174708Y-86359999D01*
X176174708Y-86359999D02*
X176392422Y-86305571D01*
X176392422Y-86305571D02*
X176501279Y-86251142D01*
X176501279Y-86251142D02*
X176610137Y-86142285D01*
X176610137Y-86142285D02*
X176664565Y-85978999D01*
X176664565Y-85978999D02*
X176664565Y-85870142D01*
X176664565Y-85870142D02*
X176610137Y-85706856D01*
X176610137Y-85706856D02*
X176555708Y-85652428D01*
X176555708Y-85652428D02*
X176174708Y-85652428D01*
X176174708Y-85652428D02*
X176174708Y-85870142D01*
X176664565Y-85162571D02*
X175521565Y-85162571D01*
X175521565Y-85162571D02*
X175521565Y-84727142D01*
X175521565Y-84727142D02*
X175575994Y-84618285D01*
X175575994Y-84618285D02*
X175630422Y-84563856D01*
X175630422Y-84563856D02*
X175739279Y-84509428D01*
X175739279Y-84509428D02*
X175902565Y-84509428D01*
X175902565Y-84509428D02*
X176011422Y-84563856D01*
X176011422Y-84563856D02*
X176065851Y-84618285D01*
X176065851Y-84618285D02*
X176120279Y-84727142D01*
X176120279Y-84727142D02*
X176120279Y-85162571D01*
X176664565Y-84019571D02*
X175521565Y-84019571D01*
X175521565Y-83584142D02*
X175521565Y-82876570D01*
X175521565Y-82876570D02*
X175956994Y-83257570D01*
X175956994Y-83257570D02*
X175956994Y-83094285D01*
X175956994Y-83094285D02*
X176011422Y-82985428D01*
X176011422Y-82985428D02*
X176065851Y-82930999D01*
X176065851Y-82930999D02*
X176174708Y-82876570D01*
X176174708Y-82876570D02*
X176446851Y-82876570D01*
X176446851Y-82876570D02*
X176555708Y-82930999D01*
X176555708Y-82930999D02*
X176610137Y-82985428D01*
X176610137Y-82985428D02*
X176664565Y-83094285D01*
X176664565Y-83094285D02*
X176664565Y-83420856D01*
X176664565Y-83420856D02*
X176610137Y-83529713D01*
X176610137Y-83529713D02*
X176555708Y-83584142D01*
X175521565Y-81896857D02*
X175521565Y-82114571D01*
X175521565Y-82114571D02*
X175575994Y-82223428D01*
X175575994Y-82223428D02*
X175630422Y-82277857D01*
X175630422Y-82277857D02*
X175793708Y-82386714D01*
X175793708Y-82386714D02*
X176011422Y-82441142D01*
X176011422Y-82441142D02*
X176446851Y-82441142D01*
X176446851Y-82441142D02*
X176555708Y-82386714D01*
X176555708Y-82386714D02*
X176610137Y-82332285D01*
X176610137Y-82332285D02*
X176664565Y-82223428D01*
X176664565Y-82223428D02*
X176664565Y-82005714D01*
X176664565Y-82005714D02*
X176610137Y-81896857D01*
X176610137Y-81896857D02*
X176555708Y-81842428D01*
X176555708Y-81842428D02*
X176446851Y-81787999D01*
X176446851Y-81787999D02*
X176174708Y-81787999D01*
X176174708Y-81787999D02*
X176065851Y-81842428D01*
X176065851Y-81842428D02*
X176011422Y-81896857D01*
X176011422Y-81896857D02*
X175956994Y-82005714D01*
X175956994Y-82005714D02*
X175956994Y-82223428D01*
X175956994Y-82223428D02*
X176011422Y-82332285D01*
X176011422Y-82332285D02*
X176065851Y-82386714D01*
X176065851Y-82386714D02*
X176174708Y-82441142D01*
X117353842Y-86220904D02*
X117414318Y-86039475D01*
X117414318Y-86039475D02*
X117414318Y-85737094D01*
X117414318Y-85737094D02*
X117353842Y-85616142D01*
X117353842Y-85616142D02*
X117293365Y-85555666D01*
X117293365Y-85555666D02*
X117172413Y-85495189D01*
X117172413Y-85495189D02*
X117051461Y-85495189D01*
X117051461Y-85495189D02*
X116930508Y-85555666D01*
X116930508Y-85555666D02*
X116870032Y-85616142D01*
X116870032Y-85616142D02*
X116809556Y-85737094D01*
X116809556Y-85737094D02*
X116749080Y-85978999D01*
X116749080Y-85978999D02*
X116688603Y-86099951D01*
X116688603Y-86099951D02*
X116628127Y-86160428D01*
X116628127Y-86160428D02*
X116507175Y-86220904D01*
X116507175Y-86220904D02*
X116386222Y-86220904D01*
X116386222Y-86220904D02*
X116265270Y-86160428D01*
X116265270Y-86160428D02*
X116204794Y-86099951D01*
X116204794Y-86099951D02*
X116144318Y-85978999D01*
X116144318Y-85978999D02*
X116144318Y-85676618D01*
X116144318Y-85676618D02*
X116204794Y-85495189D01*
X117414318Y-84950904D02*
X116144318Y-84950904D01*
X116144318Y-84950904D02*
X116144318Y-84648523D01*
X116144318Y-84648523D02*
X116204794Y-84467094D01*
X116204794Y-84467094D02*
X116325746Y-84346142D01*
X116325746Y-84346142D02*
X116446699Y-84285665D01*
X116446699Y-84285665D02*
X116688603Y-84225189D01*
X116688603Y-84225189D02*
X116870032Y-84225189D01*
X116870032Y-84225189D02*
X117111937Y-84285665D01*
X117111937Y-84285665D02*
X117232889Y-84346142D01*
X117232889Y-84346142D02*
X117353842Y-84467094D01*
X117353842Y-84467094D02*
X117414318Y-84648523D01*
X117414318Y-84648523D02*
X117414318Y-84950904D01*
X117051461Y-83741380D02*
X117051461Y-83136618D01*
X117414318Y-83862332D02*
X116144318Y-83438999D01*
X116144318Y-83438999D02*
X117414318Y-83015665D01*
X117414318Y-81927094D02*
X117414318Y-82652809D01*
X117414318Y-82289952D02*
X116144318Y-82289952D01*
X116144318Y-82289952D02*
X116325746Y-82410904D01*
X116325746Y-82410904D02*
X116446699Y-82531856D01*
X116446699Y-82531856D02*
X116507175Y-82652809D01*
X164464794Y-85646380D02*
X164404318Y-85767333D01*
X164404318Y-85767333D02*
X164404318Y-85948761D01*
X164404318Y-85948761D02*
X164464794Y-86130190D01*
X164464794Y-86130190D02*
X164585746Y-86251142D01*
X164585746Y-86251142D02*
X164706699Y-86311619D01*
X164706699Y-86311619D02*
X164948603Y-86372095D01*
X164948603Y-86372095D02*
X165130032Y-86372095D01*
X165130032Y-86372095D02*
X165371937Y-86311619D01*
X165371937Y-86311619D02*
X165492889Y-86251142D01*
X165492889Y-86251142D02*
X165613842Y-86130190D01*
X165613842Y-86130190D02*
X165674318Y-85948761D01*
X165674318Y-85948761D02*
X165674318Y-85827809D01*
X165674318Y-85827809D02*
X165613842Y-85646380D01*
X165613842Y-85646380D02*
X165553365Y-85585904D01*
X165553365Y-85585904D02*
X165130032Y-85585904D01*
X165130032Y-85585904D02*
X165130032Y-85827809D01*
X165674318Y-85041619D02*
X164404318Y-85041619D01*
X164404318Y-85041619D02*
X165674318Y-84315904D01*
X165674318Y-84315904D02*
X164404318Y-84315904D01*
X165674318Y-83711143D02*
X164404318Y-83711143D01*
X164404318Y-83711143D02*
X164404318Y-83408762D01*
X164404318Y-83408762D02*
X164464794Y-83227333D01*
X164464794Y-83227333D02*
X164585746Y-83106381D01*
X164585746Y-83106381D02*
X164706699Y-83045904D01*
X164706699Y-83045904D02*
X164948603Y-82985428D01*
X164948603Y-82985428D02*
X165130032Y-82985428D01*
X165130032Y-82985428D02*
X165371937Y-83045904D01*
X165371937Y-83045904D02*
X165492889Y-83106381D01*
X165492889Y-83106381D02*
X165613842Y-83227333D01*
X165613842Y-83227333D02*
X165674318Y-83408762D01*
X165674318Y-83408762D02*
X165674318Y-83711143D01*
X164827651Y-81896857D02*
X165674318Y-81896857D01*
X164343842Y-82199238D02*
X165250984Y-82501619D01*
X165250984Y-82501619D02*
X165250984Y-81715428D01*
X196784411Y-79873925D02*
X196784411Y-78173925D01*
X196784411Y-78173925D02*
X197355840Y-78173925D01*
X197355840Y-78173925D02*
X197498697Y-78254877D01*
X197498697Y-78254877D02*
X197570126Y-78335830D01*
X197570126Y-78335830D02*
X197641554Y-78497734D01*
X197641554Y-78497734D02*
X197641554Y-78740592D01*
X197641554Y-78740592D02*
X197570126Y-78902496D01*
X197570126Y-78902496D02*
X197498697Y-78983449D01*
X197498697Y-78983449D02*
X197355840Y-79064401D01*
X197355840Y-79064401D02*
X196784411Y-79064401D01*
X198284411Y-79873925D02*
X198284411Y-78173925D01*
X198284411Y-78821544D02*
X198427269Y-78740592D01*
X198427269Y-78740592D02*
X198712983Y-78740592D01*
X198712983Y-78740592D02*
X198855840Y-78821544D01*
X198855840Y-78821544D02*
X198927269Y-78902496D01*
X198927269Y-78902496D02*
X198998697Y-79064401D01*
X198998697Y-79064401D02*
X198998697Y-79550115D01*
X198998697Y-79550115D02*
X198927269Y-79712020D01*
X198927269Y-79712020D02*
X198855840Y-79792973D01*
X198855840Y-79792973D02*
X198712983Y-79873925D01*
X198712983Y-79873925D02*
X198427269Y-79873925D01*
X198427269Y-79873925D02*
X198284411Y-79792973D01*
X108646994Y-85743142D02*
X108592565Y-85852000D01*
X108592565Y-85852000D02*
X108592565Y-86015285D01*
X108592565Y-86015285D02*
X108646994Y-86178571D01*
X108646994Y-86178571D02*
X108755851Y-86287428D01*
X108755851Y-86287428D02*
X108864708Y-86341857D01*
X108864708Y-86341857D02*
X109082422Y-86396285D01*
X109082422Y-86396285D02*
X109245708Y-86396285D01*
X109245708Y-86396285D02*
X109463422Y-86341857D01*
X109463422Y-86341857D02*
X109572279Y-86287428D01*
X109572279Y-86287428D02*
X109681137Y-86178571D01*
X109681137Y-86178571D02*
X109735565Y-86015285D01*
X109735565Y-86015285D02*
X109735565Y-85906428D01*
X109735565Y-85906428D02*
X109681137Y-85743142D01*
X109681137Y-85743142D02*
X109626708Y-85688714D01*
X109626708Y-85688714D02*
X109245708Y-85688714D01*
X109245708Y-85688714D02*
X109245708Y-85906428D01*
X109735565Y-85198857D02*
X108592565Y-85198857D01*
X108592565Y-85198857D02*
X109735565Y-84545714D01*
X109735565Y-84545714D02*
X108592565Y-84545714D01*
X109735565Y-84001428D02*
X108592565Y-84001428D01*
X108592565Y-84001428D02*
X108592565Y-83729285D01*
X108592565Y-83729285D02*
X108646994Y-83565999D01*
X108646994Y-83565999D02*
X108755851Y-83457142D01*
X108755851Y-83457142D02*
X108864708Y-83402713D01*
X108864708Y-83402713D02*
X109082422Y-83348285D01*
X109082422Y-83348285D02*
X109245708Y-83348285D01*
X109245708Y-83348285D02*
X109463422Y-83402713D01*
X109463422Y-83402713D02*
X109572279Y-83457142D01*
X109572279Y-83457142D02*
X109681137Y-83565999D01*
X109681137Y-83565999D02*
X109735565Y-83729285D01*
X109735565Y-83729285D02*
X109735565Y-84001428D01*
X108701422Y-82912856D02*
X108646994Y-82858428D01*
X108646994Y-82858428D02*
X108592565Y-82749571D01*
X108592565Y-82749571D02*
X108592565Y-82477428D01*
X108592565Y-82477428D02*
X108646994Y-82368571D01*
X108646994Y-82368571D02*
X108701422Y-82314142D01*
X108701422Y-82314142D02*
X108810279Y-82259713D01*
X108810279Y-82259713D02*
X108919137Y-82259713D01*
X108919137Y-82259713D02*
X109082422Y-82314142D01*
X109082422Y-82314142D02*
X109735565Y-82967285D01*
X109735565Y-82967285D02*
X109735565Y-82259713D01*
X189864794Y-85646380D02*
X189804318Y-85767333D01*
X189804318Y-85767333D02*
X189804318Y-85948761D01*
X189804318Y-85948761D02*
X189864794Y-86130190D01*
X189864794Y-86130190D02*
X189985746Y-86251142D01*
X189985746Y-86251142D02*
X190106699Y-86311619D01*
X190106699Y-86311619D02*
X190348603Y-86372095D01*
X190348603Y-86372095D02*
X190530032Y-86372095D01*
X190530032Y-86372095D02*
X190771937Y-86311619D01*
X190771937Y-86311619D02*
X190892889Y-86251142D01*
X190892889Y-86251142D02*
X191013842Y-86130190D01*
X191013842Y-86130190D02*
X191074318Y-85948761D01*
X191074318Y-85948761D02*
X191074318Y-85827809D01*
X191074318Y-85827809D02*
X191013842Y-85646380D01*
X191013842Y-85646380D02*
X190953365Y-85585904D01*
X190953365Y-85585904D02*
X190530032Y-85585904D01*
X190530032Y-85585904D02*
X190530032Y-85827809D01*
X191074318Y-85041619D02*
X189804318Y-85041619D01*
X189804318Y-85041619D02*
X191074318Y-84315904D01*
X191074318Y-84315904D02*
X189804318Y-84315904D01*
X191074318Y-83711143D02*
X189804318Y-83711143D01*
X189804318Y-83711143D02*
X189804318Y-83408762D01*
X189804318Y-83408762D02*
X189864794Y-83227333D01*
X189864794Y-83227333D02*
X189985746Y-83106381D01*
X189985746Y-83106381D02*
X190106699Y-83045904D01*
X190106699Y-83045904D02*
X190348603Y-82985428D01*
X190348603Y-82985428D02*
X190530032Y-82985428D01*
X190530032Y-82985428D02*
X190771937Y-83045904D01*
X190771937Y-83045904D02*
X190892889Y-83106381D01*
X190892889Y-83106381D02*
X191013842Y-83227333D01*
X191013842Y-83227333D02*
X191074318Y-83408762D01*
X191074318Y-83408762D02*
X191074318Y-83711143D01*
X189804318Y-81896857D02*
X189804318Y-82138762D01*
X189804318Y-82138762D02*
X189864794Y-82259714D01*
X189864794Y-82259714D02*
X189925270Y-82320190D01*
X189925270Y-82320190D02*
X190106699Y-82441143D01*
X190106699Y-82441143D02*
X190348603Y-82501619D01*
X190348603Y-82501619D02*
X190832413Y-82501619D01*
X190832413Y-82501619D02*
X190953365Y-82441143D01*
X190953365Y-82441143D02*
X191013842Y-82380666D01*
X191013842Y-82380666D02*
X191074318Y-82259714D01*
X191074318Y-82259714D02*
X191074318Y-82017809D01*
X191074318Y-82017809D02*
X191013842Y-81896857D01*
X191013842Y-81896857D02*
X190953365Y-81836381D01*
X190953365Y-81836381D02*
X190832413Y-81775904D01*
X190832413Y-81775904D02*
X190530032Y-81775904D01*
X190530032Y-81775904D02*
X190409080Y-81836381D01*
X190409080Y-81836381D02*
X190348603Y-81896857D01*
X190348603Y-81896857D02*
X190288127Y-82017809D01*
X190288127Y-82017809D02*
X190288127Y-82259714D01*
X190288127Y-82259714D02*
X190348603Y-82380666D01*
X190348603Y-82380666D02*
X190409080Y-82441143D01*
X190409080Y-82441143D02*
X190530032Y-82501619D01*
X150434318Y-86281381D02*
X149164318Y-86281381D01*
X149164318Y-86281381D02*
X149164318Y-85797571D01*
X149164318Y-85797571D02*
X149224794Y-85676619D01*
X149224794Y-85676619D02*
X149285270Y-85616142D01*
X149285270Y-85616142D02*
X149406222Y-85555666D01*
X149406222Y-85555666D02*
X149587651Y-85555666D01*
X149587651Y-85555666D02*
X149708603Y-85616142D01*
X149708603Y-85616142D02*
X149769080Y-85676619D01*
X149769080Y-85676619D02*
X149829556Y-85797571D01*
X149829556Y-85797571D02*
X149829556Y-86281381D01*
X150313365Y-84285666D02*
X150373842Y-84346142D01*
X150373842Y-84346142D02*
X150434318Y-84527571D01*
X150434318Y-84527571D02*
X150434318Y-84648523D01*
X150434318Y-84648523D02*
X150373842Y-84829952D01*
X150373842Y-84829952D02*
X150252889Y-84950904D01*
X150252889Y-84950904D02*
X150131937Y-85011381D01*
X150131937Y-85011381D02*
X149890032Y-85071857D01*
X149890032Y-85071857D02*
X149708603Y-85071857D01*
X149708603Y-85071857D02*
X149466699Y-85011381D01*
X149466699Y-85011381D02*
X149345746Y-84950904D01*
X149345746Y-84950904D02*
X149224794Y-84829952D01*
X149224794Y-84829952D02*
X149164318Y-84648523D01*
X149164318Y-84648523D02*
X149164318Y-84527571D01*
X149164318Y-84527571D02*
X149224794Y-84346142D01*
X149224794Y-84346142D02*
X149285270Y-84285666D01*
X150434318Y-83076142D02*
X150434318Y-83801857D01*
X150434318Y-83439000D02*
X149164318Y-83439000D01*
X149164318Y-83439000D02*
X149345746Y-83559952D01*
X149345746Y-83559952D02*
X149466699Y-83680904D01*
X149466699Y-83680904D02*
X149527175Y-83801857D01*
X195006994Y-85743142D02*
X194952565Y-85852000D01*
X194952565Y-85852000D02*
X194952565Y-86015285D01*
X194952565Y-86015285D02*
X195006994Y-86178571D01*
X195006994Y-86178571D02*
X195115851Y-86287428D01*
X195115851Y-86287428D02*
X195224708Y-86341857D01*
X195224708Y-86341857D02*
X195442422Y-86396285D01*
X195442422Y-86396285D02*
X195605708Y-86396285D01*
X195605708Y-86396285D02*
X195823422Y-86341857D01*
X195823422Y-86341857D02*
X195932279Y-86287428D01*
X195932279Y-86287428D02*
X196041137Y-86178571D01*
X196041137Y-86178571D02*
X196095565Y-86015285D01*
X196095565Y-86015285D02*
X196095565Y-85906428D01*
X196095565Y-85906428D02*
X196041137Y-85743142D01*
X196041137Y-85743142D02*
X195986708Y-85688714D01*
X195986708Y-85688714D02*
X195605708Y-85688714D01*
X195605708Y-85688714D02*
X195605708Y-85906428D01*
X196095565Y-85198857D02*
X194952565Y-85198857D01*
X194952565Y-85198857D02*
X196095565Y-84545714D01*
X196095565Y-84545714D02*
X194952565Y-84545714D01*
X196095565Y-84001428D02*
X194952565Y-84001428D01*
X194952565Y-84001428D02*
X194952565Y-83729285D01*
X194952565Y-83729285D02*
X195006994Y-83565999D01*
X195006994Y-83565999D02*
X195115851Y-83457142D01*
X195115851Y-83457142D02*
X195224708Y-83402713D01*
X195224708Y-83402713D02*
X195442422Y-83348285D01*
X195442422Y-83348285D02*
X195605708Y-83348285D01*
X195605708Y-83348285D02*
X195823422Y-83402713D01*
X195823422Y-83402713D02*
X195932279Y-83457142D01*
X195932279Y-83457142D02*
X196041137Y-83565999D01*
X196041137Y-83565999D02*
X196095565Y-83729285D01*
X196095565Y-83729285D02*
X196095565Y-84001428D01*
X194952565Y-82967285D02*
X194952565Y-82205285D01*
X194952565Y-82205285D02*
X196095565Y-82695142D01*
X172400994Y-85833856D02*
X172346565Y-85942714D01*
X172346565Y-85942714D02*
X172346565Y-86105999D01*
X172346565Y-86105999D02*
X172400994Y-86269285D01*
X172400994Y-86269285D02*
X172509851Y-86378142D01*
X172509851Y-86378142D02*
X172618708Y-86432571D01*
X172618708Y-86432571D02*
X172836422Y-86486999D01*
X172836422Y-86486999D02*
X172999708Y-86486999D01*
X172999708Y-86486999D02*
X173217422Y-86432571D01*
X173217422Y-86432571D02*
X173326279Y-86378142D01*
X173326279Y-86378142D02*
X173435137Y-86269285D01*
X173435137Y-86269285D02*
X173489565Y-86105999D01*
X173489565Y-86105999D02*
X173489565Y-85997142D01*
X173489565Y-85997142D02*
X173435137Y-85833856D01*
X173435137Y-85833856D02*
X173380708Y-85779428D01*
X173380708Y-85779428D02*
X172999708Y-85779428D01*
X172999708Y-85779428D02*
X172999708Y-85997142D01*
X173489565Y-85289571D02*
X172346565Y-85289571D01*
X172346565Y-85289571D02*
X172346565Y-84854142D01*
X172346565Y-84854142D02*
X172400994Y-84745285D01*
X172400994Y-84745285D02*
X172455422Y-84690856D01*
X172455422Y-84690856D02*
X172564279Y-84636428D01*
X172564279Y-84636428D02*
X172727565Y-84636428D01*
X172727565Y-84636428D02*
X172836422Y-84690856D01*
X172836422Y-84690856D02*
X172890851Y-84745285D01*
X172890851Y-84745285D02*
X172945279Y-84854142D01*
X172945279Y-84854142D02*
X172945279Y-85289571D01*
X173489565Y-84146571D02*
X172346565Y-84146571D01*
X172346565Y-83711142D02*
X172346565Y-83003570D01*
X172346565Y-83003570D02*
X172781994Y-83384570D01*
X172781994Y-83384570D02*
X172781994Y-83221285D01*
X172781994Y-83221285D02*
X172836422Y-83112428D01*
X172836422Y-83112428D02*
X172890851Y-83057999D01*
X172890851Y-83057999D02*
X172999708Y-83003570D01*
X172999708Y-83003570D02*
X173271851Y-83003570D01*
X173271851Y-83003570D02*
X173380708Y-83057999D01*
X173380708Y-83057999D02*
X173435137Y-83112428D01*
X173435137Y-83112428D02*
X173489565Y-83221285D01*
X173489565Y-83221285D02*
X173489565Y-83547856D01*
X173489565Y-83547856D02*
X173435137Y-83656713D01*
X173435137Y-83656713D02*
X173380708Y-83711142D01*
X172346565Y-82622571D02*
X172346565Y-81860571D01*
X172346565Y-81860571D02*
X173489565Y-82350428D01*
X158054318Y-86281381D02*
X156784318Y-86281381D01*
X156784318Y-86281381D02*
X156784318Y-85797571D01*
X156784318Y-85797571D02*
X156844794Y-85676619D01*
X156844794Y-85676619D02*
X156905270Y-85616142D01*
X156905270Y-85616142D02*
X157026222Y-85555666D01*
X157026222Y-85555666D02*
X157207651Y-85555666D01*
X157207651Y-85555666D02*
X157328603Y-85616142D01*
X157328603Y-85616142D02*
X157389080Y-85676619D01*
X157389080Y-85676619D02*
X157449556Y-85797571D01*
X157449556Y-85797571D02*
X157449556Y-86281381D01*
X158054318Y-85011381D02*
X156784318Y-85011381D01*
X156784318Y-85011381D02*
X156784318Y-84709000D01*
X156784318Y-84709000D02*
X156844794Y-84527571D01*
X156844794Y-84527571D02*
X156965746Y-84406619D01*
X156965746Y-84406619D02*
X157086699Y-84346142D01*
X157086699Y-84346142D02*
X157328603Y-84285666D01*
X157328603Y-84285666D02*
X157510032Y-84285666D01*
X157510032Y-84285666D02*
X157751937Y-84346142D01*
X157751937Y-84346142D02*
X157872889Y-84406619D01*
X157872889Y-84406619D02*
X157993842Y-84527571D01*
X157993842Y-84527571D02*
X158054318Y-84709000D01*
X158054318Y-84709000D02*
X158054318Y-85011381D01*
X156784318Y-83197095D02*
X156784318Y-83439000D01*
X156784318Y-83439000D02*
X156844794Y-83559952D01*
X156844794Y-83559952D02*
X156905270Y-83620428D01*
X156905270Y-83620428D02*
X157086699Y-83741381D01*
X157086699Y-83741381D02*
X157328603Y-83801857D01*
X157328603Y-83801857D02*
X157812413Y-83801857D01*
X157812413Y-83801857D02*
X157933365Y-83741381D01*
X157933365Y-83741381D02*
X157993842Y-83680904D01*
X157993842Y-83680904D02*
X158054318Y-83559952D01*
X158054318Y-83559952D02*
X158054318Y-83318047D01*
X158054318Y-83318047D02*
X157993842Y-83197095D01*
X157993842Y-83197095D02*
X157933365Y-83136619D01*
X157933365Y-83136619D02*
X157812413Y-83076142D01*
X157812413Y-83076142D02*
X157510032Y-83076142D01*
X157510032Y-83076142D02*
X157389080Y-83136619D01*
X157389080Y-83136619D02*
X157328603Y-83197095D01*
X157328603Y-83197095D02*
X157268127Y-83318047D01*
X157268127Y-83318047D02*
X157268127Y-83559952D01*
X157268127Y-83559952D02*
X157328603Y-83680904D01*
X157328603Y-83680904D02*
X157389080Y-83741381D01*
X157389080Y-83741381D02*
X157510032Y-83801857D01*
X121242667Y-77926812D02*
X120904000Y-77443003D01*
X120662095Y-77926812D02*
X120662095Y-76910812D01*
X120662095Y-76910812D02*
X121049143Y-76910812D01*
X121049143Y-76910812D02*
X121145905Y-76959193D01*
X121145905Y-76959193D02*
X121194286Y-77007574D01*
X121194286Y-77007574D02*
X121242667Y-77104336D01*
X121242667Y-77104336D02*
X121242667Y-77249479D01*
X121242667Y-77249479D02*
X121194286Y-77346241D01*
X121194286Y-77346241D02*
X121145905Y-77394622D01*
X121145905Y-77394622D02*
X121049143Y-77443003D01*
X121049143Y-77443003D02*
X120662095Y-77443003D01*
X121629714Y-77007574D02*
X121678095Y-76959193D01*
X121678095Y-76959193D02*
X121774857Y-76910812D01*
X121774857Y-76910812D02*
X122016762Y-76910812D01*
X122016762Y-76910812D02*
X122113524Y-76959193D01*
X122113524Y-76959193D02*
X122161905Y-77007574D01*
X122161905Y-77007574D02*
X122210286Y-77104336D01*
X122210286Y-77104336D02*
X122210286Y-77201098D01*
X122210286Y-77201098D02*
X122161905Y-77346241D01*
X122161905Y-77346241D02*
X121581333Y-77926812D01*
X121581333Y-77926812D02*
X122210286Y-77926812D01*
X118744794Y-85773380D02*
X118684318Y-85894333D01*
X118684318Y-85894333D02*
X118684318Y-86075761D01*
X118684318Y-86075761D02*
X118744794Y-86257190D01*
X118744794Y-86257190D02*
X118865746Y-86378142D01*
X118865746Y-86378142D02*
X118986699Y-86438619D01*
X118986699Y-86438619D02*
X119228603Y-86499095D01*
X119228603Y-86499095D02*
X119410032Y-86499095D01*
X119410032Y-86499095D02*
X119651937Y-86438619D01*
X119651937Y-86438619D02*
X119772889Y-86378142D01*
X119772889Y-86378142D02*
X119893842Y-86257190D01*
X119893842Y-86257190D02*
X119954318Y-86075761D01*
X119954318Y-86075761D02*
X119954318Y-85954809D01*
X119954318Y-85954809D02*
X119893842Y-85773380D01*
X119893842Y-85773380D02*
X119833365Y-85712904D01*
X119833365Y-85712904D02*
X119410032Y-85712904D01*
X119410032Y-85712904D02*
X119410032Y-85954809D01*
X119954318Y-85168619D02*
X118684318Y-85168619D01*
X118684318Y-85168619D02*
X119954318Y-84442904D01*
X119954318Y-84442904D02*
X118684318Y-84442904D01*
X119954318Y-83838143D02*
X118684318Y-83838143D01*
X118684318Y-83838143D02*
X118684318Y-83535762D01*
X118684318Y-83535762D02*
X118744794Y-83354333D01*
X118744794Y-83354333D02*
X118865746Y-83233381D01*
X118865746Y-83233381D02*
X118986699Y-83172904D01*
X118986699Y-83172904D02*
X119228603Y-83112428D01*
X119228603Y-83112428D02*
X119410032Y-83112428D01*
X119410032Y-83112428D02*
X119651937Y-83172904D01*
X119651937Y-83172904D02*
X119772889Y-83233381D01*
X119772889Y-83233381D02*
X119893842Y-83354333D01*
X119893842Y-83354333D02*
X119954318Y-83535762D01*
X119954318Y-83535762D02*
X119954318Y-83838143D01*
X118684318Y-82689095D02*
X118684318Y-81902904D01*
X118684318Y-81902904D02*
X119168127Y-82326238D01*
X119168127Y-82326238D02*
X119168127Y-82144809D01*
X119168127Y-82144809D02*
X119228603Y-82023857D01*
X119228603Y-82023857D02*
X119289080Y-81963381D01*
X119289080Y-81963381D02*
X119410032Y-81902904D01*
X119410032Y-81902904D02*
X119712413Y-81902904D01*
X119712413Y-81902904D02*
X119833365Y-81963381D01*
X119833365Y-81963381D02*
X119893842Y-82023857D01*
X119893842Y-82023857D02*
X119954318Y-82144809D01*
X119954318Y-82144809D02*
X119954318Y-82507666D01*
X119954318Y-82507666D02*
X119893842Y-82628619D01*
X119893842Y-82628619D02*
X119833365Y-82689095D01*
X132908318Y-86281381D02*
X131638318Y-86281381D01*
X131638318Y-86281381D02*
X131638318Y-85797571D01*
X131638318Y-85797571D02*
X131698794Y-85676619D01*
X131698794Y-85676619D02*
X131759270Y-85616142D01*
X131759270Y-85616142D02*
X131880222Y-85555666D01*
X131880222Y-85555666D02*
X132061651Y-85555666D01*
X132061651Y-85555666D02*
X132182603Y-85616142D01*
X132182603Y-85616142D02*
X132243080Y-85676619D01*
X132243080Y-85676619D02*
X132303556Y-85797571D01*
X132303556Y-85797571D02*
X132303556Y-86281381D01*
X132243080Y-84588047D02*
X132303556Y-84406619D01*
X132303556Y-84406619D02*
X132364032Y-84346142D01*
X132364032Y-84346142D02*
X132484984Y-84285666D01*
X132484984Y-84285666D02*
X132666413Y-84285666D01*
X132666413Y-84285666D02*
X132787365Y-84346142D01*
X132787365Y-84346142D02*
X132847842Y-84406619D01*
X132847842Y-84406619D02*
X132908318Y-84527571D01*
X132908318Y-84527571D02*
X132908318Y-85011381D01*
X132908318Y-85011381D02*
X131638318Y-85011381D01*
X131638318Y-85011381D02*
X131638318Y-84588047D01*
X131638318Y-84588047D02*
X131698794Y-84467095D01*
X131698794Y-84467095D02*
X131759270Y-84406619D01*
X131759270Y-84406619D02*
X131880222Y-84346142D01*
X131880222Y-84346142D02*
X132001175Y-84346142D01*
X132001175Y-84346142D02*
X132122127Y-84406619D01*
X132122127Y-84406619D02*
X132182603Y-84467095D01*
X132182603Y-84467095D02*
X132243080Y-84588047D01*
X132243080Y-84588047D02*
X132243080Y-85011381D01*
X131759270Y-83801857D02*
X131698794Y-83741381D01*
X131698794Y-83741381D02*
X131638318Y-83620428D01*
X131638318Y-83620428D02*
X131638318Y-83318047D01*
X131638318Y-83318047D02*
X131698794Y-83197095D01*
X131698794Y-83197095D02*
X131759270Y-83136619D01*
X131759270Y-83136619D02*
X131880222Y-83076142D01*
X131880222Y-83076142D02*
X132001175Y-83076142D01*
X132001175Y-83076142D02*
X132182603Y-83136619D01*
X132182603Y-83136619D02*
X132908318Y-83862333D01*
X132908318Y-83862333D02*
X132908318Y-83076142D01*
X122494318Y-86281381D02*
X121224318Y-86281381D01*
X121224318Y-86281381D02*
X121224318Y-85797571D01*
X121224318Y-85797571D02*
X121284794Y-85676619D01*
X121284794Y-85676619D02*
X121345270Y-85616142D01*
X121345270Y-85616142D02*
X121466222Y-85555666D01*
X121466222Y-85555666D02*
X121647651Y-85555666D01*
X121647651Y-85555666D02*
X121768603Y-85616142D01*
X121768603Y-85616142D02*
X121829080Y-85676619D01*
X121829080Y-85676619D02*
X121889556Y-85797571D01*
X121889556Y-85797571D02*
X121889556Y-86281381D01*
X121829080Y-84588047D02*
X121889556Y-84406619D01*
X121889556Y-84406619D02*
X121950032Y-84346142D01*
X121950032Y-84346142D02*
X122070984Y-84285666D01*
X122070984Y-84285666D02*
X122252413Y-84285666D01*
X122252413Y-84285666D02*
X122373365Y-84346142D01*
X122373365Y-84346142D02*
X122433842Y-84406619D01*
X122433842Y-84406619D02*
X122494318Y-84527571D01*
X122494318Y-84527571D02*
X122494318Y-85011381D01*
X122494318Y-85011381D02*
X121224318Y-85011381D01*
X121224318Y-85011381D02*
X121224318Y-84588047D01*
X121224318Y-84588047D02*
X121284794Y-84467095D01*
X121284794Y-84467095D02*
X121345270Y-84406619D01*
X121345270Y-84406619D02*
X121466222Y-84346142D01*
X121466222Y-84346142D02*
X121587175Y-84346142D01*
X121587175Y-84346142D02*
X121708127Y-84406619D01*
X121708127Y-84406619D02*
X121768603Y-84467095D01*
X121768603Y-84467095D02*
X121829080Y-84588047D01*
X121829080Y-84588047D02*
X121829080Y-85011381D01*
X121224318Y-83862333D02*
X121224318Y-83015666D01*
X121224318Y-83015666D02*
X122494318Y-83559952D01*
X155514318Y-86281381D02*
X154244318Y-86281381D01*
X154244318Y-86281381D02*
X154244318Y-85797571D01*
X154244318Y-85797571D02*
X154304794Y-85676619D01*
X154304794Y-85676619D02*
X154365270Y-85616142D01*
X154365270Y-85616142D02*
X154486222Y-85555666D01*
X154486222Y-85555666D02*
X154667651Y-85555666D01*
X154667651Y-85555666D02*
X154788603Y-85616142D01*
X154788603Y-85616142D02*
X154849080Y-85676619D01*
X154849080Y-85676619D02*
X154909556Y-85797571D01*
X154909556Y-85797571D02*
X154909556Y-86281381D01*
X155514318Y-85011381D02*
X154244318Y-85011381D01*
X154244318Y-85011381D02*
X154244318Y-84709000D01*
X154244318Y-84709000D02*
X154304794Y-84527571D01*
X154304794Y-84527571D02*
X154425746Y-84406619D01*
X154425746Y-84406619D02*
X154546699Y-84346142D01*
X154546699Y-84346142D02*
X154788603Y-84285666D01*
X154788603Y-84285666D02*
X154970032Y-84285666D01*
X154970032Y-84285666D02*
X155211937Y-84346142D01*
X155211937Y-84346142D02*
X155332889Y-84406619D01*
X155332889Y-84406619D02*
X155453842Y-84527571D01*
X155453842Y-84527571D02*
X155514318Y-84709000D01*
X155514318Y-84709000D02*
X155514318Y-85011381D01*
X154244318Y-83862333D02*
X154244318Y-83015666D01*
X154244318Y-83015666D02*
X155514318Y-83559952D01*
X135194318Y-86281381D02*
X133924318Y-86281381D01*
X133924318Y-86281381D02*
X133924318Y-85797571D01*
X133924318Y-85797571D02*
X133984794Y-85676619D01*
X133984794Y-85676619D02*
X134045270Y-85616142D01*
X134045270Y-85616142D02*
X134166222Y-85555666D01*
X134166222Y-85555666D02*
X134347651Y-85555666D01*
X134347651Y-85555666D02*
X134468603Y-85616142D01*
X134468603Y-85616142D02*
X134529080Y-85676619D01*
X134529080Y-85676619D02*
X134589556Y-85797571D01*
X134589556Y-85797571D02*
X134589556Y-86281381D01*
X135073365Y-84285666D02*
X135133842Y-84346142D01*
X135133842Y-84346142D02*
X135194318Y-84527571D01*
X135194318Y-84527571D02*
X135194318Y-84648523D01*
X135194318Y-84648523D02*
X135133842Y-84829952D01*
X135133842Y-84829952D02*
X135012889Y-84950904D01*
X135012889Y-84950904D02*
X134891937Y-85011381D01*
X134891937Y-85011381D02*
X134650032Y-85071857D01*
X134650032Y-85071857D02*
X134468603Y-85071857D01*
X134468603Y-85071857D02*
X134226699Y-85011381D01*
X134226699Y-85011381D02*
X134105746Y-84950904D01*
X134105746Y-84950904D02*
X133984794Y-84829952D01*
X133984794Y-84829952D02*
X133924318Y-84648523D01*
X133924318Y-84648523D02*
X133924318Y-84527571D01*
X133924318Y-84527571D02*
X133984794Y-84346142D01*
X133984794Y-84346142D02*
X134045270Y-84285666D01*
X133924318Y-83862333D02*
X133924318Y-83015666D01*
X133924318Y-83015666D02*
X135194318Y-83559952D01*
X192344318Y-86384189D02*
X193614318Y-85960856D01*
X193614318Y-85960856D02*
X192344318Y-85537522D01*
X192949080Y-84690856D02*
X193009556Y-84509428D01*
X193009556Y-84509428D02*
X193070032Y-84448951D01*
X193070032Y-84448951D02*
X193190984Y-84388475D01*
X193190984Y-84388475D02*
X193372413Y-84388475D01*
X193372413Y-84388475D02*
X193493365Y-84448951D01*
X193493365Y-84448951D02*
X193553842Y-84509428D01*
X193553842Y-84509428D02*
X193614318Y-84630380D01*
X193614318Y-84630380D02*
X193614318Y-85114190D01*
X193614318Y-85114190D02*
X192344318Y-85114190D01*
X192344318Y-85114190D02*
X192344318Y-84690856D01*
X192344318Y-84690856D02*
X192404794Y-84569904D01*
X192404794Y-84569904D02*
X192465270Y-84509428D01*
X192465270Y-84509428D02*
X192586222Y-84448951D01*
X192586222Y-84448951D02*
X192707175Y-84448951D01*
X192707175Y-84448951D02*
X192828127Y-84509428D01*
X192828127Y-84509428D02*
X192888603Y-84569904D01*
X192888603Y-84569904D02*
X192949080Y-84690856D01*
X192949080Y-84690856D02*
X192949080Y-85114190D01*
X193251461Y-83904666D02*
X193251461Y-83299904D01*
X193614318Y-84025618D02*
X192344318Y-83602285D01*
X192344318Y-83602285D02*
X193614318Y-83178951D01*
X192344318Y-82937047D02*
X192344318Y-82211333D01*
X193614318Y-82574190D02*
X192344318Y-82574190D01*
X193614318Y-81122761D02*
X193614318Y-81848476D01*
X193614318Y-81485619D02*
X192344318Y-81485619D01*
X192344318Y-81485619D02*
X192525746Y-81606571D01*
X192525746Y-81606571D02*
X192646699Y-81727523D01*
X192646699Y-81727523D02*
X192707175Y-81848476D01*
X187332565Y-86332784D02*
X188475565Y-85951784D01*
X188475565Y-85951784D02*
X187332565Y-85570784D01*
X187332565Y-85189785D02*
X188257851Y-85189785D01*
X188257851Y-85189785D02*
X188366708Y-85135356D01*
X188366708Y-85135356D02*
X188421137Y-85080928D01*
X188421137Y-85080928D02*
X188475565Y-84972070D01*
X188475565Y-84972070D02*
X188475565Y-84754356D01*
X188475565Y-84754356D02*
X188421137Y-84645499D01*
X188421137Y-84645499D02*
X188366708Y-84591070D01*
X188366708Y-84591070D02*
X188257851Y-84536642D01*
X188257851Y-84536642D02*
X187332565Y-84536642D01*
X188421137Y-84046784D02*
X188475565Y-83883499D01*
X188475565Y-83883499D02*
X188475565Y-83611356D01*
X188475565Y-83611356D02*
X188421137Y-83502499D01*
X188421137Y-83502499D02*
X188366708Y-83448070D01*
X188366708Y-83448070D02*
X188257851Y-83393641D01*
X188257851Y-83393641D02*
X188148994Y-83393641D01*
X188148994Y-83393641D02*
X188040137Y-83448070D01*
X188040137Y-83448070D02*
X187985708Y-83502499D01*
X187985708Y-83502499D02*
X187931279Y-83611356D01*
X187931279Y-83611356D02*
X187876851Y-83829070D01*
X187876851Y-83829070D02*
X187822422Y-83937927D01*
X187822422Y-83937927D02*
X187767994Y-83992356D01*
X187767994Y-83992356D02*
X187659137Y-84046784D01*
X187659137Y-84046784D02*
X187550279Y-84046784D01*
X187550279Y-84046784D02*
X187441422Y-83992356D01*
X187441422Y-83992356D02*
X187386994Y-83937927D01*
X187386994Y-83937927D02*
X187332565Y-83829070D01*
X187332565Y-83829070D02*
X187332565Y-83556927D01*
X187332565Y-83556927D02*
X187386994Y-83393641D01*
X187876851Y-82522785D02*
X187931279Y-82359499D01*
X187931279Y-82359499D02*
X187985708Y-82305070D01*
X187985708Y-82305070D02*
X188094565Y-82250642D01*
X188094565Y-82250642D02*
X188257851Y-82250642D01*
X188257851Y-82250642D02*
X188366708Y-82305070D01*
X188366708Y-82305070D02*
X188421137Y-82359499D01*
X188421137Y-82359499D02*
X188475565Y-82468356D01*
X188475565Y-82468356D02*
X188475565Y-82903785D01*
X188475565Y-82903785D02*
X187332565Y-82903785D01*
X187332565Y-82903785D02*
X187332565Y-82522785D01*
X187332565Y-82522785D02*
X187386994Y-82413928D01*
X187386994Y-82413928D02*
X187441422Y-82359499D01*
X187441422Y-82359499D02*
X187550279Y-82305070D01*
X187550279Y-82305070D02*
X187659137Y-82305070D01*
X187659137Y-82305070D02*
X187767994Y-82359499D01*
X187767994Y-82359499D02*
X187822422Y-82413928D01*
X187822422Y-82413928D02*
X187876851Y-82522785D01*
X187876851Y-82522785D02*
X187876851Y-82903785D01*
X188475565Y-81162070D02*
X188475565Y-81815213D01*
X188475565Y-81488642D02*
X187332565Y-81488642D01*
X187332565Y-81488642D02*
X187495851Y-81597499D01*
X187495851Y-81597499D02*
X187604708Y-81706356D01*
X187604708Y-81706356D02*
X187659137Y-81815213D01*
X100972565Y-86305570D02*
X100972565Y-85597998D01*
X100972565Y-85597998D02*
X101407994Y-85978998D01*
X101407994Y-85978998D02*
X101407994Y-85815713D01*
X101407994Y-85815713D02*
X101462422Y-85706856D01*
X101462422Y-85706856D02*
X101516851Y-85652427D01*
X101516851Y-85652427D02*
X101625708Y-85597998D01*
X101625708Y-85597998D02*
X101897851Y-85597998D01*
X101897851Y-85597998D02*
X102006708Y-85652427D01*
X102006708Y-85652427D02*
X102061137Y-85706856D01*
X102061137Y-85706856D02*
X102115565Y-85815713D01*
X102115565Y-85815713D02*
X102115565Y-86142284D01*
X102115565Y-86142284D02*
X102061137Y-86251141D01*
X102061137Y-86251141D02*
X102006708Y-86305570D01*
X102006708Y-85108142D02*
X102061137Y-85053713D01*
X102061137Y-85053713D02*
X102115565Y-85108142D01*
X102115565Y-85108142D02*
X102061137Y-85162570D01*
X102061137Y-85162570D02*
X102006708Y-85108142D01*
X102006708Y-85108142D02*
X102115565Y-85108142D01*
X100972565Y-84672713D02*
X100972565Y-83965141D01*
X100972565Y-83965141D02*
X101407994Y-84346141D01*
X101407994Y-84346141D02*
X101407994Y-84182856D01*
X101407994Y-84182856D02*
X101462422Y-84073999D01*
X101462422Y-84073999D02*
X101516851Y-84019570D01*
X101516851Y-84019570D02*
X101625708Y-83965141D01*
X101625708Y-83965141D02*
X101897851Y-83965141D01*
X101897851Y-83965141D02*
X102006708Y-84019570D01*
X102006708Y-84019570D02*
X102061137Y-84073999D01*
X102061137Y-84073999D02*
X102115565Y-84182856D01*
X102115565Y-84182856D02*
X102115565Y-84509427D01*
X102115565Y-84509427D02*
X102061137Y-84618284D01*
X102061137Y-84618284D02*
X102006708Y-84672713D01*
X100972565Y-83638570D02*
X102115565Y-83257570D01*
X102115565Y-83257570D02*
X100972565Y-82876570D01*
X102115565Y-81896856D02*
X102115565Y-82549999D01*
X102115565Y-82223428D02*
X100972565Y-82223428D01*
X100972565Y-82223428D02*
X101135851Y-82332285D01*
X101135851Y-82332285D02*
X101244708Y-82441142D01*
X101244708Y-82441142D02*
X101299137Y-82549999D01*
X152974318Y-86281381D02*
X151704318Y-86281381D01*
X151704318Y-86281381D02*
X151704318Y-85797571D01*
X151704318Y-85797571D02*
X151764794Y-85676619D01*
X151764794Y-85676619D02*
X151825270Y-85616142D01*
X151825270Y-85616142D02*
X151946222Y-85555666D01*
X151946222Y-85555666D02*
X152127651Y-85555666D01*
X152127651Y-85555666D02*
X152248603Y-85616142D01*
X152248603Y-85616142D02*
X152309080Y-85676619D01*
X152309080Y-85676619D02*
X152369556Y-85797571D01*
X152369556Y-85797571D02*
X152369556Y-86281381D01*
X152853365Y-84285666D02*
X152913842Y-84346142D01*
X152913842Y-84346142D02*
X152974318Y-84527571D01*
X152974318Y-84527571D02*
X152974318Y-84648523D01*
X152974318Y-84648523D02*
X152913842Y-84829952D01*
X152913842Y-84829952D02*
X152792889Y-84950904D01*
X152792889Y-84950904D02*
X152671937Y-85011381D01*
X152671937Y-85011381D02*
X152430032Y-85071857D01*
X152430032Y-85071857D02*
X152248603Y-85071857D01*
X152248603Y-85071857D02*
X152006699Y-85011381D01*
X152006699Y-85011381D02*
X151885746Y-84950904D01*
X151885746Y-84950904D02*
X151764794Y-84829952D01*
X151764794Y-84829952D02*
X151704318Y-84648523D01*
X151704318Y-84648523D02*
X151704318Y-84527571D01*
X151704318Y-84527571D02*
X151764794Y-84346142D01*
X151764794Y-84346142D02*
X151825270Y-84285666D01*
X151704318Y-83499476D02*
X151704318Y-83378523D01*
X151704318Y-83378523D02*
X151764794Y-83257571D01*
X151764794Y-83257571D02*
X151825270Y-83197095D01*
X151825270Y-83197095D02*
X151946222Y-83136619D01*
X151946222Y-83136619D02*
X152188127Y-83076142D01*
X152188127Y-83076142D02*
X152490508Y-83076142D01*
X152490508Y-83076142D02*
X152732413Y-83136619D01*
X152732413Y-83136619D02*
X152853365Y-83197095D01*
X152853365Y-83197095D02*
X152913842Y-83257571D01*
X152913842Y-83257571D02*
X152974318Y-83378523D01*
X152974318Y-83378523D02*
X152974318Y-83499476D01*
X152974318Y-83499476D02*
X152913842Y-83620428D01*
X152913842Y-83620428D02*
X152853365Y-83680904D01*
X152853365Y-83680904D02*
X152732413Y-83741381D01*
X152732413Y-83741381D02*
X152490508Y-83801857D01*
X152490508Y-83801857D02*
X152188127Y-83801857D01*
X152188127Y-83801857D02*
X151946222Y-83741381D01*
X151946222Y-83741381D02*
X151825270Y-83680904D01*
X151825270Y-83680904D02*
X151764794Y-83620428D01*
X151764794Y-83620428D02*
X151704318Y-83499476D01*
X111132565Y-86305570D02*
X111132565Y-85597998D01*
X111132565Y-85597998D02*
X111567994Y-85978998D01*
X111567994Y-85978998D02*
X111567994Y-85815713D01*
X111567994Y-85815713D02*
X111622422Y-85706856D01*
X111622422Y-85706856D02*
X111676851Y-85652427D01*
X111676851Y-85652427D02*
X111785708Y-85597998D01*
X111785708Y-85597998D02*
X112057851Y-85597998D01*
X112057851Y-85597998D02*
X112166708Y-85652427D01*
X112166708Y-85652427D02*
X112221137Y-85706856D01*
X112221137Y-85706856D02*
X112275565Y-85815713D01*
X112275565Y-85815713D02*
X112275565Y-86142284D01*
X112275565Y-86142284D02*
X112221137Y-86251141D01*
X112221137Y-86251141D02*
X112166708Y-86305570D01*
X112166708Y-85108142D02*
X112221137Y-85053713D01*
X112221137Y-85053713D02*
X112275565Y-85108142D01*
X112275565Y-85108142D02*
X112221137Y-85162570D01*
X112221137Y-85162570D02*
X112166708Y-85108142D01*
X112166708Y-85108142D02*
X112275565Y-85108142D01*
X111132565Y-84672713D02*
X111132565Y-83965141D01*
X111132565Y-83965141D02*
X111567994Y-84346141D01*
X111567994Y-84346141D02*
X111567994Y-84182856D01*
X111567994Y-84182856D02*
X111622422Y-84073999D01*
X111622422Y-84073999D02*
X111676851Y-84019570D01*
X111676851Y-84019570D02*
X111785708Y-83965141D01*
X111785708Y-83965141D02*
X112057851Y-83965141D01*
X112057851Y-83965141D02*
X112166708Y-84019570D01*
X112166708Y-84019570D02*
X112221137Y-84073999D01*
X112221137Y-84073999D02*
X112275565Y-84182856D01*
X112275565Y-84182856D02*
X112275565Y-84509427D01*
X112275565Y-84509427D02*
X112221137Y-84618284D01*
X112221137Y-84618284D02*
X112166708Y-84672713D01*
X111132565Y-83638570D02*
X112275565Y-83257570D01*
X112275565Y-83257570D02*
X111132565Y-82876570D01*
X111241422Y-82549999D02*
X111186994Y-82495571D01*
X111186994Y-82495571D02*
X111132565Y-82386714D01*
X111132565Y-82386714D02*
X111132565Y-82114571D01*
X111132565Y-82114571D02*
X111186994Y-82005714D01*
X111186994Y-82005714D02*
X111241422Y-81951285D01*
X111241422Y-81951285D02*
X111350279Y-81896856D01*
X111350279Y-81896856D02*
X111459137Y-81896856D01*
X111459137Y-81896856D02*
X111622422Y-81951285D01*
X111622422Y-81951285D02*
X112275565Y-82604428D01*
X112275565Y-82604428D02*
X112275565Y-81896856D01*
X137734318Y-86281381D02*
X136464318Y-86281381D01*
X136464318Y-86281381D02*
X136464318Y-85797571D01*
X136464318Y-85797571D02*
X136524794Y-85676619D01*
X136524794Y-85676619D02*
X136585270Y-85616142D01*
X136585270Y-85616142D02*
X136706222Y-85555666D01*
X136706222Y-85555666D02*
X136887651Y-85555666D01*
X136887651Y-85555666D02*
X137008603Y-85616142D01*
X137008603Y-85616142D02*
X137069080Y-85676619D01*
X137069080Y-85676619D02*
X137129556Y-85797571D01*
X137129556Y-85797571D02*
X137129556Y-86281381D01*
X137613365Y-84285666D02*
X137673842Y-84346142D01*
X137673842Y-84346142D02*
X137734318Y-84527571D01*
X137734318Y-84527571D02*
X137734318Y-84648523D01*
X137734318Y-84648523D02*
X137673842Y-84829952D01*
X137673842Y-84829952D02*
X137552889Y-84950904D01*
X137552889Y-84950904D02*
X137431937Y-85011381D01*
X137431937Y-85011381D02*
X137190032Y-85071857D01*
X137190032Y-85071857D02*
X137008603Y-85071857D01*
X137008603Y-85071857D02*
X136766699Y-85011381D01*
X136766699Y-85011381D02*
X136645746Y-84950904D01*
X136645746Y-84950904D02*
X136524794Y-84829952D01*
X136524794Y-84829952D02*
X136464318Y-84648523D01*
X136464318Y-84648523D02*
X136464318Y-84527571D01*
X136464318Y-84527571D02*
X136524794Y-84346142D01*
X136524794Y-84346142D02*
X136585270Y-84285666D01*
X136464318Y-83197095D02*
X136464318Y-83439000D01*
X136464318Y-83439000D02*
X136524794Y-83559952D01*
X136524794Y-83559952D02*
X136585270Y-83620428D01*
X136585270Y-83620428D02*
X136766699Y-83741381D01*
X136766699Y-83741381D02*
X137008603Y-83801857D01*
X137008603Y-83801857D02*
X137492413Y-83801857D01*
X137492413Y-83801857D02*
X137613365Y-83741381D01*
X137613365Y-83741381D02*
X137673842Y-83680904D01*
X137673842Y-83680904D02*
X137734318Y-83559952D01*
X137734318Y-83559952D02*
X137734318Y-83318047D01*
X137734318Y-83318047D02*
X137673842Y-83197095D01*
X137673842Y-83197095D02*
X137613365Y-83136619D01*
X137613365Y-83136619D02*
X137492413Y-83076142D01*
X137492413Y-83076142D02*
X137190032Y-83076142D01*
X137190032Y-83076142D02*
X137069080Y-83136619D01*
X137069080Y-83136619D02*
X137008603Y-83197095D01*
X137008603Y-83197095D02*
X136948127Y-83318047D01*
X136948127Y-83318047D02*
X136948127Y-83559952D01*
X136948127Y-83559952D02*
X137008603Y-83680904D01*
X137008603Y-83680904D02*
X137069080Y-83741381D01*
X137069080Y-83741381D02*
X137190032Y-83801857D01*
X143491857Y-70546994D02*
X143383000Y-70492565D01*
X143383000Y-70492565D02*
X143219714Y-70492565D01*
X143219714Y-70492565D02*
X143056428Y-70546994D01*
X143056428Y-70546994D02*
X142947571Y-70655851D01*
X142947571Y-70655851D02*
X142893142Y-70764708D01*
X142893142Y-70764708D02*
X142838714Y-70982422D01*
X142838714Y-70982422D02*
X142838714Y-71145708D01*
X142838714Y-71145708D02*
X142893142Y-71363422D01*
X142893142Y-71363422D02*
X142947571Y-71472279D01*
X142947571Y-71472279D02*
X143056428Y-71581137D01*
X143056428Y-71581137D02*
X143219714Y-71635565D01*
X143219714Y-71635565D02*
X143328571Y-71635565D01*
X143328571Y-71635565D02*
X143491857Y-71581137D01*
X143491857Y-71581137D02*
X143546285Y-71526708D01*
X143546285Y-71526708D02*
X143546285Y-71145708D01*
X143546285Y-71145708D02*
X143328571Y-71145708D01*
X144036142Y-71635565D02*
X144036142Y-70492565D01*
X144036142Y-70492565D02*
X144471571Y-70492565D01*
X144471571Y-70492565D02*
X144580428Y-70546994D01*
X144580428Y-70546994D02*
X144634857Y-70601422D01*
X144634857Y-70601422D02*
X144689285Y-70710279D01*
X144689285Y-70710279D02*
X144689285Y-70873565D01*
X144689285Y-70873565D02*
X144634857Y-70982422D01*
X144634857Y-70982422D02*
X144580428Y-71036851D01*
X144580428Y-71036851D02*
X144471571Y-71091279D01*
X144471571Y-71091279D02*
X144036142Y-71091279D01*
X145179142Y-71635565D02*
X145179142Y-70492565D01*
X145941143Y-70492565D02*
X146158857Y-70492565D01*
X146158857Y-70492565D02*
X146267714Y-70546994D01*
X146267714Y-70546994D02*
X146376571Y-70655851D01*
X146376571Y-70655851D02*
X146431000Y-70873565D01*
X146431000Y-70873565D02*
X146431000Y-71254565D01*
X146431000Y-71254565D02*
X146376571Y-71472279D01*
X146376571Y-71472279D02*
X146267714Y-71581137D01*
X146267714Y-71581137D02*
X146158857Y-71635565D01*
X146158857Y-71635565D02*
X145941143Y-71635565D01*
X145941143Y-71635565D02*
X145832286Y-71581137D01*
X145832286Y-71581137D02*
X145723428Y-71472279D01*
X145723428Y-71472279D02*
X145669000Y-71254565D01*
X145669000Y-71254565D02*
X145669000Y-70873565D01*
X145669000Y-70873565D02*
X145723428Y-70655851D01*
X145723428Y-70655851D02*
X145832286Y-70546994D01*
X145832286Y-70546994D02*
X145941143Y-70492565D01*
X147519572Y-71635565D02*
X146866429Y-71635565D01*
X147193000Y-71635565D02*
X147193000Y-70492565D01*
X147193000Y-70492565D02*
X147084143Y-70655851D01*
X147084143Y-70655851D02*
X146975286Y-70764708D01*
X146975286Y-70764708D02*
X146866429Y-70819137D01*
X148009428Y-71200137D02*
X148880286Y-71200137D01*
X150023286Y-71635565D02*
X149370143Y-71635565D01*
X149696714Y-71635565D02*
X149696714Y-70492565D01*
X149696714Y-70492565D02*
X149587857Y-70655851D01*
X149587857Y-70655851D02*
X149479000Y-70764708D01*
X149479000Y-70764708D02*
X149370143Y-70819137D01*
D13*
X194959799Y-73072679D02*
X194088942Y-73072679D01*
X194524371Y-73072679D02*
X194524371Y-71548679D01*
X194524371Y-71548679D02*
X194379228Y-71766393D01*
X194379228Y-71766393D02*
X194234085Y-71911536D01*
X194234085Y-71911536D02*
X194088942Y-71984108D01*
D11*
X160594318Y-86281381D02*
X159324318Y-86281381D01*
X159324318Y-86281381D02*
X159324318Y-85797571D01*
X159324318Y-85797571D02*
X159384794Y-85676619D01*
X159384794Y-85676619D02*
X159445270Y-85616142D01*
X159445270Y-85616142D02*
X159566222Y-85555666D01*
X159566222Y-85555666D02*
X159747651Y-85555666D01*
X159747651Y-85555666D02*
X159868603Y-85616142D01*
X159868603Y-85616142D02*
X159929080Y-85676619D01*
X159929080Y-85676619D02*
X159989556Y-85797571D01*
X159989556Y-85797571D02*
X159989556Y-86281381D01*
X160594318Y-85011381D02*
X159324318Y-85011381D01*
X159324318Y-85011381D02*
X159324318Y-84709000D01*
X159324318Y-84709000D02*
X159384794Y-84527571D01*
X159384794Y-84527571D02*
X159505746Y-84406619D01*
X159505746Y-84406619D02*
X159626699Y-84346142D01*
X159626699Y-84346142D02*
X159868603Y-84285666D01*
X159868603Y-84285666D02*
X160050032Y-84285666D01*
X160050032Y-84285666D02*
X160291937Y-84346142D01*
X160291937Y-84346142D02*
X160412889Y-84406619D01*
X160412889Y-84406619D02*
X160533842Y-84527571D01*
X160533842Y-84527571D02*
X160594318Y-84709000D01*
X160594318Y-84709000D02*
X160594318Y-85011381D01*
X159324318Y-83136619D02*
X159324318Y-83741381D01*
X159324318Y-83741381D02*
X159929080Y-83801857D01*
X159929080Y-83801857D02*
X159868603Y-83741381D01*
X159868603Y-83741381D02*
X159808127Y-83620428D01*
X159808127Y-83620428D02*
X159808127Y-83318047D01*
X159808127Y-83318047D02*
X159868603Y-83197095D01*
X159868603Y-83197095D02*
X159929080Y-83136619D01*
X159929080Y-83136619D02*
X160050032Y-83076142D01*
X160050032Y-83076142D02*
X160352413Y-83076142D01*
X160352413Y-83076142D02*
X160473365Y-83136619D01*
X160473365Y-83136619D02*
X160533842Y-83197095D01*
X160533842Y-83197095D02*
X160594318Y-83318047D01*
X160594318Y-83318047D02*
X160594318Y-83620428D01*
X160594318Y-83620428D02*
X160533842Y-83741381D01*
X160533842Y-83741381D02*
X160473365Y-83801857D01*
X130114318Y-86281381D02*
X128844318Y-86281381D01*
X128844318Y-86281381D02*
X128844318Y-85797571D01*
X128844318Y-85797571D02*
X128904794Y-85676619D01*
X128904794Y-85676619D02*
X128965270Y-85616142D01*
X128965270Y-85616142D02*
X129086222Y-85555666D01*
X129086222Y-85555666D02*
X129267651Y-85555666D01*
X129267651Y-85555666D02*
X129388603Y-85616142D01*
X129388603Y-85616142D02*
X129449080Y-85676619D01*
X129449080Y-85676619D02*
X129509556Y-85797571D01*
X129509556Y-85797571D02*
X129509556Y-86281381D01*
X129449080Y-84588047D02*
X129509556Y-84406619D01*
X129509556Y-84406619D02*
X129570032Y-84346142D01*
X129570032Y-84346142D02*
X129690984Y-84285666D01*
X129690984Y-84285666D02*
X129872413Y-84285666D01*
X129872413Y-84285666D02*
X129993365Y-84346142D01*
X129993365Y-84346142D02*
X130053842Y-84406619D01*
X130053842Y-84406619D02*
X130114318Y-84527571D01*
X130114318Y-84527571D02*
X130114318Y-85011381D01*
X130114318Y-85011381D02*
X128844318Y-85011381D01*
X128844318Y-85011381D02*
X128844318Y-84588047D01*
X128844318Y-84588047D02*
X128904794Y-84467095D01*
X128904794Y-84467095D02*
X128965270Y-84406619D01*
X128965270Y-84406619D02*
X129086222Y-84346142D01*
X129086222Y-84346142D02*
X129207175Y-84346142D01*
X129207175Y-84346142D02*
X129328127Y-84406619D01*
X129328127Y-84406619D02*
X129388603Y-84467095D01*
X129388603Y-84467095D02*
X129449080Y-84588047D01*
X129449080Y-84588047D02*
X129449080Y-85011381D01*
X128844318Y-83862333D02*
X128844318Y-83076142D01*
X128844318Y-83076142D02*
X129328127Y-83499476D01*
X129328127Y-83499476D02*
X129328127Y-83318047D01*
X129328127Y-83318047D02*
X129388603Y-83197095D01*
X129388603Y-83197095D02*
X129449080Y-83136619D01*
X129449080Y-83136619D02*
X129570032Y-83076142D01*
X129570032Y-83076142D02*
X129872413Y-83076142D01*
X129872413Y-83076142D02*
X129993365Y-83136619D01*
X129993365Y-83136619D02*
X130053842Y-83197095D01*
X130053842Y-83197095D02*
X130114318Y-83318047D01*
X130114318Y-83318047D02*
X130114318Y-83680904D01*
X130114318Y-83680904D02*
X130053842Y-83801857D01*
X130053842Y-83801857D02*
X129993365Y-83862333D01*
X182877193Y-85803618D02*
X182828812Y-85900380D01*
X182828812Y-85900380D02*
X182828812Y-86045523D01*
X182828812Y-86045523D02*
X182877193Y-86190666D01*
X182877193Y-86190666D02*
X182973955Y-86287428D01*
X182973955Y-86287428D02*
X183070717Y-86335809D01*
X183070717Y-86335809D02*
X183264241Y-86384190D01*
X183264241Y-86384190D02*
X183409384Y-86384190D01*
X183409384Y-86384190D02*
X183602908Y-86335809D01*
X183602908Y-86335809D02*
X183699670Y-86287428D01*
X183699670Y-86287428D02*
X183796432Y-86190666D01*
X183796432Y-86190666D02*
X183844812Y-86045523D01*
X183844812Y-86045523D02*
X183844812Y-85948761D01*
X183844812Y-85948761D02*
X183796432Y-85803618D01*
X183796432Y-85803618D02*
X183748051Y-85755237D01*
X183748051Y-85755237D02*
X183409384Y-85755237D01*
X183409384Y-85755237D02*
X183409384Y-85948761D01*
X183844812Y-85319809D02*
X182828812Y-85319809D01*
X182828812Y-85319809D02*
X182828812Y-84932761D01*
X182828812Y-84932761D02*
X182877193Y-84835999D01*
X182877193Y-84835999D02*
X182925574Y-84787618D01*
X182925574Y-84787618D02*
X183022336Y-84739237D01*
X183022336Y-84739237D02*
X183167479Y-84739237D01*
X183167479Y-84739237D02*
X183264241Y-84787618D01*
X183264241Y-84787618D02*
X183312622Y-84835999D01*
X183312622Y-84835999D02*
X183361003Y-84932761D01*
X183361003Y-84932761D02*
X183361003Y-85319809D01*
X183844812Y-84303809D02*
X182828812Y-84303809D01*
X182828812Y-83626475D02*
X182828812Y-83432951D01*
X182828812Y-83432951D02*
X182877193Y-83336189D01*
X182877193Y-83336189D02*
X182973955Y-83239427D01*
X182973955Y-83239427D02*
X183167479Y-83191046D01*
X183167479Y-83191046D02*
X183506146Y-83191046D01*
X183506146Y-83191046D02*
X183699670Y-83239427D01*
X183699670Y-83239427D02*
X183796432Y-83336189D01*
X183796432Y-83336189D02*
X183844812Y-83432951D01*
X183844812Y-83432951D02*
X183844812Y-83626475D01*
X183844812Y-83626475D02*
X183796432Y-83723237D01*
X183796432Y-83723237D02*
X183699670Y-83819999D01*
X183699670Y-83819999D02*
X183506146Y-83868380D01*
X183506146Y-83868380D02*
X183167479Y-83868380D01*
X183167479Y-83868380D02*
X182973955Y-83819999D01*
X182973955Y-83819999D02*
X182877193Y-83723237D01*
X182877193Y-83723237D02*
X182828812Y-83626475D01*
X182925574Y-82803999D02*
X182877193Y-82755618D01*
X182877193Y-82755618D02*
X182828812Y-82658856D01*
X182828812Y-82658856D02*
X182828812Y-82416951D01*
X182828812Y-82416951D02*
X182877193Y-82320189D01*
X182877193Y-82320189D02*
X182925574Y-82271808D01*
X182925574Y-82271808D02*
X183022336Y-82223427D01*
X183022336Y-82223427D02*
X183119098Y-82223427D01*
X183119098Y-82223427D02*
X183264241Y-82271808D01*
X183264241Y-82271808D02*
X183844812Y-82852380D01*
X183844812Y-82852380D02*
X183844812Y-82223427D01*
X182828812Y-81352570D02*
X182828812Y-81546094D01*
X182828812Y-81546094D02*
X182877193Y-81642856D01*
X182877193Y-81642856D02*
X182925574Y-81691237D01*
X182925574Y-81691237D02*
X183070717Y-81787999D01*
X183070717Y-81787999D02*
X183264241Y-81836380D01*
X183264241Y-81836380D02*
X183651289Y-81836380D01*
X183651289Y-81836380D02*
X183748051Y-81787999D01*
X183748051Y-81787999D02*
X183796432Y-81739618D01*
X183796432Y-81739618D02*
X183844812Y-81642856D01*
X183844812Y-81642856D02*
X183844812Y-81449332D01*
X183844812Y-81449332D02*
X183796432Y-81352570D01*
X183796432Y-81352570D02*
X183748051Y-81304189D01*
X183748051Y-81304189D02*
X183651289Y-81255808D01*
X183651289Y-81255808D02*
X183409384Y-81255808D01*
X183409384Y-81255808D02*
X183312622Y-81304189D01*
X183312622Y-81304189D02*
X183264241Y-81352570D01*
X183264241Y-81352570D02*
X183215860Y-81449332D01*
X183215860Y-81449332D02*
X183215860Y-81642856D01*
X183215860Y-81642856D02*
X183264241Y-81739618D01*
X183264241Y-81739618D02*
X183312622Y-81787999D01*
X183312622Y-81787999D02*
X183409384Y-81836380D01*
X147894318Y-86281381D02*
X146624318Y-86281381D01*
X146624318Y-86281381D02*
X146624318Y-85797571D01*
X146624318Y-85797571D02*
X146684794Y-85676619D01*
X146684794Y-85676619D02*
X146745270Y-85616142D01*
X146745270Y-85616142D02*
X146866222Y-85555666D01*
X146866222Y-85555666D02*
X147047651Y-85555666D01*
X147047651Y-85555666D02*
X147168603Y-85616142D01*
X147168603Y-85616142D02*
X147229080Y-85676619D01*
X147229080Y-85676619D02*
X147289556Y-85797571D01*
X147289556Y-85797571D02*
X147289556Y-86281381D01*
X147773365Y-84285666D02*
X147833842Y-84346142D01*
X147833842Y-84346142D02*
X147894318Y-84527571D01*
X147894318Y-84527571D02*
X147894318Y-84648523D01*
X147894318Y-84648523D02*
X147833842Y-84829952D01*
X147833842Y-84829952D02*
X147712889Y-84950904D01*
X147712889Y-84950904D02*
X147591937Y-85011381D01*
X147591937Y-85011381D02*
X147350032Y-85071857D01*
X147350032Y-85071857D02*
X147168603Y-85071857D01*
X147168603Y-85071857D02*
X146926699Y-85011381D01*
X146926699Y-85011381D02*
X146805746Y-84950904D01*
X146805746Y-84950904D02*
X146684794Y-84829952D01*
X146684794Y-84829952D02*
X146624318Y-84648523D01*
X146624318Y-84648523D02*
X146624318Y-84527571D01*
X146624318Y-84527571D02*
X146684794Y-84346142D01*
X146684794Y-84346142D02*
X146745270Y-84285666D01*
X146745270Y-83801857D02*
X146684794Y-83741381D01*
X146684794Y-83741381D02*
X146624318Y-83620428D01*
X146624318Y-83620428D02*
X146624318Y-83318047D01*
X146624318Y-83318047D02*
X146684794Y-83197095D01*
X146684794Y-83197095D02*
X146745270Y-83136619D01*
X146745270Y-83136619D02*
X146866222Y-83076142D01*
X146866222Y-83076142D02*
X146987175Y-83076142D01*
X146987175Y-83076142D02*
X147168603Y-83136619D01*
X147168603Y-83136619D02*
X147894318Y-83862333D01*
X147894318Y-83862333D02*
X147894318Y-83076142D01*
X113658952Y-71694318D02*
X113054190Y-71694318D01*
X113054190Y-71694318D02*
X113054190Y-70424318D01*
X114082285Y-71029080D02*
X114505619Y-71029080D01*
X114687047Y-71694318D02*
X114082285Y-71694318D01*
X114082285Y-71694318D02*
X114082285Y-70424318D01*
X114082285Y-70424318D02*
X114687047Y-70424318D01*
X115231333Y-71694318D02*
X115231333Y-70424318D01*
X115231333Y-70424318D02*
X115533714Y-70424318D01*
X115533714Y-70424318D02*
X115715143Y-70484794D01*
X115715143Y-70484794D02*
X115836095Y-70605746D01*
X115836095Y-70605746D02*
X115896572Y-70726699D01*
X115896572Y-70726699D02*
X115957048Y-70968603D01*
X115957048Y-70968603D02*
X115957048Y-71150032D01*
X115957048Y-71150032D02*
X115896572Y-71391937D01*
X115896572Y-71391937D02*
X115836095Y-71512889D01*
X115836095Y-71512889D02*
X115715143Y-71633842D01*
X115715143Y-71633842D02*
X115533714Y-71694318D01*
X115533714Y-71694318D02*
X115231333Y-71694318D01*
X116198953Y-71815270D02*
X117166572Y-71815270D01*
X118073714Y-70424318D02*
X117468952Y-70424318D01*
X117468952Y-70424318D02*
X117408476Y-71029080D01*
X117408476Y-71029080D02*
X117468952Y-70968603D01*
X117468952Y-70968603D02*
X117589905Y-70908127D01*
X117589905Y-70908127D02*
X117892286Y-70908127D01*
X117892286Y-70908127D02*
X118013238Y-70968603D01*
X118013238Y-70968603D02*
X118073714Y-71029080D01*
X118073714Y-71029080D02*
X118134191Y-71150032D01*
X118134191Y-71150032D02*
X118134191Y-71452413D01*
X118134191Y-71452413D02*
X118073714Y-71573365D01*
X118073714Y-71573365D02*
X118013238Y-71633842D01*
X118013238Y-71633842D02*
X117892286Y-71694318D01*
X117892286Y-71694318D02*
X117589905Y-71694318D01*
X117589905Y-71694318D02*
X117468952Y-71633842D01*
X117468952Y-71633842D02*
X117408476Y-71573365D01*
X118497048Y-70424318D02*
X118920381Y-71694318D01*
X118920381Y-71694318D02*
X119343715Y-70424318D01*
X120008952Y-70424318D02*
X120129905Y-70424318D01*
X120129905Y-70424318D02*
X120250857Y-70484794D01*
X120250857Y-70484794D02*
X120311333Y-70545270D01*
X120311333Y-70545270D02*
X120371809Y-70666222D01*
X120371809Y-70666222D02*
X120432286Y-70908127D01*
X120432286Y-70908127D02*
X120432286Y-71210508D01*
X120432286Y-71210508D02*
X120371809Y-71452413D01*
X120371809Y-71452413D02*
X120311333Y-71573365D01*
X120311333Y-71573365D02*
X120250857Y-71633842D01*
X120250857Y-71633842D02*
X120129905Y-71694318D01*
X120129905Y-71694318D02*
X120008952Y-71694318D01*
X120008952Y-71694318D02*
X119888000Y-71633842D01*
X119888000Y-71633842D02*
X119827524Y-71573365D01*
X119827524Y-71573365D02*
X119767047Y-71452413D01*
X119767047Y-71452413D02*
X119706571Y-71210508D01*
X119706571Y-71210508D02*
X119706571Y-70908127D01*
X119706571Y-70908127D02*
X119767047Y-70666222D01*
X119767047Y-70666222D02*
X119827524Y-70545270D01*
X119827524Y-70545270D02*
X119888000Y-70484794D01*
X119888000Y-70484794D02*
X120008952Y-70424318D01*
D14*
X141532427Y-81521295D02*
X141677570Y-81521295D01*
X141677570Y-81521295D02*
X141750141Y-81557581D01*
X141750141Y-81557581D02*
X141822713Y-81630152D01*
X141822713Y-81630152D02*
X141858998Y-81775295D01*
X141858998Y-81775295D02*
X141858998Y-82029295D01*
X141858998Y-82029295D02*
X141822713Y-82174438D01*
X141822713Y-82174438D02*
X141750141Y-82247010D01*
X141750141Y-82247010D02*
X141677570Y-82283295D01*
X141677570Y-82283295D02*
X141532427Y-82283295D01*
X141532427Y-82283295D02*
X141459856Y-82247010D01*
X141459856Y-82247010D02*
X141387284Y-82174438D01*
X141387284Y-82174438D02*
X141350998Y-82029295D01*
X141350998Y-82029295D02*
X141350998Y-81775295D01*
X141350998Y-81775295D02*
X141387284Y-81630152D01*
X141387284Y-81630152D02*
X141459856Y-81557581D01*
X141459856Y-81557581D02*
X141532427Y-81521295D01*
X142185570Y-81775295D02*
X142185570Y-82537295D01*
X142185570Y-81811581D02*
X142258142Y-81775295D01*
X142258142Y-81775295D02*
X142403284Y-81775295D01*
X142403284Y-81775295D02*
X142475856Y-81811581D01*
X142475856Y-81811581D02*
X142512142Y-81847867D01*
X142512142Y-81847867D02*
X142548427Y-81920438D01*
X142548427Y-81920438D02*
X142548427Y-82138152D01*
X142548427Y-82138152D02*
X142512142Y-82210724D01*
X142512142Y-82210724D02*
X142475856Y-82247010D01*
X142475856Y-82247010D02*
X142403284Y-82283295D01*
X142403284Y-82283295D02*
X142258142Y-82283295D01*
X142258142Y-82283295D02*
X142185570Y-82247010D01*
X143165285Y-82247010D02*
X143092713Y-82283295D01*
X143092713Y-82283295D02*
X142947571Y-82283295D01*
X142947571Y-82283295D02*
X142874999Y-82247010D01*
X142874999Y-82247010D02*
X142838713Y-82174438D01*
X142838713Y-82174438D02*
X142838713Y-81884152D01*
X142838713Y-81884152D02*
X142874999Y-81811581D01*
X142874999Y-81811581D02*
X142947571Y-81775295D01*
X142947571Y-81775295D02*
X143092713Y-81775295D01*
X143092713Y-81775295D02*
X143165285Y-81811581D01*
X143165285Y-81811581D02*
X143201571Y-81884152D01*
X143201571Y-81884152D02*
X143201571Y-81956724D01*
X143201571Y-81956724D02*
X142838713Y-82029295D01*
X143528142Y-81775295D02*
X143528142Y-82283295D01*
X143528142Y-81847867D02*
X143564428Y-81811581D01*
X143564428Y-81811581D02*
X143636999Y-81775295D01*
X143636999Y-81775295D02*
X143745856Y-81775295D01*
X143745856Y-81775295D02*
X143818428Y-81811581D01*
X143818428Y-81811581D02*
X143854714Y-81884152D01*
X143854714Y-81884152D02*
X143854714Y-82283295D01*
X144798142Y-82283295D02*
X144798142Y-81521295D01*
X144798142Y-81884152D02*
X145233571Y-81884152D01*
X145233571Y-82283295D02*
X145233571Y-81521295D01*
X145923000Y-82283295D02*
X145923000Y-81884152D01*
X145923000Y-81884152D02*
X145886714Y-81811581D01*
X145886714Y-81811581D02*
X145814142Y-81775295D01*
X145814142Y-81775295D02*
X145669000Y-81775295D01*
X145669000Y-81775295D02*
X145596428Y-81811581D01*
X145923000Y-82247010D02*
X145850428Y-82283295D01*
X145850428Y-82283295D02*
X145669000Y-82283295D01*
X145669000Y-82283295D02*
X145596428Y-82247010D01*
X145596428Y-82247010D02*
X145560142Y-82174438D01*
X145560142Y-82174438D02*
X145560142Y-82101867D01*
X145560142Y-82101867D02*
X145596428Y-82029295D01*
X145596428Y-82029295D02*
X145669000Y-81993010D01*
X145669000Y-81993010D02*
X145850428Y-81993010D01*
X145850428Y-81993010D02*
X145923000Y-81956724D01*
X146285857Y-82283295D02*
X146285857Y-81775295D01*
X146285857Y-81920438D02*
X146322143Y-81847867D01*
X146322143Y-81847867D02*
X146358429Y-81811581D01*
X146358429Y-81811581D02*
X146431000Y-81775295D01*
X146431000Y-81775295D02*
X146503571Y-81775295D01*
X147084143Y-82283295D02*
X147084143Y-81521295D01*
X147084143Y-82247010D02*
X147011571Y-82283295D01*
X147011571Y-82283295D02*
X146866428Y-82283295D01*
X146866428Y-82283295D02*
X146793857Y-82247010D01*
X146793857Y-82247010D02*
X146757571Y-82210724D01*
X146757571Y-82210724D02*
X146721285Y-82138152D01*
X146721285Y-82138152D02*
X146721285Y-81920438D01*
X146721285Y-81920438D02*
X146757571Y-81847867D01*
X146757571Y-81847867D02*
X146793857Y-81811581D01*
X146793857Y-81811581D02*
X146866428Y-81775295D01*
X146866428Y-81775295D02*
X147011571Y-81775295D01*
X147011571Y-81775295D02*
X147084143Y-81811581D01*
X147374429Y-81775295D02*
X147519572Y-82283295D01*
X147519572Y-82283295D02*
X147664714Y-81920438D01*
X147664714Y-81920438D02*
X147809857Y-82283295D01*
X147809857Y-82283295D02*
X147955000Y-81775295D01*
X148571858Y-82283295D02*
X148571858Y-81884152D01*
X148571858Y-81884152D02*
X148535572Y-81811581D01*
X148535572Y-81811581D02*
X148463000Y-81775295D01*
X148463000Y-81775295D02*
X148317858Y-81775295D01*
X148317858Y-81775295D02*
X148245286Y-81811581D01*
X148571858Y-82247010D02*
X148499286Y-82283295D01*
X148499286Y-82283295D02*
X148317858Y-82283295D01*
X148317858Y-82283295D02*
X148245286Y-82247010D01*
X148245286Y-82247010D02*
X148209000Y-82174438D01*
X148209000Y-82174438D02*
X148209000Y-82101867D01*
X148209000Y-82101867D02*
X148245286Y-82029295D01*
X148245286Y-82029295D02*
X148317858Y-81993010D01*
X148317858Y-81993010D02*
X148499286Y-81993010D01*
X148499286Y-81993010D02*
X148571858Y-81956724D01*
X148934715Y-82283295D02*
X148934715Y-81775295D01*
X148934715Y-81920438D02*
X148971001Y-81847867D01*
X148971001Y-81847867D02*
X149007287Y-81811581D01*
X149007287Y-81811581D02*
X149079858Y-81775295D01*
X149079858Y-81775295D02*
X149152429Y-81775295D01*
X149696715Y-82247010D02*
X149624143Y-82283295D01*
X149624143Y-82283295D02*
X149479001Y-82283295D01*
X149479001Y-82283295D02*
X149406429Y-82247010D01*
X149406429Y-82247010D02*
X149370143Y-82174438D01*
X149370143Y-82174438D02*
X149370143Y-81884152D01*
X149370143Y-81884152D02*
X149406429Y-81811581D01*
X149406429Y-81811581D02*
X149479001Y-81775295D01*
X149479001Y-81775295D02*
X149624143Y-81775295D01*
X149624143Y-81775295D02*
X149696715Y-81811581D01*
X149696715Y-81811581D02*
X149733001Y-81884152D01*
X149733001Y-81884152D02*
X149733001Y-81956724D01*
X149733001Y-81956724D02*
X149370143Y-82029295D01*
D11*
X142814318Y-86281381D02*
X141544318Y-86281381D01*
X141544318Y-86281381D02*
X141544318Y-85797571D01*
X141544318Y-85797571D02*
X141604794Y-85676619D01*
X141604794Y-85676619D02*
X141665270Y-85616142D01*
X141665270Y-85616142D02*
X141786222Y-85555666D01*
X141786222Y-85555666D02*
X141967651Y-85555666D01*
X141967651Y-85555666D02*
X142088603Y-85616142D01*
X142088603Y-85616142D02*
X142149080Y-85676619D01*
X142149080Y-85676619D02*
X142209556Y-85797571D01*
X142209556Y-85797571D02*
X142209556Y-86281381D01*
X142693365Y-84285666D02*
X142753842Y-84346142D01*
X142753842Y-84346142D02*
X142814318Y-84527571D01*
X142814318Y-84527571D02*
X142814318Y-84648523D01*
X142814318Y-84648523D02*
X142753842Y-84829952D01*
X142753842Y-84829952D02*
X142632889Y-84950904D01*
X142632889Y-84950904D02*
X142511937Y-85011381D01*
X142511937Y-85011381D02*
X142270032Y-85071857D01*
X142270032Y-85071857D02*
X142088603Y-85071857D01*
X142088603Y-85071857D02*
X141846699Y-85011381D01*
X141846699Y-85011381D02*
X141725746Y-84950904D01*
X141725746Y-84950904D02*
X141604794Y-84829952D01*
X141604794Y-84829952D02*
X141544318Y-84648523D01*
X141544318Y-84648523D02*
X141544318Y-84527571D01*
X141544318Y-84527571D02*
X141604794Y-84346142D01*
X141604794Y-84346142D02*
X141665270Y-84285666D01*
X141967651Y-83197095D02*
X142814318Y-83197095D01*
X141483842Y-83499476D02*
X142390984Y-83801857D01*
X142390984Y-83801857D02*
X142390984Y-83015666D01*
X167828994Y-85833856D02*
X167774565Y-85942714D01*
X167774565Y-85942714D02*
X167774565Y-86105999D01*
X167774565Y-86105999D02*
X167828994Y-86269285D01*
X167828994Y-86269285D02*
X167937851Y-86378142D01*
X167937851Y-86378142D02*
X168046708Y-86432571D01*
X168046708Y-86432571D02*
X168264422Y-86486999D01*
X168264422Y-86486999D02*
X168427708Y-86486999D01*
X168427708Y-86486999D02*
X168645422Y-86432571D01*
X168645422Y-86432571D02*
X168754279Y-86378142D01*
X168754279Y-86378142D02*
X168863137Y-86269285D01*
X168863137Y-86269285D02*
X168917565Y-86105999D01*
X168917565Y-86105999D02*
X168917565Y-85997142D01*
X168917565Y-85997142D02*
X168863137Y-85833856D01*
X168863137Y-85833856D02*
X168808708Y-85779428D01*
X168808708Y-85779428D02*
X168427708Y-85779428D01*
X168427708Y-85779428D02*
X168427708Y-85997142D01*
X168917565Y-85289571D02*
X167774565Y-85289571D01*
X167774565Y-85289571D02*
X167774565Y-84854142D01*
X167774565Y-84854142D02*
X167828994Y-84745285D01*
X167828994Y-84745285D02*
X167883422Y-84690856D01*
X167883422Y-84690856D02*
X167992279Y-84636428D01*
X167992279Y-84636428D02*
X168155565Y-84636428D01*
X168155565Y-84636428D02*
X168264422Y-84690856D01*
X168264422Y-84690856D02*
X168318851Y-84745285D01*
X168318851Y-84745285D02*
X168373279Y-84854142D01*
X168373279Y-84854142D02*
X168373279Y-85289571D01*
X168917565Y-84146571D02*
X167774565Y-84146571D01*
X167774565Y-83711142D02*
X167774565Y-83003570D01*
X167774565Y-83003570D02*
X168209994Y-83384570D01*
X168209994Y-83384570D02*
X168209994Y-83221285D01*
X168209994Y-83221285D02*
X168264422Y-83112428D01*
X168264422Y-83112428D02*
X168318851Y-83057999D01*
X168318851Y-83057999D02*
X168427708Y-83003570D01*
X168427708Y-83003570D02*
X168699851Y-83003570D01*
X168699851Y-83003570D02*
X168808708Y-83057999D01*
X168808708Y-83057999D02*
X168863137Y-83112428D01*
X168863137Y-83112428D02*
X168917565Y-83221285D01*
X168917565Y-83221285D02*
X168917565Y-83547856D01*
X168917565Y-83547856D02*
X168863137Y-83656713D01*
X168863137Y-83656713D02*
X168808708Y-83711142D01*
X168917565Y-82459285D02*
X168917565Y-82241571D01*
X168917565Y-82241571D02*
X168863137Y-82132714D01*
X168863137Y-82132714D02*
X168808708Y-82078285D01*
X168808708Y-82078285D02*
X168645422Y-81969428D01*
X168645422Y-81969428D02*
X168427708Y-81914999D01*
X168427708Y-81914999D02*
X167992279Y-81914999D01*
X167992279Y-81914999D02*
X167883422Y-81969428D01*
X167883422Y-81969428D02*
X167828994Y-82023857D01*
X167828994Y-82023857D02*
X167774565Y-82132714D01*
X167774565Y-82132714D02*
X167774565Y-82350428D01*
X167774565Y-82350428D02*
X167828994Y-82459285D01*
X167828994Y-82459285D02*
X167883422Y-82513714D01*
X167883422Y-82513714D02*
X167992279Y-82568142D01*
X167992279Y-82568142D02*
X168264422Y-82568142D01*
X168264422Y-82568142D02*
X168373279Y-82513714D01*
X168373279Y-82513714D02*
X168427708Y-82459285D01*
X168427708Y-82459285D02*
X168482137Y-82350428D01*
X168482137Y-82350428D02*
X168482137Y-82132714D01*
X168482137Y-82132714D02*
X168427708Y-82023857D01*
X168427708Y-82023857D02*
X168373279Y-81969428D01*
X168373279Y-81969428D02*
X168264422Y-81914999D01*
X125034318Y-86281381D02*
X123764318Y-86281381D01*
X123764318Y-86281381D02*
X123764318Y-85797571D01*
X123764318Y-85797571D02*
X123824794Y-85676619D01*
X123824794Y-85676619D02*
X123885270Y-85616142D01*
X123885270Y-85616142D02*
X124006222Y-85555666D01*
X124006222Y-85555666D02*
X124187651Y-85555666D01*
X124187651Y-85555666D02*
X124308603Y-85616142D01*
X124308603Y-85616142D02*
X124369080Y-85676619D01*
X124369080Y-85676619D02*
X124429556Y-85797571D01*
X124429556Y-85797571D02*
X124429556Y-86281381D01*
X124369080Y-84588047D02*
X124429556Y-84406619D01*
X124429556Y-84406619D02*
X124490032Y-84346142D01*
X124490032Y-84346142D02*
X124610984Y-84285666D01*
X124610984Y-84285666D02*
X124792413Y-84285666D01*
X124792413Y-84285666D02*
X124913365Y-84346142D01*
X124913365Y-84346142D02*
X124973842Y-84406619D01*
X124973842Y-84406619D02*
X125034318Y-84527571D01*
X125034318Y-84527571D02*
X125034318Y-85011381D01*
X125034318Y-85011381D02*
X123764318Y-85011381D01*
X123764318Y-85011381D02*
X123764318Y-84588047D01*
X123764318Y-84588047D02*
X123824794Y-84467095D01*
X123824794Y-84467095D02*
X123885270Y-84406619D01*
X123885270Y-84406619D02*
X124006222Y-84346142D01*
X124006222Y-84346142D02*
X124127175Y-84346142D01*
X124127175Y-84346142D02*
X124248127Y-84406619D01*
X124248127Y-84406619D02*
X124308603Y-84467095D01*
X124308603Y-84467095D02*
X124369080Y-84588047D01*
X124369080Y-84588047D02*
X124369080Y-85011381D01*
X123764318Y-83197095D02*
X123764318Y-83439000D01*
X123764318Y-83439000D02*
X123824794Y-83559952D01*
X123824794Y-83559952D02*
X123885270Y-83620428D01*
X123885270Y-83620428D02*
X124066699Y-83741381D01*
X124066699Y-83741381D02*
X124308603Y-83801857D01*
X124308603Y-83801857D02*
X124792413Y-83801857D01*
X124792413Y-83801857D02*
X124913365Y-83741381D01*
X124913365Y-83741381D02*
X124973842Y-83680904D01*
X124973842Y-83680904D02*
X125034318Y-83559952D01*
X125034318Y-83559952D02*
X125034318Y-83318047D01*
X125034318Y-83318047D02*
X124973842Y-83197095D01*
X124973842Y-83197095D02*
X124913365Y-83136619D01*
X124913365Y-83136619D02*
X124792413Y-83076142D01*
X124792413Y-83076142D02*
X124490032Y-83076142D01*
X124490032Y-83076142D02*
X124369080Y-83136619D01*
X124369080Y-83136619D02*
X124308603Y-83197095D01*
X124308603Y-83197095D02*
X124248127Y-83318047D01*
X124248127Y-83318047D02*
X124248127Y-83559952D01*
X124248127Y-83559952D02*
X124308603Y-83680904D01*
X124308603Y-83680904D02*
X124369080Y-83741381D01*
X124369080Y-83741381D02*
X124490032Y-83801857D01*
X114813842Y-86190666D02*
X114874318Y-86009237D01*
X114874318Y-86009237D02*
X114874318Y-85706856D01*
X114874318Y-85706856D02*
X114813842Y-85585904D01*
X114813842Y-85585904D02*
X114753365Y-85525428D01*
X114753365Y-85525428D02*
X114632413Y-85464951D01*
X114632413Y-85464951D02*
X114511461Y-85464951D01*
X114511461Y-85464951D02*
X114390508Y-85525428D01*
X114390508Y-85525428D02*
X114330032Y-85585904D01*
X114330032Y-85585904D02*
X114269556Y-85706856D01*
X114269556Y-85706856D02*
X114209080Y-85948761D01*
X114209080Y-85948761D02*
X114148603Y-86069713D01*
X114148603Y-86069713D02*
X114088127Y-86130190D01*
X114088127Y-86130190D02*
X113967175Y-86190666D01*
X113967175Y-86190666D02*
X113846222Y-86190666D01*
X113846222Y-86190666D02*
X113725270Y-86130190D01*
X113725270Y-86130190D02*
X113664794Y-86069713D01*
X113664794Y-86069713D02*
X113604318Y-85948761D01*
X113604318Y-85948761D02*
X113604318Y-85646380D01*
X113604318Y-85646380D02*
X113664794Y-85464951D01*
X114753365Y-84194951D02*
X114813842Y-84255427D01*
X114813842Y-84255427D02*
X114874318Y-84436856D01*
X114874318Y-84436856D02*
X114874318Y-84557808D01*
X114874318Y-84557808D02*
X114813842Y-84739237D01*
X114813842Y-84739237D02*
X114692889Y-84860189D01*
X114692889Y-84860189D02*
X114571937Y-84920666D01*
X114571937Y-84920666D02*
X114330032Y-84981142D01*
X114330032Y-84981142D02*
X114148603Y-84981142D01*
X114148603Y-84981142D02*
X113906699Y-84920666D01*
X113906699Y-84920666D02*
X113785746Y-84860189D01*
X113785746Y-84860189D02*
X113664794Y-84739237D01*
X113664794Y-84739237D02*
X113604318Y-84557808D01*
X113604318Y-84557808D02*
X113604318Y-84436856D01*
X113604318Y-84436856D02*
X113664794Y-84255427D01*
X113664794Y-84255427D02*
X113725270Y-84194951D01*
X114874318Y-83045904D02*
X114874318Y-83650666D01*
X114874318Y-83650666D02*
X113604318Y-83650666D01*
X114874318Y-81957332D02*
X114874318Y-82683047D01*
X114874318Y-82320190D02*
X113604318Y-82320190D01*
X113604318Y-82320190D02*
X113785746Y-82441142D01*
X113785746Y-82441142D02*
X113906699Y-82562094D01*
X113906699Y-82562094D02*
X113967175Y-82683047D01*
X113658952Y-75885318D02*
X113054190Y-75885318D01*
X113054190Y-75885318D02*
X113054190Y-74615318D01*
X114082285Y-75220080D02*
X114505619Y-75220080D01*
X114687047Y-75885318D02*
X114082285Y-75885318D01*
X114082285Y-75885318D02*
X114082285Y-74615318D01*
X114082285Y-74615318D02*
X114687047Y-74615318D01*
X115231333Y-75885318D02*
X115231333Y-74615318D01*
X115231333Y-74615318D02*
X115533714Y-74615318D01*
X115533714Y-74615318D02*
X115715143Y-74675794D01*
X115715143Y-74675794D02*
X115836095Y-74796746D01*
X115836095Y-74796746D02*
X115896572Y-74917699D01*
X115896572Y-74917699D02*
X115957048Y-75159603D01*
X115957048Y-75159603D02*
X115957048Y-75341032D01*
X115957048Y-75341032D02*
X115896572Y-75582937D01*
X115896572Y-75582937D02*
X115836095Y-75703889D01*
X115836095Y-75703889D02*
X115715143Y-75824842D01*
X115715143Y-75824842D02*
X115533714Y-75885318D01*
X115533714Y-75885318D02*
X115231333Y-75885318D01*
X116198953Y-76006270D02*
X117166572Y-76006270D01*
X117348000Y-74615318D02*
X118134191Y-74615318D01*
X118134191Y-74615318D02*
X117710857Y-75099127D01*
X117710857Y-75099127D02*
X117892286Y-75099127D01*
X117892286Y-75099127D02*
X118013238Y-75159603D01*
X118013238Y-75159603D02*
X118073714Y-75220080D01*
X118073714Y-75220080D02*
X118134191Y-75341032D01*
X118134191Y-75341032D02*
X118134191Y-75643413D01*
X118134191Y-75643413D02*
X118073714Y-75764365D01*
X118073714Y-75764365D02*
X118013238Y-75824842D01*
X118013238Y-75824842D02*
X117892286Y-75885318D01*
X117892286Y-75885318D02*
X117529429Y-75885318D01*
X117529429Y-75885318D02*
X117408476Y-75824842D01*
X117408476Y-75824842D02*
X117348000Y-75764365D01*
X118497048Y-74615318D02*
X118920381Y-75885318D01*
X118920381Y-75885318D02*
X119343715Y-74615318D01*
X119646095Y-74615318D02*
X120432286Y-74615318D01*
X120432286Y-74615318D02*
X120008952Y-75099127D01*
X120008952Y-75099127D02*
X120190381Y-75099127D01*
X120190381Y-75099127D02*
X120311333Y-75159603D01*
X120311333Y-75159603D02*
X120371809Y-75220080D01*
X120371809Y-75220080D02*
X120432286Y-75341032D01*
X120432286Y-75341032D02*
X120432286Y-75643413D01*
X120432286Y-75643413D02*
X120371809Y-75764365D01*
X120371809Y-75764365D02*
X120311333Y-75824842D01*
X120311333Y-75824842D02*
X120190381Y-75885318D01*
X120190381Y-75885318D02*
X119827524Y-75885318D01*
X119827524Y-75885318D02*
X119706571Y-75824842D01*
X119706571Y-75824842D02*
X119646095Y-75764365D01*
X179956193Y-85803618D02*
X179907812Y-85900380D01*
X179907812Y-85900380D02*
X179907812Y-86045523D01*
X179907812Y-86045523D02*
X179956193Y-86190666D01*
X179956193Y-86190666D02*
X180052955Y-86287428D01*
X180052955Y-86287428D02*
X180149717Y-86335809D01*
X180149717Y-86335809D02*
X180343241Y-86384190D01*
X180343241Y-86384190D02*
X180488384Y-86384190D01*
X180488384Y-86384190D02*
X180681908Y-86335809D01*
X180681908Y-86335809D02*
X180778670Y-86287428D01*
X180778670Y-86287428D02*
X180875432Y-86190666D01*
X180875432Y-86190666D02*
X180923812Y-86045523D01*
X180923812Y-86045523D02*
X180923812Y-85948761D01*
X180923812Y-85948761D02*
X180875432Y-85803618D01*
X180875432Y-85803618D02*
X180827051Y-85755237D01*
X180827051Y-85755237D02*
X180488384Y-85755237D01*
X180488384Y-85755237D02*
X180488384Y-85948761D01*
X180923812Y-85319809D02*
X179907812Y-85319809D01*
X179907812Y-85319809D02*
X179907812Y-84932761D01*
X179907812Y-84932761D02*
X179956193Y-84835999D01*
X179956193Y-84835999D02*
X180004574Y-84787618D01*
X180004574Y-84787618D02*
X180101336Y-84739237D01*
X180101336Y-84739237D02*
X180246479Y-84739237D01*
X180246479Y-84739237D02*
X180343241Y-84787618D01*
X180343241Y-84787618D02*
X180391622Y-84835999D01*
X180391622Y-84835999D02*
X180440003Y-84932761D01*
X180440003Y-84932761D02*
X180440003Y-85319809D01*
X180923812Y-84303809D02*
X179907812Y-84303809D01*
X179907812Y-83626475D02*
X179907812Y-83432951D01*
X179907812Y-83432951D02*
X179956193Y-83336189D01*
X179956193Y-83336189D02*
X180052955Y-83239427D01*
X180052955Y-83239427D02*
X180246479Y-83191046D01*
X180246479Y-83191046D02*
X180585146Y-83191046D01*
X180585146Y-83191046D02*
X180778670Y-83239427D01*
X180778670Y-83239427D02*
X180875432Y-83336189D01*
X180875432Y-83336189D02*
X180923812Y-83432951D01*
X180923812Y-83432951D02*
X180923812Y-83626475D01*
X180923812Y-83626475D02*
X180875432Y-83723237D01*
X180875432Y-83723237D02*
X180778670Y-83819999D01*
X180778670Y-83819999D02*
X180585146Y-83868380D01*
X180585146Y-83868380D02*
X180246479Y-83868380D01*
X180246479Y-83868380D02*
X180052955Y-83819999D01*
X180052955Y-83819999D02*
X179956193Y-83723237D01*
X179956193Y-83723237D02*
X179907812Y-83626475D01*
X180004574Y-82803999D02*
X179956193Y-82755618D01*
X179956193Y-82755618D02*
X179907812Y-82658856D01*
X179907812Y-82658856D02*
X179907812Y-82416951D01*
X179907812Y-82416951D02*
X179956193Y-82320189D01*
X179956193Y-82320189D02*
X180004574Y-82271808D01*
X180004574Y-82271808D02*
X180101336Y-82223427D01*
X180101336Y-82223427D02*
X180198098Y-82223427D01*
X180198098Y-82223427D02*
X180343241Y-82271808D01*
X180343241Y-82271808D02*
X180923812Y-82852380D01*
X180923812Y-82852380D02*
X180923812Y-82223427D01*
X179907812Y-81884761D02*
X179907812Y-81207427D01*
X179907812Y-81207427D02*
X180923812Y-81642856D01*
X127574318Y-86281381D02*
X126304318Y-86281381D01*
X126304318Y-86281381D02*
X126304318Y-85797571D01*
X126304318Y-85797571D02*
X126364794Y-85676619D01*
X126364794Y-85676619D02*
X126425270Y-85616142D01*
X126425270Y-85616142D02*
X126546222Y-85555666D01*
X126546222Y-85555666D02*
X126727651Y-85555666D01*
X126727651Y-85555666D02*
X126848603Y-85616142D01*
X126848603Y-85616142D02*
X126909080Y-85676619D01*
X126909080Y-85676619D02*
X126969556Y-85797571D01*
X126969556Y-85797571D02*
X126969556Y-86281381D01*
X126909080Y-84588047D02*
X126969556Y-84406619D01*
X126969556Y-84406619D02*
X127030032Y-84346142D01*
X127030032Y-84346142D02*
X127150984Y-84285666D01*
X127150984Y-84285666D02*
X127332413Y-84285666D01*
X127332413Y-84285666D02*
X127453365Y-84346142D01*
X127453365Y-84346142D02*
X127513842Y-84406619D01*
X127513842Y-84406619D02*
X127574318Y-84527571D01*
X127574318Y-84527571D02*
X127574318Y-85011381D01*
X127574318Y-85011381D02*
X126304318Y-85011381D01*
X126304318Y-85011381D02*
X126304318Y-84588047D01*
X126304318Y-84588047D02*
X126364794Y-84467095D01*
X126364794Y-84467095D02*
X126425270Y-84406619D01*
X126425270Y-84406619D02*
X126546222Y-84346142D01*
X126546222Y-84346142D02*
X126667175Y-84346142D01*
X126667175Y-84346142D02*
X126788127Y-84406619D01*
X126788127Y-84406619D02*
X126848603Y-84467095D01*
X126848603Y-84467095D02*
X126909080Y-84588047D01*
X126909080Y-84588047D02*
X126909080Y-85011381D01*
X126304318Y-83136619D02*
X126304318Y-83741381D01*
X126304318Y-83741381D02*
X126909080Y-83801857D01*
X126909080Y-83801857D02*
X126848603Y-83741381D01*
X126848603Y-83741381D02*
X126788127Y-83620428D01*
X126788127Y-83620428D02*
X126788127Y-83318047D01*
X126788127Y-83318047D02*
X126848603Y-83197095D01*
X126848603Y-83197095D02*
X126909080Y-83136619D01*
X126909080Y-83136619D02*
X127030032Y-83076142D01*
X127030032Y-83076142D02*
X127332413Y-83076142D01*
X127332413Y-83076142D02*
X127453365Y-83136619D01*
X127453365Y-83136619D02*
X127513842Y-83197095D01*
X127513842Y-83197095D02*
X127574318Y-83318047D01*
X127574318Y-83318047D02*
X127574318Y-83620428D01*
X127574318Y-83620428D02*
X127513842Y-83741381D01*
X127513842Y-83741381D02*
X127453365Y-83801857D01*
X152309286Y-81025794D02*
X152188333Y-80965318D01*
X152188333Y-80965318D02*
X152006905Y-80965318D01*
X152006905Y-80965318D02*
X151825476Y-81025794D01*
X151825476Y-81025794D02*
X151704524Y-81146746D01*
X151704524Y-81146746D02*
X151644047Y-81267699D01*
X151644047Y-81267699D02*
X151583571Y-81509603D01*
X151583571Y-81509603D02*
X151583571Y-81691032D01*
X151583571Y-81691032D02*
X151644047Y-81932937D01*
X151644047Y-81932937D02*
X151704524Y-82053889D01*
X151704524Y-82053889D02*
X151825476Y-82174842D01*
X151825476Y-82174842D02*
X152006905Y-82235318D01*
X152006905Y-82235318D02*
X152127857Y-82235318D01*
X152127857Y-82235318D02*
X152309286Y-82174842D01*
X152309286Y-82174842D02*
X152369762Y-82114365D01*
X152369762Y-82114365D02*
X152369762Y-81691032D01*
X152369762Y-81691032D02*
X152127857Y-81691032D01*
X152914047Y-82235318D02*
X152914047Y-80965318D01*
X152914047Y-80965318D02*
X153397857Y-80965318D01*
X153397857Y-80965318D02*
X153518809Y-81025794D01*
X153518809Y-81025794D02*
X153579286Y-81086270D01*
X153579286Y-81086270D02*
X153639762Y-81207222D01*
X153639762Y-81207222D02*
X153639762Y-81388651D01*
X153639762Y-81388651D02*
X153579286Y-81509603D01*
X153579286Y-81509603D02*
X153518809Y-81570080D01*
X153518809Y-81570080D02*
X153397857Y-81630556D01*
X153397857Y-81630556D02*
X152914047Y-81630556D01*
X154184047Y-82235318D02*
X154184047Y-80965318D01*
X155030714Y-80965318D02*
X155272619Y-80965318D01*
X155272619Y-80965318D02*
X155393571Y-81025794D01*
X155393571Y-81025794D02*
X155514524Y-81146746D01*
X155514524Y-81146746D02*
X155575000Y-81388651D01*
X155575000Y-81388651D02*
X155575000Y-81811984D01*
X155575000Y-81811984D02*
X155514524Y-82053889D01*
X155514524Y-82053889D02*
X155393571Y-82174842D01*
X155393571Y-82174842D02*
X155272619Y-82235318D01*
X155272619Y-82235318D02*
X155030714Y-82235318D01*
X155030714Y-82235318D02*
X154909762Y-82174842D01*
X154909762Y-82174842D02*
X154788809Y-82053889D01*
X154788809Y-82053889D02*
X154728333Y-81811984D01*
X154728333Y-81811984D02*
X154728333Y-81388651D01*
X154728333Y-81388651D02*
X154788809Y-81146746D01*
X154788809Y-81146746D02*
X154909762Y-81025794D01*
X154909762Y-81025794D02*
X155030714Y-80965318D01*
X156784524Y-82235318D02*
X156058809Y-82235318D01*
X156421666Y-82235318D02*
X156421666Y-80965318D01*
X156421666Y-80965318D02*
X156300714Y-81146746D01*
X156300714Y-81146746D02*
X156179762Y-81267699D01*
X156179762Y-81267699D02*
X156058809Y-81328175D01*
X157328809Y-81751508D02*
X158296429Y-81751508D01*
X158840714Y-81086270D02*
X158901190Y-81025794D01*
X158901190Y-81025794D02*
X159022143Y-80965318D01*
X159022143Y-80965318D02*
X159324524Y-80965318D01*
X159324524Y-80965318D02*
X159445476Y-81025794D01*
X159445476Y-81025794D02*
X159505952Y-81086270D01*
X159505952Y-81086270D02*
X159566429Y-81207222D01*
X159566429Y-81207222D02*
X159566429Y-81328175D01*
X159566429Y-81328175D02*
X159505952Y-81509603D01*
X159505952Y-81509603D02*
X158780238Y-82235318D01*
X158780238Y-82235318D02*
X159566429Y-82235318D01*
D13*
X195545428Y-80060219D02*
X194674571Y-80060219D01*
X195110000Y-80060219D02*
X195110000Y-78536219D01*
X195110000Y-78536219D02*
X194964857Y-78753933D01*
X194964857Y-78753933D02*
X194819714Y-78899076D01*
X194819714Y-78899076D02*
X194674571Y-78971648D01*
D11*
X148275523Y-76170812D02*
X148904476Y-76170812D01*
X148904476Y-76170812D02*
X148565809Y-76557860D01*
X148565809Y-76557860D02*
X148710952Y-76557860D01*
X148710952Y-76557860D02*
X148807714Y-76606241D01*
X148807714Y-76606241D02*
X148856095Y-76654622D01*
X148856095Y-76654622D02*
X148904476Y-76751384D01*
X148904476Y-76751384D02*
X148904476Y-76993289D01*
X148904476Y-76993289D02*
X148856095Y-77090051D01*
X148856095Y-77090051D02*
X148807714Y-77138432D01*
X148807714Y-77138432D02*
X148710952Y-77186812D01*
X148710952Y-77186812D02*
X148420666Y-77186812D01*
X148420666Y-77186812D02*
X148323904Y-77138432D01*
X148323904Y-77138432D02*
X148275523Y-77090051D01*
X149775333Y-76509479D02*
X149775333Y-77186812D01*
X149533428Y-76122432D02*
X149291523Y-76848146D01*
X149291523Y-76848146D02*
X149920476Y-76848146D01*
X148275523Y-78815812D02*
X148904476Y-78815812D01*
X148904476Y-78815812D02*
X148565809Y-79202860D01*
X148565809Y-79202860D02*
X148710952Y-79202860D01*
X148710952Y-79202860D02*
X148807714Y-79251241D01*
X148807714Y-79251241D02*
X148856095Y-79299622D01*
X148856095Y-79299622D02*
X148904476Y-79396384D01*
X148904476Y-79396384D02*
X148904476Y-79638289D01*
X148904476Y-79638289D02*
X148856095Y-79735051D01*
X148856095Y-79735051D02*
X148807714Y-79783432D01*
X148807714Y-79783432D02*
X148710952Y-79831812D01*
X148710952Y-79831812D02*
X148420666Y-79831812D01*
X148420666Y-79831812D02*
X148323904Y-79783432D01*
X148323904Y-79783432D02*
X148275523Y-79735051D01*
X149243142Y-78815812D02*
X149872095Y-78815812D01*
X149872095Y-78815812D02*
X149533428Y-79202860D01*
X149533428Y-79202860D02*
X149678571Y-79202860D01*
X149678571Y-79202860D02*
X149775333Y-79251241D01*
X149775333Y-79251241D02*
X149823714Y-79299622D01*
X149823714Y-79299622D02*
X149872095Y-79396384D01*
X149872095Y-79396384D02*
X149872095Y-79638289D01*
X149872095Y-79638289D02*
X149823714Y-79735051D01*
X149823714Y-79735051D02*
X149775333Y-79783432D01*
X149775333Y-79783432D02*
X149678571Y-79831812D01*
X149678571Y-79831812D02*
X149388285Y-79831812D01*
X149388285Y-79831812D02*
X149291523Y-79783432D01*
X149291523Y-79783432D02*
X149243142Y-79735051D01*
X185419794Y-85646380D02*
X185359318Y-85767333D01*
X185359318Y-85767333D02*
X185359318Y-85948761D01*
X185359318Y-85948761D02*
X185419794Y-86130190D01*
X185419794Y-86130190D02*
X185540746Y-86251142D01*
X185540746Y-86251142D02*
X185661699Y-86311619D01*
X185661699Y-86311619D02*
X185903603Y-86372095D01*
X185903603Y-86372095D02*
X186085032Y-86372095D01*
X186085032Y-86372095D02*
X186326937Y-86311619D01*
X186326937Y-86311619D02*
X186447889Y-86251142D01*
X186447889Y-86251142D02*
X186568842Y-86130190D01*
X186568842Y-86130190D02*
X186629318Y-85948761D01*
X186629318Y-85948761D02*
X186629318Y-85827809D01*
X186629318Y-85827809D02*
X186568842Y-85646380D01*
X186568842Y-85646380D02*
X186508365Y-85585904D01*
X186508365Y-85585904D02*
X186085032Y-85585904D01*
X186085032Y-85585904D02*
X186085032Y-85827809D01*
X186629318Y-85041619D02*
X185359318Y-85041619D01*
X185359318Y-85041619D02*
X186629318Y-84315904D01*
X186629318Y-84315904D02*
X185359318Y-84315904D01*
X186629318Y-83711143D02*
X185359318Y-83711143D01*
X185359318Y-83711143D02*
X185359318Y-83408762D01*
X185359318Y-83408762D02*
X185419794Y-83227333D01*
X185419794Y-83227333D02*
X185540746Y-83106381D01*
X185540746Y-83106381D02*
X185661699Y-83045904D01*
X185661699Y-83045904D02*
X185903603Y-82985428D01*
X185903603Y-82985428D02*
X186085032Y-82985428D01*
X186085032Y-82985428D02*
X186326937Y-83045904D01*
X186326937Y-83045904D02*
X186447889Y-83106381D01*
X186447889Y-83106381D02*
X186568842Y-83227333D01*
X186568842Y-83227333D02*
X186629318Y-83408762D01*
X186629318Y-83408762D02*
X186629318Y-83711143D01*
X185359318Y-81836381D02*
X185359318Y-82441143D01*
X185359318Y-82441143D02*
X185964080Y-82501619D01*
X185964080Y-82501619D02*
X185903603Y-82441143D01*
X185903603Y-82441143D02*
X185843127Y-82320190D01*
X185843127Y-82320190D02*
X185843127Y-82017809D01*
X185843127Y-82017809D02*
X185903603Y-81896857D01*
X185903603Y-81896857D02*
X185964080Y-81836381D01*
X185964080Y-81836381D02*
X186085032Y-81775904D01*
X186085032Y-81775904D02*
X186387413Y-81775904D01*
X186387413Y-81775904D02*
X186508365Y-81836381D01*
X186508365Y-81836381D02*
X186568842Y-81896857D01*
X186568842Y-81896857D02*
X186629318Y-82017809D01*
X186629318Y-82017809D02*
X186629318Y-82320190D01*
X186629318Y-82320190D02*
X186568842Y-82441143D01*
X186568842Y-82441143D02*
X186508365Y-82501619D01*
X140274318Y-86281381D02*
X139004318Y-86281381D01*
X139004318Y-86281381D02*
X139004318Y-85797571D01*
X139004318Y-85797571D02*
X139064794Y-85676619D01*
X139064794Y-85676619D02*
X139125270Y-85616142D01*
X139125270Y-85616142D02*
X139246222Y-85555666D01*
X139246222Y-85555666D02*
X139427651Y-85555666D01*
X139427651Y-85555666D02*
X139548603Y-85616142D01*
X139548603Y-85616142D02*
X139609080Y-85676619D01*
X139609080Y-85676619D02*
X139669556Y-85797571D01*
X139669556Y-85797571D02*
X139669556Y-86281381D01*
X140153365Y-84285666D02*
X140213842Y-84346142D01*
X140213842Y-84346142D02*
X140274318Y-84527571D01*
X140274318Y-84527571D02*
X140274318Y-84648523D01*
X140274318Y-84648523D02*
X140213842Y-84829952D01*
X140213842Y-84829952D02*
X140092889Y-84950904D01*
X140092889Y-84950904D02*
X139971937Y-85011381D01*
X139971937Y-85011381D02*
X139730032Y-85071857D01*
X139730032Y-85071857D02*
X139548603Y-85071857D01*
X139548603Y-85071857D02*
X139306699Y-85011381D01*
X139306699Y-85011381D02*
X139185746Y-84950904D01*
X139185746Y-84950904D02*
X139064794Y-84829952D01*
X139064794Y-84829952D02*
X139004318Y-84648523D01*
X139004318Y-84648523D02*
X139004318Y-84527571D01*
X139004318Y-84527571D02*
X139064794Y-84346142D01*
X139064794Y-84346142D02*
X139125270Y-84285666D01*
X139004318Y-83136619D02*
X139004318Y-83741381D01*
X139004318Y-83741381D02*
X139609080Y-83801857D01*
X139609080Y-83801857D02*
X139548603Y-83741381D01*
X139548603Y-83741381D02*
X139488127Y-83620428D01*
X139488127Y-83620428D02*
X139488127Y-83318047D01*
X139488127Y-83318047D02*
X139548603Y-83197095D01*
X139548603Y-83197095D02*
X139609080Y-83136619D01*
X139609080Y-83136619D02*
X139730032Y-83076142D01*
X139730032Y-83076142D02*
X140032413Y-83076142D01*
X140032413Y-83076142D02*
X140153365Y-83136619D01*
X140153365Y-83136619D02*
X140213842Y-83197095D01*
X140213842Y-83197095D02*
X140274318Y-83318047D01*
X140274318Y-83318047D02*
X140274318Y-83620428D01*
X140274318Y-83620428D02*
X140213842Y-83741381D01*
X140213842Y-83741381D02*
X140153365Y-83801857D01*
X145354318Y-86281381D02*
X144084318Y-86281381D01*
X144084318Y-86281381D02*
X144084318Y-85797571D01*
X144084318Y-85797571D02*
X144144794Y-85676619D01*
X144144794Y-85676619D02*
X144205270Y-85616142D01*
X144205270Y-85616142D02*
X144326222Y-85555666D01*
X144326222Y-85555666D02*
X144507651Y-85555666D01*
X144507651Y-85555666D02*
X144628603Y-85616142D01*
X144628603Y-85616142D02*
X144689080Y-85676619D01*
X144689080Y-85676619D02*
X144749556Y-85797571D01*
X144749556Y-85797571D02*
X144749556Y-86281381D01*
X145233365Y-84285666D02*
X145293842Y-84346142D01*
X145293842Y-84346142D02*
X145354318Y-84527571D01*
X145354318Y-84527571D02*
X145354318Y-84648523D01*
X145354318Y-84648523D02*
X145293842Y-84829952D01*
X145293842Y-84829952D02*
X145172889Y-84950904D01*
X145172889Y-84950904D02*
X145051937Y-85011381D01*
X145051937Y-85011381D02*
X144810032Y-85071857D01*
X144810032Y-85071857D02*
X144628603Y-85071857D01*
X144628603Y-85071857D02*
X144386699Y-85011381D01*
X144386699Y-85011381D02*
X144265746Y-84950904D01*
X144265746Y-84950904D02*
X144144794Y-84829952D01*
X144144794Y-84829952D02*
X144084318Y-84648523D01*
X144084318Y-84648523D02*
X144084318Y-84527571D01*
X144084318Y-84527571D02*
X144144794Y-84346142D01*
X144144794Y-84346142D02*
X144205270Y-84285666D01*
X144084318Y-83862333D02*
X144084318Y-83076142D01*
X144084318Y-83076142D02*
X144568127Y-83499476D01*
X144568127Y-83499476D02*
X144568127Y-83318047D01*
X144568127Y-83318047D02*
X144628603Y-83197095D01*
X144628603Y-83197095D02*
X144689080Y-83136619D01*
X144689080Y-83136619D02*
X144810032Y-83076142D01*
X144810032Y-83076142D02*
X145112413Y-83076142D01*
X145112413Y-83076142D02*
X145233365Y-83136619D01*
X145233365Y-83136619D02*
X145293842Y-83197095D01*
X145293842Y-83197095D02*
X145354318Y-83318047D01*
X145354318Y-83318047D02*
X145354318Y-83680904D01*
X145354318Y-83680904D02*
X145293842Y-83801857D01*
X145293842Y-83801857D02*
X145233365Y-83862333D01*
X170114994Y-85833856D02*
X170060565Y-85942714D01*
X170060565Y-85942714D02*
X170060565Y-86105999D01*
X170060565Y-86105999D02*
X170114994Y-86269285D01*
X170114994Y-86269285D02*
X170223851Y-86378142D01*
X170223851Y-86378142D02*
X170332708Y-86432571D01*
X170332708Y-86432571D02*
X170550422Y-86486999D01*
X170550422Y-86486999D02*
X170713708Y-86486999D01*
X170713708Y-86486999D02*
X170931422Y-86432571D01*
X170931422Y-86432571D02*
X171040279Y-86378142D01*
X171040279Y-86378142D02*
X171149137Y-86269285D01*
X171149137Y-86269285D02*
X171203565Y-86105999D01*
X171203565Y-86105999D02*
X171203565Y-85997142D01*
X171203565Y-85997142D02*
X171149137Y-85833856D01*
X171149137Y-85833856D02*
X171094708Y-85779428D01*
X171094708Y-85779428D02*
X170713708Y-85779428D01*
X170713708Y-85779428D02*
X170713708Y-85997142D01*
X171203565Y-85289571D02*
X170060565Y-85289571D01*
X170060565Y-85289571D02*
X170060565Y-84854142D01*
X170060565Y-84854142D02*
X170114994Y-84745285D01*
X170114994Y-84745285D02*
X170169422Y-84690856D01*
X170169422Y-84690856D02*
X170278279Y-84636428D01*
X170278279Y-84636428D02*
X170441565Y-84636428D01*
X170441565Y-84636428D02*
X170550422Y-84690856D01*
X170550422Y-84690856D02*
X170604851Y-84745285D01*
X170604851Y-84745285D02*
X170659279Y-84854142D01*
X170659279Y-84854142D02*
X170659279Y-85289571D01*
X171203565Y-84146571D02*
X170060565Y-84146571D01*
X170060565Y-83711142D02*
X170060565Y-83003570D01*
X170060565Y-83003570D02*
X170495994Y-83384570D01*
X170495994Y-83384570D02*
X170495994Y-83221285D01*
X170495994Y-83221285D02*
X170550422Y-83112428D01*
X170550422Y-83112428D02*
X170604851Y-83057999D01*
X170604851Y-83057999D02*
X170713708Y-83003570D01*
X170713708Y-83003570D02*
X170985851Y-83003570D01*
X170985851Y-83003570D02*
X171094708Y-83057999D01*
X171094708Y-83057999D02*
X171149137Y-83112428D01*
X171149137Y-83112428D02*
X171203565Y-83221285D01*
X171203565Y-83221285D02*
X171203565Y-83547856D01*
X171203565Y-83547856D02*
X171149137Y-83656713D01*
X171149137Y-83656713D02*
X171094708Y-83711142D01*
X170550422Y-82350428D02*
X170495994Y-82459285D01*
X170495994Y-82459285D02*
X170441565Y-82513714D01*
X170441565Y-82513714D02*
X170332708Y-82568142D01*
X170332708Y-82568142D02*
X170278279Y-82568142D01*
X170278279Y-82568142D02*
X170169422Y-82513714D01*
X170169422Y-82513714D02*
X170114994Y-82459285D01*
X170114994Y-82459285D02*
X170060565Y-82350428D01*
X170060565Y-82350428D02*
X170060565Y-82132714D01*
X170060565Y-82132714D02*
X170114994Y-82023857D01*
X170114994Y-82023857D02*
X170169422Y-81969428D01*
X170169422Y-81969428D02*
X170278279Y-81914999D01*
X170278279Y-81914999D02*
X170332708Y-81914999D01*
X170332708Y-81914999D02*
X170441565Y-81969428D01*
X170441565Y-81969428D02*
X170495994Y-82023857D01*
X170495994Y-82023857D02*
X170550422Y-82132714D01*
X170550422Y-82132714D02*
X170550422Y-82350428D01*
X170550422Y-82350428D02*
X170604851Y-82459285D01*
X170604851Y-82459285D02*
X170659279Y-82513714D01*
X170659279Y-82513714D02*
X170768137Y-82568142D01*
X170768137Y-82568142D02*
X170985851Y-82568142D01*
X170985851Y-82568142D02*
X171094708Y-82513714D01*
X171094708Y-82513714D02*
X171149137Y-82459285D01*
X171149137Y-82459285D02*
X171203565Y-82350428D01*
X171203565Y-82350428D02*
X171203565Y-82132714D01*
X171203565Y-82132714D02*
X171149137Y-82023857D01*
X171149137Y-82023857D02*
X171094708Y-81969428D01*
X171094708Y-81969428D02*
X170985851Y-81914999D01*
X170985851Y-81914999D02*
X170768137Y-81914999D01*
X170768137Y-81914999D02*
X170659279Y-81969428D01*
X170659279Y-81969428D02*
X170604851Y-82023857D01*
X170604851Y-82023857D02*
X170550422Y-82132714D01*
X107195565Y-86296500D02*
X106052565Y-86296500D01*
X106052565Y-86296500D02*
X106052565Y-85861071D01*
X106052565Y-85861071D02*
X106106994Y-85752214D01*
X106106994Y-85752214D02*
X106161422Y-85697785D01*
X106161422Y-85697785D02*
X106270279Y-85643357D01*
X106270279Y-85643357D02*
X106433565Y-85643357D01*
X106433565Y-85643357D02*
X106542422Y-85697785D01*
X106542422Y-85697785D02*
X106596851Y-85752214D01*
X106596851Y-85752214D02*
X106651279Y-85861071D01*
X106651279Y-85861071D02*
X106651279Y-86296500D01*
X107195565Y-85153500D02*
X106052565Y-85153500D01*
X106596851Y-85153500D02*
X106596851Y-84500357D01*
X107195565Y-84500357D02*
X106052565Y-84500357D01*
X107195565Y-83956071D02*
X106052565Y-83956071D01*
X107195565Y-82813070D02*
X107195565Y-83466213D01*
X107195565Y-83139642D02*
X106052565Y-83139642D01*
X106052565Y-83139642D02*
X106215851Y-83248499D01*
X106215851Y-83248499D02*
X106324708Y-83357356D01*
X106324708Y-83357356D02*
X106379137Y-83466213D01*
X115570000Y-72009000D02*
X115316000Y-72009000D01*
X115570000Y-72009000D02*
X115824000Y-72263000D01*
X115570000Y-74041000D02*
X115316000Y-74041000D01*
X115824000Y-72263000D02*
X117856000Y-72263000D01*
X115824000Y-73787000D02*
X115570000Y-74041000D01*
X115824000Y-73787000D02*
X117856000Y-73787000D01*
X117856000Y-73787000D02*
X118110000Y-74041000D01*
X118110000Y-72009000D02*
X117856000Y-72263000D01*
X118110000Y-72009000D02*
X118364000Y-72009000D01*
X118110000Y-74041000D02*
X118364000Y-74041000D01*
X115316000Y-72009000D02*
G75*
G03*
X115062000Y-72263000I0J-254000D01*
G01*
X115062000Y-73787000D02*
G75*
G03*
X115316000Y-74041000I254000J0D01*
G01*
X118618000Y-72263000D02*
G75*
G03*
X118364000Y-72009000I-254000J0D01*
G01*
X118364000Y-74041000D02*
G75*
G03*
X118618000Y-73787000I0J254000D01*
G01*
D15*
X196578220Y-77957680D02*
X199011540Y-80378300D01*
D11*
X199541237Y-79121000D02*
G75*
G03*
X199541237Y-79121000I-1802237J0D01*
G01*
D16*
X194993000Y-75769000D02*
X199565000Y-75769000D01*
X194993000Y-76531000D02*
X194993000Y-75769000D01*
X195043800Y-75921400D02*
X199514200Y-75921400D01*
X195043800Y-75972200D02*
X199463400Y-75972200D01*
X195043800Y-76124600D02*
X199514200Y-76124600D01*
X195043800Y-76429400D02*
X199463400Y-76429400D01*
D11*
X195199000Y-70993000D02*
X199390000Y-75184000D01*
X195326000Y-75057000D02*
X199390000Y-71120000D01*
X195834000Y-71501000D02*
X198755000Y-71501000D01*
X196342000Y-70866000D02*
X196469000Y-70866000D01*
X196342000Y-71374000D02*
X196342000Y-70866000D01*
X196342000Y-74676000D02*
X196088000Y-71628000D01*
X196342000Y-74676000D02*
X196342000Y-75057000D01*
X196342000Y-74676000D02*
X197739000Y-74676000D01*
X196342000Y-75057000D02*
X196850000Y-75057000D01*
X196469000Y-70866000D02*
X196469000Y-71374000D01*
X196850000Y-75057000D02*
X196850000Y-74803000D01*
X197104000Y-70612000D02*
X197104000Y-70739000D01*
X197104000Y-70739000D02*
X197485000Y-70739000D01*
X197104000Y-72009000D02*
X197993000Y-72009000D01*
X197104000Y-72390000D02*
X197104000Y-72009000D01*
X197231000Y-72136000D02*
X197866000Y-72136000D01*
X197485000Y-70612000D02*
X197104000Y-70612000D01*
X197485000Y-70739000D02*
X197485000Y-70612000D01*
X197993000Y-72009000D02*
X197993000Y-72390000D01*
X197993000Y-72390000D02*
X197104000Y-72390000D01*
X198247000Y-74168000D02*
X198374000Y-72136000D01*
X198374000Y-71501000D02*
X198374000Y-72009000D01*
X198374000Y-72009000D02*
X198755000Y-72009000D01*
X198501000Y-71501000D02*
X198628000Y-71882000D01*
X198501000Y-71628000D02*
X198501000Y-71755000D01*
X198501000Y-71628000D02*
X198501000Y-71755000D01*
X198501000Y-71628000D02*
X198628000Y-71628000D01*
X198501000Y-72009000D02*
X198501000Y-71628000D01*
X198628000Y-71628000D02*
X198628000Y-72009000D01*
X198755000Y-72009000D02*
X198755000Y-71501000D01*
D16*
X199463400Y-76327800D02*
X195094600Y-76327800D01*
X199514200Y-75819800D02*
X195094600Y-75819800D01*
X199514200Y-76073800D02*
X195094600Y-76073800D01*
X199514200Y-76226200D02*
X195094600Y-76226200D01*
X199565000Y-75769000D02*
X199565000Y-76531000D01*
X199565000Y-76531000D02*
X194993000Y-76531000D01*
D11*
X198374000Y-71374000D02*
G75*
G03*
X196088000Y-71374000I-1143000J-1143000D01*
G01*
D17*
X198374000Y-74676000D02*
G75*
G03*
X198374000Y-74676000I-127000J0D01*
G01*
D11*
X198648609Y-74676000D02*
G75*
G03*
X198648609Y-74676000I-401609J0D01*
G01*
X115570000Y-76454000D02*
X115316000Y-76454000D01*
X115570000Y-76454000D02*
X115824000Y-76708000D01*
X115570000Y-78486000D02*
X115316000Y-78486000D01*
X115824000Y-76708000D02*
X117856000Y-76708000D01*
X115824000Y-78232000D02*
X115570000Y-78486000D01*
X115824000Y-78232000D02*
X117856000Y-78232000D01*
X117856000Y-78232000D02*
X118110000Y-78486000D01*
X118110000Y-76454000D02*
X117856000Y-76708000D01*
X118110000Y-76454000D02*
X118364000Y-76454000D01*
X118110000Y-78486000D02*
X118364000Y-78486000D01*
X115316000Y-76454000D02*
G75*
G03*
X115062000Y-76708000I0J-254000D01*
G01*
X115062000Y-78232000D02*
G75*
G03*
X115316000Y-78486000I254000J0D01*
G01*
X118618000Y-76708000D02*
G75*
G03*
X118364000Y-76454000I-254000J0D01*
G01*
X118364000Y-78486000D02*
G75*
G03*
X118618000Y-78232000I0J254000D01*
G01*
D18*
X125222000Y-71615300D02*
X125730000Y-71107300D01*
X125222000Y-71666100D02*
X125222000Y-71907400D01*
X125222000Y-73634600D02*
X125806200Y-74206100D01*
X125234700Y-73647300D02*
X125234700Y-72885300D01*
X125793500Y-74206100D02*
X126834900Y-74206100D01*
X126822200Y-71018400D02*
X125818900Y-71018400D01*
X126822200Y-71031100D02*
X127457200Y-71640700D01*
X127431800Y-73596500D02*
X126873000Y-74180700D01*
X127444500Y-71628000D02*
X127444500Y-73558400D01*
D19*
X128295400Y-70675500D02*
X128295400Y-73825100D01*
X128308100Y-70675500D02*
X128295400Y-70675500D01*
X128320800Y-70675500D02*
X128308100Y-70675500D01*
X128435100Y-70764400D02*
X128371600Y-70751700D01*
X128600200Y-70675500D02*
X128320800Y-70675500D01*
D18*
X128600200Y-73748900D02*
X128600200Y-71018400D01*
D19*
X128612900Y-70675500D02*
X128917700Y-70675500D01*
X128739900Y-70751700D02*
X128854200Y-70751700D01*
X128917700Y-70675500D02*
X128917700Y-73710800D01*
D18*
X129057400Y-74193400D02*
X128600200Y-73736200D01*
X130043200Y-74193400D02*
X129057400Y-74193400D01*
D19*
X130238500Y-71361300D02*
X130238500Y-73380600D01*
X130238500Y-73380600D02*
X130848100Y-73380600D01*
X130378200Y-73317100D02*
X130314700Y-73317100D01*
D18*
X130556000Y-71475600D02*
X130556000Y-73075800D01*
D19*
X130721100Y-73317100D02*
X130810000Y-73317100D01*
X130848100Y-73380600D02*
X130873500Y-73380600D01*
X130873500Y-73380600D02*
X130873500Y-71361300D01*
X131457700Y-70726300D02*
X132702300Y-70726300D01*
X131457700Y-73723500D02*
X131457700Y-70739000D01*
X131610100Y-70789800D02*
X131533900Y-70789800D01*
D18*
X131775200Y-71043800D02*
X132613400Y-71043800D01*
X131775200Y-73634600D02*
X131775200Y-71043800D01*
X132613400Y-71043800D02*
X133223000Y-71551800D01*
D19*
X132702300Y-70726300D02*
X133286500Y-71208900D01*
D18*
X133324600Y-72339200D02*
X133324600Y-71628000D01*
X133400800Y-71551800D02*
X134035800Y-71043800D01*
D19*
X133946900Y-70726300D02*
X133324600Y-71221600D01*
X133972300Y-70726300D02*
X133946900Y-70726300D01*
D18*
X134035800Y-71043800D02*
X134924800Y-71043800D01*
X134937500Y-71031100D02*
X134937500Y-73634600D01*
D19*
X135115300Y-70802500D02*
X135216900Y-70802500D01*
X135267700Y-70726300D02*
X133972300Y-70726300D01*
X135267700Y-70739000D02*
X135267700Y-70726300D01*
X135267700Y-73748900D02*
X135267700Y-70739000D01*
D18*
X136194800Y-71501000D02*
X136677400Y-70993000D01*
X136194800Y-71526400D02*
X136194800Y-73761600D01*
X136194800Y-73761600D02*
X136626600Y-74193400D01*
X136626600Y-74193400D02*
X137947400Y-74193400D01*
D19*
X136639300Y-70688200D02*
X138010900Y-70688200D01*
D18*
X136725500Y-71018400D02*
X137947400Y-71018400D01*
X137414000Y-72593200D02*
X136194800Y-72593200D01*
X137947400Y-71018400D02*
X139039600Y-72085200D01*
X137947400Y-74193400D02*
X139090400Y-73075800D01*
D19*
X138010900Y-70688200D02*
X138061700Y-70688200D01*
X138061700Y-70688200D02*
X139319000Y-71932800D01*
D20*
X139065000Y-72199500D02*
X139623800Y-72199500D01*
X139090400Y-72974200D02*
X139623800Y-72974200D01*
D18*
X140436600Y-73888600D02*
X139598400Y-73075800D01*
X140487400Y-71208900D02*
X139623800Y-72102600D01*
D21*
X125572147Y-72390000D02*
G75*
G03*
X125572147Y-72390000I-337447J0D01*
G01*
X130922324Y-74168000D02*
G75*
G03*
X130922324Y-74168000I-366324J0D01*
G01*
X130942218Y-70942200D02*
G75*
G03*
X130942218Y-70942200I-373518J0D01*
G01*
X132147559Y-74142600D02*
G75*
G03*
X132147559Y-74142600I-359659J0D01*
G01*
X133695518Y-72872600D02*
G75*
G03*
X133695518Y-72872600I-370918J0D01*
G01*
X135300729Y-74155300D02*
G75*
G03*
X135300729Y-74155300I-363229J0D01*
G01*
X138281659Y-72593200D02*
G75*
G03*
X138281659Y-72593200I-359659J0D01*
G01*
X141096266Y-74244200D02*
G75*
G03*
X141096266Y-74244200I-329466J0D01*
G01*
X141215135Y-70853300D02*
G75*
G03*
X141215135Y-70853300I-359435J0D01*
G01*
D11*
X111379000Y-73406000D02*
X110744000Y-73406000D01*
X110744000Y-73406000D02*
X110109000Y-73787000D01*
X110744000Y-73025000D02*
X110744000Y-73787000D01*
D17*
X110744000Y-72433000D02*
X110236000Y-71925000D01*
X110744000Y-71925000D02*
X110236000Y-71290000D01*
X110490000Y-71290000D02*
X110236000Y-71163000D01*
X110236000Y-71925000D02*
X110744000Y-71925000D01*
X110236000Y-71417000D02*
X110490000Y-71290000D01*
X110236000Y-71290000D02*
X110236000Y-71417000D01*
X110236000Y-71290000D02*
X110236000Y-71163000D01*
X110236000Y-71163000D02*
X110363000Y-71290000D01*
D11*
X110109000Y-73787000D02*
X110109000Y-73025000D01*
X110109000Y-73406000D02*
X109474000Y-73406000D01*
X110109000Y-73025000D02*
X110744000Y-73406000D01*
X108790000Y-73440000D02*
G75*
G03*
X112190000Y-73440000I1700000J1050000D01*
G01*
X112190000Y-71340000D02*
G75*
G03*
X108790000Y-71340000I-1700000J-1050000D01*
G01*
D22*
X145645910Y-76933034D02*
X145724454Y-76933464D01*
X145781298Y-76934628D01*
X145820105Y-76936893D01*
X145844538Y-76940626D01*
X145858262Y-76946192D01*
X145864940Y-76953959D01*
X145868236Y-76964291D01*
X145868556Y-76965629D01*
X145873562Y-76989765D01*
X145882829Y-77037387D01*
X145895392Y-77103427D01*
X145910287Y-77182814D01*
X145926551Y-77270482D01*
X145927119Y-77273561D01*
X145943410Y-77359475D01*
X145958652Y-77435382D01*
X145971861Y-77496731D01*
X145982054Y-77538968D01*
X145988248Y-77557541D01*
X145988543Y-77557870D01*
X146006788Y-77566939D01*
X146044405Y-77582053D01*
X146093271Y-77599948D01*
X146093543Y-77600044D01*
X146155093Y-77623179D01*
X146227657Y-77652651D01*
X146296057Y-77682283D01*
X146299294Y-77683748D01*
X146410702Y-77734312D01*
X146657399Y-77565846D01*
X146733077Y-77514489D01*
X146801631Y-77468575D01*
X146859088Y-77430716D01*
X146901476Y-77403523D01*
X146924825Y-77389607D01*
X146927042Y-77388575D01*
X146944010Y-77393170D01*
X146975701Y-77415341D01*
X147023352Y-77456133D01*
X147088198Y-77516591D01*
X147154397Y-77580913D01*
X147218214Y-77644298D01*
X147275329Y-77702137D01*
X147322305Y-77750861D01*
X147355703Y-77786896D01*
X147372085Y-77806670D01*
X147372694Y-77807688D01*
X147374505Y-77821258D01*
X147367683Y-77843419D01*
X147350540Y-77877164D01*
X147321393Y-77925486D01*
X147278555Y-77991378D01*
X147221448Y-78076203D01*
X147170766Y-78150863D01*
X147125461Y-78217826D01*
X147088150Y-78273202D01*
X147061452Y-78313106D01*
X147047985Y-78333648D01*
X147047137Y-78335042D01*
X147048781Y-78354724D01*
X147061245Y-78392979D01*
X147082048Y-78442575D01*
X147089462Y-78458414D01*
X147121814Y-78528976D01*
X147156328Y-78609039D01*
X147184365Y-78678315D01*
X147204568Y-78729731D01*
X147220615Y-78768805D01*
X147229888Y-78789227D01*
X147231041Y-78790800D01*
X147248096Y-78793407D01*
X147288298Y-78800549D01*
X147346302Y-78811209D01*
X147416763Y-78824371D01*
X147494335Y-78839019D01*
X147573672Y-78854135D01*
X147649431Y-78868704D01*
X147716264Y-78881708D01*
X147768828Y-78892131D01*
X147801776Y-78898956D01*
X147809857Y-78900885D01*
X147818205Y-78905648D01*
X147824506Y-78916404D01*
X147829045Y-78936784D01*
X147832104Y-78970420D01*
X147833967Y-79020941D01*
X147834918Y-79091978D01*
X147835240Y-79187162D01*
X147835257Y-79226178D01*
X147835257Y-79543485D01*
X147759057Y-79558525D01*
X147716663Y-79566681D01*
X147653400Y-79578585D01*
X147576962Y-79592802D01*
X147495043Y-79607896D01*
X147472400Y-79612041D01*
X147396806Y-79626739D01*
X147330953Y-79641191D01*
X147280366Y-79654061D01*
X147250574Y-79664008D01*
X147245612Y-79666973D01*
X147233426Y-79687969D01*
X147215953Y-79728653D01*
X147196577Y-79781008D01*
X147192734Y-79792286D01*
X147167339Y-79862209D01*
X147135817Y-79941104D01*
X147104969Y-80011952D01*
X147104817Y-80012281D01*
X147053447Y-80123419D01*
X147222399Y-80371939D01*
X147391352Y-80620458D01*
X147174429Y-80837744D01*
X147108819Y-80902412D01*
X147048979Y-80959419D01*
X146998267Y-81005719D01*
X146960046Y-81038270D01*
X146937675Y-81054029D01*
X146934466Y-81055029D01*
X146915626Y-81047155D01*
X146877180Y-81025264D01*
X146823330Y-80991953D01*
X146758276Y-80949817D01*
X146687940Y-80902629D01*
X146616555Y-80854496D01*
X146552908Y-80812614D01*
X146501041Y-80779557D01*
X146464995Y-80757904D01*
X146448867Y-80750229D01*
X146429189Y-80756723D01*
X146391875Y-80773836D01*
X146344621Y-80798012D01*
X146339612Y-80800699D01*
X146275977Y-80832613D01*
X146232341Y-80848265D01*
X146205202Y-80848431D01*
X146191057Y-80833890D01*
X146190975Y-80833686D01*
X146183905Y-80816465D01*
X146167042Y-80775585D01*
X146141695Y-80714211D01*
X146109171Y-80635505D01*
X146070778Y-80542633D01*
X146027822Y-80438758D01*
X145986222Y-80338188D01*
X145940504Y-80227202D01*
X145898526Y-80124389D01*
X145861548Y-80032901D01*
X145830827Y-79955887D01*
X145807622Y-79896501D01*
X145793190Y-79857895D01*
X145788743Y-79843486D01*
X145799896Y-79826958D01*
X145829069Y-79800616D01*
X145867971Y-79771573D01*
X145978757Y-79679725D01*
X146065351Y-79574445D01*
X146126716Y-79457952D01*
X146161815Y-79332462D01*
X146169608Y-79200193D01*
X146163943Y-79139143D01*
X146133078Y-79012481D01*
X146079920Y-78900627D01*
X146007767Y-78804687D01*
X145919917Y-78725762D01*
X145819665Y-78664956D01*
X145710310Y-78623373D01*
X145595147Y-78602114D01*
X145477475Y-78602285D01*
X145360590Y-78624987D01*
X145247789Y-78671324D01*
X145142369Y-78742399D01*
X145098368Y-78782597D01*
X145013979Y-78885815D01*
X144955222Y-78998611D01*
X144921704Y-79117696D01*
X144913035Y-79239781D01*
X144928823Y-79361579D01*
X144968678Y-79479802D01*
X145032207Y-79591161D01*
X145119021Y-79692370D01*
X145216029Y-79771573D01*
X145256437Y-79801848D01*
X145284982Y-79827905D01*
X145295257Y-79843511D01*
X145289877Y-79860529D01*
X145274575Y-79901186D01*
X145250612Y-79962328D01*
X145219244Y-80040805D01*
X145181732Y-80133466D01*
X145139333Y-80237158D01*
X145097663Y-80338212D01*
X145051690Y-80449293D01*
X145009107Y-80552227D01*
X144971221Y-80643851D01*
X144939340Y-80721002D01*
X144914771Y-80780517D01*
X144898820Y-80819230D01*
X144892910Y-80833686D01*
X144878948Y-80848371D01*
X144851940Y-80848328D01*
X144808413Y-80832785D01*
X144744890Y-80800970D01*
X144744388Y-80800699D01*
X144696560Y-80776009D01*
X144657897Y-80758024D01*
X144636095Y-80750300D01*
X144635133Y-80750229D01*
X144618721Y-80758064D01*
X144582487Y-80779851D01*
X144530474Y-80813014D01*
X144466725Y-80854977D01*
X144396060Y-80902629D01*
X144324116Y-80950877D01*
X144259274Y-80992837D01*
X144205735Y-81025913D01*
X144167697Y-81047507D01*
X144149533Y-81055029D01*
X144132808Y-81045143D01*
X144099180Y-81017512D01*
X144052010Y-80975181D01*
X143994658Y-80921191D01*
X143930484Y-80858585D01*
X143909497Y-80837669D01*
X143692499Y-80620309D01*
X143857668Y-80377906D01*
X143907864Y-80303467D01*
X143951919Y-80236658D01*
X143987362Y-80181351D01*
X144011719Y-80141415D01*
X144022522Y-80120722D01*
X144022838Y-80119249D01*
X144017143Y-80099744D01*
X144001826Y-80060508D01*
X143979537Y-80008116D01*
X143963893Y-79973041D01*
X143934641Y-79905887D01*
X143907094Y-79838044D01*
X143885737Y-79780720D01*
X143879935Y-79763258D01*
X143863452Y-79716624D01*
X143847340Y-79680591D01*
X143838490Y-79666973D01*
X143818960Y-79658638D01*
X143776334Y-79646823D01*
X143716145Y-79632867D01*
X143643922Y-79618108D01*
X143611600Y-79612041D01*
X143529522Y-79596959D01*
X143450795Y-79582355D01*
X143383109Y-79569666D01*
X143334160Y-79560328D01*
X143324943Y-79558525D01*
X143248743Y-79543485D01*
X143248743Y-79226178D01*
X143248914Y-79121840D01*
X143249616Y-79042899D01*
X143251134Y-78985724D01*
X143253749Y-78946685D01*
X143257746Y-78922151D01*
X143263409Y-78908491D01*
X143271020Y-78902075D01*
X143274143Y-78900885D01*
X143292978Y-78896666D01*
X143334588Y-78888248D01*
X143393630Y-78876647D01*
X143464757Y-78862881D01*
X143542625Y-78847966D01*
X143621887Y-78832918D01*
X143697198Y-78818755D01*
X143763213Y-78806492D01*
X143814587Y-78797147D01*
X143845975Y-78791736D01*
X143852959Y-78790800D01*
X143859285Y-78778282D01*
X143873290Y-78744932D01*
X143892355Y-78697063D01*
X143899634Y-78678315D01*
X143928996Y-78605881D01*
X143963571Y-78525856D01*
X143994537Y-78458414D01*
X144017323Y-78406845D01*
X144032482Y-78364471D01*
X144037542Y-78338520D01*
X144036736Y-78335042D01*
X144026041Y-78318622D01*
X144001620Y-78282103D01*
X143966095Y-78229373D01*
X143922087Y-78164321D01*
X143872217Y-78090837D01*
X143862356Y-78076331D01*
X143804492Y-77990390D01*
X143761956Y-77924947D01*
X143733054Y-77876990D01*
X143716090Y-77843506D01*
X143709367Y-77821481D01*
X143711190Y-77807903D01*
X143711236Y-77807817D01*
X143725586Y-77789983D01*
X143757323Y-77755503D01*
X143803010Y-77707954D01*
X143859204Y-77650908D01*
X143922468Y-77587941D01*
X143929602Y-77580913D01*
X144009330Y-77503706D01*
X144070857Y-77447016D01*
X144115421Y-77409796D01*
X144144257Y-77391001D01*
X144156958Y-77388575D01*
X144175494Y-77399157D01*
X144213961Y-77423602D01*
X144268386Y-77459298D01*
X144334798Y-77503633D01*
X144409225Y-77553997D01*
X144426601Y-77565846D01*
X144673297Y-77734312D01*
X144784706Y-77683748D01*
X144852457Y-77654281D01*
X144925183Y-77624645D01*
X144987703Y-77601016D01*
X144990457Y-77600044D01*
X145039360Y-77582143D01*
X145077057Y-77567006D01*
X145095425Y-77557896D01*
X145095456Y-77557870D01*
X145101285Y-77541403D01*
X145111192Y-77500905D01*
X145124195Y-77440928D01*
X145139309Y-77366026D01*
X145155552Y-77280750D01*
X145156881Y-77273561D01*
X145173175Y-77185700D01*
X145188133Y-77105946D01*
X145200791Y-77039367D01*
X145210186Y-76991033D01*
X145215354Y-76966011D01*
X145215444Y-76965629D01*
X145218589Y-76954985D01*
X145224704Y-76946948D01*
X145237453Y-76941153D01*
X145260500Y-76937233D01*
X145297509Y-76934821D01*
X145352144Y-76933551D01*
X145428067Y-76933057D01*
X145528944Y-76932972D01*
X145542000Y-76932972D01*
X145645910Y-76933034D01*
G36*
X145645910Y-76933034D02*
G01*
X145724454Y-76933464D01*
X145781298Y-76934628D01*
X145820105Y-76936893D01*
X145844538Y-76940626D01*
X145858262Y-76946192D01*
X145864940Y-76953959D01*
X145868236Y-76964291D01*
X145868556Y-76965629D01*
X145873562Y-76989765D01*
X145882829Y-77037387D01*
X145895392Y-77103427D01*
X145910287Y-77182814D01*
X145926551Y-77270482D01*
X145927119Y-77273561D01*
X145943410Y-77359475D01*
X145958652Y-77435382D01*
X145971861Y-77496731D01*
X145982054Y-77538968D01*
X145988248Y-77557541D01*
X145988543Y-77557870D01*
X146006788Y-77566939D01*
X146044405Y-77582053D01*
X146093271Y-77599948D01*
X146093543Y-77600044D01*
X146155093Y-77623179D01*
X146227657Y-77652651D01*
X146296057Y-77682283D01*
X146299294Y-77683748D01*
X146410702Y-77734312D01*
X146657399Y-77565846D01*
X146733077Y-77514489D01*
X146801631Y-77468575D01*
X146859088Y-77430716D01*
X146901476Y-77403523D01*
X146924825Y-77389607D01*
X146927042Y-77388575D01*
X146944010Y-77393170D01*
X146975701Y-77415341D01*
X147023352Y-77456133D01*
X147088198Y-77516591D01*
X147154397Y-77580913D01*
X147218214Y-77644298D01*
X147275329Y-77702137D01*
X147322305Y-77750861D01*
X147355703Y-77786896D01*
X147372085Y-77806670D01*
X147372694Y-77807688D01*
X147374505Y-77821258D01*
X147367683Y-77843419D01*
X147350540Y-77877164D01*
X147321393Y-77925486D01*
X147278555Y-77991378D01*
X147221448Y-78076203D01*
X147170766Y-78150863D01*
X147125461Y-78217826D01*
X147088150Y-78273202D01*
X147061452Y-78313106D01*
X147047985Y-78333648D01*
X147047137Y-78335042D01*
X147048781Y-78354724D01*
X147061245Y-78392979D01*
X147082048Y-78442575D01*
X147089462Y-78458414D01*
X147121814Y-78528976D01*
X147156328Y-78609039D01*
X147184365Y-78678315D01*
X147204568Y-78729731D01*
X147220615Y-78768805D01*
X147229888Y-78789227D01*
X147231041Y-78790800D01*
X147248096Y-78793407D01*
X147288298Y-78800549D01*
X147346302Y-78811209D01*
X147416763Y-78824371D01*
X147494335Y-78839019D01*
X147573672Y-78854135D01*
X147649431Y-78868704D01*
X147716264Y-78881708D01*
X147768828Y-78892131D01*
X147801776Y-78898956D01*
X147809857Y-78900885D01*
X147818205Y-78905648D01*
X147824506Y-78916404D01*
X147829045Y-78936784D01*
X147832104Y-78970420D01*
X147833967Y-79020941D01*
X147834918Y-79091978D01*
X147835240Y-79187162D01*
X147835257Y-79226178D01*
X147835257Y-79543485D01*
X147759057Y-79558525D01*
X147716663Y-79566681D01*
X147653400Y-79578585D01*
X147576962Y-79592802D01*
X147495043Y-79607896D01*
X147472400Y-79612041D01*
X147396806Y-79626739D01*
X147330953Y-79641191D01*
X147280366Y-79654061D01*
X147250574Y-79664008D01*
X147245612Y-79666973D01*
X147233426Y-79687969D01*
X147215953Y-79728653D01*
X147196577Y-79781008D01*
X147192734Y-79792286D01*
X147167339Y-79862209D01*
X147135817Y-79941104D01*
X147104969Y-80011952D01*
X147104817Y-80012281D01*
X147053447Y-80123419D01*
X147222399Y-80371939D01*
X147391352Y-80620458D01*
X147174429Y-80837744D01*
X147108819Y-80902412D01*
X147048979Y-80959419D01*
X146998267Y-81005719D01*
X146960046Y-81038270D01*
X146937675Y-81054029D01*
X146934466Y-81055029D01*
X146915626Y-81047155D01*
X146877180Y-81025264D01*
X146823330Y-80991953D01*
X146758276Y-80949817D01*
X146687940Y-80902629D01*
X146616555Y-80854496D01*
X146552908Y-80812614D01*
X146501041Y-80779557D01*
X146464995Y-80757904D01*
X146448867Y-80750229D01*
X146429189Y-80756723D01*
X146391875Y-80773836D01*
X146344621Y-80798012D01*
X146339612Y-80800699D01*
X146275977Y-80832613D01*
X146232341Y-80848265D01*
X146205202Y-80848431D01*
X146191057Y-80833890D01*
X146190975Y-80833686D01*
X146183905Y-80816465D01*
X146167042Y-80775585D01*
X146141695Y-80714211D01*
X146109171Y-80635505D01*
X146070778Y-80542633D01*
X146027822Y-80438758D01*
X145986222Y-80338188D01*
X145940504Y-80227202D01*
X145898526Y-80124389D01*
X145861548Y-80032901D01*
X145830827Y-79955887D01*
X145807622Y-79896501D01*
X145793190Y-79857895D01*
X145788743Y-79843486D01*
X145799896Y-79826958D01*
X145829069Y-79800616D01*
X145867971Y-79771573D01*
X145978757Y-79679725D01*
X146065351Y-79574445D01*
X146126716Y-79457952D01*
X146161815Y-79332462D01*
X146169608Y-79200193D01*
X146163943Y-79139143D01*
X146133078Y-79012481D01*
X146079920Y-78900627D01*
X146007767Y-78804687D01*
X145919917Y-78725762D01*
X145819665Y-78664956D01*
X145710310Y-78623373D01*
X145595147Y-78602114D01*
X145477475Y-78602285D01*
X145360590Y-78624987D01*
X145247789Y-78671324D01*
X145142369Y-78742399D01*
X145098368Y-78782597D01*
X145013979Y-78885815D01*
X144955222Y-78998611D01*
X144921704Y-79117696D01*
X144913035Y-79239781D01*
X144928823Y-79361579D01*
X144968678Y-79479802D01*
X145032207Y-79591161D01*
X145119021Y-79692370D01*
X145216029Y-79771573D01*
X145256437Y-79801848D01*
X145284982Y-79827905D01*
X145295257Y-79843511D01*
X145289877Y-79860529D01*
X145274575Y-79901186D01*
X145250612Y-79962328D01*
X145219244Y-80040805D01*
X145181732Y-80133466D01*
X145139333Y-80237158D01*
X145097663Y-80338212D01*
X145051690Y-80449293D01*
X145009107Y-80552227D01*
X144971221Y-80643851D01*
X144939340Y-80721002D01*
X144914771Y-80780517D01*
X144898820Y-80819230D01*
X144892910Y-80833686D01*
X144878948Y-80848371D01*
X144851940Y-80848328D01*
X144808413Y-80832785D01*
X144744890Y-80800970D01*
X144744388Y-80800699D01*
X144696560Y-80776009D01*
X144657897Y-80758024D01*
X144636095Y-80750300D01*
X144635133Y-80750229D01*
X144618721Y-80758064D01*
X144582487Y-80779851D01*
X144530474Y-80813014D01*
X144466725Y-80854977D01*
X144396060Y-80902629D01*
X144324116Y-80950877D01*
X144259274Y-80992837D01*
X144205735Y-81025913D01*
X144167697Y-81047507D01*
X144149533Y-81055029D01*
X144132808Y-81045143D01*
X144099180Y-81017512D01*
X144052010Y-80975181D01*
X143994658Y-80921191D01*
X143930484Y-80858585D01*
X143909497Y-80837669D01*
X143692499Y-80620309D01*
X143857668Y-80377906D01*
X143907864Y-80303467D01*
X143951919Y-80236658D01*
X143987362Y-80181351D01*
X144011719Y-80141415D01*
X144022522Y-80120722D01*
X144022838Y-80119249D01*
X144017143Y-80099744D01*
X144001826Y-80060508D01*
X143979537Y-80008116D01*
X143963893Y-79973041D01*
X143934641Y-79905887D01*
X143907094Y-79838044D01*
X143885737Y-79780720D01*
X143879935Y-79763258D01*
X143863452Y-79716624D01*
X143847340Y-79680591D01*
X143838490Y-79666973D01*
X143818960Y-79658638D01*
X143776334Y-79646823D01*
X143716145Y-79632867D01*
X143643922Y-79618108D01*
X143611600Y-79612041D01*
X143529522Y-79596959D01*
X143450795Y-79582355D01*
X143383109Y-79569666D01*
X143334160Y-79560328D01*
X143324943Y-79558525D01*
X143248743Y-79543485D01*
X143248743Y-79226178D01*
X143248914Y-79121840D01*
X143249616Y-79042899D01*
X143251134Y-78985724D01*
X143253749Y-78946685D01*
X143257746Y-78922151D01*
X143263409Y-78908491D01*
X143271020Y-78902075D01*
X143274143Y-78900885D01*
X143292978Y-78896666D01*
X143334588Y-78888248D01*
X143393630Y-78876647D01*
X143464757Y-78862881D01*
X143542625Y-78847966D01*
X143621887Y-78832918D01*
X143697198Y-78818755D01*
X143763213Y-78806492D01*
X143814587Y-78797147D01*
X143845975Y-78791736D01*
X143852959Y-78790800D01*
X143859285Y-78778282D01*
X143873290Y-78744932D01*
X143892355Y-78697063D01*
X143899634Y-78678315D01*
X143928996Y-78605881D01*
X143963571Y-78525856D01*
X143994537Y-78458414D01*
X144017323Y-78406845D01*
X144032482Y-78364471D01*
X144037542Y-78338520D01*
X144036736Y-78335042D01*
X144026041Y-78318622D01*
X144001620Y-78282103D01*
X143966095Y-78229373D01*
X143922087Y-78164321D01*
X143872217Y-78090837D01*
X143862356Y-78076331D01*
X143804492Y-77990390D01*
X143761956Y-77924947D01*
X143733054Y-77876990D01*
X143716090Y-77843506D01*
X143709367Y-77821481D01*
X143711190Y-77807903D01*
X143711236Y-77807817D01*
X143725586Y-77789983D01*
X143757323Y-77755503D01*
X143803010Y-77707954D01*
X143859204Y-77650908D01*
X143922468Y-77587941D01*
X143929602Y-77580913D01*
X144009330Y-77503706D01*
X144070857Y-77447016D01*
X144115421Y-77409796D01*
X144144257Y-77391001D01*
X144156958Y-77388575D01*
X144175494Y-77399157D01*
X144213961Y-77423602D01*
X144268386Y-77459298D01*
X144334798Y-77503633D01*
X144409225Y-77553997D01*
X144426601Y-77565846D01*
X144673297Y-77734312D01*
X144784706Y-77683748D01*
X144852457Y-77654281D01*
X144925183Y-77624645D01*
X144987703Y-77601016D01*
X144990457Y-77600044D01*
X145039360Y-77582143D01*
X145077057Y-77567006D01*
X145095425Y-77557896D01*
X145095456Y-77557870D01*
X145101285Y-77541403D01*
X145111192Y-77500905D01*
X145124195Y-77440928D01*
X145139309Y-77366026D01*
X145155552Y-77280750D01*
X145156881Y-77273561D01*
X145173175Y-77185700D01*
X145188133Y-77105946D01*
X145200791Y-77039367D01*
X145210186Y-76991033D01*
X145215354Y-76966011D01*
X145215444Y-76965629D01*
X145218589Y-76954985D01*
X145224704Y-76946948D01*
X145237453Y-76941153D01*
X145260500Y-76937233D01*
X145297509Y-76934821D01*
X145352144Y-76933551D01*
X145428067Y-76933057D01*
X145528944Y-76932972D01*
X145542000Y-76932972D01*
X145645910Y-76933034D01*
G37*
D11*
X111379000Y-77851000D02*
X110744000Y-77851000D01*
X110744000Y-77851000D02*
X110109000Y-78232000D01*
X110744000Y-77470000D02*
X110744000Y-78232000D01*
D17*
X110744000Y-76878000D02*
X110236000Y-76370000D01*
X110744000Y-76370000D02*
X110236000Y-75735000D01*
X110490000Y-75735000D02*
X110236000Y-75608000D01*
X110236000Y-76370000D02*
X110744000Y-76370000D01*
X110236000Y-75862000D02*
X110490000Y-75735000D01*
X110236000Y-75735000D02*
X110236000Y-75862000D01*
X110236000Y-75735000D02*
X110236000Y-75608000D01*
X110236000Y-75608000D02*
X110363000Y-75735000D01*
D11*
X110109000Y-78232000D02*
X110109000Y-77470000D01*
X110109000Y-77851000D02*
X109474000Y-77851000D01*
X110109000Y-77470000D02*
X110744000Y-77851000D01*
X108790000Y-77885000D02*
G75*
G03*
X112190000Y-77885000I1700000J1050000D01*
G01*
X112190000Y-75785000D02*
G75*
G03*
X108790000Y-75785000I-1700000J-1050000D01*
G01*
X194094000Y-80540000D02*
X194094000Y-75460000D01*
X194094000Y-80540000D02*
X174155000Y-80540000D01*
X194094000Y-75460000D02*
X150406000Y-75460000D01*
X174155000Y-81556000D02*
X170345000Y-81556000D01*
X174155000Y-80540000D02*
X174155000Y-81556000D01*
X170345000Y-81556000D02*
X170345000Y-80540000D01*
X170345000Y-80540000D02*
X150406000Y-80540000D01*
X150406000Y-80540000D02*
X150406000Y-75460000D01*
X137061000Y-78137000D02*
X137061000Y-78637000D01*
X137061000Y-81637000D02*
X137061000Y-82137000D01*
X139061000Y-79887000D02*
X140311000Y-79887000D01*
X140311000Y-79887000D02*
X140311000Y-80387000D01*
X140311000Y-80137000D02*
X139061000Y-80137000D01*
X140311000Y-80387000D02*
X139061000Y-80387000D01*
X140561000Y-78137000D02*
X140561000Y-78637000D01*
X140561000Y-81637000D02*
X140561000Y-82137000D01*
D23*
X137011000Y-78387000D02*
G75*
G03*
X137011020Y-81887001I49997J-1750000D01*
G01*
D11*
X137061000Y-78637000D02*
G75*
G03*
X137061000Y-81637000I0J-1500000D01*
G01*
X137061000Y-78137000D02*
G75*
G03*
X137061000Y-82137000I0J-2000000D01*
G01*
D23*
X140511000Y-78387000D02*
G75*
G03*
X140511020Y-81887000I50000J-1750000D01*
G01*
D11*
X140561000Y-78637000D02*
G75*
G03*
X140561000Y-81637000I0J-1500000D01*
G01*
X140561000Y-78137000D02*
G75*
G03*
X140561000Y-82137000I0J-2000000D01*
G01*
M02*
