G04 #@! TF.GenerationSoftware,KiCad,Pcbnew,7.0.5-4d25ed1034~172~ubuntu22.04.1*
G04 #@! TF.CreationDate,2023-06-02T09:39:03+03:00*
G04 #@! TF.ProjectId,AgonLight2-PROTO_Rev_A,41676f6e-4c69-4676-9874-322d50524f54,A*
G04 #@! TF.SameCoordinates,Original*
G04 #@! TF.FileFunction,Copper,L1,Top*
G04 #@! TF.FilePolarity,Positive*
%FSLAX46Y46*%
G04 Gerber Fmt 4.6, Leading zero omitted, Abs format (unit mm)*
G04 Created by KiCad (PCBNEW 7.0.5-4d25ed1034~172~ubuntu22.04.1) date 2023-06-02 09:39:03*
%MOMM*%
%LPD*%
G01*
G04 APERTURE LIST*
%ADD10C,1.016000*%
G04 #@! TA.AperFunction,NonConductor*
%ADD11C,1.016000*%
G04 #@! TD*
G04 #@! TA.AperFunction,ComponentPad*
%ADD12R,1.778000X1.778000*%
G04 #@! TD*
G04 #@! TA.AperFunction,ComponentPad*
%ADD13C,1.524000*%
G04 #@! TD*
G04 #@! TA.AperFunction,SMDPad,CuDef*
%ADD14R,1.524000X3.556000*%
G04 #@! TD*
G04 #@! TA.AperFunction,ComponentPad*
%ADD15R,1.524000X1.524000*%
G04 #@! TD*
G04 #@! TA.AperFunction,ComponentPad*
%ADD16R,1.700000X1.700000*%
G04 #@! TD*
G04 #@! TA.AperFunction,ComponentPad*
%ADD17C,1.700000*%
G04 #@! TD*
G04 #@! TA.AperFunction,ViaPad*
%ADD18C,1.000000*%
G04 #@! TD*
G04 #@! TA.AperFunction,Conductor*
%ADD19C,0.304800*%
G04 #@! TD*
G04 #@! TA.AperFunction,Conductor*
%ADD20C,1.016000*%
G04 #@! TD*
G04 #@! TA.AperFunction,Conductor*
%ADD21C,1.270000*%
G04 #@! TD*
G04 #@! TA.AperFunction,Conductor*
%ADD22C,1.778000*%
G04 #@! TD*
G04 #@! TA.AperFunction,Conductor*
%ADD23C,0.762000*%
G04 #@! TD*
G04 #@! TA.AperFunction,Conductor*
%ADD24C,1.524000*%
G04 #@! TD*
G04 APERTURE END LIST*
D10*
D11*
X126758096Y-138950482D02*
X127000000Y-138708577D01*
X127000000Y-138708577D02*
X127483810Y-138466672D01*
X127483810Y-138466672D02*
X128693334Y-138466672D01*
X128693334Y-138466672D02*
X129177143Y-138708577D01*
X129177143Y-138708577D02*
X129419048Y-138950482D01*
X129419048Y-138950482D02*
X129660953Y-139434291D01*
X129660953Y-139434291D02*
X129660953Y-139918101D01*
X129660953Y-139918101D02*
X129419048Y-140643815D01*
X129419048Y-140643815D02*
X126516191Y-143546672D01*
X126516191Y-143546672D02*
X129660953Y-143546672D01*
X134257143Y-143546672D02*
X131838095Y-143546672D01*
X131838095Y-143546672D02*
X131838095Y-138466672D01*
X138127619Y-143546672D02*
X138127619Y-140885720D01*
X138127619Y-140885720D02*
X137885714Y-140401910D01*
X137885714Y-140401910D02*
X137401905Y-140160006D01*
X137401905Y-140160006D02*
X136434286Y-140160006D01*
X136434286Y-140160006D02*
X135950476Y-140401910D01*
X138127619Y-143304768D02*
X137643810Y-143546672D01*
X137643810Y-143546672D02*
X136434286Y-143546672D01*
X136434286Y-143546672D02*
X135950476Y-143304768D01*
X135950476Y-143304768D02*
X135708572Y-142820958D01*
X135708572Y-142820958D02*
X135708572Y-142337148D01*
X135708572Y-142337148D02*
X135950476Y-141853339D01*
X135950476Y-141853339D02*
X136434286Y-141611434D01*
X136434286Y-141611434D02*
X137643810Y-141611434D01*
X137643810Y-141611434D02*
X138127619Y-141369529D01*
X140062857Y-140160006D02*
X141272381Y-143546672D01*
X142481904Y-140160006D02*
X141272381Y-143546672D01*
X141272381Y-143546672D02*
X140788571Y-144756196D01*
X140788571Y-144756196D02*
X140546666Y-144998101D01*
X140546666Y-144998101D02*
X140062857Y-145240006D01*
X146352380Y-143304768D02*
X145868571Y-143546672D01*
X145868571Y-143546672D02*
X144900952Y-143546672D01*
X144900952Y-143546672D02*
X144417142Y-143304768D01*
X144417142Y-143304768D02*
X144175238Y-142820958D01*
X144175238Y-142820958D02*
X144175238Y-140885720D01*
X144175238Y-140885720D02*
X144417142Y-140401910D01*
X144417142Y-140401910D02*
X144900952Y-140160006D01*
X144900952Y-140160006D02*
X145868571Y-140160006D01*
X145868571Y-140160006D02*
X146352380Y-140401910D01*
X146352380Y-140401910D02*
X146594285Y-140885720D01*
X146594285Y-140885720D02*
X146594285Y-141369529D01*
X146594285Y-141369529D02*
X144175238Y-141853339D01*
X148771428Y-143546672D02*
X148771428Y-140160006D01*
X148771428Y-141127625D02*
X149013333Y-140643815D01*
X149013333Y-140643815D02*
X149255238Y-140401910D01*
X149255238Y-140401910D02*
X149739047Y-140160006D01*
X149739047Y-140160006D02*
X150222857Y-140160006D01*
X151674286Y-143304768D02*
X152158095Y-143546672D01*
X152158095Y-143546672D02*
X153125714Y-143546672D01*
X153125714Y-143546672D02*
X153609524Y-143304768D01*
X153609524Y-143304768D02*
X153851428Y-142820958D01*
X153851428Y-142820958D02*
X153851428Y-142579053D01*
X153851428Y-142579053D02*
X153609524Y-142095244D01*
X153609524Y-142095244D02*
X153125714Y-141853339D01*
X153125714Y-141853339D02*
X152400000Y-141853339D01*
X152400000Y-141853339D02*
X151916190Y-141611434D01*
X151916190Y-141611434D02*
X151674286Y-141127625D01*
X151674286Y-141127625D02*
X151674286Y-140885720D01*
X151674286Y-140885720D02*
X151916190Y-140401910D01*
X151916190Y-140401910D02*
X152400000Y-140160006D01*
X152400000Y-140160006D02*
X153125714Y-140160006D01*
X153125714Y-140160006D02*
X153609524Y-140401910D01*
X159899047Y-143546672D02*
X159899047Y-138466672D01*
X159899047Y-138466672D02*
X161834285Y-138466672D01*
X161834285Y-138466672D02*
X162318095Y-138708577D01*
X162318095Y-138708577D02*
X162560000Y-138950482D01*
X162560000Y-138950482D02*
X162801904Y-139434291D01*
X162801904Y-139434291D02*
X162801904Y-140160006D01*
X162801904Y-140160006D02*
X162560000Y-140643815D01*
X162560000Y-140643815D02*
X162318095Y-140885720D01*
X162318095Y-140885720D02*
X161834285Y-141127625D01*
X161834285Y-141127625D02*
X159899047Y-141127625D01*
X167881904Y-143062863D02*
X167640000Y-143304768D01*
X167640000Y-143304768D02*
X166914285Y-143546672D01*
X166914285Y-143546672D02*
X166430476Y-143546672D01*
X166430476Y-143546672D02*
X165704762Y-143304768D01*
X165704762Y-143304768D02*
X165220952Y-142820958D01*
X165220952Y-142820958D02*
X164979047Y-142337148D01*
X164979047Y-142337148D02*
X164737143Y-141369529D01*
X164737143Y-141369529D02*
X164737143Y-140643815D01*
X164737143Y-140643815D02*
X164979047Y-139676196D01*
X164979047Y-139676196D02*
X165220952Y-139192387D01*
X165220952Y-139192387D02*
X165704762Y-138708577D01*
X165704762Y-138708577D02*
X166430476Y-138466672D01*
X166430476Y-138466672D02*
X166914285Y-138466672D01*
X166914285Y-138466672D02*
X167640000Y-138708577D01*
X167640000Y-138708577D02*
X167881904Y-138950482D01*
X171752381Y-140885720D02*
X172478095Y-141127625D01*
X172478095Y-141127625D02*
X172720000Y-141369529D01*
X172720000Y-141369529D02*
X172961904Y-141853339D01*
X172961904Y-141853339D02*
X172961904Y-142579053D01*
X172961904Y-142579053D02*
X172720000Y-143062863D01*
X172720000Y-143062863D02*
X172478095Y-143304768D01*
X172478095Y-143304768D02*
X171994285Y-143546672D01*
X171994285Y-143546672D02*
X170059047Y-143546672D01*
X170059047Y-143546672D02*
X170059047Y-138466672D01*
X170059047Y-138466672D02*
X171752381Y-138466672D01*
X171752381Y-138466672D02*
X172236190Y-138708577D01*
X172236190Y-138708577D02*
X172478095Y-138950482D01*
X172478095Y-138950482D02*
X172720000Y-139434291D01*
X172720000Y-139434291D02*
X172720000Y-139918101D01*
X172720000Y-139918101D02*
X172478095Y-140401910D01*
X172478095Y-140401910D02*
X172236190Y-140643815D01*
X172236190Y-140643815D02*
X171752381Y-140885720D01*
X171752381Y-140885720D02*
X170059047Y-140885720D01*
X105470477Y-151725472D02*
X105470477Y-146645472D01*
X105470477Y-146645472D02*
X106680001Y-146645472D01*
X106680001Y-146645472D02*
X107405715Y-146887377D01*
X107405715Y-146887377D02*
X107889525Y-147371187D01*
X107889525Y-147371187D02*
X108131430Y-147854996D01*
X108131430Y-147854996D02*
X108373334Y-148822615D01*
X108373334Y-148822615D02*
X108373334Y-149548329D01*
X108373334Y-149548329D02*
X108131430Y-150515948D01*
X108131430Y-150515948D02*
X107889525Y-150999758D01*
X107889525Y-150999758D02*
X107405715Y-151483568D01*
X107405715Y-151483568D02*
X106680001Y-151725472D01*
X106680001Y-151725472D02*
X105470477Y-151725472D01*
X110550477Y-151725472D02*
X110550477Y-148338806D01*
X110550477Y-146645472D02*
X110308573Y-146887377D01*
X110308573Y-146887377D02*
X110550477Y-147129282D01*
X110550477Y-147129282D02*
X110792382Y-146887377D01*
X110792382Y-146887377D02*
X110550477Y-146645472D01*
X110550477Y-146645472D02*
X110550477Y-147129282D01*
X112969525Y-151725472D02*
X112969525Y-148338806D01*
X112969525Y-148822615D02*
X113211430Y-148580710D01*
X113211430Y-148580710D02*
X113695240Y-148338806D01*
X113695240Y-148338806D02*
X114420954Y-148338806D01*
X114420954Y-148338806D02*
X114904763Y-148580710D01*
X114904763Y-148580710D02*
X115146668Y-149064520D01*
X115146668Y-149064520D02*
X115146668Y-151725472D01*
X115146668Y-149064520D02*
X115388573Y-148580710D01*
X115388573Y-148580710D02*
X115872382Y-148338806D01*
X115872382Y-148338806D02*
X116598097Y-148338806D01*
X116598097Y-148338806D02*
X117081906Y-148580710D01*
X117081906Y-148580710D02*
X117323811Y-149064520D01*
X117323811Y-149064520D02*
X117323811Y-151725472D01*
X121678096Y-151483568D02*
X121194287Y-151725472D01*
X121194287Y-151725472D02*
X120226668Y-151725472D01*
X120226668Y-151725472D02*
X119742858Y-151483568D01*
X119742858Y-151483568D02*
X119500954Y-150999758D01*
X119500954Y-150999758D02*
X119500954Y-149064520D01*
X119500954Y-149064520D02*
X119742858Y-148580710D01*
X119742858Y-148580710D02*
X120226668Y-148338806D01*
X120226668Y-148338806D02*
X121194287Y-148338806D01*
X121194287Y-148338806D02*
X121678096Y-148580710D01*
X121678096Y-148580710D02*
X121920001Y-149064520D01*
X121920001Y-149064520D02*
X121920001Y-149548329D01*
X121920001Y-149548329D02*
X119500954Y-150032139D01*
X124097144Y-148338806D02*
X124097144Y-151725472D01*
X124097144Y-148822615D02*
X124339049Y-148580710D01*
X124339049Y-148580710D02*
X124822859Y-148338806D01*
X124822859Y-148338806D02*
X125548573Y-148338806D01*
X125548573Y-148338806D02*
X126032382Y-148580710D01*
X126032382Y-148580710D02*
X126274287Y-149064520D01*
X126274287Y-149064520D02*
X126274287Y-151725472D01*
X128451430Y-151483568D02*
X128935239Y-151725472D01*
X128935239Y-151725472D02*
X129902858Y-151725472D01*
X129902858Y-151725472D02*
X130386668Y-151483568D01*
X130386668Y-151483568D02*
X130628572Y-150999758D01*
X130628572Y-150999758D02*
X130628572Y-150757853D01*
X130628572Y-150757853D02*
X130386668Y-150274044D01*
X130386668Y-150274044D02*
X129902858Y-150032139D01*
X129902858Y-150032139D02*
X129177144Y-150032139D01*
X129177144Y-150032139D02*
X128693334Y-149790234D01*
X128693334Y-149790234D02*
X128451430Y-149306425D01*
X128451430Y-149306425D02*
X128451430Y-149064520D01*
X128451430Y-149064520D02*
X128693334Y-148580710D01*
X128693334Y-148580710D02*
X129177144Y-148338806D01*
X129177144Y-148338806D02*
X129902858Y-148338806D01*
X129902858Y-148338806D02*
X130386668Y-148580710D01*
X132805715Y-151725472D02*
X132805715Y-148338806D01*
X132805715Y-146645472D02*
X132563811Y-146887377D01*
X132563811Y-146887377D02*
X132805715Y-147129282D01*
X132805715Y-147129282D02*
X133047620Y-146887377D01*
X133047620Y-146887377D02*
X132805715Y-146645472D01*
X132805715Y-146645472D02*
X132805715Y-147129282D01*
X135950478Y-151725472D02*
X135466668Y-151483568D01*
X135466668Y-151483568D02*
X135224763Y-151241663D01*
X135224763Y-151241663D02*
X134982859Y-150757853D01*
X134982859Y-150757853D02*
X134982859Y-149306425D01*
X134982859Y-149306425D02*
X135224763Y-148822615D01*
X135224763Y-148822615D02*
X135466668Y-148580710D01*
X135466668Y-148580710D02*
X135950478Y-148338806D01*
X135950478Y-148338806D02*
X136676192Y-148338806D01*
X136676192Y-148338806D02*
X137160001Y-148580710D01*
X137160001Y-148580710D02*
X137401906Y-148822615D01*
X137401906Y-148822615D02*
X137643811Y-149306425D01*
X137643811Y-149306425D02*
X137643811Y-150757853D01*
X137643811Y-150757853D02*
X137401906Y-151241663D01*
X137401906Y-151241663D02*
X137160001Y-151483568D01*
X137160001Y-151483568D02*
X136676192Y-151725472D01*
X136676192Y-151725472D02*
X135950478Y-151725472D01*
X139820953Y-148338806D02*
X139820953Y-151725472D01*
X139820953Y-148822615D02*
X140062858Y-148580710D01*
X140062858Y-148580710D02*
X140546668Y-148338806D01*
X140546668Y-148338806D02*
X141272382Y-148338806D01*
X141272382Y-148338806D02*
X141756191Y-148580710D01*
X141756191Y-148580710D02*
X141998096Y-149064520D01*
X141998096Y-149064520D02*
X141998096Y-151725472D01*
X144175239Y-151483568D02*
X144659048Y-151725472D01*
X144659048Y-151725472D02*
X145626667Y-151725472D01*
X145626667Y-151725472D02*
X146110477Y-151483568D01*
X146110477Y-151483568D02*
X146352381Y-150999758D01*
X146352381Y-150999758D02*
X146352381Y-150757853D01*
X146352381Y-150757853D02*
X146110477Y-150274044D01*
X146110477Y-150274044D02*
X145626667Y-150032139D01*
X145626667Y-150032139D02*
X144900953Y-150032139D01*
X144900953Y-150032139D02*
X144417143Y-149790234D01*
X144417143Y-149790234D02*
X144175239Y-149306425D01*
X144175239Y-149306425D02*
X144175239Y-149064520D01*
X144175239Y-149064520D02*
X144417143Y-148580710D01*
X144417143Y-148580710D02*
X144900953Y-148338806D01*
X144900953Y-148338806D02*
X145626667Y-148338806D01*
X145626667Y-148338806D02*
X146110477Y-148580710D01*
X148529524Y-151241663D02*
X148771429Y-151483568D01*
X148771429Y-151483568D02*
X148529524Y-151725472D01*
X148529524Y-151725472D02*
X148287620Y-151483568D01*
X148287620Y-151483568D02*
X148529524Y-151241663D01*
X148529524Y-151241663D02*
X148529524Y-151725472D01*
X148529524Y-148580710D02*
X148771429Y-148822615D01*
X148771429Y-148822615D02*
X148529524Y-149064520D01*
X148529524Y-149064520D02*
X148287620Y-148822615D01*
X148287620Y-148822615D02*
X148529524Y-148580710D01*
X148529524Y-148580710D02*
X148529524Y-149064520D01*
X157480001Y-151725472D02*
X154577144Y-151725472D01*
X156028572Y-151725472D02*
X156028572Y-146645472D01*
X156028572Y-146645472D02*
X155544763Y-147371187D01*
X155544763Y-147371187D02*
X155060953Y-147854996D01*
X155060953Y-147854996D02*
X154577144Y-148096901D01*
X160624762Y-146645472D02*
X161108572Y-146645472D01*
X161108572Y-146645472D02*
X161592381Y-146887377D01*
X161592381Y-146887377D02*
X161834286Y-147129282D01*
X161834286Y-147129282D02*
X162076191Y-147613091D01*
X162076191Y-147613091D02*
X162318096Y-148580710D01*
X162318096Y-148580710D02*
X162318096Y-149790234D01*
X162318096Y-149790234D02*
X162076191Y-150757853D01*
X162076191Y-150757853D02*
X161834286Y-151241663D01*
X161834286Y-151241663D02*
X161592381Y-151483568D01*
X161592381Y-151483568D02*
X161108572Y-151725472D01*
X161108572Y-151725472D02*
X160624762Y-151725472D01*
X160624762Y-151725472D02*
X160140953Y-151483568D01*
X160140953Y-151483568D02*
X159899048Y-151241663D01*
X159899048Y-151241663D02*
X159657143Y-150757853D01*
X159657143Y-150757853D02*
X159415239Y-149790234D01*
X159415239Y-149790234D02*
X159415239Y-148580710D01*
X159415239Y-148580710D02*
X159657143Y-147613091D01*
X159657143Y-147613091D02*
X159899048Y-147129282D01*
X159899048Y-147129282D02*
X160140953Y-146887377D01*
X160140953Y-146887377D02*
X160624762Y-146645472D01*
X165462857Y-146645472D02*
X165946667Y-146645472D01*
X165946667Y-146645472D02*
X166430476Y-146887377D01*
X166430476Y-146887377D02*
X166672381Y-147129282D01*
X166672381Y-147129282D02*
X166914286Y-147613091D01*
X166914286Y-147613091D02*
X167156191Y-148580710D01*
X167156191Y-148580710D02*
X167156191Y-149790234D01*
X167156191Y-149790234D02*
X166914286Y-150757853D01*
X166914286Y-150757853D02*
X166672381Y-151241663D01*
X166672381Y-151241663D02*
X166430476Y-151483568D01*
X166430476Y-151483568D02*
X165946667Y-151725472D01*
X165946667Y-151725472D02*
X165462857Y-151725472D01*
X165462857Y-151725472D02*
X164979048Y-151483568D01*
X164979048Y-151483568D02*
X164737143Y-151241663D01*
X164737143Y-151241663D02*
X164495238Y-150757853D01*
X164495238Y-150757853D02*
X164253334Y-149790234D01*
X164253334Y-149790234D02*
X164253334Y-148580710D01*
X164253334Y-148580710D02*
X164495238Y-147613091D01*
X164495238Y-147613091D02*
X164737143Y-147129282D01*
X164737143Y-147129282D02*
X164979048Y-146887377D01*
X164979048Y-146887377D02*
X165462857Y-146645472D01*
X168849524Y-151725472D02*
X171510476Y-148338806D01*
X168849524Y-148338806D02*
X171510476Y-151725472D01*
X175622857Y-146645472D02*
X174655238Y-146645472D01*
X174655238Y-146645472D02*
X174171429Y-146887377D01*
X174171429Y-146887377D02*
X173929524Y-147129282D01*
X173929524Y-147129282D02*
X173445714Y-147854996D01*
X173445714Y-147854996D02*
X173203810Y-148822615D01*
X173203810Y-148822615D02*
X173203810Y-150757853D01*
X173203810Y-150757853D02*
X173445714Y-151241663D01*
X173445714Y-151241663D02*
X173687619Y-151483568D01*
X173687619Y-151483568D02*
X174171429Y-151725472D01*
X174171429Y-151725472D02*
X175139048Y-151725472D01*
X175139048Y-151725472D02*
X175622857Y-151483568D01*
X175622857Y-151483568D02*
X175864762Y-151241663D01*
X175864762Y-151241663D02*
X176106667Y-150757853D01*
X176106667Y-150757853D02*
X176106667Y-149548329D01*
X176106667Y-149548329D02*
X175864762Y-149064520D01*
X175864762Y-149064520D02*
X175622857Y-148822615D01*
X175622857Y-148822615D02*
X175139048Y-148580710D01*
X175139048Y-148580710D02*
X174171429Y-148580710D01*
X174171429Y-148580710D02*
X173687619Y-148822615D01*
X173687619Y-148822615D02*
X173445714Y-149064520D01*
X173445714Y-149064520D02*
X173203810Y-149548329D01*
X179251428Y-146645472D02*
X179735238Y-146645472D01*
X179735238Y-146645472D02*
X180219047Y-146887377D01*
X180219047Y-146887377D02*
X180460952Y-147129282D01*
X180460952Y-147129282D02*
X180702857Y-147613091D01*
X180702857Y-147613091D02*
X180944762Y-148580710D01*
X180944762Y-148580710D02*
X180944762Y-149790234D01*
X180944762Y-149790234D02*
X180702857Y-150757853D01*
X180702857Y-150757853D02*
X180460952Y-151241663D01*
X180460952Y-151241663D02*
X180219047Y-151483568D01*
X180219047Y-151483568D02*
X179735238Y-151725472D01*
X179735238Y-151725472D02*
X179251428Y-151725472D01*
X179251428Y-151725472D02*
X178767619Y-151483568D01*
X178767619Y-151483568D02*
X178525714Y-151241663D01*
X178525714Y-151241663D02*
X178283809Y-150757853D01*
X178283809Y-150757853D02*
X178041905Y-149790234D01*
X178041905Y-149790234D02*
X178041905Y-148580710D01*
X178041905Y-148580710D02*
X178283809Y-147613091D01*
X178283809Y-147613091D02*
X178525714Y-147129282D01*
X178525714Y-147129282D02*
X178767619Y-146887377D01*
X178767619Y-146887377D02*
X179251428Y-146645472D01*
X183121904Y-151725472D02*
X183121904Y-148338806D01*
X183121904Y-148822615D02*
X183363809Y-148580710D01*
X183363809Y-148580710D02*
X183847619Y-148338806D01*
X183847619Y-148338806D02*
X184573333Y-148338806D01*
X184573333Y-148338806D02*
X185057142Y-148580710D01*
X185057142Y-148580710D02*
X185299047Y-149064520D01*
X185299047Y-149064520D02*
X185299047Y-151725472D01*
X185299047Y-149064520D02*
X185540952Y-148580710D01*
X185540952Y-148580710D02*
X186024761Y-148338806D01*
X186024761Y-148338806D02*
X186750476Y-148338806D01*
X186750476Y-148338806D02*
X187234285Y-148580710D01*
X187234285Y-148580710D02*
X187476190Y-149064520D01*
X187476190Y-149064520D02*
X187476190Y-151725472D01*
X189895237Y-151725472D02*
X189895237Y-148338806D01*
X189895237Y-148822615D02*
X190137142Y-148580710D01*
X190137142Y-148580710D02*
X190620952Y-148338806D01*
X190620952Y-148338806D02*
X191346666Y-148338806D01*
X191346666Y-148338806D02*
X191830475Y-148580710D01*
X191830475Y-148580710D02*
X192072380Y-149064520D01*
X192072380Y-149064520D02*
X192072380Y-151725472D01*
X192072380Y-149064520D02*
X192314285Y-148580710D01*
X192314285Y-148580710D02*
X192798094Y-148338806D01*
X192798094Y-148338806D02*
X193523809Y-148338806D01*
X193523809Y-148338806D02*
X194007618Y-148580710D01*
X194007618Y-148580710D02*
X194249523Y-149064520D01*
X194249523Y-149064520D02*
X194249523Y-151725472D01*
D12*
X104140000Y-87630000D03*
D13*
X114300000Y-73025000D03*
X119380000Y-73025000D03*
D12*
X129540000Y-100330000D03*
X172720000Y-123190000D03*
X180340000Y-105410000D03*
X124460000Y-97790000D03*
X144780000Y-95250000D03*
X185420000Y-102870000D03*
X185420000Y-100330000D03*
X157480000Y-92710000D03*
X147320000Y-118110000D03*
X152400000Y-105410000D03*
X157480000Y-107950000D03*
X127000000Y-125730000D03*
X187960000Y-105410000D03*
X195580000Y-118110000D03*
X167640000Y-90170000D03*
X157480000Y-125730000D03*
X177800000Y-105410000D03*
X165100000Y-100330000D03*
X129540000Y-113030000D03*
X172720000Y-115570000D03*
X177800000Y-100330000D03*
X104140000Y-95250000D03*
X175260000Y-90170000D03*
X121920000Y-125730000D03*
X167640000Y-125730000D03*
X182880000Y-105410000D03*
X121920000Y-92710000D03*
X198120000Y-87630000D03*
X152400000Y-115570000D03*
X111760000Y-125730000D03*
X121920000Y-95250000D03*
X154940000Y-100330000D03*
X109220000Y-95250000D03*
X185420000Y-118110000D03*
X116840000Y-90170000D03*
X162560000Y-118110000D03*
X124460000Y-105410000D03*
X129540000Y-118110000D03*
X172720000Y-105410000D03*
X190500000Y-113030000D03*
X175260000Y-102870000D03*
X177800000Y-87630000D03*
X160020000Y-125730000D03*
X124460000Y-118110000D03*
X101600000Y-95250000D03*
X111760000Y-100330000D03*
X114300000Y-105410000D03*
X187960000Y-97790000D03*
X137160000Y-128270000D03*
X119380000Y-128270000D03*
X142240000Y-95250000D03*
X106680000Y-107950000D03*
X162560000Y-87630000D03*
X137160000Y-113030000D03*
X190500000Y-125730000D03*
X193040000Y-110490000D03*
X167640000Y-123190000D03*
X139700000Y-105410000D03*
X152400000Y-125730000D03*
X162560000Y-123190000D03*
X193040000Y-102870000D03*
X182880000Y-115570000D03*
X114300000Y-115570000D03*
X177800000Y-102870000D03*
X190500000Y-92710000D03*
X124460000Y-102870000D03*
X137160000Y-110490000D03*
X154940000Y-110490000D03*
X175260000Y-87630000D03*
X160020000Y-100330000D03*
X182880000Y-107950000D03*
X116840000Y-87630000D03*
X185420000Y-90170000D03*
X198120000Y-110490000D03*
X109220000Y-125730000D03*
X190500000Y-100330000D03*
X185420000Y-128270000D03*
X132080000Y-125730000D03*
X165100000Y-87630000D03*
X137160000Y-107950000D03*
X185420000Y-125730000D03*
X152400000Y-128270000D03*
X152400000Y-100330000D03*
X165100000Y-102870000D03*
X187960000Y-123190000D03*
X182880000Y-120650000D03*
X142240000Y-90170000D03*
X106680000Y-110490000D03*
X129540000Y-125730000D03*
X198120000Y-92710000D03*
X175260000Y-123190000D03*
X106680000Y-113030000D03*
X101600000Y-105410000D03*
X134620000Y-110490000D03*
X190500000Y-120650000D03*
X165100000Y-90170000D03*
X132080000Y-118110000D03*
X162560000Y-102870000D03*
X129540000Y-102870000D03*
X121920000Y-107950000D03*
X198120000Y-113030000D03*
X114300000Y-118110000D03*
X132080000Y-92710000D03*
X147320000Y-125730000D03*
X119380000Y-115570000D03*
X147320000Y-105410000D03*
X114300000Y-110490000D03*
X180340000Y-110490000D03*
X134620000Y-123190000D03*
X172720000Y-118110000D03*
X116840000Y-113030000D03*
X142240000Y-105410000D03*
X162560000Y-97790000D03*
X167640000Y-100330000D03*
X195580000Y-97790000D03*
X119380000Y-97790000D03*
X182880000Y-113030000D03*
X162560000Y-105410000D03*
X114300000Y-95250000D03*
X132080000Y-110490000D03*
X165100000Y-92710000D03*
X124460000Y-110490000D03*
X175260000Y-110490000D03*
X139700000Y-125730000D03*
X180340000Y-95250000D03*
X180340000Y-120650000D03*
X193040000Y-118110000D03*
X195580000Y-113030000D03*
X104140000Y-90170000D03*
X124460000Y-128270000D03*
X154940000Y-92710000D03*
X142240000Y-120650000D03*
X109220000Y-87630000D03*
X195580000Y-90170000D03*
X187960000Y-100330000D03*
X193040000Y-97790000D03*
X101600000Y-90170000D03*
X152400000Y-123190000D03*
X142240000Y-125730000D03*
X129540000Y-97790000D03*
X104140000Y-102870000D03*
X167640000Y-110490000D03*
X152400000Y-113030000D03*
X172720000Y-95250000D03*
X127000000Y-100330000D03*
X106680000Y-95250000D03*
X127000000Y-110490000D03*
X127000000Y-118110000D03*
X180340000Y-125730000D03*
X177800000Y-120650000D03*
X185420000Y-92710000D03*
X116840000Y-118110000D03*
X172720000Y-102870000D03*
X149860000Y-97790000D03*
X160020000Y-115570000D03*
X154940000Y-97790000D03*
X134620000Y-113030000D03*
X142240000Y-123190000D03*
X193040000Y-113030000D03*
X177800000Y-118110000D03*
X180340000Y-102870000D03*
X106680000Y-97790000D03*
X121920000Y-90170000D03*
X124460000Y-107950000D03*
X190500000Y-87630000D03*
X187960000Y-110490000D03*
X182880000Y-123190000D03*
X160020000Y-105410000D03*
X165100000Y-120650000D03*
X149860000Y-87630000D03*
X195580000Y-87630000D03*
X157480000Y-120650000D03*
X167640000Y-105410000D03*
X124460000Y-125730000D03*
X111760000Y-115570000D03*
X137160000Y-125730000D03*
X129540000Y-105410000D03*
X132080000Y-100330000D03*
X114300000Y-100330000D03*
X127000000Y-113030000D03*
X142240000Y-113030000D03*
X157480000Y-97790000D03*
X132080000Y-95250000D03*
X165100000Y-128270000D03*
X190500000Y-95250000D03*
X172720000Y-87630000D03*
X193040000Y-120650000D03*
X134620000Y-97790000D03*
X109220000Y-123190000D03*
X177800000Y-125730000D03*
X180340000Y-107950000D03*
X129540000Y-115570000D03*
X177800000Y-92710000D03*
X139700000Y-97790000D03*
X195580000Y-100330000D03*
X137160000Y-115570000D03*
X147320000Y-95250000D03*
X149860000Y-115570000D03*
X172720000Y-90170000D03*
X175260000Y-125730000D03*
X154940000Y-113030000D03*
X144780000Y-92710000D03*
X127000000Y-120650000D03*
X182880000Y-128270000D03*
X111760000Y-107950000D03*
X177800000Y-97790000D03*
X177800000Y-128270000D03*
X172720000Y-125730000D03*
X149860000Y-102870000D03*
X139700000Y-90170000D03*
X160020000Y-97790000D03*
X170180000Y-128270000D03*
X127000000Y-107950000D03*
X119380000Y-95250000D03*
X124460000Y-100330000D03*
X187960000Y-107950000D03*
X129540000Y-92710000D03*
X160020000Y-92710000D03*
X124460000Y-95250000D03*
X144780000Y-107950000D03*
X127000000Y-92710000D03*
X134620000Y-95250000D03*
X147320000Y-120650000D03*
X116840000Y-123190000D03*
X127000000Y-128270000D03*
X149860000Y-105410000D03*
X152400000Y-95250000D03*
X177800000Y-113030000D03*
X111760000Y-102870000D03*
X157480000Y-87630000D03*
X149860000Y-92710000D03*
X180340000Y-115570000D03*
X185420000Y-110490000D03*
X124460000Y-90170000D03*
X121920000Y-115570000D03*
X152400000Y-120650000D03*
X127000000Y-90170000D03*
X114300000Y-92710000D03*
X101600000Y-92710000D03*
X144780000Y-113030000D03*
X104140000Y-100330000D03*
X170180000Y-107950000D03*
X198120000Y-95250000D03*
X132080000Y-105410000D03*
X111760000Y-113030000D03*
X104140000Y-120650000D03*
D13*
X114300000Y-77470000D03*
X119380000Y-77470000D03*
D12*
X106680000Y-90170000D03*
X119380000Y-87630000D03*
X101600000Y-97790000D03*
X132080000Y-87630000D03*
X114300000Y-128270000D03*
X152400000Y-110490000D03*
X147320000Y-128270000D03*
X167640000Y-118110000D03*
X121920000Y-87630000D03*
X154940000Y-87630000D03*
X198120000Y-97790000D03*
X121920000Y-97790000D03*
X149860000Y-113030000D03*
X139700000Y-113030000D03*
X193040000Y-100330000D03*
X134620000Y-92710000D03*
X109220000Y-100330000D03*
X127000000Y-123190000D03*
X160020000Y-90170000D03*
X137160000Y-120650000D03*
X134620000Y-105410000D03*
X116840000Y-110490000D03*
X190500000Y-107950000D03*
X134620000Y-128270000D03*
X198120000Y-120650000D03*
X170180000Y-100330000D03*
X190500000Y-102870000D03*
X116840000Y-120650000D03*
X134620000Y-87630000D03*
X175260000Y-115570000D03*
X193040000Y-87630000D03*
X165100000Y-107950000D03*
X139700000Y-118110000D03*
X152400000Y-97790000D03*
X149860000Y-128270000D03*
X165100000Y-115570000D03*
X147320000Y-110490000D03*
X109220000Y-105410000D03*
X144780000Y-125730000D03*
X139700000Y-95250000D03*
X119380000Y-102870000D03*
X157480000Y-113030000D03*
X198120000Y-90170000D03*
X154940000Y-102870000D03*
X167640000Y-115570000D03*
X132080000Y-123190000D03*
X172720000Y-110490000D03*
X134620000Y-102870000D03*
X170180000Y-110490000D03*
X170180000Y-125730000D03*
X142240000Y-100330000D03*
X132080000Y-115570000D03*
X106680000Y-92710000D03*
X114300000Y-102870000D03*
X109220000Y-90170000D03*
X185420000Y-120650000D03*
X109220000Y-102870000D03*
X160020000Y-118110000D03*
X170180000Y-115570000D03*
X157480000Y-105410000D03*
X162560000Y-110490000D03*
X144780000Y-120650000D03*
X187960000Y-87630000D03*
X167640000Y-95250000D03*
X142240000Y-102870000D03*
X144780000Y-115570000D03*
X157480000Y-100330000D03*
X101600000Y-87630000D03*
X137160000Y-90170000D03*
X127000000Y-95250000D03*
X185420000Y-97790000D03*
X109220000Y-113030000D03*
X170180000Y-95250000D03*
X172720000Y-120650000D03*
X152400000Y-87630000D03*
X111760000Y-87630000D03*
X132080000Y-113030000D03*
X144780000Y-100330000D03*
X124460000Y-123190000D03*
X157480000Y-123190000D03*
X104140000Y-97790000D03*
X106680000Y-100330000D03*
X137160000Y-105410000D03*
X152400000Y-118110000D03*
X177800000Y-90170000D03*
X170180000Y-97790000D03*
X147320000Y-100330000D03*
X109220000Y-107950000D03*
X142240000Y-107950000D03*
X129540000Y-110490000D03*
X160020000Y-113030000D03*
X106680000Y-118110000D03*
X109220000Y-115570000D03*
X162560000Y-100330000D03*
X116840000Y-125730000D03*
X132080000Y-90170000D03*
X175260000Y-128270000D03*
X180340000Y-90170000D03*
X149860000Y-95250000D03*
X132080000Y-128270000D03*
X170180000Y-118110000D03*
X124460000Y-92710000D03*
X180340000Y-118110000D03*
X106680000Y-115570000D03*
X167640000Y-120650000D03*
X160020000Y-120650000D03*
X167640000Y-97790000D03*
X137160000Y-87630000D03*
X180340000Y-97790000D03*
X127000000Y-105410000D03*
X119380000Y-123190000D03*
X147320000Y-90170000D03*
X170180000Y-120650000D03*
X119380000Y-90170000D03*
X170180000Y-90170000D03*
X121920000Y-110490000D03*
X193040000Y-115570000D03*
X147320000Y-123190000D03*
X142240000Y-97790000D03*
X132080000Y-102870000D03*
X190500000Y-105410000D03*
X121920000Y-118110000D03*
X162560000Y-125730000D03*
X182880000Y-125730000D03*
X139700000Y-115570000D03*
X129540000Y-90170000D03*
X175260000Y-120650000D03*
X147320000Y-92710000D03*
D14*
X192570000Y-72326000D03*
X190030000Y-72326000D03*
X187490000Y-72326000D03*
X184950000Y-72326000D03*
X182410000Y-72326000D03*
X179870000Y-72326000D03*
X177330000Y-72326000D03*
X174790000Y-72326000D03*
X172250000Y-72326000D03*
X169710000Y-72326000D03*
X167170000Y-72326000D03*
X164630000Y-72326000D03*
X162090000Y-72326000D03*
X159550000Y-72326000D03*
X157010000Y-72326000D03*
X154470000Y-72326000D03*
X151930000Y-72326000D03*
D12*
X193040000Y-95250000D03*
X116840000Y-128270000D03*
X160020000Y-87630000D03*
X149860000Y-100330000D03*
X119380000Y-113030000D03*
X185420000Y-113030000D03*
X162560000Y-113030000D03*
X149860000Y-107950000D03*
X139700000Y-120650000D03*
X180340000Y-128270000D03*
X195580000Y-115570000D03*
X144780000Y-97790000D03*
X121920000Y-102870000D03*
X195580000Y-120650000D03*
X182880000Y-92710000D03*
X170180000Y-102870000D03*
X165100000Y-125730000D03*
X142240000Y-128270000D03*
X157480000Y-102870000D03*
X162560000Y-95250000D03*
X154940000Y-118110000D03*
X137160000Y-95250000D03*
X104140000Y-105410000D03*
X157480000Y-95250000D03*
X114300000Y-120650000D03*
X160020000Y-128270000D03*
X111760000Y-95250000D03*
X104140000Y-118110000D03*
X144780000Y-102870000D03*
X144780000Y-110490000D03*
X114300000Y-107950000D03*
X160020000Y-107950000D03*
X187960000Y-115570000D03*
X134620000Y-115570000D03*
X129540000Y-87630000D03*
X185420000Y-105410000D03*
X111760000Y-110490000D03*
X149860000Y-118110000D03*
X187960000Y-90170000D03*
X101600000Y-118110000D03*
X147320000Y-97790000D03*
X121920000Y-120650000D03*
X195580000Y-102870000D03*
X198120000Y-107950000D03*
X185420000Y-95250000D03*
X149860000Y-123190000D03*
X101600000Y-100330000D03*
X182880000Y-87630000D03*
X119380000Y-92710000D03*
X154940000Y-107950000D03*
X198120000Y-100330000D03*
X185420000Y-123190000D03*
X167640000Y-107950000D03*
X198120000Y-118110000D03*
X116840000Y-102870000D03*
X172720000Y-107950000D03*
X119380000Y-118110000D03*
X101600000Y-107950000D03*
X167640000Y-113030000D03*
X182880000Y-110490000D03*
X167640000Y-102870000D03*
X165100000Y-95250000D03*
X152400000Y-107950000D03*
X142240000Y-118110000D03*
X172720000Y-97790000D03*
X111760000Y-123190000D03*
X147320000Y-87630000D03*
X119380000Y-100330000D03*
X116840000Y-97790000D03*
D15*
X111760000Y-72390000D03*
D13*
X109220000Y-72390000D03*
D12*
X121920000Y-113030000D03*
X139700000Y-128270000D03*
X182880000Y-100330000D03*
X139700000Y-92710000D03*
X152400000Y-92710000D03*
X193040000Y-107950000D03*
X111760000Y-90170000D03*
X190500000Y-90170000D03*
X109220000Y-110490000D03*
X119380000Y-110490000D03*
X109220000Y-118110000D03*
X101600000Y-110490000D03*
X182880000Y-95250000D03*
X137160000Y-100330000D03*
X157480000Y-110490000D03*
X101600000Y-113030000D03*
X154940000Y-120650000D03*
X172720000Y-113030000D03*
X165100000Y-113030000D03*
X160020000Y-102870000D03*
X177800000Y-107950000D03*
X187960000Y-92710000D03*
X160020000Y-123190000D03*
X165100000Y-105410000D03*
X190500000Y-128270000D03*
X109220000Y-120650000D03*
X139700000Y-102870000D03*
X124460000Y-120650000D03*
X132080000Y-107950000D03*
X104140000Y-115570000D03*
X142240000Y-87630000D03*
X195580000Y-107950000D03*
X129540000Y-120650000D03*
X104140000Y-92710000D03*
X114300000Y-97790000D03*
X104140000Y-113030000D03*
X162560000Y-90170000D03*
X137160000Y-118110000D03*
X167640000Y-87630000D03*
X160020000Y-110490000D03*
X129540000Y-95250000D03*
X182880000Y-118110000D03*
X180340000Y-100330000D03*
X144780000Y-90170000D03*
X195580000Y-110490000D03*
X109220000Y-92710000D03*
X137160000Y-92710000D03*
X149860000Y-90170000D03*
X180340000Y-113030000D03*
X132080000Y-120650000D03*
X121920000Y-100330000D03*
X127000000Y-102870000D03*
X154940000Y-128270000D03*
X134620000Y-118110000D03*
X157480000Y-90170000D03*
X111760000Y-118110000D03*
X124460000Y-87630000D03*
X182880000Y-90170000D03*
X116840000Y-95250000D03*
X114300000Y-87630000D03*
X111760000Y-120650000D03*
X134620000Y-125730000D03*
X172720000Y-128270000D03*
X144780000Y-123190000D03*
X129540000Y-128270000D03*
X114300000Y-90170000D03*
X190500000Y-110490000D03*
X144780000Y-118110000D03*
X106680000Y-105410000D03*
X162560000Y-128270000D03*
X187960000Y-128270000D03*
X111760000Y-128270000D03*
X109220000Y-97790000D03*
X121920000Y-128270000D03*
D15*
X111760000Y-76835000D03*
D13*
X109220000Y-76835000D03*
D12*
X180340000Y-87630000D03*
X104140000Y-107950000D03*
X193040000Y-92710000D03*
X116840000Y-107950000D03*
X114300000Y-113030000D03*
X160020000Y-95250000D03*
X116840000Y-100330000D03*
X182880000Y-102870000D03*
X187960000Y-113030000D03*
X198120000Y-115570000D03*
X124460000Y-115570000D03*
X175260000Y-100330000D03*
X162560000Y-107950000D03*
X175260000Y-95250000D03*
X175260000Y-92710000D03*
X182880000Y-97790000D03*
X154940000Y-125730000D03*
X121920000Y-123190000D03*
X154940000Y-90170000D03*
X172720000Y-100330000D03*
X185420000Y-115570000D03*
X137160000Y-123190000D03*
X187960000Y-120650000D03*
X152400000Y-102870000D03*
X104140000Y-110490000D03*
X127000000Y-87630000D03*
X187960000Y-95250000D03*
X142240000Y-115570000D03*
X187960000Y-118110000D03*
X154940000Y-95250000D03*
X177800000Y-95250000D03*
X149860000Y-125730000D03*
X180340000Y-123190000D03*
X175260000Y-113030000D03*
X175260000Y-118110000D03*
X134620000Y-90170000D03*
X109220000Y-128270000D03*
D16*
X192570000Y-79270000D03*
D17*
X192570000Y-76730000D03*
X190030000Y-79270000D03*
X190030000Y-76730000D03*
X187490000Y-79270000D03*
X187490000Y-76730000D03*
X184950000Y-79270000D03*
X184950000Y-76730000D03*
X182410000Y-79270000D03*
X182410000Y-76730000D03*
X179870000Y-79270000D03*
X179870000Y-76730000D03*
X177330000Y-79270000D03*
X177330000Y-76730000D03*
X174790000Y-79270000D03*
X174790000Y-76730000D03*
X172250000Y-79270000D03*
X172250000Y-76730000D03*
X169710000Y-79270000D03*
X169710000Y-76730000D03*
X167170000Y-79270000D03*
X167170000Y-76730000D03*
X164630000Y-79270000D03*
X164630000Y-76730000D03*
X162090000Y-79270000D03*
X162090000Y-76730000D03*
X159550000Y-79270000D03*
X159550000Y-76730000D03*
X157010000Y-79270000D03*
X157010000Y-76730000D03*
X154470000Y-79270000D03*
X154470000Y-76730000D03*
X151930000Y-79270000D03*
X151930000Y-76730000D03*
D12*
X170180000Y-113030000D03*
X185420000Y-87630000D03*
X167640000Y-128270000D03*
X116840000Y-115570000D03*
X144780000Y-128270000D03*
X101600000Y-102870000D03*
X101600000Y-120650000D03*
X147320000Y-113030000D03*
X149860000Y-120650000D03*
X139700000Y-107950000D03*
X114300000Y-125730000D03*
X121920000Y-105410000D03*
X119380000Y-105410000D03*
X177800000Y-115570000D03*
X119380000Y-120650000D03*
X190500000Y-118110000D03*
X177800000Y-123190000D03*
X154940000Y-123190000D03*
X114300000Y-123190000D03*
X127000000Y-97790000D03*
X147320000Y-107950000D03*
X106680000Y-120650000D03*
X142240000Y-110490000D03*
X175260000Y-105410000D03*
X119380000Y-107950000D03*
X132080000Y-97790000D03*
X165100000Y-123190000D03*
X180340000Y-92710000D03*
X165100000Y-118110000D03*
X139700000Y-87630000D03*
X134620000Y-107950000D03*
X144780000Y-87630000D03*
X139700000Y-100330000D03*
X162560000Y-115570000D03*
X134620000Y-120650000D03*
X106680000Y-102870000D03*
X137160000Y-97790000D03*
X185420000Y-107950000D03*
X198120000Y-105410000D03*
X147320000Y-102870000D03*
X170180000Y-87630000D03*
X165100000Y-110490000D03*
X116840000Y-92710000D03*
X187960000Y-102870000D03*
X172720000Y-92710000D03*
X167640000Y-92710000D03*
X187960000Y-125730000D03*
X190500000Y-123190000D03*
X116840000Y-105410000D03*
X152400000Y-90170000D03*
X177800000Y-110490000D03*
X170180000Y-105410000D03*
X198120000Y-102870000D03*
X129540000Y-107950000D03*
X111760000Y-97790000D03*
X162560000Y-92710000D03*
X139700000Y-123190000D03*
X170180000Y-92710000D03*
X195580000Y-105410000D03*
X175260000Y-107950000D03*
X165100000Y-97790000D03*
X149860000Y-110490000D03*
X175260000Y-97790000D03*
X124460000Y-113030000D03*
X111760000Y-105410000D03*
X157480000Y-118110000D03*
X101600000Y-115570000D03*
X162560000Y-120650000D03*
X139700000Y-110490000D03*
X142240000Y-92710000D03*
X127000000Y-115570000D03*
X137160000Y-102870000D03*
X193040000Y-105410000D03*
X111760000Y-92710000D03*
X106680000Y-87630000D03*
X190500000Y-97790000D03*
X193040000Y-90170000D03*
X195580000Y-95250000D03*
X157480000Y-128270000D03*
X134620000Y-100330000D03*
X119380000Y-125730000D03*
X147320000Y-115570000D03*
X144780000Y-105410000D03*
X190500000Y-115570000D03*
X154940000Y-105410000D03*
X154940000Y-115570000D03*
X170180000Y-123190000D03*
X129540000Y-123190000D03*
X157480000Y-115570000D03*
X195580000Y-92710000D03*
D18*
X174117000Y-83058000D03*
X127000000Y-73660000D03*
X167259000Y-82004210D03*
X124460000Y-71120000D03*
X198755000Y-76200000D03*
X116840000Y-78105000D03*
X107950000Y-82677000D03*
X137160000Y-73660000D03*
X116840000Y-71120000D03*
X132080000Y-71120000D03*
X134620000Y-73660000D03*
X129540000Y-73660000D03*
X134620000Y-71120000D03*
X198755000Y-71120000D03*
X196850000Y-73660000D03*
X104140000Y-82677000D03*
X137160000Y-71120000D03*
X107315000Y-71120000D03*
X134620000Y-79629000D03*
X150241000Y-72263000D03*
X132080000Y-79629000D03*
X139700000Y-73660000D03*
X150241000Y-73406000D03*
X114300000Y-82677000D03*
X195834000Y-84226400D03*
X139700000Y-71120000D03*
X124460000Y-82677000D03*
X119380008Y-82677000D03*
X109220000Y-82677000D03*
X132080000Y-73660000D03*
X137160000Y-79629000D03*
X195834000Y-82042000D03*
X121920000Y-73660000D03*
X106680000Y-82677000D03*
X196596000Y-79883000D03*
X116840000Y-76200000D03*
X121920000Y-71120000D03*
X116840000Y-73660000D03*
X194945000Y-73660000D03*
X198755000Y-73660000D03*
X142240000Y-71120000D03*
X196850000Y-71120000D03*
X124460000Y-73660000D03*
X150241000Y-71120000D03*
X194945000Y-71120000D03*
X129540000Y-71120000D03*
X116840000Y-82677000D03*
X127000000Y-71120000D03*
X188961833Y-82702449D03*
X168656000Y-81153004D03*
X175011927Y-81920927D03*
X107950000Y-79756000D03*
X111760000Y-79756000D03*
X109220000Y-79756000D03*
X140970000Y-77343000D03*
X113030000Y-79756000D03*
X139700000Y-77343000D03*
X131191000Y-83786600D03*
X121920000Y-81280000D03*
X170942000Y-80518000D03*
X195961000Y-76835000D03*
X194310000Y-85725000D03*
X173482000Y-80645000D03*
X114300000Y-84201000D03*
X116840000Y-84624806D03*
X181402030Y-82850026D03*
X184914548Y-82827361D03*
X177693049Y-82414795D03*
X186101000Y-81432810D03*
X184912000Y-84201000D03*
X182371996Y-84201000D03*
D19*
X191293159Y-78006841D02*
X191293159Y-75533841D01*
D20*
X174117000Y-85725000D02*
X174117000Y-84836000D01*
D19*
X190657000Y-78643000D02*
X191293159Y-78006841D01*
D21*
X190030000Y-79270000D02*
X190030000Y-80518000D01*
D22*
X109220000Y-84455000D02*
X109220000Y-82677000D01*
D21*
X190500000Y-85979000D02*
X190500000Y-87630000D01*
X190500000Y-87630000D02*
X190500000Y-86741000D01*
X187490000Y-79270000D02*
X188782000Y-79270000D01*
X188746400Y-78013600D02*
X187490000Y-79270000D01*
X188746400Y-78013600D02*
X188773600Y-78013600D01*
D20*
X127584200Y-85801200D02*
X147751800Y-85801200D01*
D21*
X150241000Y-71120000D02*
X150724000Y-71120000D01*
D19*
X153193159Y-78006841D02*
X153193159Y-75533841D01*
X188722000Y-75438000D02*
X188746400Y-75462400D01*
D21*
X151930000Y-74270682D02*
X153193159Y-75533841D01*
D23*
X166497000Y-85979000D02*
X172720000Y-85979000D01*
D21*
X190500000Y-84963000D02*
X190500000Y-85979000D01*
D22*
X109220000Y-87630000D02*
X109220000Y-84455000D01*
D21*
X190500000Y-78800000D02*
X190657000Y-78643000D01*
D23*
X173863000Y-85979000D02*
X174117000Y-85725000D01*
D21*
X191262000Y-85852000D02*
X191262000Y-81153000D01*
X190030000Y-81407000D02*
X190500000Y-81877000D01*
X185420000Y-87630000D02*
X185420000Y-85725000D01*
X187893000Y-79270000D02*
X187490000Y-79270000D01*
X190030000Y-74270682D02*
X191293159Y-75533841D01*
X175006000Y-85725000D02*
X174117000Y-85725000D01*
D22*
X109220000Y-83947000D02*
X109220000Y-84455000D01*
D21*
X151867000Y-72263000D02*
X151930000Y-72326000D01*
D20*
X147751800Y-85801200D02*
X151548790Y-82004210D01*
X151548790Y-82004210D02*
X167259000Y-82004210D01*
D23*
X165100000Y-87630000D02*
X165100000Y-87376000D01*
D21*
X190500000Y-84709000D02*
X190500000Y-84201000D01*
D23*
X174117000Y-84836000D02*
X175006000Y-85725000D01*
D21*
X151065318Y-73406000D02*
X151930000Y-74270682D01*
X190500000Y-80391000D02*
X190500000Y-78800000D01*
X190500000Y-81877000D02*
X190500000Y-80391000D01*
X190500000Y-85090000D02*
X190500000Y-84963000D01*
D20*
X174117000Y-84836000D02*
X174117000Y-83058000D01*
D21*
X185420000Y-86741000D02*
X184404000Y-85725000D01*
D23*
X172720000Y-85979000D02*
X173863000Y-85979000D01*
D21*
X150724000Y-71120000D02*
X151930000Y-72326000D01*
X184404000Y-85725000D02*
X175006000Y-85725000D01*
X189301500Y-78541500D02*
X190030000Y-79270000D01*
X191262000Y-81153000D02*
X190500000Y-80391000D01*
X188782000Y-79270000D02*
X190030000Y-80518000D01*
X189484000Y-85725000D02*
X190500000Y-84709000D01*
X190030000Y-79270000D02*
X190657000Y-78643000D01*
X191262000Y-85979000D02*
X191262000Y-85852000D01*
X190030000Y-80518000D02*
X190030000Y-81407000D01*
X151930000Y-79270000D02*
X153193159Y-78006841D01*
X189403000Y-78643000D02*
X189301500Y-78541500D01*
D22*
X119380008Y-82677000D02*
X119380008Y-87629992D01*
D21*
X190500000Y-86741000D02*
X191262000Y-85979000D01*
X190030000Y-72326000D02*
X190030000Y-74270682D01*
X189484000Y-85725000D02*
X190246000Y-85725000D01*
X187490000Y-72326000D02*
X190030000Y-72326000D01*
D22*
X119380000Y-77470000D02*
X119380000Y-82676992D01*
D21*
X188773600Y-78013600D02*
X189301500Y-78541500D01*
D23*
X172974000Y-85979000D02*
X174117000Y-84836000D01*
D21*
X185420000Y-87630000D02*
X185420000Y-86741000D01*
D22*
X195580000Y-120650000D02*
X195580000Y-87630000D01*
D21*
X187490000Y-79270000D02*
X190030000Y-79270000D01*
X150241000Y-73406000D02*
X151065318Y-73406000D01*
X151930000Y-72326000D02*
X151930000Y-74270682D01*
X191262000Y-85852000D02*
X190500000Y-85090000D01*
X190500000Y-81877000D02*
X187893000Y-79270000D01*
X187490000Y-72326000D02*
X187490000Y-74206000D01*
X195834000Y-87376000D02*
X195834000Y-82042000D01*
D23*
X165100000Y-87376000D02*
X166497000Y-85979000D01*
D22*
X107950000Y-82677000D02*
X109220000Y-83947000D01*
X119380008Y-87629992D02*
X119380000Y-87630000D01*
D21*
X150241000Y-73406000D02*
X150241000Y-72263000D01*
X190500000Y-81877000D02*
X190500000Y-84201000D01*
D19*
X188746400Y-75462400D02*
X188746400Y-78013600D01*
D22*
X107950000Y-82677000D02*
X109220000Y-82677000D01*
D21*
X195580000Y-87630000D02*
X195834000Y-87376000D01*
D23*
X172720000Y-85979000D02*
X172974000Y-85979000D01*
D21*
X150241000Y-72263000D02*
X151867000Y-72263000D01*
X150241000Y-71120000D02*
X151892000Y-71120000D01*
X190500000Y-86741000D02*
X189484000Y-85725000D01*
X190246000Y-85725000D02*
X190500000Y-85979000D01*
X185420000Y-86868000D02*
X186563000Y-85725000D01*
X185420000Y-85725000D02*
X186563000Y-85725000D01*
X190657000Y-78643000D02*
X189403000Y-78643000D01*
D20*
X124460000Y-82677000D02*
X127584200Y-85801200D01*
D22*
X104140000Y-87630000D02*
X104140000Y-120650000D01*
D21*
X190500000Y-84201000D02*
X190500000Y-84963000D01*
X187490000Y-74206000D02*
X188722000Y-75438000D01*
X150241000Y-72263000D02*
X150241000Y-71120000D01*
D22*
X119380000Y-82676992D02*
X119380008Y-82677000D01*
D21*
X185420000Y-87630000D02*
X185420000Y-86868000D01*
X185420000Y-85725000D02*
X184404000Y-85725000D01*
X186563000Y-85725000D02*
X189484000Y-85725000D01*
D19*
X129336800Y-84886800D02*
X147297463Y-84886800D01*
X175011927Y-81920927D02*
X176406454Y-80526400D01*
X153445062Y-81085201D02*
X153445064Y-81085198D01*
X176406454Y-80526400D02*
X186785784Y-80526400D01*
X151099061Y-81085201D02*
X153445062Y-81085201D01*
X119380000Y-74930000D02*
X129336800Y-84886800D01*
X111760000Y-74930000D02*
X119380000Y-74930000D01*
X147297463Y-84886800D02*
X151099061Y-81085201D01*
X109220000Y-72390000D02*
X111760000Y-74930000D01*
X186785784Y-80526400D02*
X188961833Y-82702449D01*
X168588194Y-81085198D02*
X168656000Y-81153004D01*
X153445064Y-81085198D02*
X168588194Y-81085198D01*
D22*
X198120000Y-87630000D02*
X198120000Y-120650000D01*
D21*
X194309000Y-77531000D02*
X192570000Y-79270000D01*
X192786000Y-87376000D02*
X192786000Y-79486000D01*
X194309000Y-75945000D02*
X194309000Y-77531000D01*
X193040000Y-87630000D02*
X192786000Y-87376000D01*
X192570000Y-74206000D02*
X194309000Y-75945000D01*
X192786000Y-79486000D02*
X192570000Y-79270000D01*
X192570000Y-72326000D02*
X192570000Y-74206000D01*
X164630000Y-79270000D02*
X165893159Y-78006841D01*
X164630000Y-74270682D02*
X165893159Y-75533841D01*
X164630000Y-72326000D02*
X164630000Y-74270682D01*
D19*
X165893159Y-78006841D02*
X165893159Y-75533841D01*
D21*
X162090000Y-74270682D02*
X163353159Y-75533841D01*
D19*
X163353159Y-78006841D02*
X163353159Y-75533841D01*
D21*
X162090000Y-79270000D02*
X163353159Y-78006841D01*
X162090000Y-72326000D02*
X162090000Y-74270682D01*
D24*
X143013940Y-77343000D02*
X140970000Y-77343000D01*
X145161000Y-79502000D02*
X145161000Y-79490060D01*
X149059077Y-79502000D02*
X151831077Y-76730000D01*
X144156940Y-78486000D02*
X143013940Y-77343000D01*
X109220000Y-76835000D02*
X109220000Y-78105000D01*
X145161000Y-79490060D02*
X144156940Y-78486000D01*
X113030000Y-79756000D02*
X111760000Y-81026000D01*
D22*
X101600000Y-100330000D02*
X101600000Y-102870000D01*
D24*
X151930000Y-76730000D02*
X149584000Y-76730000D01*
D22*
X101600000Y-113030000D02*
X101600000Y-115570000D01*
D24*
X145161000Y-79502000D02*
X147955919Y-79502000D01*
D22*
X101600000Y-105410000D02*
X101600000Y-107950000D01*
D24*
X109220000Y-78486000D02*
X109220000Y-78105000D01*
X145161000Y-79502000D02*
X143002000Y-77343000D01*
D22*
X101600000Y-95250000D02*
X101600000Y-97790000D01*
D24*
X113030000Y-79756000D02*
X111760000Y-79756000D01*
X107950000Y-79756000D02*
X109220000Y-78486000D01*
X139700000Y-77343000D02*
X141859000Y-79502000D01*
D22*
X101600000Y-92710000D02*
X101600000Y-95250000D01*
X101600000Y-115570000D02*
X101600000Y-118110000D01*
D24*
X147828000Y-78486000D02*
X144156940Y-78486000D01*
D22*
X101600000Y-118110000D02*
X101600000Y-120650000D01*
D24*
X151831077Y-76730000D02*
X151930000Y-76730000D01*
X142113000Y-78486000D02*
X144156940Y-78486000D01*
X147955919Y-79502000D02*
X149059077Y-79502000D01*
X109220000Y-78105000D02*
X109220000Y-79756000D01*
X107950000Y-79756000D02*
X109220000Y-79756000D01*
X111760000Y-81026000D02*
X111760000Y-79756000D01*
X140970000Y-77343000D02*
X142113000Y-78486000D01*
D22*
X101600000Y-97790000D02*
X101600000Y-100330000D01*
D24*
X111760000Y-87630000D02*
X111760000Y-81026000D01*
X140970000Y-77343000D02*
X139700000Y-77343000D01*
D22*
X101600000Y-87630000D02*
X101600000Y-90170000D01*
D24*
X143002000Y-77343000D02*
X139700000Y-77343000D01*
X147955919Y-79502000D02*
X150727919Y-76730000D01*
D22*
X101600000Y-107950000D02*
X101600000Y-110490000D01*
D24*
X150727919Y-76730000D02*
X151930000Y-76730000D01*
D22*
X101600000Y-110490000D02*
X101600000Y-113030000D01*
D24*
X141859000Y-79502000D02*
X145161000Y-79502000D01*
D22*
X101600000Y-102870000D02*
X101600000Y-105410000D01*
D24*
X149584000Y-76730000D02*
X147828000Y-78486000D01*
D22*
X101600000Y-90170000D02*
X101600000Y-92710000D01*
D21*
X154470000Y-72326000D02*
X154470000Y-74270682D01*
D19*
X147066000Y-84328000D02*
X131732400Y-84328000D01*
X131732400Y-84328000D02*
X131191000Y-83786600D01*
X155733159Y-78006841D02*
X155733159Y-75533841D01*
X153213599Y-80526401D02*
X150867599Y-80526401D01*
X154470000Y-79270000D02*
X153213599Y-80526401D01*
D21*
X154470000Y-79270000D02*
X155733159Y-78006841D01*
D19*
X150867599Y-80526401D02*
X147066000Y-84328000D01*
D21*
X154470000Y-74270682D02*
X155733159Y-75533841D01*
X159550000Y-72326000D02*
X159550000Y-74270682D01*
D19*
X160813159Y-78006841D02*
X160813159Y-75533841D01*
D21*
X159550000Y-74270682D02*
X160813159Y-75533841D01*
X159550000Y-79270000D02*
X160813159Y-78006841D01*
X121920000Y-81280000D02*
X121920000Y-87630000D01*
X172250000Y-74270682D02*
X173513159Y-75533841D01*
X172250000Y-72326000D02*
X172250000Y-74270682D01*
D19*
X172250000Y-81679525D02*
X169880925Y-84048600D01*
X172250000Y-79270000D02*
X172250000Y-81679525D01*
D21*
X172250000Y-79270000D02*
X173513159Y-78006841D01*
D19*
X169880925Y-84048600D02*
X155981400Y-84048600D01*
X173513159Y-78006841D02*
X173513159Y-75533841D01*
X155981400Y-84048600D02*
X152400000Y-87630000D01*
X170942000Y-82197262D02*
X170942000Y-80518000D01*
X154000200Y-83489800D02*
X169649462Y-83489800D01*
X169649462Y-83489800D02*
X170942000Y-82197262D01*
X149860000Y-87630000D02*
X154000200Y-83489800D01*
X169418000Y-82931000D02*
X169710000Y-82639000D01*
X169710000Y-82639000D02*
X169710000Y-79270000D01*
D21*
X169710000Y-79270000D02*
X170973159Y-78006841D01*
D19*
X152019000Y-82931000D02*
X169418000Y-82931000D01*
X170973159Y-78006841D02*
X170973159Y-75533841D01*
D21*
X169710000Y-72326000D02*
X169710000Y-74270682D01*
X169710000Y-74270682D02*
X170973159Y-75533841D01*
D19*
X147320000Y-87630000D02*
X152019000Y-82931000D01*
D21*
X167170000Y-72326000D02*
X167170000Y-74270682D01*
X167170000Y-79270000D02*
X168433159Y-78006841D01*
X167170000Y-74270682D02*
X168433159Y-75533841D01*
D19*
X168433159Y-78006841D02*
X168433159Y-75533841D01*
D21*
X195961000Y-78232000D02*
X194310000Y-79883000D01*
X195961000Y-76835000D02*
X195961000Y-78232000D01*
X194310000Y-79883000D02*
X194310000Y-85725000D01*
X177330000Y-72326000D02*
X177330000Y-74270682D01*
D19*
X178593159Y-78006841D02*
X178593159Y-75533841D01*
D21*
X177330000Y-74270682D02*
X178593159Y-75533841D01*
X177330000Y-79270000D02*
X178593159Y-78006841D01*
D19*
X174790000Y-79270000D02*
X174790000Y-80797500D01*
X176053159Y-78006841D02*
X176053159Y-75533841D01*
X159943800Y-85166200D02*
X157480000Y-87630000D01*
D21*
X174790000Y-72326000D02*
X174790000Y-74270682D01*
X174790000Y-74270682D02*
X176053159Y-75533841D01*
D19*
X174790000Y-80797500D02*
X170421300Y-85166200D01*
X170421300Y-85166200D02*
X159943800Y-85166200D01*
D21*
X174790000Y-79270000D02*
X176053159Y-78006841D01*
D19*
X172847000Y-81950238D02*
X172847000Y-81280000D01*
X172847000Y-81280000D02*
X173482000Y-80645000D01*
X154940000Y-87630000D02*
X157962600Y-84607400D01*
X170189838Y-84607400D02*
X172847000Y-81950238D01*
X157962600Y-84607400D02*
X170189838Y-84607400D01*
D21*
X114300000Y-87630000D02*
X114300000Y-84201000D01*
X157010000Y-74270682D02*
X158273159Y-75533841D01*
X157010000Y-72326000D02*
X157010000Y-74270682D01*
X116840000Y-87630000D02*
X116840000Y-84624806D01*
D19*
X158273159Y-78006841D02*
X158273159Y-75533841D01*
D21*
X157010000Y-79270000D02*
X158273159Y-78006841D01*
X179870000Y-74270682D02*
X181133159Y-75533841D01*
X179870000Y-79270000D02*
X181133159Y-78006841D01*
D19*
X181133159Y-78006841D02*
X181133159Y-75533841D01*
D21*
X179870000Y-72326000D02*
X179870000Y-74270682D01*
X184950000Y-74270682D02*
X186213159Y-75533841D01*
D19*
X186213159Y-78006841D02*
X186213159Y-75533841D01*
X181424695Y-82827361D02*
X181402030Y-82850026D01*
D21*
X184950000Y-79270000D02*
X186213159Y-78006841D01*
D20*
X184914548Y-82827361D02*
X181424695Y-82827361D01*
D21*
X184950000Y-72326000D02*
X184950000Y-74270682D01*
D19*
X186075190Y-81407000D02*
X186101000Y-81432810D01*
D23*
X178700844Y-81407000D02*
X186075190Y-81407000D01*
X177693049Y-82414795D02*
X178700844Y-81407000D01*
D21*
X182410000Y-72326000D02*
X182410000Y-74270682D01*
X182410000Y-74270682D02*
X183673159Y-75533841D01*
D20*
X184912000Y-84201000D02*
X182371996Y-84201000D01*
D21*
X182410000Y-79270000D02*
X183673159Y-78006841D01*
D19*
X183673159Y-78006841D02*
X183673159Y-75533841D01*
G04 #@! TA.AperFunction,Conductor*
G36*
X165388531Y-72265629D02*
G01*
X165392632Y-72273590D01*
X165392655Y-72273922D01*
X165499681Y-74237407D01*
X165496709Y-74245855D01*
X165496271Y-74246317D01*
X164614318Y-75128270D01*
X164606045Y-75131697D01*
X164597772Y-75128270D01*
X164595239Y-75124480D01*
X164173736Y-74107609D01*
X164173212Y-74100217D01*
X164627222Y-72333351D01*
X164632600Y-72326191D01*
X164637581Y-72324604D01*
X165380003Y-72262899D01*
X165388531Y-72265629D01*
G37*
G04 #@! TD.AperFunction*
G04 #@! TA.AperFunction,Conductor*
G36*
X155230360Y-77626198D02*
G01*
X156113801Y-78509639D01*
X156117228Y-78517912D01*
X156114774Y-78525082D01*
X155079164Y-79860564D01*
X155071386Y-79865002D01*
X155062748Y-79862640D01*
X155061655Y-79861677D01*
X154469283Y-79270697D01*
X153878322Y-78678344D01*
X153874905Y-78670067D01*
X153878342Y-78661798D01*
X153879435Y-78660835D01*
X154054497Y-78525082D01*
X155214920Y-77625224D01*
X155223555Y-77622863D01*
X155230360Y-77626198D01*
G37*
G04 #@! TD.AperFunction*
G04 #@! TA.AperFunction,Conductor*
G36*
X156351586Y-86007610D02*
G01*
X156355381Y-86010146D01*
X156559853Y-86214618D01*
X156563280Y-86222891D01*
X156562390Y-86227368D01*
X156433961Y-86537473D01*
X156429652Y-86542724D01*
X156407515Y-86557517D01*
X156351266Y-86641698D01*
X156336500Y-86715933D01*
X156336500Y-86770481D01*
X156335610Y-86774958D01*
X155833472Y-87987435D01*
X155827140Y-87993767D01*
X155818195Y-87993772D01*
X154943784Y-87632562D01*
X154937446Y-87626236D01*
X154937437Y-87626215D01*
X154576227Y-86751804D01*
X154576236Y-86742849D01*
X154582563Y-86736527D01*
X156342634Y-86007609D01*
X156351586Y-86007610D01*
G37*
G04 #@! TD.AperFunction*
G04 #@! TA.AperFunction,Conductor*
G36*
X175563168Y-79590241D02*
G01*
X175569492Y-79596579D01*
X175569483Y-79605534D01*
X175568894Y-79606749D01*
X174783332Y-81013724D01*
X174776306Y-81019277D01*
X174767412Y-81018236D01*
X174764843Y-81016293D01*
X174561756Y-80813206D01*
X174559386Y-80809794D01*
X174009737Y-79606305D01*
X174009418Y-79597356D01*
X174015519Y-79590801D01*
X174015866Y-79590650D01*
X174786222Y-79271152D01*
X174795174Y-79271149D01*
X175563168Y-79590241D01*
G37*
G04 #@! TD.AperFunction*
G04 #@! TA.AperFunction,Conductor*
G36*
X175550360Y-77626198D02*
G01*
X176433801Y-78509639D01*
X176437228Y-78517912D01*
X176434774Y-78525082D01*
X175399164Y-79860564D01*
X175391386Y-79865002D01*
X175382748Y-79862640D01*
X175381655Y-79861677D01*
X174789283Y-79270697D01*
X174198322Y-78678344D01*
X174194905Y-78670067D01*
X174198342Y-78661798D01*
X174199435Y-78660835D01*
X174374497Y-78525082D01*
X175534920Y-77625224D01*
X175543555Y-77622863D01*
X175550360Y-77626198D01*
G37*
G04 #@! TD.AperFunction*
G04 #@! TA.AperFunction,Conductor*
G36*
X112520126Y-85855427D02*
G01*
X112523435Y-85862045D01*
X112648173Y-86735212D01*
X112645951Y-86743887D01*
X112644869Y-86745135D01*
X111768278Y-87622712D01*
X111760007Y-87626144D01*
X111751732Y-87622722D01*
X111751722Y-87622713D01*
X111751721Y-87622712D01*
X110875129Y-86745133D01*
X110871708Y-86736860D01*
X110871825Y-86735224D01*
X110996565Y-85862044D01*
X111001127Y-85854340D01*
X111008147Y-85852000D01*
X112511853Y-85852000D01*
X112520126Y-85855427D01*
G37*
G04 #@! TD.AperFunction*
G04 #@! TA.AperFunction,Conductor*
G36*
X173031450Y-80458351D02*
G01*
X173477503Y-80642147D01*
X173483846Y-80648467D01*
X173483858Y-80648495D01*
X173668852Y-81096078D01*
X173668845Y-81105033D01*
X173662508Y-81111360D01*
X173662460Y-81111380D01*
X173001524Y-81381107D01*
X172997103Y-81381974D01*
X172711100Y-81381974D01*
X172702827Y-81378547D01*
X172699400Y-81370274D01*
X172700059Y-81366403D01*
X172789475Y-81111360D01*
X173015976Y-80465305D01*
X173021946Y-80458634D01*
X173030887Y-80458137D01*
X173031450Y-80458351D01*
G37*
G04 #@! TD.AperFunction*
G04 #@! TA.AperFunction,Conductor*
G36*
X151337241Y-76137223D02*
G01*
X151337320Y-76137301D01*
X151930717Y-76729303D01*
X152521978Y-77321957D01*
X152525395Y-77330234D01*
X152521958Y-77338503D01*
X152521160Y-77339229D01*
X151235314Y-78404798D01*
X151226758Y-78407438D01*
X151219576Y-78404062D01*
X150157664Y-77342150D01*
X150154237Y-77333877D01*
X150157574Y-77325696D01*
X151320697Y-76137399D01*
X151328932Y-76133885D01*
X151337241Y-76137223D01*
G37*
G04 #@! TD.AperFunction*
G04 #@! TA.AperFunction,Conductor*
G36*
X178088531Y-72265629D02*
G01*
X178092632Y-72273590D01*
X178092655Y-72273922D01*
X178199681Y-74237407D01*
X178196709Y-74245855D01*
X178196271Y-74246317D01*
X177314318Y-75128270D01*
X177306045Y-75131697D01*
X177297772Y-75128270D01*
X177295239Y-75124480D01*
X176873736Y-74107609D01*
X176873212Y-74100217D01*
X177327222Y-72333351D01*
X177332600Y-72326191D01*
X177337581Y-72324604D01*
X178080003Y-72262899D01*
X178088531Y-72265629D01*
G37*
G04 #@! TD.AperFunction*
G04 #@! TA.AperFunction,Conductor*
G36*
X193328723Y-72257466D02*
G01*
X193332908Y-72265383D01*
X193332924Y-72265566D01*
X193485283Y-74218305D01*
X193482510Y-74226820D01*
X193481891Y-74227488D01*
X192599842Y-75109537D01*
X192591569Y-75112964D01*
X192583296Y-75109537D01*
X192580834Y-75105918D01*
X192198378Y-74223677D01*
X192148045Y-74107570D01*
X192147398Y-74100212D01*
X192567353Y-72333450D01*
X192572600Y-72326196D01*
X192577641Y-72324509D01*
X193320167Y-72254827D01*
X193328723Y-72257466D01*
G37*
G04 #@! TD.AperFunction*
G04 #@! TA.AperFunction,Conductor*
G36*
X171393446Y-80704972D02*
G01*
X171399767Y-80711316D01*
X171399876Y-80719956D01*
X171097277Y-81510483D01*
X171091119Y-81516984D01*
X171086350Y-81518000D01*
X170797650Y-81518000D01*
X170789377Y-81514573D01*
X170786723Y-81510483D01*
X170484123Y-80719956D01*
X170484366Y-80711004D01*
X170490551Y-80704973D01*
X170937504Y-80518871D01*
X170946455Y-80518855D01*
X171393446Y-80704972D01*
G37*
G04 #@! TD.AperFunction*
G04 #@! TA.AperFunction,Conductor*
G36*
X157770360Y-77626198D02*
G01*
X158653801Y-78509639D01*
X158657228Y-78517912D01*
X158654774Y-78525082D01*
X157619164Y-79860564D01*
X157611386Y-79865002D01*
X157602748Y-79862640D01*
X157601655Y-79861677D01*
X157009283Y-79270697D01*
X156418322Y-78678344D01*
X156414905Y-78670067D01*
X156418342Y-78661798D01*
X156419435Y-78660835D01*
X156594497Y-78525082D01*
X157754920Y-77625224D01*
X157763555Y-77622863D01*
X157770360Y-77626198D01*
G37*
G04 #@! TD.AperFunction*
G04 #@! TA.AperFunction,Conductor*
G36*
X175548531Y-72265629D02*
G01*
X175552632Y-72273590D01*
X175552655Y-72273922D01*
X175659681Y-74237407D01*
X175656709Y-74245855D01*
X175656271Y-74246317D01*
X174774318Y-75128270D01*
X174766045Y-75131697D01*
X174757772Y-75128270D01*
X174755239Y-75124480D01*
X174333736Y-74107609D01*
X174333212Y-74100217D01*
X174787222Y-72333351D01*
X174792600Y-72326191D01*
X174797581Y-72324604D01*
X175540003Y-72262899D01*
X175548531Y-72265629D01*
G37*
G04 #@! TD.AperFunction*
G04 #@! TA.AperFunction,Conductor*
G36*
X162848531Y-72265629D02*
G01*
X162852632Y-72273590D01*
X162852655Y-72273922D01*
X162959681Y-74237407D01*
X162956709Y-74245855D01*
X162956271Y-74246317D01*
X162074318Y-75128270D01*
X162066045Y-75131697D01*
X162057772Y-75128270D01*
X162055239Y-75124480D01*
X161633736Y-74107609D01*
X161633212Y-74100217D01*
X162087222Y-72333351D01*
X162092600Y-72326191D01*
X162097581Y-72324604D01*
X162840003Y-72262899D01*
X162848531Y-72265629D01*
G37*
G04 #@! TD.AperFunction*
G04 #@! TA.AperFunction,Conductor*
G36*
X193421628Y-85855427D02*
G01*
X193424070Y-85859000D01*
X193430722Y-85874165D01*
X193431643Y-85877642D01*
X193435144Y-85910956D01*
X193435145Y-85910959D01*
X193492922Y-86088779D01*
X193492924Y-86088783D01*
X193492925Y-86088785D01*
X193586415Y-86250715D01*
X193598727Y-86264389D01*
X193603625Y-86269829D01*
X193605645Y-86272958D01*
X193807974Y-86734229D01*
X193808159Y-86743182D01*
X193806102Y-86746589D01*
X193043176Y-87627332D01*
X193035170Y-87631342D01*
X193035162Y-87631343D01*
X192163529Y-87693253D01*
X192155034Y-87690421D01*
X192151029Y-87682411D01*
X192151000Y-87681582D01*
X192151000Y-86030684D01*
X192151032Y-86030071D01*
X192151500Y-86025620D01*
X192151500Y-86002453D01*
X192151508Y-86002147D01*
X192151548Y-86001385D01*
X192155174Y-85932190D01*
X192152820Y-85917330D01*
X192152820Y-85913669D01*
X192153250Y-85910956D01*
X192155174Y-85898810D01*
X192153366Y-85864311D01*
X192156355Y-85855871D01*
X192164438Y-85852016D01*
X192165050Y-85852000D01*
X193413355Y-85852000D01*
X193421628Y-85855427D01*
G37*
G04 #@! TD.AperFunction*
G04 #@! TA.AperFunction,Conductor*
G36*
X193416042Y-79218929D02*
G01*
X193419984Y-79226970D01*
X193420007Y-79227701D01*
X193420367Y-79862030D01*
X193420359Y-79862339D01*
X193416826Y-79929810D01*
X193416825Y-79929810D01*
X193420276Y-79951595D01*
X193420420Y-79953418D01*
X193420500Y-80092626D01*
X193420500Y-80958300D01*
X193417073Y-80966573D01*
X193408800Y-80970000D01*
X192159011Y-80970000D01*
X192150738Y-80966573D01*
X192148103Y-80962532D01*
X191823807Y-80126625D01*
X191824010Y-80117672D01*
X191825928Y-80114667D01*
X192566797Y-79272639D01*
X192574832Y-79268694D01*
X193407569Y-79216031D01*
X193416042Y-79218929D01*
G37*
G04 #@! TD.AperFunction*
G04 #@! TA.AperFunction,Conductor*
G36*
X193579319Y-77377239D02*
G01*
X194462760Y-78260680D01*
X194466187Y-78268953D01*
X194463733Y-78276123D01*
X193789834Y-79145155D01*
X193789347Y-79145707D01*
X193731180Y-79203875D01*
X193729785Y-79205067D01*
X193711532Y-79218329D01*
X193664649Y-79270395D01*
X193664439Y-79270617D01*
X193648059Y-79286998D01*
X193633491Y-79304986D01*
X193633292Y-79305219D01*
X193586412Y-79357288D01*
X193575134Y-79376823D01*
X193574095Y-79378336D01*
X193559894Y-79395873D01*
X193528094Y-79458280D01*
X193527948Y-79458549D01*
X193492923Y-79519219D01*
X193488619Y-79532463D01*
X193486738Y-79536017D01*
X193425466Y-79615032D01*
X193417688Y-79619470D01*
X193411754Y-79618676D01*
X192573783Y-79272561D01*
X192567446Y-79266236D01*
X192221323Y-78428243D01*
X192221332Y-78419291D01*
X192224965Y-78414534D01*
X193563879Y-77376265D01*
X193572514Y-77373904D01*
X193579319Y-77377239D01*
G37*
G04 #@! TD.AperFunction*
G04 #@! TA.AperFunction,Conductor*
G36*
X185710360Y-77626198D02*
G01*
X186593801Y-78509639D01*
X186597228Y-78517912D01*
X186594774Y-78525082D01*
X185559164Y-79860564D01*
X185551386Y-79865002D01*
X185542748Y-79862640D01*
X185541655Y-79861677D01*
X184949283Y-79270697D01*
X184358322Y-78678344D01*
X184354905Y-78670067D01*
X184358342Y-78661798D01*
X184359435Y-78660835D01*
X184534497Y-78525082D01*
X185694920Y-77625224D01*
X185703555Y-77622863D01*
X185710360Y-77626198D01*
G37*
G04 #@! TD.AperFunction*
G04 #@! TA.AperFunction,Conductor*
G36*
X168463437Y-80695016D02*
G01*
X168468729Y-80700841D01*
X168655127Y-81148507D01*
X168655144Y-81157461D01*
X168655127Y-81157501D01*
X168469379Y-81603605D01*
X168463035Y-81609926D01*
X168454081Y-81609909D01*
X168453562Y-81609678D01*
X167676171Y-81240769D01*
X167670166Y-81234126D01*
X167669487Y-81230199D01*
X167669487Y-80941469D01*
X167672914Y-80933196D01*
X167677781Y-80930276D01*
X168454526Y-80694144D01*
X168463437Y-80695016D01*
G37*
G04 #@! TD.AperFunction*
G04 #@! TA.AperFunction,Conductor*
G36*
X186096791Y-80936645D02*
G01*
X186100974Y-80944563D01*
X186101025Y-80945631D01*
X186102000Y-81432833D01*
X186101026Y-81919310D01*
X186097583Y-81927577D01*
X186089303Y-81930987D01*
X186087641Y-81930865D01*
X185116149Y-81789457D01*
X185108455Y-81784874D01*
X185106134Y-81777879D01*
X185106134Y-81036655D01*
X185109561Y-81028382D01*
X185116742Y-81025006D01*
X186088235Y-80934005D01*
X186096791Y-80936645D01*
G37*
G04 #@! TD.AperFunction*
G04 #@! TA.AperFunction,Conductor*
G36*
X175616961Y-81111749D02*
G01*
X175821104Y-81315892D01*
X175824531Y-81324165D01*
X175823515Y-81328934D01*
X175478499Y-82101890D01*
X175471998Y-82108048D01*
X175463358Y-82107939D01*
X175015723Y-81923489D01*
X175009380Y-81917169D01*
X174824914Y-81469492D01*
X174824931Y-81460541D01*
X174830961Y-81454355D01*
X175603921Y-81109337D01*
X175612871Y-81109095D01*
X175616961Y-81111749D01*
G37*
G04 #@! TD.AperFunction*
G04 #@! TA.AperFunction,Conductor*
G36*
X122554448Y-85855427D02*
G01*
X122557425Y-85860486D01*
X122807110Y-86734385D01*
X122806088Y-86743281D01*
X122804138Y-86745867D01*
X121928278Y-87622712D01*
X121920007Y-87626144D01*
X121911732Y-87622722D01*
X121911722Y-87622713D01*
X121911721Y-87622712D01*
X121035859Y-86745865D01*
X121032439Y-86737592D01*
X121032888Y-86734391D01*
X121282575Y-85860485D01*
X121288143Y-85853472D01*
X121293825Y-85852000D01*
X122546175Y-85852000D01*
X122554448Y-85855427D01*
G37*
G04 #@! TD.AperFunction*
G04 #@! TA.AperFunction,Conductor*
G36*
X178138094Y-81445628D02*
G01*
X178662215Y-81969749D01*
X178665642Y-81978022D01*
X178663135Y-81985260D01*
X178054735Y-82758016D01*
X178046925Y-82762396D01*
X178038304Y-82759971D01*
X178037285Y-82759068D01*
X177692326Y-82415485D01*
X177348775Y-82070558D01*
X177345365Y-82062278D01*
X177348808Y-82054011D01*
X177349827Y-82053108D01*
X177455705Y-81969749D01*
X178122584Y-81444707D01*
X178131204Y-81442283D01*
X178138094Y-81445628D01*
G37*
G04 #@! TD.AperFunction*
G04 #@! TA.AperFunction,Conductor*
G36*
X188369836Y-81890859D02*
G01*
X189142796Y-82235876D01*
X189148954Y-82242377D01*
X189148845Y-82251017D01*
X188964396Y-82698651D01*
X188958075Y-82704995D01*
X188958035Y-82705012D01*
X188510401Y-82889461D01*
X188501447Y-82889444D01*
X188495260Y-82883412D01*
X188414801Y-82703156D01*
X188150243Y-82110454D01*
X188150001Y-82101504D01*
X188152653Y-82097416D01*
X188356799Y-81893270D01*
X188365071Y-81889844D01*
X188369836Y-81890859D01*
G37*
G04 #@! TD.AperFunction*
G04 #@! TA.AperFunction,Conductor*
G36*
X167930360Y-77626198D02*
G01*
X168813801Y-78509639D01*
X168817228Y-78517912D01*
X168814774Y-78525082D01*
X167779164Y-79860564D01*
X167771386Y-79865002D01*
X167762748Y-79862640D01*
X167761655Y-79861677D01*
X167169283Y-79270697D01*
X166578322Y-78678344D01*
X166574905Y-78670067D01*
X166578342Y-78661798D01*
X166579435Y-78660835D01*
X166754497Y-78525082D01*
X167914920Y-77625224D01*
X167923555Y-77622863D01*
X167930360Y-77626198D01*
G37*
G04 #@! TD.AperFunction*
G04 #@! TA.AperFunction,Conductor*
G36*
X158891586Y-86007610D02*
G01*
X158895381Y-86010146D01*
X159099853Y-86214618D01*
X159103280Y-86222891D01*
X159102390Y-86227368D01*
X158973961Y-86537473D01*
X158969652Y-86542724D01*
X158947515Y-86557517D01*
X158891266Y-86641698D01*
X158876500Y-86715933D01*
X158876500Y-86770481D01*
X158875610Y-86774958D01*
X158373472Y-87987435D01*
X158367140Y-87993767D01*
X158358195Y-87993772D01*
X157483784Y-87632562D01*
X157477446Y-87626236D01*
X157477437Y-87626215D01*
X157116227Y-86751804D01*
X157116236Y-86742849D01*
X157122563Y-86736527D01*
X158882634Y-86007609D01*
X158891586Y-86007610D01*
G37*
G04 #@! TD.AperFunction*
G04 #@! TA.AperFunction,Conductor*
G36*
X114934448Y-85855427D02*
G01*
X114937425Y-85860486D01*
X115187110Y-86734385D01*
X115186088Y-86743281D01*
X115184139Y-86745865D01*
X114803118Y-87127315D01*
X114308277Y-87622713D01*
X114300006Y-87626144D01*
X114291732Y-87622722D01*
X113415860Y-86745866D01*
X113412439Y-86737592D01*
X113412888Y-86734391D01*
X113662575Y-85860485D01*
X113668143Y-85853472D01*
X113673825Y-85852000D01*
X114926175Y-85852000D01*
X114934448Y-85855427D01*
G37*
G04 #@! TD.AperFunction*
G04 #@! TA.AperFunction,Conductor*
G36*
X178090360Y-77626198D02*
G01*
X178973801Y-78509639D01*
X178977228Y-78517912D01*
X178974774Y-78525082D01*
X177939164Y-79860564D01*
X177931386Y-79865002D01*
X177922748Y-79862640D01*
X177921655Y-79861677D01*
X177329283Y-79270697D01*
X176738322Y-78678344D01*
X176734905Y-78670067D01*
X176738342Y-78661798D01*
X176739435Y-78660835D01*
X176914497Y-78525082D01*
X178074920Y-77625224D01*
X178083555Y-77622863D01*
X178090360Y-77626198D01*
G37*
G04 #@! TD.AperFunction*
G04 #@! TA.AperFunction,Conductor*
G36*
X165390360Y-77626198D02*
G01*
X166273801Y-78509639D01*
X166277228Y-78517912D01*
X166274774Y-78525082D01*
X165239164Y-79860564D01*
X165231386Y-79865002D01*
X165222748Y-79862640D01*
X165221655Y-79861677D01*
X164629283Y-79270697D01*
X164038322Y-78678344D01*
X164034905Y-78670067D01*
X164038342Y-78661798D01*
X164039435Y-78660835D01*
X164214497Y-78525082D01*
X165374920Y-77625224D01*
X165383555Y-77622863D01*
X165390360Y-77626198D01*
G37*
G04 #@! TD.AperFunction*
G04 #@! TA.AperFunction,Conductor*
G36*
X167928531Y-72265629D02*
G01*
X167932632Y-72273590D01*
X167932655Y-72273922D01*
X168039681Y-74237407D01*
X168036709Y-74245855D01*
X168036271Y-74246317D01*
X167154318Y-75128270D01*
X167146045Y-75131697D01*
X167137772Y-75128270D01*
X167135239Y-75124480D01*
X166713736Y-74107609D01*
X166713212Y-74100217D01*
X167167222Y-72333351D01*
X167172600Y-72326191D01*
X167177581Y-72324604D01*
X167920003Y-72262899D01*
X167928531Y-72265629D01*
G37*
G04 #@! TD.AperFunction*
G04 #@! TA.AperFunction,Conductor*
G36*
X151271586Y-86007610D02*
G01*
X151275381Y-86010146D01*
X151479853Y-86214618D01*
X151483280Y-86222891D01*
X151482390Y-86227368D01*
X151353961Y-86537473D01*
X151349652Y-86542724D01*
X151327515Y-86557517D01*
X151271266Y-86641698D01*
X151256500Y-86715933D01*
X151256500Y-86770481D01*
X151255610Y-86774958D01*
X150753472Y-87987435D01*
X150747140Y-87993767D01*
X150738195Y-87993772D01*
X149863784Y-87632562D01*
X149857446Y-87626236D01*
X149857437Y-87626215D01*
X149496227Y-86751804D01*
X149496236Y-86742849D01*
X149502563Y-86736527D01*
X151262634Y-86007609D01*
X151271586Y-86007610D01*
G37*
G04 #@! TD.AperFunction*
G04 #@! TA.AperFunction,Conductor*
G36*
X160310360Y-77626198D02*
G01*
X161193801Y-78509639D01*
X161197228Y-78517912D01*
X161194774Y-78525082D01*
X160159164Y-79860564D01*
X160151386Y-79865002D01*
X160142748Y-79862640D01*
X160141655Y-79861677D01*
X159549283Y-79270697D01*
X158958322Y-78678344D01*
X158954905Y-78670067D01*
X158958342Y-78661798D01*
X158959435Y-78660835D01*
X159134497Y-78525082D01*
X160294920Y-77625224D01*
X160303555Y-77622863D01*
X160310360Y-77626198D01*
G37*
G04 #@! TD.AperFunction*
G04 #@! TA.AperFunction,Conductor*
G36*
X170468531Y-72265629D02*
G01*
X170472632Y-72273590D01*
X170472655Y-72273922D01*
X170579681Y-74237407D01*
X170576709Y-74245855D01*
X170576271Y-74246317D01*
X169694318Y-75128270D01*
X169686045Y-75131697D01*
X169677772Y-75128270D01*
X169675239Y-75124480D01*
X169253736Y-74107609D01*
X169253212Y-74100217D01*
X169707222Y-72333351D01*
X169712600Y-72326191D01*
X169717581Y-72324604D01*
X170460003Y-72262899D01*
X170468531Y-72265629D01*
G37*
G04 #@! TD.AperFunction*
G04 #@! TA.AperFunction,Conductor*
G36*
X153695916Y-78949349D02*
G01*
X154466215Y-79267438D01*
X154472552Y-79273761D01*
X154472562Y-79273785D01*
X154790643Y-80044067D01*
X154790634Y-80053022D01*
X154784295Y-80059347D01*
X154783884Y-80059508D01*
X153382710Y-80577246D01*
X153373762Y-80576899D01*
X153370382Y-80574544D01*
X153165455Y-80369617D01*
X153162028Y-80361344D01*
X153162753Y-80357289D01*
X153272844Y-80059347D01*
X153680491Y-78956114D01*
X153686573Y-78949542D01*
X153695521Y-78949195D01*
X153695916Y-78949349D01*
G37*
G04 #@! TD.AperFunction*
G04 #@! TA.AperFunction,Conductor*
G36*
X153811586Y-86007610D02*
G01*
X153815381Y-86010146D01*
X154019853Y-86214618D01*
X154023280Y-86222891D01*
X154022390Y-86227368D01*
X153893961Y-86537473D01*
X153889652Y-86542724D01*
X153867515Y-86557517D01*
X153811266Y-86641698D01*
X153796500Y-86715933D01*
X153796500Y-86770481D01*
X153795610Y-86774958D01*
X153293472Y-87987435D01*
X153287140Y-87993767D01*
X153278195Y-87993772D01*
X152403784Y-87632562D01*
X152397446Y-87626236D01*
X152397437Y-87626215D01*
X152036227Y-86751804D01*
X152036236Y-86742849D01*
X152042563Y-86736527D01*
X153802634Y-86007609D01*
X153811586Y-86007610D01*
G37*
G04 #@! TD.AperFunction*
G04 #@! TA.AperFunction,Conductor*
G36*
X155228531Y-72265629D02*
G01*
X155232632Y-72273590D01*
X155232655Y-72273922D01*
X155339681Y-74237407D01*
X155336709Y-74245855D01*
X155336271Y-74246317D01*
X154454318Y-75128270D01*
X154446045Y-75131697D01*
X154437772Y-75128270D01*
X154435239Y-75124480D01*
X154013736Y-74107609D01*
X154013212Y-74100217D01*
X154467222Y-72333351D01*
X154472600Y-72326191D01*
X154477581Y-72324604D01*
X155220003Y-72262899D01*
X155228531Y-72265629D01*
G37*
G04 #@! TD.AperFunction*
G04 #@! TA.AperFunction,Conductor*
G36*
X157768531Y-72265629D02*
G01*
X157772632Y-72273590D01*
X157772655Y-72273922D01*
X157879681Y-74237407D01*
X157876709Y-74245855D01*
X157876271Y-74246317D01*
X156994318Y-75128270D01*
X156986045Y-75131697D01*
X156977772Y-75128270D01*
X156975239Y-75124480D01*
X156553736Y-74107609D01*
X156553212Y-74100217D01*
X157007222Y-72333351D01*
X157012600Y-72326191D01*
X157017581Y-72324604D01*
X157760003Y-72262899D01*
X157768531Y-72265629D01*
G37*
G04 #@! TD.AperFunction*
G04 #@! TA.AperFunction,Conductor*
G36*
X117474448Y-85855427D02*
G01*
X117477425Y-85860486D01*
X117727110Y-86734385D01*
X117726088Y-86743281D01*
X117724138Y-86745867D01*
X116848278Y-87622712D01*
X116840007Y-87626144D01*
X116831732Y-87622722D01*
X116831722Y-87622713D01*
X116831721Y-87622712D01*
X115955859Y-86745865D01*
X115952439Y-86737592D01*
X115952888Y-86734391D01*
X116202575Y-85860485D01*
X116208143Y-85853472D01*
X116213825Y-85852000D01*
X117466175Y-85852000D01*
X117474448Y-85855427D01*
G37*
G04 #@! TD.AperFunction*
G04 #@! TA.AperFunction,Conductor*
G36*
X131652149Y-83599292D02*
G01*
X131657955Y-83604533D01*
X131965336Y-84172996D01*
X131966744Y-84178561D01*
X131966745Y-84465562D01*
X131963318Y-84473835D01*
X131955045Y-84477262D01*
X131952317Y-84476940D01*
X131012958Y-84251728D01*
X131005712Y-84246466D01*
X131004308Y-84237622D01*
X131004863Y-84235906D01*
X131188147Y-83791095D01*
X131194465Y-83784754D01*
X131643196Y-83599285D01*
X131652149Y-83599292D01*
G37*
G04 #@! TD.AperFunction*
G04 #@! TA.AperFunction,Conductor*
G36*
X173010360Y-77626198D02*
G01*
X173893801Y-78509639D01*
X173897228Y-78517912D01*
X173894774Y-78525082D01*
X172859164Y-79860564D01*
X172851386Y-79865002D01*
X172842748Y-79862640D01*
X172841655Y-79861677D01*
X172249283Y-79270697D01*
X171658322Y-78678344D01*
X171654905Y-78670067D01*
X171658342Y-78661798D01*
X171659435Y-78660835D01*
X171834497Y-78525082D01*
X172994920Y-77625224D01*
X173003555Y-77622863D01*
X173010360Y-77626198D01*
G37*
G04 #@! TD.AperFunction*
G04 #@! TA.AperFunction,Conductor*
G36*
X162850360Y-77626198D02*
G01*
X163733801Y-78509639D01*
X163737228Y-78517912D01*
X163734774Y-78525082D01*
X162699164Y-79860564D01*
X162691386Y-79865002D01*
X162682748Y-79862640D01*
X162681655Y-79861677D01*
X162089283Y-79270697D01*
X161498322Y-78678344D01*
X161494905Y-78670067D01*
X161498342Y-78661798D01*
X161499435Y-78660835D01*
X161674497Y-78525082D01*
X162834920Y-77625224D01*
X162843555Y-77622863D01*
X162850360Y-77626198D01*
G37*
G04 #@! TD.AperFunction*
G04 #@! TA.AperFunction,Conductor*
G36*
X180630360Y-77626198D02*
G01*
X181513801Y-78509639D01*
X181517228Y-78517912D01*
X181514774Y-78525082D01*
X180479164Y-79860564D01*
X180471386Y-79865002D01*
X180462748Y-79862640D01*
X180461655Y-79861677D01*
X179869283Y-79270697D01*
X179278322Y-78678344D01*
X179274905Y-78670067D01*
X179278342Y-78661798D01*
X179279435Y-78660835D01*
X179454497Y-78525082D01*
X180614920Y-77625224D01*
X180623555Y-77622863D01*
X180630360Y-77626198D01*
G37*
G04 #@! TD.AperFunction*
G04 #@! TA.AperFunction,Conductor*
G36*
X160308531Y-72265629D02*
G01*
X160312632Y-72273590D01*
X160312655Y-72273922D01*
X160419681Y-74237407D01*
X160416709Y-74245855D01*
X160416271Y-74246317D01*
X159534318Y-75128270D01*
X159526045Y-75131697D01*
X159517772Y-75128270D01*
X159515239Y-75124480D01*
X159093736Y-74107609D01*
X159093212Y-74100217D01*
X159547222Y-72333351D01*
X159552600Y-72326191D01*
X159557581Y-72324604D01*
X160300003Y-72262899D01*
X160308531Y-72265629D01*
G37*
G04 #@! TD.AperFunction*
G04 #@! TA.AperFunction,Conductor*
G36*
X180628531Y-72265629D02*
G01*
X180632632Y-72273590D01*
X180632655Y-72273922D01*
X180739681Y-74237407D01*
X180736709Y-74245855D01*
X180736271Y-74246317D01*
X179854318Y-75128270D01*
X179846045Y-75131697D01*
X179837772Y-75128270D01*
X179835239Y-75124480D01*
X179413736Y-74107609D01*
X179413212Y-74100217D01*
X179867222Y-72333351D01*
X179872600Y-72326191D01*
X179877581Y-72324604D01*
X180620003Y-72262899D01*
X180628531Y-72265629D01*
G37*
G04 #@! TD.AperFunction*
G04 #@! TA.AperFunction,Conductor*
G36*
X151926148Y-75883630D02*
G01*
X151929998Y-75891715D01*
X151930014Y-75892306D01*
X151931000Y-76730014D01*
X151930014Y-77567693D01*
X151926577Y-77575962D01*
X151918300Y-77579379D01*
X151917709Y-77579363D01*
X150241095Y-77492574D01*
X150233010Y-77488724D01*
X150230000Y-77480890D01*
X150230000Y-75979109D01*
X150233427Y-75970836D01*
X150241093Y-75967425D01*
X151917709Y-75880636D01*
X151926148Y-75883630D01*
G37*
G04 #@! TD.AperFunction*
G04 #@! TA.AperFunction,Conductor*
G36*
X172254484Y-79270863D02*
G01*
X173024078Y-79590619D01*
X173030403Y-79596958D01*
X173030394Y-79605913D01*
X173030217Y-79606317D01*
X172405534Y-80963193D01*
X172398961Y-80969275D01*
X172394906Y-80970000D01*
X172105094Y-80970000D01*
X172096821Y-80966573D01*
X172094466Y-80963193D01*
X171469781Y-79606315D01*
X171469435Y-79597369D01*
X171475517Y-79590796D01*
X171475892Y-79590631D01*
X172245511Y-79270864D01*
X172254466Y-79270856D01*
X172254484Y-79270863D01*
G37*
G04 #@! TD.AperFunction*
G04 #@! TA.AperFunction,Conductor*
G36*
X109921840Y-72102991D02*
G01*
X109928165Y-72109331D01*
X109928281Y-72109624D01*
X110303220Y-73092130D01*
X110402690Y-73352783D01*
X110402438Y-73361734D01*
X110400032Y-73365227D01*
X110195227Y-73570032D01*
X110186954Y-73573459D01*
X110182784Y-73572690D01*
X108939624Y-73098281D01*
X108933116Y-73092130D01*
X108932864Y-73083179D01*
X108932952Y-73082954D01*
X109217437Y-72393787D01*
X109223761Y-72387448D01*
X109912888Y-72102980D01*
X109921840Y-72102991D01*
G37*
G04 #@! TD.AperFunction*
G04 #@! TA.AperFunction,Conductor*
G36*
X183168531Y-72265629D02*
G01*
X183172632Y-72273590D01*
X183172655Y-72273922D01*
X183279681Y-74237407D01*
X183276709Y-74245855D01*
X183276271Y-74246317D01*
X182394318Y-75128270D01*
X182386045Y-75131697D01*
X182377772Y-75128270D01*
X182375239Y-75124480D01*
X181953736Y-74107609D01*
X181953212Y-74100217D01*
X182407222Y-72333351D01*
X182412600Y-72326191D01*
X182417581Y-72324604D01*
X183160003Y-72262899D01*
X183168531Y-72265629D01*
G37*
G04 #@! TD.AperFunction*
G04 #@! TA.AperFunction,Conductor*
G36*
X169714484Y-79270863D02*
G01*
X170484078Y-79590619D01*
X170490403Y-79596958D01*
X170490394Y-79605913D01*
X170490217Y-79606317D01*
X169865534Y-80963193D01*
X169858961Y-80969275D01*
X169854906Y-80970000D01*
X169565094Y-80970000D01*
X169556821Y-80966573D01*
X169554466Y-80963193D01*
X168929781Y-79606315D01*
X168929435Y-79597369D01*
X168935517Y-79590796D01*
X168935892Y-79590631D01*
X169705511Y-79270864D01*
X169714466Y-79270856D01*
X169714484Y-79270863D01*
G37*
G04 #@! TD.AperFunction*
G04 #@! TA.AperFunction,Conductor*
G36*
X185708531Y-72265629D02*
G01*
X185712632Y-72273590D01*
X185712655Y-72273922D01*
X185819681Y-74237407D01*
X185816709Y-74245855D01*
X185816271Y-74246317D01*
X184934318Y-75128270D01*
X184926045Y-75131697D01*
X184917772Y-75128270D01*
X184915239Y-75124480D01*
X184493736Y-74107609D01*
X184493212Y-74100217D01*
X184947222Y-72333351D01*
X184952600Y-72326191D01*
X184957581Y-72324604D01*
X185700003Y-72262899D01*
X185708531Y-72265629D01*
G37*
G04 #@! TD.AperFunction*
G04 #@! TA.AperFunction,Conductor*
G36*
X173008531Y-72265629D02*
G01*
X173012632Y-72273590D01*
X173012655Y-72273922D01*
X173119681Y-74237407D01*
X173116709Y-74245855D01*
X173116271Y-74246317D01*
X172234318Y-75128270D01*
X172226045Y-75131697D01*
X172217772Y-75128270D01*
X172215239Y-75124480D01*
X171793736Y-74107609D01*
X171793212Y-74100217D01*
X172247222Y-72333351D01*
X172252600Y-72326191D01*
X172257581Y-72324604D01*
X173000003Y-72262899D01*
X173008531Y-72265629D01*
G37*
G04 #@! TD.AperFunction*
G04 #@! TA.AperFunction,Conductor*
G36*
X170470360Y-77626198D02*
G01*
X171353801Y-78509639D01*
X171357228Y-78517912D01*
X171354774Y-78525082D01*
X170319164Y-79860564D01*
X170311386Y-79865002D01*
X170302748Y-79862640D01*
X170301655Y-79861677D01*
X169709283Y-79270697D01*
X169118322Y-78678344D01*
X169114905Y-78670067D01*
X169118342Y-78661798D01*
X169119435Y-78660835D01*
X169294497Y-78525082D01*
X170454920Y-77625224D01*
X170463555Y-77622863D01*
X170470360Y-77626198D01*
G37*
G04 #@! TD.AperFunction*
G04 #@! TA.AperFunction,Conductor*
G36*
X183170360Y-77626198D02*
G01*
X184053801Y-78509639D01*
X184057228Y-78517912D01*
X184054774Y-78525082D01*
X183019164Y-79860564D01*
X183011386Y-79865002D01*
X183002748Y-79862640D01*
X183001655Y-79861677D01*
X182409283Y-79270697D01*
X181818322Y-78678344D01*
X181814905Y-78670067D01*
X181818342Y-78661798D01*
X181819435Y-78660835D01*
X181994497Y-78525082D01*
X183154920Y-77625224D01*
X183163555Y-77622863D01*
X183170360Y-77626198D01*
G37*
G04 #@! TD.AperFunction*
G04 #@! TA.AperFunction,Conductor*
G36*
X148731586Y-86007610D02*
G01*
X148735381Y-86010146D01*
X148939853Y-86214618D01*
X148943280Y-86222891D01*
X148942390Y-86227368D01*
X148813961Y-86537473D01*
X148809652Y-86542724D01*
X148787515Y-86557517D01*
X148731266Y-86641698D01*
X148716500Y-86715933D01*
X148716500Y-86770481D01*
X148715610Y-86774958D01*
X148213472Y-87987435D01*
X148207140Y-87993767D01*
X148198195Y-87993772D01*
X147323784Y-87632562D01*
X147317446Y-87626236D01*
X147317437Y-87626215D01*
X146956227Y-86751804D01*
X146956236Y-86742849D01*
X146962563Y-86736527D01*
X147377729Y-86564589D01*
X147382206Y-86563700D01*
X147695403Y-86563700D01*
X147697099Y-86563824D01*
X147700235Y-86564283D01*
X147729472Y-86568566D01*
X147729475Y-86568565D01*
X147729477Y-86568566D01*
X147751553Y-86566634D01*
X147784846Y-86563721D01*
X147785342Y-86563700D01*
X147796205Y-86563700D01*
X147796212Y-86563700D01*
X147829293Y-86559833D01*
X147829334Y-86559828D01*
X147888964Y-86554612D01*
X147907032Y-86553032D01*
X147907033Y-86553031D01*
X147907040Y-86553031D01*
X147916562Y-86549875D01*
X147918876Y-86549362D01*
X147928842Y-86548198D01*
X148002140Y-86521519D01*
X148002247Y-86521483D01*
X148076240Y-86496965D01*
X148084778Y-86491697D01*
X148086909Y-86490665D01*
X148096339Y-86487234D01*
X148097454Y-86486501D01*
X148126757Y-86467227D01*
X148161478Y-86444390D01*
X148161606Y-86444309D01*
X148164383Y-86442596D01*
X148227949Y-86403388D01*
X148235037Y-86396298D01*
X148236875Y-86394800D01*
X148245262Y-86389285D01*
X148298806Y-86332530D01*
X148298841Y-86332494D01*
X148552167Y-86079168D01*
X148555953Y-86076638D01*
X148722634Y-86007609D01*
X148731586Y-86007610D01*
G37*
G04 #@! TD.AperFunction*
G04 #@! TA.AperFunction,Conductor*
G36*
X151603293Y-75948802D02*
G01*
X151608915Y-75954803D01*
X151929810Y-76727134D01*
X151930705Y-76731633D01*
X151930009Y-77568770D01*
X151926575Y-77577040D01*
X151918780Y-77580451D01*
X150919771Y-77620690D01*
X150911367Y-77617598D01*
X150911027Y-77617272D01*
X149850337Y-76556582D01*
X149846910Y-76548309D01*
X149850337Y-76540036D01*
X149854856Y-76537228D01*
X151594358Y-75948210D01*
X151603293Y-75948802D01*
G37*
G04 #@! TD.AperFunction*
G04 #@! TA.AperFunction,Conductor*
G36*
X145840190Y-70274502D02*
G01*
X145886683Y-70328158D01*
X145896787Y-70398432D01*
X145867293Y-70463012D01*
X145807567Y-70501396D01*
X145778775Y-70506321D01*
X145627403Y-70514388D01*
X145627385Y-70514390D01*
X145259000Y-70573743D01*
X144899012Y-70671916D01*
X144899009Y-70671917D01*
X144551514Y-70807791D01*
X144551507Y-70807793D01*
X144551497Y-70807798D01*
X144551488Y-70807802D01*
X144551485Y-70807804D01*
X144220399Y-70979845D01*
X144220396Y-70979847D01*
X143909452Y-71186119D01*
X143909445Y-71186124D01*
X143622202Y-71424268D01*
X143361883Y-71691612D01*
X143131464Y-71985100D01*
X142933543Y-72301425D01*
X142770370Y-72636986D01*
X142770369Y-72636987D01*
X142643788Y-72987992D01*
X142643786Y-72987998D01*
X142555232Y-73350468D01*
X142555228Y-73350491D01*
X142505706Y-73720304D01*
X142505705Y-73720313D01*
X142495772Y-74093310D01*
X142495772Y-74093316D01*
X142525542Y-74465259D01*
X142594683Y-74831943D01*
X142594686Y-74831952D01*
X142702399Y-75189180D01*
X142702403Y-75189189D01*
X142847484Y-75532956D01*
X142847492Y-75532973D01*
X142940880Y-75701566D01*
X143028293Y-75859374D01*
X143220294Y-76132718D01*
X143243081Y-76199958D01*
X143225898Y-76268844D01*
X143174201Y-76317504D01*
X143104837Y-76330534D01*
X143013943Y-76321581D01*
X143001998Y-76321581D01*
X142955145Y-76326196D01*
X142948966Y-76326500D01*
X141023034Y-76326500D01*
X141016855Y-76326196D01*
X140970002Y-76321581D01*
X140969998Y-76321581D01*
X140923145Y-76326196D01*
X140916966Y-76326500D01*
X139753034Y-76326500D01*
X139746855Y-76326196D01*
X139700002Y-76321581D01*
X139699999Y-76321581D01*
X139606832Y-76330758D01*
X139500739Y-76341206D01*
X139500736Y-76341206D01*
X139309122Y-76399332D01*
X139309116Y-76399334D01*
X139132533Y-76493720D01*
X138977748Y-76620748D01*
X138850720Y-76775533D01*
X138756334Y-76952116D01*
X138756332Y-76952122D01*
X138698206Y-77143736D01*
X138698206Y-77143739D01*
X138688395Y-77243364D01*
X138678581Y-77342997D01*
X138678581Y-77343001D01*
X138686735Y-77425785D01*
X138698206Y-77542261D01*
X138698207Y-77542266D01*
X138698208Y-77542269D01*
X138736733Y-77669269D01*
X138756332Y-77733877D01*
X138756334Y-77733883D01*
X138850720Y-77910466D01*
X138850722Y-77910469D01*
X138977501Y-78064951D01*
X138977748Y-78065252D01*
X139014149Y-78095126D01*
X139018722Y-78099270D01*
X141102733Y-80183281D01*
X141106868Y-80187842D01*
X141130004Y-80216034D01*
X141136750Y-80224254D01*
X141203374Y-80278930D01*
X141203375Y-80278931D01*
X141291530Y-80351278D01*
X141344237Y-80379450D01*
X141467792Y-80445492D01*
X141468120Y-80445667D01*
X141659731Y-80503792D01*
X141759279Y-80513596D01*
X141806515Y-80518249D01*
X141858999Y-80523419D01*
X141859000Y-80523419D01*
X141859002Y-80523419D01*
X141905855Y-80518804D01*
X141912035Y-80518500D01*
X145107966Y-80518500D01*
X145114145Y-80518804D01*
X145160998Y-80523419D01*
X145161000Y-80523419D01*
X145161002Y-80523419D01*
X145207855Y-80518804D01*
X145214034Y-80518500D01*
X147902885Y-80518500D01*
X147909064Y-80518804D01*
X147955917Y-80523419D01*
X147955919Y-80523419D01*
X147955921Y-80523419D01*
X148002774Y-80518804D01*
X148008953Y-80518500D01*
X149006042Y-80518500D01*
X149012222Y-80518804D01*
X149059075Y-80523419D01*
X149059077Y-80523419D01*
X149059078Y-80523419D01*
X149111561Y-80518249D01*
X149158797Y-80513596D01*
X149258346Y-80503792D01*
X149449957Y-80445667D01*
X149626546Y-80351278D01*
X149781329Y-80224252D01*
X149811205Y-80187846D01*
X149815337Y-80183286D01*
X150623625Y-79374998D01*
X150685932Y-79340977D01*
X150756747Y-79346041D01*
X150813583Y-79388588D01*
X150838177Y-79452468D01*
X150840147Y-79473726D01*
X150896138Y-79670514D01*
X150896140Y-79670519D01*
X150987340Y-79853672D01*
X151035592Y-79917569D01*
X151060682Y-79983985D01*
X151045882Y-80053422D01*
X150995891Y-80103834D01*
X150935042Y-80119501D01*
X150932046Y-80119501D01*
X150803153Y-80119501D01*
X150792115Y-80123086D01*
X150781738Y-80126458D01*
X150762524Y-80131070D01*
X150740293Y-80134591D01*
X150740290Y-80134592D01*
X150720239Y-80144809D01*
X150701978Y-80152373D01*
X150680567Y-80159330D01*
X150680566Y-80159331D01*
X150662349Y-80172566D01*
X150645497Y-80182893D01*
X150625449Y-80193108D01*
X150625443Y-80193112D01*
X150565715Y-80252835D01*
X150565616Y-80252940D01*
X146934362Y-83884195D01*
X146872050Y-83918221D01*
X146845267Y-83921100D01*
X132199247Y-83921100D01*
X132131126Y-83901098D01*
X132088412Y-83855031D01*
X131955844Y-83609863D01*
X131886221Y-83481104D01*
X131886220Y-83481103D01*
X131883666Y-83476379D01*
X131884345Y-83476011D01*
X131878177Y-83463525D01*
X131878151Y-83463538D01*
X131876885Y-83460910D01*
X131875196Y-83457490D01*
X131875082Y-83457163D01*
X131848869Y-83415446D01*
X131784624Y-83313199D01*
X131664402Y-83192977D01*
X131664399Y-83192975D01*
X131520439Y-83102519D01*
X131520437Y-83102518D01*
X131359954Y-83046363D01*
X131191000Y-83027326D01*
X131190999Y-83027326D01*
X131166423Y-83030095D01*
X131022046Y-83046363D01*
X131022043Y-83046363D01*
X131022043Y-83046364D01*
X130861562Y-83102518D01*
X130861560Y-83102519D01*
X130717600Y-83192975D01*
X130717597Y-83192977D01*
X130597377Y-83313197D01*
X130597375Y-83313200D01*
X130506919Y-83457160D01*
X130506918Y-83457162D01*
X130460485Y-83589861D01*
X130450763Y-83617646D01*
X130431726Y-83786600D01*
X130450763Y-83955554D01*
X130490002Y-84067693D01*
X130506918Y-84116037D01*
X130506919Y-84116039D01*
X130597375Y-84259999D01*
X130597377Y-84260002D01*
X130602180Y-84264805D01*
X130636206Y-84327117D01*
X130631141Y-84397932D01*
X130588594Y-84454768D01*
X130522074Y-84479579D01*
X130513085Y-84479900D01*
X129557533Y-84479900D01*
X129489412Y-84459898D01*
X129468438Y-84442995D01*
X124582174Y-79556731D01*
X119645077Y-74619634D01*
X119645076Y-74619633D01*
X119622151Y-74596708D01*
X119602101Y-74586491D01*
X119585245Y-74576162D01*
X119567035Y-74562931D01*
X119567031Y-74562929D01*
X119545624Y-74555974D01*
X119527359Y-74548408D01*
X119507306Y-74538190D01*
X119485070Y-74534668D01*
X119465855Y-74530055D01*
X119444446Y-74523100D01*
X119412024Y-74523100D01*
X111980734Y-74523100D01*
X111912613Y-74503098D01*
X111891639Y-74486195D01*
X111027038Y-73621594D01*
X110993012Y-73559282D01*
X110998077Y-73488467D01*
X111040624Y-73431631D01*
X111107144Y-73406820D01*
X111116107Y-73406499D01*
X112547066Y-73406499D01*
X112547069Y-73406498D01*
X112547073Y-73406498D01*
X112596326Y-73396701D01*
X112621301Y-73391734D01*
X112705484Y-73335484D01*
X112761734Y-73251301D01*
X112776500Y-73177067D01*
X112776500Y-73025003D01*
X113278582Y-73025003D01*
X113298206Y-73224261D01*
X113298206Y-73224263D01*
X113356332Y-73415877D01*
X113356334Y-73415883D01*
X113419862Y-73534735D01*
X113450722Y-73592469D01*
X113577748Y-73747252D01*
X113732531Y-73874278D01*
X113909120Y-73968667D01*
X114100731Y-74026792D01*
X114100735Y-74026792D01*
X114100737Y-74026793D01*
X114299997Y-74046418D01*
X114300000Y-74046418D01*
X114300003Y-74046418D01*
X114499261Y-74026793D01*
X114499263Y-74026793D01*
X114499264Y-74026792D01*
X114499269Y-74026792D01*
X114565121Y-74006816D01*
X119116603Y-74006816D01*
X119180831Y-74026300D01*
X119379997Y-74045916D01*
X119380002Y-74045916D01*
X119579173Y-74026298D01*
X119643395Y-74006816D01*
X119643396Y-74006815D01*
X119380001Y-73743420D01*
X119380000Y-73743420D01*
X119116603Y-74006816D01*
X114565121Y-74006816D01*
X114690880Y-73968667D01*
X114867469Y-73874278D01*
X115022252Y-73747252D01*
X115149278Y-73592469D01*
X115243667Y-73415880D01*
X115301792Y-73224269D01*
X115301793Y-73224261D01*
X115321418Y-73025003D01*
X115321418Y-73025002D01*
X118359084Y-73025002D01*
X118378699Y-73224164D01*
X118398183Y-73288395D01*
X118661580Y-73024999D01*
X118627573Y-72990992D01*
X118926190Y-72990992D01*
X118936327Y-73126265D01*
X118985887Y-73252541D01*
X119070465Y-73358599D01*
X119182547Y-73435016D01*
X119312173Y-73475000D01*
X119413724Y-73475000D01*
X119514138Y-73459865D01*
X119636357Y-73401007D01*
X119735798Y-73308740D01*
X119803625Y-73191260D01*
X119833810Y-73059008D01*
X119831261Y-73024999D01*
X120098418Y-73024999D01*
X120361815Y-73288396D01*
X120361816Y-73288395D01*
X120381298Y-73224173D01*
X120400916Y-73025001D01*
X120400916Y-73024996D01*
X120381300Y-72825831D01*
X120361816Y-72761603D01*
X120361815Y-72761602D01*
X120098418Y-73024999D01*
X119831261Y-73024999D01*
X119823673Y-72923735D01*
X119774113Y-72797459D01*
X119689535Y-72691401D01*
X119577453Y-72614984D01*
X119447827Y-72575000D01*
X119346276Y-72575000D01*
X119245862Y-72590135D01*
X119123643Y-72648993D01*
X119024202Y-72741260D01*
X118956375Y-72858740D01*
X118926190Y-72990992D01*
X118627573Y-72990992D01*
X118398183Y-72761602D01*
X118378700Y-72825830D01*
X118359084Y-73024997D01*
X118359084Y-73025002D01*
X115321418Y-73025002D01*
X115321418Y-73024996D01*
X115301793Y-72825738D01*
X115301793Y-72825736D01*
X115301792Y-72825733D01*
X115301792Y-72825731D01*
X115243667Y-72634120D01*
X115220156Y-72590135D01*
X115149279Y-72457533D01*
X115149278Y-72457531D01*
X115022252Y-72302748D01*
X114867469Y-72175722D01*
X114867467Y-72175721D01*
X114867466Y-72175720D01*
X114690883Y-72081334D01*
X114690877Y-72081332D01*
X114565117Y-72043183D01*
X119116602Y-72043183D01*
X119379999Y-72306580D01*
X119380000Y-72306580D01*
X119643396Y-72043183D01*
X119579164Y-72023699D01*
X119380003Y-72004084D01*
X119379997Y-72004084D01*
X119180830Y-72023700D01*
X119116602Y-72043183D01*
X114565117Y-72043183D01*
X114499269Y-72023208D01*
X114499268Y-72023207D01*
X114499262Y-72023206D01*
X114300003Y-72003582D01*
X114299997Y-72003582D01*
X114100738Y-72023206D01*
X114100736Y-72023206D01*
X113909122Y-72081332D01*
X113909116Y-72081334D01*
X113732533Y-72175720D01*
X113577748Y-72302748D01*
X113450720Y-72457533D01*
X113356334Y-72634116D01*
X113356332Y-72634122D01*
X113298206Y-72825736D01*
X113298206Y-72825738D01*
X113278582Y-73024996D01*
X113278582Y-73025003D01*
X112776500Y-73025003D01*
X112776499Y-71602934D01*
X112776498Y-71602930D01*
X112776498Y-71602926D01*
X112761734Y-71528699D01*
X112761733Y-71528697D01*
X112705484Y-71444516D01*
X112705483Y-71444515D01*
X112621302Y-71388266D01*
X112547067Y-71373500D01*
X110972936Y-71373500D01*
X110972926Y-71373501D01*
X110898699Y-71388265D01*
X110814515Y-71444516D01*
X110758266Y-71528697D01*
X110743500Y-71602930D01*
X110743500Y-72834445D01*
X110723498Y-72902566D01*
X110669842Y-72949059D01*
X110599568Y-72959163D01*
X110534988Y-72929669D01*
X110499782Y-72879371D01*
X110170153Y-72015598D01*
X110169444Y-72013808D01*
X110168029Y-72010309D01*
X110168027Y-72010307D01*
X110165218Y-72003359D01*
X110164030Y-71999996D01*
X110163668Y-71999121D01*
X110069279Y-71822533D01*
X110069278Y-71822531D01*
X109942252Y-71667748D01*
X109787469Y-71540722D01*
X109787467Y-71540721D01*
X109787466Y-71540720D01*
X109610883Y-71446334D01*
X109610877Y-71446332D01*
X109419460Y-71388266D01*
X109419269Y-71388208D01*
X109419268Y-71388207D01*
X109419262Y-71388206D01*
X109220003Y-71368582D01*
X109219997Y-71368582D01*
X109020738Y-71388206D01*
X109020736Y-71388206D01*
X108829122Y-71446332D01*
X108829116Y-71446334D01*
X108652533Y-71540720D01*
X108497748Y-71667748D01*
X108370720Y-71822533D01*
X108276334Y-71999116D01*
X108276332Y-71999122D01*
X108218206Y-72190736D01*
X108218206Y-72190738D01*
X108198582Y-72389996D01*
X108198582Y-72390003D01*
X108218206Y-72589261D01*
X108218206Y-72589263D01*
X108276332Y-72780877D01*
X108276334Y-72780883D01*
X108370720Y-72957466D01*
X108370722Y-72957469D01*
X108497748Y-73112252D01*
X108652531Y-73239278D01*
X108829120Y-73333667D01*
X108829123Y-73333667D01*
X108831402Y-73334612D01*
X108841306Y-73338552D01*
X108841319Y-73338520D01*
X108980764Y-73391734D01*
X110031858Y-73792847D01*
X110076025Y-73821468D01*
X111146044Y-74891488D01*
X111496848Y-75242292D01*
X111496858Y-75242301D01*
X111517849Y-75263292D01*
X111537907Y-75273512D01*
X111554754Y-75283836D01*
X111572968Y-75297069D01*
X111594384Y-75304027D01*
X111612625Y-75311583D01*
X111632694Y-75321809D01*
X111654933Y-75325330D01*
X111674150Y-75329944D01*
X111695553Y-75336899D01*
X111725378Y-75336899D01*
X111725402Y-75336900D01*
X111727976Y-75336900D01*
X119159267Y-75336900D01*
X119227388Y-75356902D01*
X119248362Y-75373805D01*
X129003507Y-85128950D01*
X129003508Y-85128951D01*
X129094647Y-85220090D01*
X129094649Y-85220092D01*
X129114697Y-85230307D01*
X129131555Y-85240637D01*
X129149768Y-85253870D01*
X129171175Y-85260825D01*
X129189437Y-85268389D01*
X129209494Y-85278609D01*
X129231733Y-85282131D01*
X129250940Y-85286742D01*
X129272354Y-85293700D01*
X129272355Y-85293700D01*
X147361907Y-85293700D01*
X147361909Y-85293700D01*
X147383319Y-85286743D01*
X147402527Y-85282131D01*
X147424769Y-85278609D01*
X147444822Y-85268390D01*
X147463086Y-85260825D01*
X147484495Y-85253870D01*
X147502705Y-85240639D01*
X147519561Y-85230309D01*
X147539614Y-85220092D01*
X147630755Y-85128951D01*
X147648475Y-85111231D01*
X147648477Y-85111228D01*
X151230699Y-81529005D01*
X151293011Y-81494980D01*
X151319794Y-81492101D01*
X153417597Y-81492101D01*
X153424936Y-81492529D01*
X153461667Y-81496838D01*
X153473132Y-81494544D01*
X153497843Y-81492098D01*
X167572123Y-81492098D01*
X167626142Y-81504265D01*
X168320356Y-81833701D01*
X168326208Y-81836915D01*
X168326556Y-81837081D01*
X168326563Y-81837086D01*
X168326907Y-81837206D01*
X168333117Y-81839757D01*
X168343734Y-81844796D01*
X168346601Y-81846114D01*
X168346625Y-81846125D01*
X168348561Y-81846987D01*
X168354320Y-81849467D01*
X168367946Y-81852204D01*
X168376332Y-81854500D01*
X168487046Y-81893241D01*
X168656000Y-81912278D01*
X168824954Y-81893241D01*
X168985437Y-81837086D01*
X169067978Y-81785221D01*
X169110064Y-81758778D01*
X169178385Y-81739472D01*
X169246298Y-81760167D01*
X169292241Y-81814294D01*
X169303100Y-81865465D01*
X169303100Y-82398100D01*
X169283098Y-82466221D01*
X169229442Y-82512714D01*
X169177100Y-82524100D01*
X152083447Y-82524100D01*
X151954554Y-82524100D01*
X151943516Y-82527685D01*
X151933139Y-82531057D01*
X151913925Y-82535669D01*
X151891694Y-82539190D01*
X151891691Y-82539191D01*
X151871640Y-82549408D01*
X151853379Y-82556972D01*
X151831970Y-82563928D01*
X151813751Y-82577165D01*
X151796898Y-82587491D01*
X151776854Y-82597704D01*
X151776850Y-82597707D01*
X151736201Y-82638353D01*
X151736198Y-82638358D01*
X148612662Y-85761893D01*
X148571779Y-85789210D01*
X148456660Y-85836885D01*
X148411780Y-85860874D01*
X148411753Y-85860891D01*
X148407986Y-85863407D01*
X148368683Y-85895665D01*
X148368669Y-85895677D01*
X148114014Y-86150331D01*
X148111393Y-86153030D01*
X148111382Y-86153042D01*
X148083603Y-86182485D01*
X148058112Y-86203251D01*
X148038131Y-86215577D01*
X148023598Y-86224542D01*
X148020466Y-86226536D01*
X147986724Y-86248728D01*
X147957125Y-86263058D01*
X147918706Y-86275789D01*
X147915181Y-86277015D01*
X147877200Y-86290839D01*
X147845091Y-86297957D01*
X147804879Y-86301475D01*
X147801032Y-86301868D01*
X147784106Y-86303846D01*
X147779473Y-86304214D01*
X147771004Y-86304574D01*
X147770970Y-86304576D01*
X147770955Y-86304576D01*
X147770954Y-86304577D01*
X147765132Y-86304955D01*
X147765126Y-86304955D01*
X147765103Y-86304957D01*
X147750744Y-86306213D01*
X147726057Y-86305944D01*
X147725211Y-86305851D01*
X147720709Y-86305358D01*
X147720697Y-86305357D01*
X147720687Y-86305356D01*
X147709608Y-86304546D01*
X147701715Y-86304257D01*
X147700138Y-86304200D01*
X147382206Y-86304200D01*
X147374508Y-86304957D01*
X147331676Y-86309168D01*
X147331657Y-86309171D01*
X147327182Y-86310059D01*
X147278443Y-86324833D01*
X147241826Y-86339998D01*
X147216679Y-86350412D01*
X147168470Y-86360000D01*
X123065069Y-86360000D01*
X122996948Y-86339998D01*
X122950455Y-86286342D01*
X122943917Y-86268615D01*
X122814347Y-85815123D01*
X122809499Y-85780508D01*
X122809499Y-83517033D01*
X122809500Y-81233380D01*
X122794855Y-81094044D01*
X122766559Y-81006958D01*
X122737077Y-80916220D01*
X122737071Y-80916208D01*
X122643589Y-80754290D01*
X122643585Y-80754284D01*
X122518472Y-80615332D01*
X122367204Y-80505429D01*
X122363527Y-80503792D01*
X122196385Y-80429375D01*
X122196384Y-80429374D01*
X122013491Y-80390500D01*
X122013490Y-80390500D01*
X121826510Y-80390500D01*
X121826509Y-80390500D01*
X121643614Y-80429375D01*
X121472795Y-80505429D01*
X121321527Y-80615332D01*
X121196414Y-80754284D01*
X121196410Y-80754290D01*
X121102928Y-80916208D01*
X121102922Y-80916220D01*
X121045146Y-81094038D01*
X121045145Y-81094042D01*
X121045145Y-81094044D01*
X121042092Y-81123089D01*
X121030500Y-81233376D01*
X121030500Y-85780507D01*
X121025651Y-85815122D01*
X120908106Y-86226536D01*
X120896083Y-86268615D01*
X120858136Y-86328620D01*
X120793773Y-86358583D01*
X120774931Y-86360000D01*
X117985069Y-86360000D01*
X117916948Y-86339998D01*
X117870455Y-86286342D01*
X117863917Y-86268615D01*
X117734348Y-85815123D01*
X117729500Y-85780508D01*
X117729500Y-84578188D01*
X117729500Y-84578186D01*
X117714855Y-84438850D01*
X117695806Y-84380224D01*
X117657077Y-84261026D01*
X117657071Y-84261014D01*
X117563589Y-84099096D01*
X117563585Y-84099090D01*
X117438472Y-83960138D01*
X117287204Y-83850235D01*
X117116385Y-83774181D01*
X116933491Y-83735306D01*
X116933490Y-83735306D01*
X116746510Y-83735306D01*
X116746509Y-83735306D01*
X116563614Y-83774181D01*
X116392795Y-83850235D01*
X116241527Y-83960138D01*
X116116414Y-84099090D01*
X116116410Y-84099096D01*
X116022928Y-84261014D01*
X116022922Y-84261026D01*
X115965146Y-84438844D01*
X115965145Y-84438848D01*
X115965145Y-84438850D01*
X115959516Y-84492404D01*
X115950500Y-84578182D01*
X115950499Y-84578188D01*
X115950499Y-85780507D01*
X115945651Y-85815122D01*
X115816083Y-86268615D01*
X115778137Y-86328619D01*
X115713773Y-86358583D01*
X115694931Y-86360000D01*
X115445069Y-86360000D01*
X115376948Y-86339998D01*
X115330455Y-86286342D01*
X115323917Y-86268615D01*
X115194348Y-85815123D01*
X115189500Y-85780508D01*
X115189500Y-84154382D01*
X115189500Y-84154380D01*
X115174855Y-84015044D01*
X115144331Y-83921100D01*
X115117077Y-83837220D01*
X115117071Y-83837208D01*
X115023589Y-83675290D01*
X115023585Y-83675284D01*
X114898472Y-83536332D01*
X114747204Y-83426429D01*
X114722549Y-83415452D01*
X114576385Y-83350375D01*
X114449608Y-83323428D01*
X114393491Y-83311500D01*
X114393490Y-83311500D01*
X114206510Y-83311500D01*
X114206509Y-83311500D01*
X114023614Y-83350375D01*
X113852795Y-83426429D01*
X113701527Y-83536332D01*
X113576414Y-83675284D01*
X113576410Y-83675290D01*
X113482928Y-83837208D01*
X113482922Y-83837220D01*
X113425146Y-84015038D01*
X113410500Y-84154376D01*
X113410500Y-85780507D01*
X113405651Y-85815122D01*
X113288106Y-86226536D01*
X113276083Y-86268615D01*
X113238136Y-86328620D01*
X113173773Y-86358583D01*
X113154931Y-86360000D01*
X112965986Y-86360000D01*
X112897865Y-86339998D01*
X112851372Y-86286342D01*
X112841252Y-86251819D01*
X112817960Y-86088779D01*
X112780327Y-85825346D01*
X112780325Y-85825339D01*
X112779601Y-85822134D01*
X112776500Y-85794351D01*
X112776500Y-81499238D01*
X112796502Y-81431117D01*
X112813399Y-81410148D01*
X113711291Y-80512256D01*
X113715856Y-80508120D01*
X113719135Y-80505429D01*
X113752252Y-80478252D01*
X113786312Y-80436750D01*
X113879278Y-80323470D01*
X113973667Y-80146880D01*
X113974217Y-80145066D01*
X113978934Y-80129518D01*
X114031791Y-79955272D01*
X114031793Y-79955261D01*
X114051418Y-79756003D01*
X114051418Y-79755996D01*
X114031793Y-79556738D01*
X114031793Y-79556736D01*
X114031792Y-79556733D01*
X114031792Y-79556731D01*
X113973667Y-79365120D01*
X113963042Y-79345243D01*
X113879279Y-79188533D01*
X113879278Y-79188531D01*
X113752252Y-79033748D01*
X113597469Y-78906722D01*
X113597467Y-78906721D01*
X113597466Y-78906720D01*
X113420883Y-78812334D01*
X113420877Y-78812332D01*
X113365887Y-78795651D01*
X113229269Y-78754208D01*
X113229266Y-78754207D01*
X113229261Y-78754206D01*
X113076857Y-78739197D01*
X113076854Y-78739195D01*
X113030005Y-78734582D01*
X113029998Y-78734582D01*
X112983154Y-78739196D01*
X112976974Y-78739500D01*
X111813028Y-78739500D01*
X111806849Y-78739196D01*
X111760002Y-78734582D01*
X111759998Y-78734582D01*
X111710066Y-78739500D01*
X111560739Y-78754206D01*
X111560736Y-78754206D01*
X111369122Y-78812332D01*
X111369116Y-78812334D01*
X111192533Y-78906720D01*
X111037748Y-79033748D01*
X110910720Y-79188533D01*
X110816334Y-79365116D01*
X110816332Y-79365122D01*
X110758206Y-79556736D01*
X110758206Y-79556738D01*
X110738582Y-79755995D01*
X110738582Y-79756002D01*
X110743196Y-79802848D01*
X110743500Y-79809028D01*
X110743500Y-80972964D01*
X110743196Y-80979144D01*
X110738581Y-81025998D01*
X110738581Y-81026001D01*
X110743196Y-81072854D01*
X110743500Y-81079033D01*
X110743500Y-85794514D01*
X110740521Y-85819214D01*
X110740549Y-85819218D01*
X110740369Y-85820476D01*
X110739888Y-85824467D01*
X110739674Y-85825339D01*
X110739673Y-85825344D01*
X110739673Y-85825345D01*
X110678748Y-86251821D01*
X110649314Y-86316426D01*
X110589622Y-86354864D01*
X110554015Y-86360000D01*
X100380500Y-86360000D01*
X100312379Y-86339998D01*
X100265886Y-86286342D01*
X100254500Y-86234000D01*
X100254500Y-79756001D01*
X106928581Y-79756001D01*
X106936897Y-79840424D01*
X106948206Y-79955260D01*
X106948206Y-79955263D01*
X107006332Y-80146877D01*
X107006334Y-80146883D01*
X107100720Y-80323466D01*
X107100722Y-80323469D01*
X107227748Y-80478252D01*
X107382531Y-80605278D01*
X107382533Y-80605279D01*
X107519141Y-80678298D01*
X107559120Y-80699667D01*
X107750731Y-80757792D01*
X107850279Y-80767596D01*
X107900063Y-80772500D01*
X107949999Y-80777419D01*
X107950000Y-80777419D01*
X107950002Y-80777419D01*
X107996855Y-80772804D01*
X108003035Y-80772500D01*
X109166972Y-80772500D01*
X109173151Y-80772804D01*
X109219998Y-80777418D01*
X109220000Y-80777418D01*
X109220003Y-80777418D01*
X109419261Y-80757793D01*
X109419263Y-80757793D01*
X109419264Y-80757792D01*
X109419269Y-80757792D01*
X109610880Y-80699667D01*
X109787469Y-80605278D01*
X109942252Y-80478252D01*
X110069278Y-80323469D01*
X110163667Y-80146880D01*
X110221792Y-79955269D01*
X110236500Y-79805934D01*
X110241418Y-79756000D01*
X110236802Y-79709132D01*
X110236500Y-79702991D01*
X110236500Y-78539004D01*
X110236801Y-78532865D01*
X110241418Y-78486000D01*
X110236804Y-78439153D01*
X110236500Y-78432973D01*
X110236500Y-78055065D01*
X110236500Y-77622063D01*
X110743500Y-77622063D01*
X110743501Y-77622073D01*
X110758265Y-77696300D01*
X110814516Y-77780484D01*
X110898697Y-77836733D01*
X110898699Y-77836734D01*
X110972933Y-77851500D01*
X112547066Y-77851499D01*
X112547069Y-77851498D01*
X112547073Y-77851498D01*
X112596326Y-77841701D01*
X112621301Y-77836734D01*
X112705484Y-77780484D01*
X112761734Y-77696301D01*
X112776500Y-77622067D01*
X112776500Y-77470003D01*
X113278582Y-77470003D01*
X113298206Y-77669261D01*
X113298206Y-77669263D01*
X113356332Y-77860877D01*
X113356334Y-77860883D01*
X113446499Y-78029569D01*
X113450722Y-78037469D01*
X113577748Y-78192252D01*
X113732531Y-78319278D01*
X113747661Y-78327365D01*
X113891915Y-78404471D01*
X113909120Y-78413667D01*
X114100731Y-78471792D01*
X114100735Y-78471792D01*
X114100737Y-78471793D01*
X114299997Y-78491418D01*
X114300000Y-78491418D01*
X114300003Y-78491418D01*
X114499261Y-78471793D01*
X114499263Y-78471793D01*
X114499264Y-78471792D01*
X114499269Y-78471792D01*
X114565121Y-78451816D01*
X119116603Y-78451816D01*
X119180831Y-78471300D01*
X119379997Y-78490916D01*
X119380002Y-78490916D01*
X119579173Y-78471298D01*
X119643395Y-78451816D01*
X119643396Y-78451815D01*
X119380001Y-78188420D01*
X119380000Y-78188420D01*
X119116603Y-78451816D01*
X114565121Y-78451816D01*
X114690880Y-78413667D01*
X114867469Y-78319278D01*
X115022252Y-78192252D01*
X115149278Y-78037469D01*
X115243667Y-77860880D01*
X115301792Y-77669269D01*
X115301793Y-77669261D01*
X115321418Y-77470003D01*
X115321418Y-77470002D01*
X118359084Y-77470002D01*
X118378699Y-77669164D01*
X118398183Y-77733395D01*
X118661580Y-77469999D01*
X118627573Y-77435992D01*
X118926190Y-77435992D01*
X118936327Y-77571265D01*
X118985887Y-77697541D01*
X119070465Y-77803599D01*
X119182547Y-77880016D01*
X119312173Y-77920000D01*
X119413724Y-77920000D01*
X119514138Y-77904865D01*
X119636357Y-77846007D01*
X119735798Y-77753740D01*
X119803625Y-77636260D01*
X119833810Y-77504008D01*
X119831262Y-77470000D01*
X120098420Y-77470000D01*
X120361815Y-77733396D01*
X120361816Y-77733395D01*
X120381298Y-77669173D01*
X120400916Y-77470001D01*
X120400916Y-77469996D01*
X120381300Y-77270831D01*
X120361816Y-77206603D01*
X120098420Y-77469999D01*
X120098420Y-77470000D01*
X119831262Y-77470000D01*
X119823673Y-77368735D01*
X119774113Y-77242459D01*
X119689535Y-77136401D01*
X119577453Y-77059984D01*
X119447827Y-77020000D01*
X119346276Y-77020000D01*
X119245862Y-77035135D01*
X119123643Y-77093993D01*
X119024202Y-77186260D01*
X118956375Y-77303740D01*
X118926190Y-77435992D01*
X118627573Y-77435992D01*
X118398183Y-77206602D01*
X118378700Y-77270830D01*
X118359084Y-77469997D01*
X118359084Y-77470002D01*
X115321418Y-77470002D01*
X115321418Y-77469996D01*
X115301793Y-77270738D01*
X115301793Y-77270736D01*
X115301792Y-77270733D01*
X115301792Y-77270731D01*
X115243667Y-77079120D01*
X115220156Y-77035135D01*
X115149279Y-76902533D01*
X115149278Y-76902531D01*
X115022252Y-76747748D01*
X114867469Y-76620722D01*
X114867467Y-76620721D01*
X114867466Y-76620720D01*
X114690883Y-76526334D01*
X114690877Y-76526332D01*
X114565117Y-76488183D01*
X119116602Y-76488183D01*
X119379999Y-76751580D01*
X119380000Y-76751580D01*
X119643396Y-76488183D01*
X119579164Y-76468699D01*
X119380003Y-76449084D01*
X119379997Y-76449084D01*
X119180830Y-76468700D01*
X119116602Y-76488183D01*
X114565117Y-76488183D01*
X114509198Y-76471220D01*
X114499269Y-76468208D01*
X114499268Y-76468207D01*
X114499262Y-76468206D01*
X114300003Y-76448582D01*
X114299997Y-76448582D01*
X114100738Y-76468206D01*
X114100736Y-76468206D01*
X113909122Y-76526332D01*
X113909116Y-76526334D01*
X113732533Y-76620720D01*
X113577748Y-76747748D01*
X113450720Y-76902533D01*
X113356334Y-77079116D01*
X113356332Y-77079122D01*
X113298206Y-77270736D01*
X113298206Y-77270738D01*
X113278582Y-77469996D01*
X113278582Y-77470003D01*
X112776500Y-77470003D01*
X112776499Y-76047934D01*
X112776498Y-76047930D01*
X112776498Y-76047926D01*
X112761734Y-75973699D01*
X112711404Y-75898376D01*
X112705484Y-75889516D01*
X112705483Y-75889515D01*
X112621302Y-75833266D01*
X112547067Y-75818500D01*
X110972936Y-75818500D01*
X110972926Y-75818501D01*
X110898699Y-75833265D01*
X110814515Y-75889516D01*
X110758266Y-75973697D01*
X110743500Y-76047930D01*
X110743500Y-77622063D01*
X110236500Y-77622063D01*
X110236500Y-77477283D01*
X110236500Y-76888006D01*
X110236801Y-76881868D01*
X110241418Y-76835000D01*
X110239337Y-76813875D01*
X110221793Y-76635738D01*
X110221793Y-76635736D01*
X110221792Y-76635733D01*
X110221792Y-76635731D01*
X110163667Y-76444120D01*
X110069278Y-76267531D01*
X109942252Y-76112748D01*
X109787469Y-75985722D01*
X109787467Y-75985721D01*
X109787466Y-75985720D01*
X109610883Y-75891334D01*
X109610877Y-75891332D01*
X109505519Y-75859372D01*
X109419269Y-75833208D01*
X109419268Y-75833207D01*
X109419262Y-75833206D01*
X109220003Y-75813582D01*
X109219997Y-75813582D01*
X109020738Y-75833206D01*
X109020736Y-75833206D01*
X108829122Y-75891332D01*
X108829116Y-75891334D01*
X108652533Y-75985720D01*
X108497748Y-76112748D01*
X108370720Y-76267533D01*
X108276334Y-76444116D01*
X108276332Y-76444122D01*
X108218206Y-76635736D01*
X108218206Y-76635738D01*
X108198582Y-76834995D01*
X108198582Y-76835002D01*
X108203196Y-76881848D01*
X108203500Y-76888028D01*
X108203500Y-78012761D01*
X108183498Y-78080882D01*
X108166599Y-78101851D01*
X107716872Y-78551579D01*
X107268731Y-78999720D01*
X107264148Y-79003874D01*
X107227747Y-79033749D01*
X107100720Y-79188533D01*
X107006334Y-79365116D01*
X107006332Y-79365122D01*
X106948206Y-79556738D01*
X106940651Y-79633456D01*
X106928581Y-79755998D01*
X106928581Y-79756001D01*
X100254500Y-79756001D01*
X100254500Y-74232372D01*
X100274502Y-74164251D01*
X100328158Y-74117758D01*
X100398432Y-74107654D01*
X100463012Y-74137148D01*
X100501396Y-74196874D01*
X100506098Y-74222319D01*
X100525542Y-74465259D01*
X100594683Y-74831943D01*
X100594686Y-74831952D01*
X100702399Y-75189180D01*
X100702403Y-75189189D01*
X100847484Y-75532956D01*
X100847492Y-75532973D01*
X100940880Y-75701566D01*
X101028293Y-75859374D01*
X101233789Y-76151930D01*
X101242772Y-76164718D01*
X101242777Y-76164724D01*
X101488482Y-76445526D01*
X101488484Y-76445528D01*
X101708936Y-76649038D01*
X101762655Y-76698629D01*
X102062171Y-76921151D01*
X102062172Y-76921153D01*
X102062176Y-76921155D01*
X102062177Y-76921156D01*
X102383655Y-77110585D01*
X102723446Y-77264770D01*
X103077702Y-77381964D01*
X103442408Y-77460839D01*
X103442410Y-77460839D01*
X103442414Y-77460840D01*
X103813418Y-77500500D01*
X103813425Y-77500500D01*
X103813431Y-77500501D01*
X103813436Y-77500501D01*
X104093206Y-77500501D01*
X104093213Y-77500501D01*
X104216123Y-77493950D01*
X104372596Y-77485611D01*
X104372601Y-77485610D01*
X104372609Y-77485610D01*
X104740995Y-77426257D01*
X104742730Y-77425784D01*
X104780969Y-77415355D01*
X105100986Y-77328084D01*
X105448503Y-77192202D01*
X105779607Y-77020151D01*
X106090547Y-76813881D01*
X106377801Y-76575728D01*
X106638114Y-76308391D01*
X106868535Y-76014899D01*
X107066455Y-75698578D01*
X107229631Y-75363011D01*
X107356213Y-75012001D01*
X107444769Y-74649524D01*
X107494294Y-74279688D01*
X107498090Y-74137148D01*
X107504227Y-73906689D01*
X107504227Y-73906683D01*
X107474457Y-73534740D01*
X107452045Y-73415880D01*
X107405317Y-73168059D01*
X107362181Y-73025000D01*
X107297600Y-72810819D01*
X107297596Y-72810810D01*
X107291961Y-72797459D01*
X107152511Y-72467033D01*
X106971707Y-72140626D01*
X106757232Y-71835287D01*
X106757227Y-71835281D01*
X106757222Y-71835275D01*
X106511517Y-71554473D01*
X106511515Y-71554471D01*
X106237344Y-71301370D01*
X105937828Y-71078848D01*
X105937827Y-71078846D01*
X105769813Y-70979845D01*
X105616345Y-70889415D01*
X105276554Y-70735230D01*
X104922298Y-70618036D01*
X104922297Y-70618035D01*
X104922288Y-70618033D01*
X104557585Y-70539159D01*
X104245385Y-70505786D01*
X104179776Y-70478657D01*
X104139250Y-70420363D01*
X104136673Y-70349413D01*
X104172863Y-70288333D01*
X104236331Y-70256516D01*
X104258778Y-70254500D01*
X145772069Y-70254500D01*
X145840190Y-70274502D01*
G37*
G04 #@! TD.AperFunction*
G04 #@! TA.AperFunction,Conductor*
G36*
X186451018Y-70274502D02*
G01*
X186497511Y-70328158D01*
X186507615Y-70398432D01*
X186492784Y-70437138D01*
X186493486Y-70437429D01*
X186488736Y-70448894D01*
X186474000Y-70522977D01*
X186474000Y-71818000D01*
X188505999Y-71818000D01*
X188505998Y-70522986D01*
X188505998Y-70522977D01*
X188491262Y-70448894D01*
X188486513Y-70437426D01*
X188488043Y-70436791D01*
X188471123Y-70382744D01*
X188489909Y-70314278D01*
X188542728Y-70266837D01*
X188597103Y-70254500D01*
X188922897Y-70254500D01*
X188991018Y-70274502D01*
X189037511Y-70328158D01*
X189047615Y-70398432D01*
X189032784Y-70437138D01*
X189033486Y-70437429D01*
X189028736Y-70448894D01*
X189014000Y-70522977D01*
X189013999Y-70522984D01*
X189014000Y-71818000D01*
X191045999Y-71818000D01*
X191045998Y-70522986D01*
X191045998Y-70522977D01*
X191031262Y-70448894D01*
X191026513Y-70437426D01*
X191028043Y-70436791D01*
X191011123Y-70382744D01*
X191029909Y-70314278D01*
X191082728Y-70266837D01*
X191137103Y-70254500D01*
X191462296Y-70254500D01*
X191530417Y-70274502D01*
X191576910Y-70328158D01*
X191587014Y-70398432D01*
X191572264Y-70436921D01*
X191573015Y-70437232D01*
X191568266Y-70448696D01*
X191553500Y-70522930D01*
X191553500Y-74129063D01*
X191553501Y-74129072D01*
X191568265Y-74203300D01*
X191619307Y-74279688D01*
X191624516Y-74287484D01*
X191639538Y-74297521D01*
X191685066Y-74351998D01*
X191694845Y-74389110D01*
X191695145Y-74391956D01*
X191716161Y-74456639D01*
X191716328Y-74457150D01*
X191717256Y-74460284D01*
X191723217Y-74482528D01*
X191734088Y-74523100D01*
X191735006Y-74526524D01*
X191741165Y-74538613D01*
X191748729Y-74556872D01*
X191752925Y-74569785D01*
X191787209Y-74629167D01*
X191788774Y-74632050D01*
X191819891Y-74693123D01*
X191828430Y-74703667D01*
X191839629Y-74719961D01*
X191846415Y-74731715D01*
X191892285Y-74782660D01*
X191894427Y-74785168D01*
X191908063Y-74802006D01*
X191908068Y-74802012D01*
X191923377Y-74817320D01*
X191925647Y-74819712D01*
X191971530Y-74870669D01*
X191982509Y-74878646D01*
X191997545Y-74891488D01*
X192520967Y-75414910D01*
X192554993Y-75477222D01*
X192549928Y-75548037D01*
X192507381Y-75604873D01*
X192455025Y-75627860D01*
X192266438Y-75663113D01*
X192075577Y-75737054D01*
X192075566Y-75737059D01*
X191901536Y-75844814D01*
X191750266Y-75982715D01*
X191626913Y-76146063D01*
X191535671Y-76329301D01*
X191479654Y-76526180D01*
X191460768Y-76729995D01*
X191460768Y-76730004D01*
X191479654Y-76933819D01*
X191535671Y-77130698D01*
X191535672Y-77130701D01*
X191626912Y-77313935D01*
X191626913Y-77313936D01*
X191750266Y-77477284D01*
X191901536Y-77615185D01*
X192075566Y-77722940D01*
X192075568Y-77722940D01*
X192075573Y-77722944D01*
X192266444Y-77796888D01*
X192266455Y-77796890D01*
X192269453Y-77797743D01*
X192270731Y-77798549D01*
X192271877Y-77798993D01*
X192271790Y-77799217D01*
X192329504Y-77835617D01*
X192359545Y-77899945D01*
X192350040Y-77970302D01*
X192312198Y-78018507D01*
X192265054Y-78055065D01*
X192156723Y-78139070D01*
X192090636Y-78165008D01*
X192079512Y-78165500D01*
X191694936Y-78165500D01*
X191694926Y-78165501D01*
X191620699Y-78180265D01*
X191536515Y-78236516D01*
X191480266Y-78320697D01*
X191465500Y-78394930D01*
X191465500Y-80145063D01*
X191465501Y-80145073D01*
X191480265Y-80219300D01*
X191534836Y-80300969D01*
X191536516Y-80303484D01*
X191608140Y-80351342D01*
X191653667Y-80405818D01*
X191655605Y-80410528D01*
X191843992Y-80896116D01*
X191887970Y-81009473D01*
X191896500Y-81055046D01*
X191896500Y-85853095D01*
X191895196Y-85871174D01*
X191894222Y-85877886D01*
X191894222Y-85877894D01*
X191894770Y-85888357D01*
X191894662Y-85896602D01*
X191893320Y-85913664D01*
X191893320Y-85917334D01*
X191894662Y-85934396D01*
X191894770Y-85942643D01*
X191892275Y-85990243D01*
X191892142Y-85993623D01*
X191892044Y-85997366D01*
X191892000Y-86000788D01*
X191892000Y-86012694D01*
X191891914Y-86015983D01*
X191891678Y-86020492D01*
X191891673Y-86020603D01*
X191891500Y-86027240D01*
X191891500Y-86234000D01*
X191871498Y-86302121D01*
X191817842Y-86348614D01*
X191765500Y-86360000D01*
X159629634Y-86360000D01*
X159561513Y-86339998D01*
X159515020Y-86286342D01*
X159504916Y-86216068D01*
X159534410Y-86151488D01*
X159540539Y-86144904D01*
X159742801Y-85942643D01*
X160075439Y-85610004D01*
X160137752Y-85575979D01*
X160164535Y-85573100D01*
X170485744Y-85573100D01*
X170485746Y-85573100D01*
X170507156Y-85566143D01*
X170526364Y-85561531D01*
X170548606Y-85558009D01*
X170568659Y-85547790D01*
X170586923Y-85540225D01*
X170608332Y-85533270D01*
X170626540Y-85520040D01*
X170643398Y-85509709D01*
X170663451Y-85499492D01*
X170754592Y-85408351D01*
X170772312Y-85390631D01*
X170772314Y-85390628D01*
X174078410Y-82084531D01*
X174140720Y-82050507D01*
X174211535Y-82055572D01*
X174268371Y-82098119D01*
X174286432Y-82132013D01*
X174327845Y-82250364D01*
X174327846Y-82250366D01*
X174418302Y-82394326D01*
X174418304Y-82394329D01*
X174538524Y-82514549D01*
X174538527Y-82514551D01*
X174682490Y-82605009D01*
X174842973Y-82661164D01*
X175011927Y-82680201D01*
X175180881Y-82661164D01*
X175341364Y-82605009D01*
X175485327Y-82514551D01*
X175605551Y-82394327D01*
X175696009Y-82250364D01*
X175700687Y-82236993D01*
X175712903Y-82213326D01*
X175712399Y-82213039D01*
X175715458Y-82207669D01*
X175715464Y-82207662D01*
X176040416Y-81479653D01*
X176066374Y-81441921D01*
X176538092Y-80970204D01*
X176600405Y-80936179D01*
X176627188Y-80933300D01*
X177971620Y-80933300D01*
X178039741Y-80953302D01*
X178086234Y-81006958D01*
X178096338Y-81077232D01*
X178066844Y-81141812D01*
X178060728Y-81148381D01*
X177988890Y-81220218D01*
X177988891Y-81220219D01*
X177966589Y-81236431D01*
X177967265Y-81237488D01*
X177962049Y-81240821D01*
X177503600Y-81601764D01*
X177248390Y-81802693D01*
X177242943Y-81806533D01*
X177219649Y-81821170D01*
X177219647Y-81821172D01*
X177202769Y-81838049D01*
X177197198Y-81842997D01*
X177186328Y-81851557D01*
X177186299Y-81851580D01*
X177180604Y-81856338D01*
X177180566Y-81856371D01*
X177176712Y-81859786D01*
X177165667Y-81870163D01*
X177162335Y-81875130D01*
X177146807Y-81894012D01*
X177099422Y-81941398D01*
X177008968Y-82085355D01*
X177008967Y-82085357D01*
X176971622Y-82192084D01*
X176952812Y-82245841D01*
X176933775Y-82414795D01*
X176952812Y-82583749D01*
X176986867Y-82681072D01*
X177008967Y-82744232D01*
X177008968Y-82744234D01*
X177099424Y-82888194D01*
X177099426Y-82888197D01*
X177219646Y-83008417D01*
X177219649Y-83008419D01*
X177363612Y-83098877D01*
X177524095Y-83155032D01*
X177693049Y-83174069D01*
X177862003Y-83155032D01*
X178022486Y-83098877D01*
X178166449Y-83008419D01*
X178241020Y-82933846D01*
X178244600Y-82930535D01*
X178258626Y-82918542D01*
X178264829Y-82910662D01*
X178269778Y-82905089D01*
X178286673Y-82888195D01*
X178301327Y-82864871D01*
X178305138Y-82859462D01*
X178867026Y-82145786D01*
X178867029Y-82145780D01*
X178869924Y-82141397D01*
X178870473Y-82141760D01*
X178887334Y-82119240D01*
X178927173Y-82079402D01*
X178989487Y-82045379D01*
X179016267Y-82042500D01*
X180824781Y-82042500D01*
X180892902Y-82062502D01*
X180939395Y-82116158D01*
X180949499Y-82186432D01*
X180920005Y-82251012D01*
X180916447Y-82254947D01*
X180873434Y-82300539D01*
X180808910Y-82368930D01*
X180760468Y-82452834D01*
X180759253Y-82454852D01*
X180717947Y-82520590D01*
X180687647Y-82607185D01*
X180661793Y-82681072D01*
X180642756Y-82850026D01*
X180661793Y-83018980D01*
X180666309Y-83031885D01*
X180717948Y-83179463D01*
X180717949Y-83179465D01*
X180808405Y-83323425D01*
X180808407Y-83323428D01*
X180928627Y-83443648D01*
X180928630Y-83443650D01*
X181072593Y-83534108D01*
X181233076Y-83590263D01*
X181402030Y-83609300D01*
X181570984Y-83590263D01*
X181570984Y-83590262D01*
X181571036Y-83590257D01*
X181578096Y-83589861D01*
X181626140Y-83589861D01*
X181694261Y-83609863D01*
X181740754Y-83663519D01*
X181750858Y-83733793D01*
X181735259Y-83778861D01*
X181667090Y-83896931D01*
X181615968Y-84067693D01*
X181610804Y-84156363D01*
X181605604Y-84245637D01*
X181636556Y-84421176D01*
X181636557Y-84421180D01*
X181636557Y-84421181D01*
X181707152Y-84584839D01*
X181707153Y-84584840D01*
X181707155Y-84584842D01*
X181707156Y-84584845D01*
X181813598Y-84727822D01*
X181813600Y-84727823D01*
X181813601Y-84727825D01*
X181863465Y-84769665D01*
X181950143Y-84842396D01*
X181950147Y-84842398D01*
X182109423Y-84922391D01*
X182109426Y-84922392D01*
X182109430Y-84922394D01*
X182282873Y-84963500D01*
X182282875Y-84963500D01*
X184956415Y-84963500D01*
X185055884Y-84951873D01*
X185089042Y-84947998D01*
X185256539Y-84887034D01*
X185261958Y-84883469D01*
X185405457Y-84789089D01*
X185405458Y-84789087D01*
X185405462Y-84789085D01*
X185527783Y-84659433D01*
X185616906Y-84505067D01*
X185668028Y-84334308D01*
X185678392Y-84156363D01*
X185647440Y-83980824D01*
X185647438Y-83980819D01*
X185647438Y-83980818D01*
X185576843Y-83817160D01*
X185576842Y-83817159D01*
X185576841Y-83817158D01*
X185576840Y-83817155D01*
X185470398Y-83674178D01*
X185470395Y-83674175D01*
X185470394Y-83674174D01*
X185399780Y-83614922D01*
X185360453Y-83555812D01*
X185359327Y-83484824D01*
X185396758Y-83424497D01*
X185402384Y-83420168D01*
X185408003Y-83415452D01*
X185408006Y-83415448D01*
X185408010Y-83415446D01*
X185530331Y-83285794D01*
X185619454Y-83131428D01*
X185670576Y-82960669D01*
X185680940Y-82782724D01*
X185649988Y-82607185D01*
X185649986Y-82607180D01*
X185649986Y-82607179D01*
X185579391Y-82443521D01*
X185579387Y-82443514D01*
X185489951Y-82323381D01*
X185465316Y-82256795D01*
X185480590Y-82187461D01*
X185530925Y-82137392D01*
X185600339Y-82122484D01*
X185609150Y-82123451D01*
X185907333Y-82166853D01*
X185930805Y-82172613D01*
X185932039Y-82173045D01*
X185932041Y-82173045D01*
X185932046Y-82173047D01*
X186010001Y-82181829D01*
X186011986Y-82182087D01*
X186023326Y-82183737D01*
X186054839Y-82188325D01*
X186064032Y-82189330D01*
X186070305Y-82189791D01*
X186070307Y-82189791D01*
X186070320Y-82189792D01*
X186075708Y-82189994D01*
X186083501Y-82190287D01*
X186088142Y-82190635D01*
X186101000Y-82192084D01*
X186269954Y-82173047D01*
X186430437Y-82116892D01*
X186574400Y-82026434D01*
X186694624Y-81906210D01*
X186785082Y-81762247D01*
X186841237Y-81601764D01*
X186856951Y-81462296D01*
X186884454Y-81396847D01*
X186942977Y-81356654D01*
X187013941Y-81354481D01*
X187071253Y-81387312D01*
X187907378Y-82223437D01*
X187933341Y-82261175D01*
X188258292Y-82989180D01*
X188261228Y-82994374D01*
X188260844Y-82994590D01*
X188273056Y-83018470D01*
X188277750Y-83031885D01*
X188277752Y-83031888D01*
X188368208Y-83175848D01*
X188368210Y-83175851D01*
X188488430Y-83296071D01*
X188488433Y-83296073D01*
X188632396Y-83386531D01*
X188792879Y-83442686D01*
X188961833Y-83461723D01*
X189130787Y-83442686D01*
X189291270Y-83386531D01*
X189435233Y-83296073D01*
X189555457Y-83175849D01*
X189645915Y-83031886D01*
X189702070Y-82871403D01*
X189721107Y-82702449D01*
X189702070Y-82533495D01*
X189645915Y-82373012D01*
X189555457Y-82229049D01*
X189555455Y-82229046D01*
X189435235Y-82108826D01*
X189435232Y-82108824D01*
X189291272Y-82018368D01*
X189291269Y-82018366D01*
X189277897Y-82013687D01*
X189254222Y-82001472D01*
X189253938Y-82001972D01*
X189248562Y-81998908D01*
X188520561Y-81673959D01*
X188482823Y-81647996D01*
X187423922Y-80589095D01*
X187389896Y-80526783D01*
X187394961Y-80455968D01*
X187437508Y-80399132D01*
X187504028Y-80374321D01*
X187513017Y-80374000D01*
X187592299Y-80374000D01*
X187793420Y-80336404D01*
X187793420Y-80336403D01*
X187825539Y-80323960D01*
X187825540Y-80323959D01*
X189694459Y-80323959D01*
X189726581Y-80336404D01*
X189927701Y-80374000D01*
X190132299Y-80374000D01*
X190333420Y-80336404D01*
X190333420Y-80336403D01*
X190365539Y-80323960D01*
X190365540Y-80323959D01*
X190030001Y-79988420D01*
X190030000Y-79988420D01*
X189694459Y-80323959D01*
X187825540Y-80323959D01*
X187285448Y-79783868D01*
X187414404Y-79820000D01*
X187527622Y-79820000D01*
X187639783Y-79804584D01*
X187778458Y-79744349D01*
X187895739Y-79648934D01*
X187982928Y-79525415D01*
X188033559Y-79382953D01*
X188041285Y-79270001D01*
X188208420Y-79270001D01*
X188542704Y-79604285D01*
X188542704Y-79604284D01*
X188579851Y-79473730D01*
X188598729Y-79270000D01*
X188921270Y-79270000D01*
X188940148Y-79473731D01*
X188977293Y-79604284D01*
X189273692Y-79307886D01*
X189476123Y-79307886D01*
X189506884Y-79455915D01*
X189576442Y-79590156D01*
X189679638Y-79700652D01*
X189808819Y-79779209D01*
X189954404Y-79820000D01*
X190067622Y-79820000D01*
X190179783Y-79804584D01*
X190318458Y-79744349D01*
X190435739Y-79648934D01*
X190522928Y-79525415D01*
X190573559Y-79382953D01*
X190581285Y-79270001D01*
X190748420Y-79270001D01*
X191082704Y-79604285D01*
X191082704Y-79604284D01*
X191119851Y-79473730D01*
X191138729Y-79269999D01*
X191119851Y-79066269D01*
X191082704Y-78935714D01*
X190748420Y-79269999D01*
X190748420Y-79270001D01*
X190581285Y-79270001D01*
X190583877Y-79232114D01*
X190553116Y-79084085D01*
X190483558Y-78949844D01*
X190380362Y-78839348D01*
X190251181Y-78760791D01*
X190105596Y-78720000D01*
X189992378Y-78720000D01*
X189880217Y-78735416D01*
X189741542Y-78795651D01*
X189624261Y-78891066D01*
X189537072Y-79014585D01*
X189486441Y-79157047D01*
X189476123Y-79307886D01*
X189273692Y-79307886D01*
X189311579Y-79269999D01*
X188977293Y-78935713D01*
X188940148Y-79066268D01*
X188921270Y-79270000D01*
X188598729Y-79270000D01*
X188598729Y-79269999D01*
X188579851Y-79066269D01*
X188542704Y-78935714D01*
X188208420Y-79269999D01*
X188208420Y-79270001D01*
X188041285Y-79270001D01*
X188043877Y-79232114D01*
X188013116Y-79084085D01*
X187943558Y-78949844D01*
X187840362Y-78839348D01*
X187711181Y-78760791D01*
X187565596Y-78720000D01*
X187452378Y-78720000D01*
X187340217Y-78735416D01*
X187280013Y-78761565D01*
X187490001Y-78551579D01*
X187825540Y-78216039D01*
X189694459Y-78216039D01*
X190030000Y-78551579D01*
X190030001Y-78551579D01*
X190365540Y-78216039D01*
X190333419Y-78203595D01*
X190132299Y-78166000D01*
X189927701Y-78166000D01*
X189726578Y-78203596D01*
X189694459Y-78216038D01*
X189694459Y-78216039D01*
X187825540Y-78216039D01*
X187793419Y-78203595D01*
X187592299Y-78166000D01*
X187387701Y-78166000D01*
X187250006Y-78191739D01*
X187179370Y-78184594D01*
X187123809Y-78140395D01*
X187100965Y-78073174D01*
X187101027Y-78061290D01*
X187106333Y-77960031D01*
X187105197Y-77952861D01*
X187114293Y-77882450D01*
X187160013Y-77828134D01*
X187227840Y-77807158D01*
X187252782Y-77809288D01*
X187387653Y-77834500D01*
X187387656Y-77834500D01*
X187592345Y-77834500D01*
X187592347Y-77834500D01*
X187793556Y-77796888D01*
X187984427Y-77722944D01*
X188158462Y-77615186D01*
X188309732Y-77477285D01*
X188315234Y-77470000D01*
X188348623Y-77425785D01*
X188433088Y-77313935D01*
X188524328Y-77130701D01*
X188580345Y-76933821D01*
X188589503Y-76834995D01*
X188599232Y-76730004D01*
X188920768Y-76730004D01*
X188939654Y-76933819D01*
X188995671Y-77130698D01*
X188995672Y-77130701D01*
X189086912Y-77313935D01*
X189086913Y-77313936D01*
X189210266Y-77477284D01*
X189361536Y-77615185D01*
X189535566Y-77722940D01*
X189535568Y-77722940D01*
X189535573Y-77722944D01*
X189726444Y-77796888D01*
X189927653Y-77834500D01*
X189927655Y-77834500D01*
X190132345Y-77834500D01*
X190132347Y-77834500D01*
X190333556Y-77796888D01*
X190524427Y-77722944D01*
X190698462Y-77615186D01*
X190849732Y-77477285D01*
X190855234Y-77470000D01*
X190888623Y-77425785D01*
X190973088Y-77313935D01*
X191064328Y-77130701D01*
X191120345Y-76933821D01*
X191129503Y-76834995D01*
X191139232Y-76730004D01*
X191139232Y-76729995D01*
X191120345Y-76526180D01*
X191111110Y-76493722D01*
X191064328Y-76329299D01*
X190973088Y-76146065D01*
X190908419Y-76060429D01*
X190849733Y-75982715D01*
X190698463Y-75844814D01*
X190524433Y-75737059D01*
X190524428Y-75737057D01*
X190524427Y-75737056D01*
X190463622Y-75713500D01*
X190333559Y-75663113D01*
X190333560Y-75663113D01*
X190333557Y-75663112D01*
X190333556Y-75663112D01*
X190132347Y-75625500D01*
X189927653Y-75625500D01*
X189726444Y-75663112D01*
X189726439Y-75663113D01*
X189535577Y-75737054D01*
X189535566Y-75737059D01*
X189361536Y-75844814D01*
X189210266Y-75982715D01*
X189086913Y-76146063D01*
X188995671Y-76329301D01*
X188939654Y-76526180D01*
X188920768Y-76729995D01*
X188920768Y-76730004D01*
X188599232Y-76730004D01*
X188599232Y-76729995D01*
X188580345Y-76526180D01*
X188571110Y-76493722D01*
X188524328Y-76329299D01*
X188433088Y-76146065D01*
X188368419Y-76060429D01*
X188309733Y-75982715D01*
X188158463Y-75844814D01*
X187984433Y-75737059D01*
X187984428Y-75737057D01*
X187984427Y-75737056D01*
X187923622Y-75713500D01*
X187793559Y-75663113D01*
X187793560Y-75663113D01*
X187793557Y-75663112D01*
X187793556Y-75663112D01*
X187592347Y-75625500D01*
X187387653Y-75625500D01*
X187252838Y-75650701D01*
X187182202Y-75643556D01*
X187126641Y-75599357D01*
X187103859Y-75533439D01*
X187098943Y-75439627D01*
X187096548Y-75393926D01*
X187096547Y-75393923D01*
X187096547Y-75393920D01*
X187048153Y-75213317D01*
X187035855Y-75189180D01*
X186963266Y-75046716D01*
X186963262Y-75046711D01*
X186963261Y-75046709D01*
X186889943Y-74956170D01*
X186875096Y-74937835D01*
X186875092Y-74937831D01*
X186875085Y-74937823D01*
X186482102Y-74544840D01*
X186448076Y-74482528D01*
X186453141Y-74411713D01*
X186495688Y-74354877D01*
X186562208Y-74330066D01*
X186619418Y-74339338D01*
X186628892Y-74343262D01*
X186702980Y-74357999D01*
X186982000Y-74357999D01*
X186982000Y-72834000D01*
X187998000Y-72834000D01*
X187998000Y-74357999D01*
X188277014Y-74357999D01*
X188277022Y-74357998D01*
X188351105Y-74343262D01*
X188351107Y-74343262D01*
X188435124Y-74287124D01*
X188491262Y-74203106D01*
X188491263Y-74203105D01*
X188505999Y-74129022D01*
X188506000Y-74129015D01*
X188506000Y-72834000D01*
X189014001Y-72834000D01*
X189014001Y-74129022D01*
X189028737Y-74203105D01*
X189028737Y-74203107D01*
X189084875Y-74287124D01*
X189168893Y-74343262D01*
X189168894Y-74343263D01*
X189242980Y-74357999D01*
X189522000Y-74357999D01*
X189522000Y-72834000D01*
X190538000Y-72834000D01*
X190538000Y-74357999D01*
X190817014Y-74357999D01*
X190817022Y-74357998D01*
X190891105Y-74343262D01*
X190891107Y-74343262D01*
X190975124Y-74287124D01*
X191031262Y-74203106D01*
X191031263Y-74203105D01*
X191045999Y-74129022D01*
X191045999Y-74129015D01*
X191046000Y-72834000D01*
X190538000Y-72834000D01*
X189522000Y-72834000D01*
X189014001Y-72834000D01*
X188506000Y-72834000D01*
X187998000Y-72834000D01*
X186982000Y-72834000D01*
X186474001Y-72834000D01*
X186474001Y-74129022D01*
X186488737Y-74203106D01*
X186492665Y-74212590D01*
X186500251Y-74283180D01*
X186468469Y-74346666D01*
X186407409Y-74382891D01*
X186336458Y-74380353D01*
X186287159Y-74349898D01*
X186108176Y-74170915D01*
X186074150Y-74108603D01*
X186071459Y-74088687D01*
X185971666Y-72257892D01*
X185971512Y-72255656D01*
X185971239Y-72252080D01*
X185971238Y-72252076D01*
X185970106Y-72245773D01*
X185970418Y-72245716D01*
X185966499Y-72217840D01*
X185966499Y-70522936D01*
X185966498Y-70522927D01*
X185961644Y-70498527D01*
X185951734Y-70448699D01*
X185951732Y-70448696D01*
X185946985Y-70437233D01*
X185948577Y-70436573D01*
X185931724Y-70382747D01*
X185950508Y-70314280D01*
X186003326Y-70266838D01*
X186057704Y-70254500D01*
X186382897Y-70254500D01*
X186451018Y-70274502D01*
G37*
G04 #@! TD.AperFunction*
G04 #@! TA.AperFunction,Conductor*
G36*
X199687621Y-70274502D02*
G01*
X199734114Y-70328158D01*
X199745500Y-70380500D01*
X199745500Y-86234000D01*
X199725498Y-86302121D01*
X199671842Y-86348614D01*
X199619500Y-86360000D01*
X195188728Y-86360000D01*
X195120607Y-86339998D01*
X195074114Y-86286342D01*
X195064010Y-86216068D01*
X195079608Y-86171001D01*
X195094675Y-86144904D01*
X195127075Y-86088785D01*
X195184855Y-85910956D01*
X195199500Y-85771620D01*
X195199500Y-80303632D01*
X195219502Y-80235511D01*
X195236400Y-80214542D01*
X196533458Y-78917483D01*
X196548478Y-78904654D01*
X196559470Y-78896669D01*
X196605360Y-78845701D01*
X196607597Y-78843345D01*
X196622937Y-78828006D01*
X196634097Y-78814223D01*
X196636577Y-78811162D01*
X196638720Y-78808653D01*
X196684581Y-78757720D01*
X196684581Y-78757718D01*
X196684585Y-78757715D01*
X196691371Y-78745959D01*
X196702565Y-78729671D01*
X196711107Y-78719125D01*
X196742233Y-78658033D01*
X196743779Y-78655185D01*
X196778075Y-78595785D01*
X196782268Y-78582877D01*
X196789833Y-78564613D01*
X196795994Y-78552524D01*
X196813740Y-78486291D01*
X196814674Y-78483142D01*
X196835854Y-78417960D01*
X196835855Y-78417954D01*
X196837272Y-78404471D01*
X196840877Y-78385020D01*
X196840932Y-78384814D01*
X196844389Y-78371915D01*
X196847977Y-78303413D01*
X196848231Y-78300192D01*
X196850500Y-78278620D01*
X196850499Y-78256944D01*
X196850584Y-78253672D01*
X196854174Y-78185190D01*
X196852051Y-78171785D01*
X196850500Y-78152075D01*
X196850500Y-77477283D01*
X196850500Y-76788380D01*
X196835855Y-76649044D01*
X196785388Y-76493722D01*
X196778077Y-76471220D01*
X196778071Y-76471208D01*
X196684589Y-76309290D01*
X196684585Y-76309284D01*
X196559472Y-76170332D01*
X196408204Y-76060429D01*
X196380144Y-76047936D01*
X196237385Y-75984375D01*
X196187158Y-75973699D01*
X196054491Y-75945500D01*
X196054490Y-75945500D01*
X195867510Y-75945500D01*
X195867509Y-75945500D01*
X195684614Y-75984375D01*
X195513795Y-76060429D01*
X195398561Y-76144152D01*
X195331693Y-76168011D01*
X195262542Y-76151930D01*
X195213061Y-76101016D01*
X195198500Y-76042216D01*
X195198500Y-76024923D01*
X195200051Y-76005211D01*
X195202174Y-75991806D01*
X195199747Y-75945500D01*
X195198585Y-75923334D01*
X195198500Y-75920062D01*
X195198500Y-75898388D01*
X195198500Y-75898380D01*
X195196230Y-75876796D01*
X195195975Y-75873554D01*
X195192388Y-75805085D01*
X195188875Y-75791974D01*
X195185274Y-75772541D01*
X195184322Y-75763488D01*
X195183855Y-75759044D01*
X195162669Y-75693842D01*
X195161734Y-75690684D01*
X195143994Y-75624475D01*
X195142469Y-75621483D01*
X195137832Y-75612382D01*
X195130268Y-75594121D01*
X195126075Y-75581215D01*
X195091782Y-75521817D01*
X195090225Y-75518949D01*
X195059109Y-75457879D01*
X195059103Y-75457871D01*
X195050570Y-75447334D01*
X195039373Y-75431043D01*
X195032585Y-75419285D01*
X194986706Y-75368331D01*
X194984600Y-75365867D01*
X194970937Y-75348994D01*
X194955595Y-75333652D01*
X194953360Y-75331297D01*
X194922541Y-75297069D01*
X194907472Y-75280332D01*
X194896483Y-75272348D01*
X194881452Y-75259509D01*
X193770462Y-74148519D01*
X193736436Y-74086207D01*
X193733939Y-74069225D01*
X193732120Y-74045916D01*
X193636918Y-72825736D01*
X193591625Y-72245231D01*
X193591273Y-72241139D01*
X193591273Y-72241136D01*
X193591271Y-72241130D01*
X193590071Y-72234814D01*
X193590582Y-72234716D01*
X193586499Y-72206739D01*
X193586499Y-70522936D01*
X193586498Y-70522927D01*
X193581644Y-70498527D01*
X193571734Y-70448699D01*
X193571732Y-70448696D01*
X193566985Y-70437233D01*
X193568577Y-70436573D01*
X193551724Y-70382747D01*
X193570508Y-70314280D01*
X193623326Y-70266838D01*
X193677704Y-70254500D01*
X199619500Y-70254500D01*
X199687621Y-70274502D01*
G37*
G04 #@! TD.AperFunction*
G04 #@! TA.AperFunction,Conductor*
G36*
X152019094Y-79899324D02*
G01*
X151956782Y-79933350D01*
X151885967Y-79928285D01*
X151840903Y-79899324D01*
X151725447Y-79783868D01*
X151854404Y-79820000D01*
X151967622Y-79820000D01*
X152079783Y-79804584D01*
X152139981Y-79778435D01*
X152019094Y-79899324D01*
G37*
G04 #@! TD.AperFunction*
G04 #@! TA.AperFunction,Conductor*
G36*
X150891018Y-70274502D02*
G01*
X150937511Y-70328158D01*
X150947615Y-70398432D01*
X150932784Y-70437138D01*
X150933486Y-70437429D01*
X150928736Y-70448894D01*
X150914000Y-70522977D01*
X150914000Y-71818000D01*
X152945999Y-71818000D01*
X152945999Y-70522986D01*
X152945998Y-70522977D01*
X152931262Y-70448894D01*
X152926513Y-70437426D01*
X152928043Y-70436791D01*
X152911123Y-70382744D01*
X152929909Y-70314278D01*
X152982728Y-70266837D01*
X153037103Y-70254500D01*
X153362296Y-70254500D01*
X153430417Y-70274502D01*
X153476910Y-70328158D01*
X153487014Y-70398432D01*
X153472264Y-70436921D01*
X153473015Y-70437232D01*
X153468266Y-70448696D01*
X153453500Y-70522930D01*
X153453500Y-74129063D01*
X153453501Y-74129072D01*
X153468266Y-74203301D01*
X153468265Y-74203301D01*
X153524515Y-74287483D01*
X153524518Y-74287486D01*
X153529659Y-74290921D01*
X153575186Y-74345398D01*
X153585483Y-74389089D01*
X153586610Y-74410590D01*
X153586611Y-74410601D01*
X153590125Y-74423715D01*
X153593726Y-74443145D01*
X153595144Y-74456639D01*
X153616328Y-74521832D01*
X153617256Y-74524966D01*
X153635006Y-74591206D01*
X153641165Y-74603295D01*
X153648729Y-74621554D01*
X153652925Y-74634467D01*
X153687209Y-74693849D01*
X153688774Y-74696732D01*
X153719891Y-74757805D01*
X153728430Y-74768349D01*
X153739629Y-74784643D01*
X153746415Y-74796397D01*
X153792285Y-74847342D01*
X153794427Y-74849850D01*
X153808063Y-74866688D01*
X153808068Y-74866694D01*
X153823377Y-74882002D01*
X153825647Y-74884394D01*
X153871530Y-74935351D01*
X153882509Y-74943328D01*
X153897545Y-74956170D01*
X154366472Y-75425097D01*
X154400498Y-75487409D01*
X154395433Y-75558224D01*
X154352886Y-75615060D01*
X154300530Y-75638046D01*
X154166447Y-75663111D01*
X154166440Y-75663113D01*
X153975577Y-75737054D01*
X153975566Y-75737059D01*
X153801536Y-75844814D01*
X153650266Y-75982715D01*
X153526913Y-76146063D01*
X153435671Y-76329301D01*
X153379654Y-76526180D01*
X153360768Y-76729995D01*
X153360768Y-76730004D01*
X153379654Y-76933819D01*
X153435671Y-77130698D01*
X153435672Y-77130701D01*
X153526912Y-77313935D01*
X153526913Y-77313936D01*
X153650266Y-77477284D01*
X153801536Y-77615185D01*
X153975566Y-77722940D01*
X153975568Y-77722940D01*
X153975573Y-77722944D01*
X154166444Y-77796888D01*
X154215964Y-77806144D01*
X154279249Y-77838323D01*
X154315091Y-77899608D01*
X154312110Y-77970542D01*
X154271253Y-78028604D01*
X154270023Y-78029569D01*
X153855645Y-78350901D01*
X153850201Y-78354681D01*
X153801535Y-78384815D01*
X153744298Y-78436993D01*
X153740462Y-78440221D01*
X153717200Y-78458260D01*
X153717187Y-78458270D01*
X153710924Y-78463449D01*
X153710918Y-78463454D01*
X153706789Y-78467093D01*
X153706786Y-78467095D01*
X153695072Y-78478079D01*
X153690436Y-78483540D01*
X153690072Y-78483231D01*
X153677263Y-78498104D01*
X153650270Y-78522712D01*
X153650265Y-78522717D01*
X153526912Y-78686064D01*
X153526911Y-78686065D01*
X153439123Y-78862366D01*
X153437510Y-78865276D01*
X153436124Y-78868129D01*
X153435668Y-78869307D01*
X153435493Y-78869924D01*
X153434000Y-78874493D01*
X153281106Y-79288277D01*
X153238733Y-79345243D01*
X153172289Y-79370257D01*
X153102869Y-79355378D01*
X153052514Y-79305329D01*
X153037453Y-79256231D01*
X153019851Y-79066269D01*
X152982704Y-78935714D01*
X152982704Y-78935713D01*
X152439427Y-79478990D01*
X152473559Y-79382953D01*
X152483877Y-79232114D01*
X152453116Y-79084085D01*
X152383558Y-78949844D01*
X152280362Y-78839348D01*
X152151181Y-78760791D01*
X152005596Y-78720000D01*
X151892378Y-78720000D01*
X151780217Y-78735416D01*
X151720012Y-78761566D01*
X152265540Y-78216039D01*
X152233417Y-78203595D01*
X152213146Y-78199805D01*
X152149861Y-78167624D01*
X152114021Y-78106338D01*
X152117004Y-78035404D01*
X152155903Y-77978936D01*
X152580833Y-77626799D01*
X152587864Y-77621747D01*
X152598462Y-77615186D01*
X152633473Y-77583268D01*
X152635667Y-77581360D01*
X152689048Y-77537125D01*
X152693573Y-77533195D01*
X152696588Y-77530452D01*
X152705227Y-77522222D01*
X152705230Y-77522216D01*
X152709679Y-77516935D01*
X152709901Y-77517122D01*
X152724027Y-77500717D01*
X152749732Y-77477285D01*
X152873088Y-77313935D01*
X152964328Y-77130701D01*
X153020345Y-76933821D01*
X153029503Y-76834995D01*
X153039232Y-76730004D01*
X153039232Y-76729995D01*
X153020345Y-76526180D01*
X153011110Y-76493722D01*
X152964328Y-76329299D01*
X152873088Y-76146065D01*
X152808419Y-76060429D01*
X152749733Y-75982715D01*
X152598463Y-75844814D01*
X152424433Y-75737059D01*
X152424428Y-75737057D01*
X152424427Y-75737056D01*
X152363622Y-75713500D01*
X152233559Y-75663113D01*
X152233560Y-75663113D01*
X152233557Y-75663112D01*
X152233556Y-75663112D01*
X152032347Y-75625500D01*
X152032345Y-75625500D01*
X151941006Y-75625500D01*
X151922849Y-75624185D01*
X151904299Y-75621483D01*
X151904295Y-75621483D01*
X151904294Y-75621483D01*
X150567448Y-75690684D01*
X150227677Y-75708272D01*
X150220337Y-75710031D01*
X150190975Y-75713500D01*
X149637034Y-75713500D01*
X149630855Y-75713196D01*
X149584002Y-75708581D01*
X149583998Y-75708581D01*
X149484279Y-75718403D01*
X149384731Y-75728208D01*
X149270512Y-75762855D01*
X149199518Y-75763488D01*
X149139452Y-75725638D01*
X149109384Y-75661323D01*
X149118861Y-75590961D01*
X149120602Y-75587225D01*
X149229631Y-75363011D01*
X149356213Y-75012001D01*
X149444769Y-74649524D01*
X149494294Y-74279688D01*
X149498090Y-74137148D01*
X149504227Y-73906689D01*
X149504227Y-73906683D01*
X149474457Y-73534740D01*
X149452045Y-73415880D01*
X149405317Y-73168059D01*
X149362181Y-73025000D01*
X149304590Y-72834000D01*
X150914001Y-72834000D01*
X150914001Y-74129022D01*
X150928737Y-74203105D01*
X150928737Y-74203107D01*
X150984875Y-74287124D01*
X151068893Y-74343262D01*
X151068894Y-74343263D01*
X151142980Y-74357999D01*
X151422000Y-74357999D01*
X151422000Y-72834000D01*
X152438000Y-72834000D01*
X152438000Y-74357999D01*
X152717014Y-74357999D01*
X152717022Y-74357998D01*
X152791105Y-74343262D01*
X152791107Y-74343262D01*
X152875124Y-74287124D01*
X152931262Y-74203106D01*
X152931263Y-74203105D01*
X152945999Y-74129022D01*
X152946000Y-74129015D01*
X152946000Y-72834000D01*
X152438000Y-72834000D01*
X151422000Y-72834000D01*
X150914001Y-72834000D01*
X149304590Y-72834000D01*
X149297600Y-72810819D01*
X149297596Y-72810810D01*
X149291961Y-72797459D01*
X149152511Y-72467033D01*
X148971707Y-72140626D01*
X148757232Y-71835287D01*
X148757227Y-71835281D01*
X148757222Y-71835275D01*
X148511517Y-71554473D01*
X148511515Y-71554471D01*
X148237344Y-71301370D01*
X147937828Y-71078848D01*
X147937827Y-71078846D01*
X147769813Y-70979845D01*
X147616345Y-70889415D01*
X147276554Y-70735230D01*
X146922298Y-70618036D01*
X146922297Y-70618035D01*
X146922288Y-70618033D01*
X146557585Y-70539159D01*
X146245385Y-70505786D01*
X146179776Y-70478657D01*
X146139250Y-70420363D01*
X146136673Y-70349413D01*
X146172863Y-70288333D01*
X146236331Y-70256516D01*
X146258778Y-70254500D01*
X150822897Y-70254500D01*
X150891018Y-70274502D01*
G37*
G04 #@! TD.AperFunction*
G04 #@! TA.AperFunction,Conductor*
G36*
X151386441Y-79157047D02*
G01*
X151376123Y-79307886D01*
X151406884Y-79455915D01*
X151416980Y-79475401D01*
X151300674Y-79359094D01*
X151266649Y-79296782D01*
X151271714Y-79225966D01*
X151300675Y-79180904D01*
X151420574Y-79061004D01*
X151386441Y-79157047D01*
G37*
G04 #@! TD.AperFunction*
G04 #@! TA.AperFunction,Conductor*
G36*
X186946441Y-79157047D02*
G01*
X186936123Y-79307886D01*
X186966884Y-79455915D01*
X186976980Y-79475400D01*
X186860675Y-79359095D01*
X186826650Y-79296783D01*
X186831714Y-79225968D01*
X186860675Y-79180904D01*
X186980574Y-79061004D01*
X186946441Y-79157047D01*
G37*
G04 #@! TD.AperFunction*
M02*
