G04 #@! TF.GenerationSoftware,KiCad,Pcbnew,7.0.5-4d25ed1034~172~ubuntu22.04.1*
G04 #@! TF.CreationDate,2023-06-02T09:39:04+03:00*
G04 #@! TF.ProjectId,AgonLight2-PROTO_Rev_A,41676f6e-4c69-4676-9874-322d50524f54,A*
G04 #@! TF.SameCoordinates,Original*
G04 #@! TF.FileFunction,Soldermask,Bot*
G04 #@! TF.FilePolarity,Negative*
%FSLAX46Y46*%
G04 Gerber Fmt 4.6, Leading zero omitted, Abs format (unit mm)*
G04 Created by KiCad (PCBNEW 7.0.5-4d25ed1034~172~ubuntu22.04.1) date 2023-06-02 09:39:04*
%MOMM*%
%LPD*%
G01*
G04 APERTURE LIST*
G04 Aperture macros list*
%AMRoundRect*
0 Rectangle with rounded corners*
0 $1 Rounding radius*
0 $2 $3 $4 $5 $6 $7 $8 $9 X,Y pos of 4 corners*
0 Add a 4 corners polygon primitive as box body*
4,1,4,$2,$3,$4,$5,$6,$7,$8,$9,$2,$3,0*
0 Add four circle primitives for the rounded corners*
1,1,$1+$1,$2,$3*
1,1,$1+$1,$4,$5*
1,1,$1+$1,$6,$7*
1,1,$1+$1,$8,$9*
0 Add four rect primitives between the rounded corners*
20,1,$1+$1,$2,$3,$4,$5,0*
20,1,$1+$1,$4,$5,$6,$7,0*
20,1,$1+$1,$6,$7,$8,$9,0*
20,1,$1+$1,$8,$9,$2,$3,0*%
G04 Aperture macros list end*
%ADD10RoundRect,0.050800X-0.889000X-0.889000X0.889000X-0.889000X0.889000X0.889000X-0.889000X0.889000X0*%
%ADD11C,1.625600*%
%ADD12C,3.401601*%
%ADD13RoundRect,0.050800X0.889000X-0.889000X0.889000X0.889000X-0.889000X0.889000X-0.889000X-0.889000X0*%
%ADD14RoundRect,0.050800X-0.762000X1.778000X-0.762000X-1.778000X0.762000X-1.778000X0.762000X1.778000X0*%
%ADD15RoundRect,0.050800X0.762000X0.762000X-0.762000X0.762000X-0.762000X-0.762000X0.762000X-0.762000X0*%
%ADD16RoundRect,0.050800X0.850000X0.850000X-0.850000X0.850000X-0.850000X-0.850000X0.850000X-0.850000X0*%
%ADD17C,1.801600*%
%ADD18RoundRect,0.050800X0.889000X0.889000X-0.889000X0.889000X-0.889000X-0.889000X0.889000X-0.889000X0*%
G04 APERTURE END LIST*
D10*
X104140000Y-87630000D03*
D11*
X114300000Y-73025000D03*
X119380000Y-73025000D03*
D10*
X129540000Y-100330000D03*
X172720000Y-123190000D03*
X180340000Y-105410000D03*
X124460000Y-97790000D03*
X144780000Y-95250000D03*
X185420000Y-102870000D03*
X185420000Y-100330000D03*
X157480000Y-92710000D03*
X147320000Y-118110000D03*
X152400000Y-105410000D03*
X157480000Y-107950000D03*
X127000000Y-125730000D03*
X187960000Y-105410000D03*
X195580000Y-118110000D03*
X167640000Y-90170000D03*
X157480000Y-125730000D03*
X177800000Y-105410000D03*
X165100000Y-100330000D03*
X129540000Y-113030000D03*
X172720000Y-115570000D03*
X177800000Y-100330000D03*
X104140000Y-95250000D03*
X175260000Y-90170000D03*
X121920000Y-125730000D03*
X167640000Y-125730000D03*
X182880000Y-105410000D03*
X121920000Y-92710000D03*
X198120000Y-87630000D03*
X152400000Y-115570000D03*
X111760000Y-125730000D03*
X121920000Y-95250000D03*
X154940000Y-100330000D03*
X109220000Y-95250000D03*
X185420000Y-118110000D03*
X116840000Y-90170000D03*
X162560000Y-118110000D03*
X124460000Y-105410000D03*
X129540000Y-118110000D03*
X172720000Y-105410000D03*
X190500000Y-113030000D03*
X175260000Y-102870000D03*
X177800000Y-87630000D03*
X160020000Y-125730000D03*
X124460000Y-118110000D03*
X101600000Y-95250000D03*
X111760000Y-100330000D03*
X114300000Y-105410000D03*
X187960000Y-97790000D03*
X137160000Y-128270000D03*
X119380000Y-128270000D03*
X142240000Y-95250000D03*
X106680000Y-107950000D03*
X162560000Y-87630000D03*
X137160000Y-113030000D03*
X190500000Y-125730000D03*
X193040000Y-110490000D03*
X167640000Y-123190000D03*
X139700000Y-105410000D03*
X152400000Y-125730000D03*
X162560000Y-123190000D03*
X193040000Y-102870000D03*
X182880000Y-115570000D03*
X114300000Y-115570000D03*
X177800000Y-102870000D03*
X190500000Y-92710000D03*
X124460000Y-102870000D03*
X137160000Y-110490000D03*
X154940000Y-110490000D03*
X175260000Y-87630000D03*
X160020000Y-100330000D03*
X182880000Y-107950000D03*
X116840000Y-87630000D03*
X185420000Y-90170000D03*
D12*
X104000000Y-126000000D03*
D10*
X198120000Y-110490000D03*
X109220000Y-125730000D03*
X190500000Y-100330000D03*
X185420000Y-128270000D03*
X132080000Y-125730000D03*
D13*
X165100000Y-87630000D03*
D10*
X137160000Y-107950000D03*
X185420000Y-125730000D03*
X152400000Y-128270000D03*
X152400000Y-100330000D03*
X165100000Y-102870000D03*
X187960000Y-123190000D03*
X182880000Y-120650000D03*
X142240000Y-90170000D03*
X106680000Y-110490000D03*
X129540000Y-125730000D03*
X198120000Y-92710000D03*
X175260000Y-123190000D03*
X106680000Y-113030000D03*
X101600000Y-105410000D03*
X134620000Y-110490000D03*
X190500000Y-120650000D03*
X165100000Y-90170000D03*
X132080000Y-118110000D03*
X162560000Y-102870000D03*
X129540000Y-102870000D03*
X121920000Y-107950000D03*
X198120000Y-113030000D03*
X114300000Y-118110000D03*
X132080000Y-92710000D03*
X147320000Y-125730000D03*
X119380000Y-115570000D03*
X147320000Y-105410000D03*
X114300000Y-110490000D03*
X180340000Y-110490000D03*
X134620000Y-123190000D03*
X172720000Y-118110000D03*
X116840000Y-113030000D03*
X142240000Y-105410000D03*
X162560000Y-97790000D03*
X167640000Y-100330000D03*
X195580000Y-97790000D03*
X119380000Y-97790000D03*
X182880000Y-113030000D03*
X162560000Y-105410000D03*
D12*
X146000000Y-74000000D03*
D10*
X114300000Y-95250000D03*
X132080000Y-110490000D03*
X165100000Y-92710000D03*
X124460000Y-110490000D03*
X175260000Y-110490000D03*
X139700000Y-125730000D03*
X180340000Y-95250000D03*
X180340000Y-120650000D03*
X193040000Y-118110000D03*
X195580000Y-113030000D03*
X104140000Y-90170000D03*
X124460000Y-128270000D03*
X154940000Y-92710000D03*
X142240000Y-120650000D03*
D13*
X109220000Y-87630000D03*
D10*
X195580000Y-90170000D03*
X187960000Y-100330000D03*
X193040000Y-97790000D03*
X101600000Y-90170000D03*
X152400000Y-123190000D03*
X142240000Y-125730000D03*
X129540000Y-97790000D03*
X104140000Y-102870000D03*
X167640000Y-110490000D03*
X152400000Y-113030000D03*
X172720000Y-95250000D03*
X127000000Y-100330000D03*
X106680000Y-95250000D03*
X127000000Y-110490000D03*
X127000000Y-118110000D03*
X180340000Y-125730000D03*
X177800000Y-120650000D03*
X185420000Y-92710000D03*
X116840000Y-118110000D03*
X172720000Y-102870000D03*
X149860000Y-97790000D03*
X160020000Y-115570000D03*
X154940000Y-97790000D03*
X134620000Y-113030000D03*
X142240000Y-123190000D03*
X193040000Y-113030000D03*
X177800000Y-118110000D03*
X180340000Y-102870000D03*
X106680000Y-97790000D03*
X121920000Y-90170000D03*
X124460000Y-107950000D03*
D13*
X190500000Y-87630000D03*
D10*
X187960000Y-110490000D03*
X182880000Y-123190000D03*
X160020000Y-105410000D03*
X165100000Y-120650000D03*
X149860000Y-87630000D03*
X195580000Y-87630000D03*
X157480000Y-120650000D03*
X167640000Y-105410000D03*
X124460000Y-125730000D03*
X111760000Y-115570000D03*
X137160000Y-125730000D03*
X129540000Y-105410000D03*
X132080000Y-100330000D03*
X114300000Y-100330000D03*
X127000000Y-113030000D03*
X142240000Y-113030000D03*
X157480000Y-97790000D03*
X132080000Y-95250000D03*
X165100000Y-128270000D03*
X190500000Y-95250000D03*
X172720000Y-87630000D03*
X193040000Y-120650000D03*
X134620000Y-97790000D03*
X109220000Y-123190000D03*
X177800000Y-125730000D03*
X180340000Y-107950000D03*
X129540000Y-115570000D03*
X177800000Y-92710000D03*
X139700000Y-97790000D03*
X195580000Y-100330000D03*
X137160000Y-115570000D03*
X147320000Y-95250000D03*
X149860000Y-115570000D03*
X172720000Y-90170000D03*
X175260000Y-125730000D03*
X154940000Y-113030000D03*
X144780000Y-92710000D03*
X127000000Y-120650000D03*
X182880000Y-128270000D03*
X111760000Y-107950000D03*
X177800000Y-97790000D03*
X177800000Y-128270000D03*
X172720000Y-125730000D03*
X149860000Y-102870000D03*
X139700000Y-90170000D03*
X160020000Y-97790000D03*
X170180000Y-128270000D03*
X127000000Y-107950000D03*
X119380000Y-95250000D03*
X124460000Y-100330000D03*
X187960000Y-107950000D03*
X129540000Y-92710000D03*
X160020000Y-92710000D03*
X124460000Y-95250000D03*
X144780000Y-107950000D03*
X127000000Y-92710000D03*
X134620000Y-95250000D03*
X147320000Y-120650000D03*
X116840000Y-123190000D03*
X127000000Y-128270000D03*
X149860000Y-105410000D03*
X152400000Y-95250000D03*
X177800000Y-113030000D03*
X111760000Y-102870000D03*
X157480000Y-87630000D03*
X149860000Y-92710000D03*
X180340000Y-115570000D03*
X185420000Y-110490000D03*
X124460000Y-90170000D03*
X121920000Y-115570000D03*
X152400000Y-120650000D03*
X127000000Y-90170000D03*
X114300000Y-92710000D03*
X101600000Y-92710000D03*
X144780000Y-113030000D03*
X104140000Y-100330000D03*
X170180000Y-107950000D03*
X198120000Y-95250000D03*
X132080000Y-105410000D03*
X111760000Y-113030000D03*
X104140000Y-120650000D03*
D11*
X114300000Y-77470000D03*
X119380000Y-77470000D03*
D10*
X106680000Y-90170000D03*
D13*
X119380000Y-87630000D03*
D10*
X101600000Y-97790000D03*
X132080000Y-87630000D03*
X114300000Y-128270000D03*
X152400000Y-110490000D03*
X147320000Y-128270000D03*
X167640000Y-118110000D03*
X121920000Y-87630000D03*
X154940000Y-87630000D03*
X198120000Y-97790000D03*
X121920000Y-97790000D03*
X149860000Y-113030000D03*
X139700000Y-113030000D03*
X193040000Y-100330000D03*
X134620000Y-92710000D03*
X109220000Y-100330000D03*
X127000000Y-123190000D03*
X160020000Y-90170000D03*
X137160000Y-120650000D03*
X134620000Y-105410000D03*
X116840000Y-110490000D03*
X190500000Y-107950000D03*
X134620000Y-128270000D03*
X198120000Y-120650000D03*
X170180000Y-100330000D03*
X190500000Y-102870000D03*
X116840000Y-120650000D03*
X134620000Y-87630000D03*
X175260000Y-115570000D03*
X193040000Y-87630000D03*
X165100000Y-107950000D03*
X139700000Y-118110000D03*
X152400000Y-97790000D03*
X149860000Y-128270000D03*
X165100000Y-115570000D03*
X147320000Y-110490000D03*
X109220000Y-105410000D03*
X144780000Y-125730000D03*
X139700000Y-95250000D03*
X119380000Y-102870000D03*
X157480000Y-113030000D03*
X198120000Y-90170000D03*
X154940000Y-102870000D03*
X167640000Y-115570000D03*
X132080000Y-123190000D03*
X172720000Y-110490000D03*
X134620000Y-102870000D03*
X170180000Y-110490000D03*
X170180000Y-125730000D03*
X142240000Y-100330000D03*
X132080000Y-115570000D03*
X106680000Y-92710000D03*
X114300000Y-102870000D03*
X109220000Y-90170000D03*
X185420000Y-120650000D03*
X109220000Y-102870000D03*
X160020000Y-118110000D03*
X170180000Y-115570000D03*
X157480000Y-105410000D03*
X162560000Y-110490000D03*
X144780000Y-120650000D03*
X187960000Y-87630000D03*
X167640000Y-95250000D03*
X142240000Y-102870000D03*
X144780000Y-115570000D03*
X157480000Y-100330000D03*
X101600000Y-87630000D03*
X137160000Y-90170000D03*
X127000000Y-95250000D03*
X185420000Y-97790000D03*
X109220000Y-113030000D03*
X170180000Y-95250000D03*
X172720000Y-120650000D03*
X152400000Y-87630000D03*
X111760000Y-87630000D03*
X132080000Y-113030000D03*
X144780000Y-100330000D03*
X124460000Y-123190000D03*
X157480000Y-123190000D03*
X104140000Y-97790000D03*
X106680000Y-100330000D03*
X137160000Y-105410000D03*
X152400000Y-118110000D03*
X177800000Y-90170000D03*
D12*
X196000000Y-126000000D03*
D10*
X170180000Y-97790000D03*
X147320000Y-100330000D03*
X109220000Y-107950000D03*
D12*
X104000000Y-74000000D03*
D10*
X142240000Y-107950000D03*
X129540000Y-110490000D03*
X160020000Y-113030000D03*
X106680000Y-118110000D03*
X109220000Y-115570000D03*
X162560000Y-100330000D03*
X116840000Y-125730000D03*
X132080000Y-90170000D03*
X175260000Y-128270000D03*
X180340000Y-90170000D03*
X149860000Y-95250000D03*
X132080000Y-128270000D03*
X170180000Y-118110000D03*
X124460000Y-92710000D03*
X180340000Y-118110000D03*
X106680000Y-115570000D03*
X167640000Y-120650000D03*
X160020000Y-120650000D03*
X167640000Y-97790000D03*
X137160000Y-87630000D03*
X180340000Y-97790000D03*
X127000000Y-105410000D03*
X119380000Y-123190000D03*
X147320000Y-90170000D03*
X170180000Y-120650000D03*
X119380000Y-90170000D03*
X170180000Y-90170000D03*
X121920000Y-110490000D03*
X193040000Y-115570000D03*
X147320000Y-123190000D03*
X142240000Y-97790000D03*
X132080000Y-102870000D03*
X190500000Y-105410000D03*
X121920000Y-118110000D03*
X162560000Y-125730000D03*
X182880000Y-125730000D03*
X139700000Y-115570000D03*
X129540000Y-90170000D03*
X175260000Y-120650000D03*
X147320000Y-92710000D03*
D14*
X192570000Y-72326000D03*
X190030000Y-72326000D03*
X187490000Y-72326000D03*
X184950000Y-72326000D03*
X182410000Y-72326000D03*
X179870000Y-72326000D03*
X177330000Y-72326000D03*
X174790000Y-72326000D03*
X172250000Y-72326000D03*
X169710000Y-72326000D03*
X167170000Y-72326000D03*
X164630000Y-72326000D03*
X162090000Y-72326000D03*
X159550000Y-72326000D03*
X157010000Y-72326000D03*
X154470000Y-72326000D03*
X151930000Y-72326000D03*
D10*
X193040000Y-95250000D03*
X116840000Y-128270000D03*
X160020000Y-87630000D03*
X149860000Y-100330000D03*
X119380000Y-113030000D03*
X185420000Y-113030000D03*
X162560000Y-113030000D03*
X149860000Y-107950000D03*
X139700000Y-120650000D03*
X180340000Y-128270000D03*
X195580000Y-115570000D03*
X144780000Y-97790000D03*
X121920000Y-102870000D03*
X195580000Y-120650000D03*
X182880000Y-92710000D03*
X170180000Y-102870000D03*
X165100000Y-125730000D03*
X142240000Y-128270000D03*
X157480000Y-102870000D03*
X162560000Y-95250000D03*
X154940000Y-118110000D03*
X137160000Y-95250000D03*
X104140000Y-105410000D03*
X157480000Y-95250000D03*
X114300000Y-120650000D03*
X160020000Y-128270000D03*
X111760000Y-95250000D03*
X104140000Y-118110000D03*
X144780000Y-102870000D03*
X144780000Y-110490000D03*
X114300000Y-107950000D03*
X160020000Y-107950000D03*
X187960000Y-115570000D03*
X134620000Y-115570000D03*
X129540000Y-87630000D03*
X185420000Y-105410000D03*
X111760000Y-110490000D03*
X149860000Y-118110000D03*
X187960000Y-90170000D03*
X101600000Y-118110000D03*
X147320000Y-97790000D03*
X121920000Y-120650000D03*
X195580000Y-102870000D03*
X198120000Y-107950000D03*
X185420000Y-95250000D03*
X149860000Y-123190000D03*
X101600000Y-100330000D03*
X182880000Y-87630000D03*
X119380000Y-92710000D03*
X154940000Y-107950000D03*
X198120000Y-100330000D03*
X185420000Y-123190000D03*
X167640000Y-107950000D03*
X198120000Y-118110000D03*
X116840000Y-102870000D03*
X172720000Y-107950000D03*
X119380000Y-118110000D03*
X101600000Y-107950000D03*
X167640000Y-113030000D03*
X182880000Y-110490000D03*
X167640000Y-102870000D03*
X165100000Y-95250000D03*
X152400000Y-107950000D03*
X142240000Y-118110000D03*
X172720000Y-97790000D03*
X111760000Y-123190000D03*
X147320000Y-87630000D03*
X119380000Y-100330000D03*
X116840000Y-97790000D03*
D15*
X111760000Y-72390000D03*
D11*
X109220000Y-72390000D03*
D10*
X121920000Y-113030000D03*
X139700000Y-128270000D03*
X182880000Y-100330000D03*
X139700000Y-92710000D03*
X152400000Y-92710000D03*
X193040000Y-107950000D03*
X111760000Y-90170000D03*
X190500000Y-90170000D03*
X109220000Y-110490000D03*
X119380000Y-110490000D03*
X109220000Y-118110000D03*
X101600000Y-110490000D03*
X182880000Y-95250000D03*
X137160000Y-100330000D03*
X157480000Y-110490000D03*
X101600000Y-113030000D03*
X154940000Y-120650000D03*
X172720000Y-113030000D03*
X165100000Y-113030000D03*
X160020000Y-102870000D03*
X177800000Y-107950000D03*
X187960000Y-92710000D03*
X160020000Y-123190000D03*
X165100000Y-105410000D03*
X190500000Y-128270000D03*
X109220000Y-120650000D03*
X139700000Y-102870000D03*
X124460000Y-120650000D03*
X132080000Y-107950000D03*
X104140000Y-115570000D03*
X142240000Y-87630000D03*
X195580000Y-107950000D03*
X129540000Y-120650000D03*
X104140000Y-92710000D03*
X114300000Y-97790000D03*
X104140000Y-113030000D03*
X162560000Y-90170000D03*
X137160000Y-118110000D03*
X167640000Y-87630000D03*
X160020000Y-110490000D03*
X129540000Y-95250000D03*
X182880000Y-118110000D03*
X180340000Y-100330000D03*
X144780000Y-90170000D03*
X195580000Y-110490000D03*
X109220000Y-92710000D03*
X137160000Y-92710000D03*
X149860000Y-90170000D03*
X180340000Y-113030000D03*
X132080000Y-120650000D03*
X121920000Y-100330000D03*
X127000000Y-102870000D03*
X154940000Y-128270000D03*
X134620000Y-118110000D03*
X157480000Y-90170000D03*
X111760000Y-118110000D03*
X124460000Y-87630000D03*
X182880000Y-90170000D03*
X116840000Y-95250000D03*
X114300000Y-87630000D03*
X111760000Y-120650000D03*
X134620000Y-125730000D03*
X172720000Y-128270000D03*
X144780000Y-123190000D03*
X129540000Y-128270000D03*
X114300000Y-90170000D03*
X190500000Y-110490000D03*
X144780000Y-118110000D03*
X106680000Y-105410000D03*
X162560000Y-128270000D03*
X187960000Y-128270000D03*
X111760000Y-128270000D03*
X109220000Y-97790000D03*
X121920000Y-128270000D03*
D15*
X111760000Y-76835000D03*
D11*
X109220000Y-76835000D03*
D10*
X180340000Y-87630000D03*
X104140000Y-107950000D03*
X193040000Y-92710000D03*
X116840000Y-107950000D03*
X114300000Y-113030000D03*
X160020000Y-95250000D03*
X116840000Y-100330000D03*
X182880000Y-102870000D03*
X187960000Y-113030000D03*
X198120000Y-115570000D03*
X124460000Y-115570000D03*
X175260000Y-100330000D03*
X162560000Y-107950000D03*
X175260000Y-95250000D03*
X175260000Y-92710000D03*
X182880000Y-97790000D03*
X154940000Y-125730000D03*
X121920000Y-123190000D03*
X154940000Y-90170000D03*
X172720000Y-100330000D03*
X185420000Y-115570000D03*
X137160000Y-123190000D03*
X187960000Y-120650000D03*
X152400000Y-102870000D03*
X104140000Y-110490000D03*
X127000000Y-87630000D03*
X187960000Y-95250000D03*
X142240000Y-115570000D03*
X187960000Y-118110000D03*
X154940000Y-95250000D03*
X177800000Y-95250000D03*
X149860000Y-125730000D03*
X180340000Y-123190000D03*
X175260000Y-113030000D03*
X175260000Y-118110000D03*
X134620000Y-90170000D03*
X109220000Y-128270000D03*
D16*
X192570000Y-79270000D03*
D17*
X192570000Y-76730000D03*
X190030000Y-79270000D03*
X190030000Y-76730000D03*
X187490000Y-79270000D03*
X187490000Y-76730000D03*
X184950000Y-79270000D03*
X184950000Y-76730000D03*
X182410000Y-79270000D03*
X182410000Y-76730000D03*
X179870000Y-79270000D03*
X179870000Y-76730000D03*
X177330000Y-79270000D03*
X177330000Y-76730000D03*
X174790000Y-79270000D03*
X174790000Y-76730000D03*
X172250000Y-79270000D03*
X172250000Y-76730000D03*
X169710000Y-79270000D03*
X169710000Y-76730000D03*
X167170000Y-79270000D03*
X167170000Y-76730000D03*
X164630000Y-79270000D03*
X164630000Y-76730000D03*
X162090000Y-79270000D03*
X162090000Y-76730000D03*
X159550000Y-79270000D03*
X159550000Y-76730000D03*
X157010000Y-79270000D03*
X157010000Y-76730000D03*
X154470000Y-79270000D03*
X154470000Y-76730000D03*
X151930000Y-79270000D03*
X151930000Y-76730000D03*
D10*
X170180000Y-113030000D03*
X185420000Y-87630000D03*
X167640000Y-128270000D03*
X116840000Y-115570000D03*
X144780000Y-128270000D03*
X101600000Y-102870000D03*
X101600000Y-120650000D03*
X147320000Y-113030000D03*
X149860000Y-120650000D03*
X139700000Y-107950000D03*
X114300000Y-125730000D03*
X121920000Y-105410000D03*
X119380000Y-105410000D03*
X177800000Y-115570000D03*
X119380000Y-120650000D03*
X190500000Y-118110000D03*
X177800000Y-123190000D03*
X154940000Y-123190000D03*
X114300000Y-123190000D03*
X127000000Y-97790000D03*
X147320000Y-107950000D03*
X106680000Y-120650000D03*
X142240000Y-110490000D03*
X175260000Y-105410000D03*
X119380000Y-107950000D03*
X132080000Y-97790000D03*
X165100000Y-123190000D03*
X180340000Y-92710000D03*
X165100000Y-118110000D03*
X139700000Y-87630000D03*
X134620000Y-107950000D03*
X144780000Y-87630000D03*
X139700000Y-100330000D03*
X162560000Y-115570000D03*
X134620000Y-120650000D03*
X106680000Y-102870000D03*
X137160000Y-97790000D03*
X185420000Y-107950000D03*
X198120000Y-105410000D03*
X147320000Y-102870000D03*
X170180000Y-87630000D03*
X165100000Y-110490000D03*
X116840000Y-92710000D03*
X187960000Y-102870000D03*
X172720000Y-92710000D03*
X167640000Y-92710000D03*
X187960000Y-125730000D03*
X190500000Y-123190000D03*
X116840000Y-105410000D03*
X152400000Y-90170000D03*
X177800000Y-110490000D03*
X170180000Y-105410000D03*
X198120000Y-102870000D03*
X129540000Y-107950000D03*
X111760000Y-97790000D03*
X162560000Y-92710000D03*
X139700000Y-123190000D03*
X170180000Y-92710000D03*
X195580000Y-105410000D03*
X175260000Y-107950000D03*
X165100000Y-97790000D03*
X149860000Y-110490000D03*
X175260000Y-97790000D03*
X124460000Y-113030000D03*
X111760000Y-105410000D03*
X157480000Y-118110000D03*
X101600000Y-115570000D03*
X162560000Y-120650000D03*
X139700000Y-110490000D03*
X142240000Y-92710000D03*
X127000000Y-115570000D03*
X137160000Y-102870000D03*
X193040000Y-105410000D03*
X111760000Y-92710000D03*
X106680000Y-87630000D03*
X190500000Y-97790000D03*
X193040000Y-90170000D03*
X195580000Y-95250000D03*
X157480000Y-128270000D03*
X134620000Y-100330000D03*
X119380000Y-125730000D03*
X147320000Y-115570000D03*
X144780000Y-105410000D03*
X190500000Y-115570000D03*
X154940000Y-105410000D03*
X154940000Y-115570000D03*
X170180000Y-123190000D03*
X129540000Y-123190000D03*
X157480000Y-115570000D03*
D18*
X195580000Y-92710000D03*
M02*
