M48
; DRILL file {KiCad 7.0.5-4d25ed1034~172~ubuntu22.04.1} date  2.06.2023 (пт)  9:39:10
; FORMAT={-:-/ absolute / metric / decimal}
; #@! TF.CreationDate,2023-06-02T09:39:10+03:00
; #@! TF.GenerationSoftware,Kicad,Pcbnew,7.0.5-4d25ed1034~172~ubuntu22.04.1
; #@! TF.FileFunction,Plated,1,2,PTH
FMAT,2
METRIC
; #@! TA.AperFunction,Plated,PTH,ViaDrill
T1C0.600
; #@! TA.AperFunction,Plated,PTH,ComponentDrill
T2C0.800
; #@! TA.AperFunction,Plated,PTH,ComponentDrill
T3C0.900
; #@! TA.AperFunction,Plated,PTH,ComponentDrill
T4C1.000
; #@! TA.AperFunction,Plated,PTH,ComponentDrill
T5C1.100
%
G90
G05
T1
X104.14Y-82.677
X106.68Y-82.677
X107.315Y-71.12
X107.95Y-79.756
X107.95Y-82.677
X109.22Y-79.756
X109.22Y-82.677
X111.76Y-79.756
X113.03Y-79.756
X114.3Y-82.677
X114.3Y-84.201
X116.84Y-71.12
X116.84Y-73.66
X116.84Y-76.2
X116.84Y-78.105
X116.84Y-82.677
X116.84Y-84.625
X119.38Y-82.677
X121.92Y-71.12
X121.92Y-73.66
X121.92Y-81.28
X124.46Y-71.12
X124.46Y-73.66
X124.46Y-82.677
X127.0Y-71.12
X127.0Y-73.66
X129.54Y-71.12
X129.54Y-73.66
X131.191Y-83.787
X132.08Y-71.12
X132.08Y-73.66
X132.08Y-79.629
X134.62Y-71.12
X134.62Y-73.66
X134.62Y-79.629
X137.16Y-71.12
X137.16Y-73.66
X137.16Y-79.629
X139.7Y-71.12
X139.7Y-73.66
X139.7Y-77.343
X140.97Y-77.343
X142.24Y-71.12
X150.241Y-71.12
X150.241Y-72.263
X150.241Y-73.406
X167.259Y-82.004
X168.656Y-81.153
X170.942Y-80.518
X173.482Y-80.645
X174.117Y-83.058
X175.012Y-81.921
X177.693Y-82.415
X181.402Y-82.85
X182.372Y-84.201
X184.912Y-84.201
X184.915Y-82.827
X186.101Y-81.433
X188.962Y-82.702
X194.31Y-85.725
X194.945Y-71.12
X194.945Y-73.66
X195.834Y-82.042
X195.834Y-84.226
X195.961Y-76.835
X196.596Y-79.883
X196.85Y-71.12
X196.85Y-73.66
X198.755Y-71.12
X198.755Y-73.66
X198.755Y-76.2
T2
X109.22Y-72.39
X109.22Y-76.835
X111.76Y-72.39
X111.76Y-76.835
T3
X114.3Y-73.025
X114.3Y-77.47
X119.38Y-73.025
X119.38Y-77.47
T4
X101.6Y-87.63
X101.6Y-90.17
X101.6Y-92.71
X101.6Y-95.25
X101.6Y-97.79
X101.6Y-100.33
X101.6Y-102.87
X101.6Y-105.41
X101.6Y-107.95
X101.6Y-110.49
X101.6Y-113.03
X101.6Y-115.57
X101.6Y-118.11
X101.6Y-120.65
X104.14Y-87.63
X104.14Y-90.17
X104.14Y-92.71
X104.14Y-95.25
X104.14Y-97.79
X104.14Y-100.33
X104.14Y-102.87
X104.14Y-105.41
X104.14Y-107.95
X104.14Y-110.49
X104.14Y-113.03
X104.14Y-115.57
X104.14Y-118.11
X104.14Y-120.65
X106.68Y-87.63
X106.68Y-90.17
X106.68Y-92.71
X106.68Y-95.25
X106.68Y-97.79
X106.68Y-100.33
X106.68Y-102.87
X106.68Y-105.41
X106.68Y-107.95
X106.68Y-110.49
X106.68Y-113.03
X106.68Y-115.57
X106.68Y-118.11
X106.68Y-120.65
X109.22Y-87.63
X109.22Y-90.17
X109.22Y-92.71
X109.22Y-95.25
X109.22Y-97.79
X109.22Y-100.33
X109.22Y-102.87
X109.22Y-105.41
X109.22Y-107.95
X109.22Y-110.49
X109.22Y-113.03
X109.22Y-115.57
X109.22Y-118.11
X109.22Y-120.65
X109.22Y-123.19
X109.22Y-125.73
X109.22Y-128.27
X111.76Y-87.63
X111.76Y-90.17
X111.76Y-92.71
X111.76Y-95.25
X111.76Y-97.79
X111.76Y-100.33
X111.76Y-102.87
X111.76Y-105.41
X111.76Y-107.95
X111.76Y-110.49
X111.76Y-113.03
X111.76Y-115.57
X111.76Y-118.11
X111.76Y-120.65
X111.76Y-123.19
X111.76Y-125.73
X111.76Y-128.27
X114.3Y-87.63
X114.3Y-90.17
X114.3Y-92.71
X114.3Y-95.25
X114.3Y-97.79
X114.3Y-100.33
X114.3Y-102.87
X114.3Y-105.41
X114.3Y-107.95
X114.3Y-110.49
X114.3Y-113.03
X114.3Y-115.57
X114.3Y-118.11
X114.3Y-120.65
X114.3Y-123.19
X114.3Y-125.73
X114.3Y-128.27
X116.84Y-87.63
X116.84Y-90.17
X116.84Y-92.71
X116.84Y-95.25
X116.84Y-97.79
X116.84Y-100.33
X116.84Y-102.87
X116.84Y-105.41
X116.84Y-107.95
X116.84Y-110.49
X116.84Y-113.03
X116.84Y-115.57
X116.84Y-118.11
X116.84Y-120.65
X116.84Y-123.19
X116.84Y-125.73
X116.84Y-128.27
X119.38Y-87.63
X119.38Y-90.17
X119.38Y-92.71
X119.38Y-95.25
X119.38Y-97.79
X119.38Y-100.33
X119.38Y-102.87
X119.38Y-105.41
X119.38Y-107.95
X119.38Y-110.49
X119.38Y-113.03
X119.38Y-115.57
X119.38Y-118.11
X119.38Y-120.65
X119.38Y-123.19
X119.38Y-125.73
X119.38Y-128.27
X121.92Y-87.63
X121.92Y-90.17
X121.92Y-92.71
X121.92Y-95.25
X121.92Y-97.79
X121.92Y-100.33
X121.92Y-102.87
X121.92Y-105.41
X121.92Y-107.95
X121.92Y-110.49
X121.92Y-113.03
X121.92Y-115.57
X121.92Y-118.11
X121.92Y-120.65
X121.92Y-123.19
X121.92Y-125.73
X121.92Y-128.27
X124.46Y-87.63
X124.46Y-90.17
X124.46Y-92.71
X124.46Y-95.25
X124.46Y-97.79
X124.46Y-100.33
X124.46Y-102.87
X124.46Y-105.41
X124.46Y-107.95
X124.46Y-110.49
X124.46Y-113.03
X124.46Y-115.57
X124.46Y-118.11
X124.46Y-120.65
X124.46Y-123.19
X124.46Y-125.73
X124.46Y-128.27
X127.0Y-87.63
X127.0Y-90.17
X127.0Y-92.71
X127.0Y-95.25
X127.0Y-97.79
X127.0Y-100.33
X127.0Y-102.87
X127.0Y-105.41
X127.0Y-107.95
X127.0Y-110.49
X127.0Y-113.03
X127.0Y-115.57
X127.0Y-118.11
X127.0Y-120.65
X127.0Y-123.19
X127.0Y-125.73
X127.0Y-128.27
X129.54Y-87.63
X129.54Y-90.17
X129.54Y-92.71
X129.54Y-95.25
X129.54Y-97.79
X129.54Y-100.33
X129.54Y-102.87
X129.54Y-105.41
X129.54Y-107.95
X129.54Y-110.49
X129.54Y-113.03
X129.54Y-115.57
X129.54Y-118.11
X129.54Y-120.65
X129.54Y-123.19
X129.54Y-125.73
X129.54Y-128.27
X132.08Y-87.63
X132.08Y-90.17
X132.08Y-92.71
X132.08Y-95.25
X132.08Y-97.79
X132.08Y-100.33
X132.08Y-102.87
X132.08Y-105.41
X132.08Y-107.95
X132.08Y-110.49
X132.08Y-113.03
X132.08Y-115.57
X132.08Y-118.11
X132.08Y-120.65
X132.08Y-123.19
X132.08Y-125.73
X132.08Y-128.27
X134.62Y-87.63
X134.62Y-90.17
X134.62Y-92.71
X134.62Y-95.25
X134.62Y-97.79
X134.62Y-100.33
X134.62Y-102.87
X134.62Y-105.41
X134.62Y-107.95
X134.62Y-110.49
X134.62Y-113.03
X134.62Y-115.57
X134.62Y-118.11
X134.62Y-120.65
X134.62Y-123.19
X134.62Y-125.73
X134.62Y-128.27
X137.16Y-87.63
X137.16Y-90.17
X137.16Y-92.71
X137.16Y-95.25
X137.16Y-97.79
X137.16Y-100.33
X137.16Y-102.87
X137.16Y-105.41
X137.16Y-107.95
X137.16Y-110.49
X137.16Y-113.03
X137.16Y-115.57
X137.16Y-118.11
X137.16Y-120.65
X137.16Y-123.19
X137.16Y-125.73
X137.16Y-128.27
X139.7Y-87.63
X139.7Y-90.17
X139.7Y-92.71
X139.7Y-95.25
X139.7Y-97.79
X139.7Y-100.33
X139.7Y-102.87
X139.7Y-105.41
X139.7Y-107.95
X139.7Y-110.49
X139.7Y-113.03
X139.7Y-115.57
X139.7Y-118.11
X139.7Y-120.65
X139.7Y-123.19
X139.7Y-125.73
X139.7Y-128.27
X142.24Y-87.63
X142.24Y-90.17
X142.24Y-92.71
X142.24Y-95.25
X142.24Y-97.79
X142.24Y-100.33
X142.24Y-102.87
X142.24Y-105.41
X142.24Y-107.95
X142.24Y-110.49
X142.24Y-113.03
X142.24Y-115.57
X142.24Y-118.11
X142.24Y-120.65
X142.24Y-123.19
X142.24Y-125.73
X142.24Y-128.27
X144.78Y-87.63
X144.78Y-90.17
X144.78Y-92.71
X144.78Y-95.25
X144.78Y-97.79
X144.78Y-100.33
X144.78Y-102.87
X144.78Y-105.41
X144.78Y-107.95
X144.78Y-110.49
X144.78Y-113.03
X144.78Y-115.57
X144.78Y-118.11
X144.78Y-120.65
X144.78Y-123.19
X144.78Y-125.73
X144.78Y-128.27
X147.32Y-87.63
X147.32Y-90.17
X147.32Y-92.71
X147.32Y-95.25
X147.32Y-97.79
X147.32Y-100.33
X147.32Y-102.87
X147.32Y-105.41
X147.32Y-107.95
X147.32Y-110.49
X147.32Y-113.03
X147.32Y-115.57
X147.32Y-118.11
X147.32Y-120.65
X147.32Y-123.19
X147.32Y-125.73
X147.32Y-128.27
X149.86Y-87.63
X149.86Y-90.17
X149.86Y-92.71
X149.86Y-95.25
X149.86Y-97.79
X149.86Y-100.33
X149.86Y-102.87
X149.86Y-105.41
X149.86Y-107.95
X149.86Y-110.49
X149.86Y-113.03
X149.86Y-115.57
X149.86Y-118.11
X149.86Y-120.65
X149.86Y-123.19
X149.86Y-125.73
X149.86Y-128.27
X152.4Y-87.63
X152.4Y-90.17
X152.4Y-92.71
X152.4Y-95.25
X152.4Y-97.79
X152.4Y-100.33
X152.4Y-102.87
X152.4Y-105.41
X152.4Y-107.95
X152.4Y-110.49
X152.4Y-113.03
X152.4Y-115.57
X152.4Y-118.11
X152.4Y-120.65
X152.4Y-123.19
X152.4Y-125.73
X152.4Y-128.27
X154.94Y-87.63
X154.94Y-90.17
X154.94Y-92.71
X154.94Y-95.25
X154.94Y-97.79
X154.94Y-100.33
X154.94Y-102.87
X154.94Y-105.41
X154.94Y-107.95
X154.94Y-110.49
X154.94Y-113.03
X154.94Y-115.57
X154.94Y-118.11
X154.94Y-120.65
X154.94Y-123.19
X154.94Y-125.73
X154.94Y-128.27
X157.48Y-87.63
X157.48Y-90.17
X157.48Y-92.71
X157.48Y-95.25
X157.48Y-97.79
X157.48Y-100.33
X157.48Y-102.87
X157.48Y-105.41
X157.48Y-107.95
X157.48Y-110.49
X157.48Y-113.03
X157.48Y-115.57
X157.48Y-118.11
X157.48Y-120.65
X157.48Y-123.19
X157.48Y-125.73
X157.48Y-128.27
X160.02Y-87.63
X160.02Y-90.17
X160.02Y-92.71
X160.02Y-95.25
X160.02Y-97.79
X160.02Y-100.33
X160.02Y-102.87
X160.02Y-105.41
X160.02Y-107.95
X160.02Y-110.49
X160.02Y-113.03
X160.02Y-115.57
X160.02Y-118.11
X160.02Y-120.65
X160.02Y-123.19
X160.02Y-125.73
X160.02Y-128.27
X162.56Y-87.63
X162.56Y-90.17
X162.56Y-92.71
X162.56Y-95.25
X162.56Y-97.79
X162.56Y-100.33
X162.56Y-102.87
X162.56Y-105.41
X162.56Y-107.95
X162.56Y-110.49
X162.56Y-113.03
X162.56Y-115.57
X162.56Y-118.11
X162.56Y-120.65
X162.56Y-123.19
X162.56Y-125.73
X162.56Y-128.27
X165.1Y-87.63
X165.1Y-90.17
X165.1Y-92.71
X165.1Y-95.25
X165.1Y-97.79
X165.1Y-100.33
X165.1Y-102.87
X165.1Y-105.41
X165.1Y-107.95
X165.1Y-110.49
X165.1Y-113.03
X165.1Y-115.57
X165.1Y-118.11
X165.1Y-120.65
X165.1Y-123.19
X165.1Y-125.73
X165.1Y-128.27
X167.64Y-87.63
X167.64Y-90.17
X167.64Y-92.71
X167.64Y-95.25
X167.64Y-97.79
X167.64Y-100.33
X167.64Y-102.87
X167.64Y-105.41
X167.64Y-107.95
X167.64Y-110.49
X167.64Y-113.03
X167.64Y-115.57
X167.64Y-118.11
X167.64Y-120.65
X167.64Y-123.19
X167.64Y-125.73
X167.64Y-128.27
X170.18Y-87.63
X170.18Y-90.17
X170.18Y-92.71
X170.18Y-95.25
X170.18Y-97.79
X170.18Y-100.33
X170.18Y-102.87
X170.18Y-105.41
X170.18Y-107.95
X170.18Y-110.49
X170.18Y-113.03
X170.18Y-115.57
X170.18Y-118.11
X170.18Y-120.65
X170.18Y-123.19
X170.18Y-125.73
X170.18Y-128.27
X172.72Y-87.63
X172.72Y-90.17
X172.72Y-92.71
X172.72Y-95.25
X172.72Y-97.79
X172.72Y-100.33
X172.72Y-102.87
X172.72Y-105.41
X172.72Y-107.95
X172.72Y-110.49
X172.72Y-113.03
X172.72Y-115.57
X172.72Y-118.11
X172.72Y-120.65
X172.72Y-123.19
X172.72Y-125.73
X172.72Y-128.27
X175.26Y-87.63
X175.26Y-90.17
X175.26Y-92.71
X175.26Y-95.25
X175.26Y-97.79
X175.26Y-100.33
X175.26Y-102.87
X175.26Y-105.41
X175.26Y-107.95
X175.26Y-110.49
X175.26Y-113.03
X175.26Y-115.57
X175.26Y-118.11
X175.26Y-120.65
X175.26Y-123.19
X175.26Y-125.73
X175.26Y-128.27
X177.8Y-87.63
X177.8Y-90.17
X177.8Y-92.71
X177.8Y-95.25
X177.8Y-97.79
X177.8Y-100.33
X177.8Y-102.87
X177.8Y-105.41
X177.8Y-107.95
X177.8Y-110.49
X177.8Y-113.03
X177.8Y-115.57
X177.8Y-118.11
X177.8Y-120.65
X177.8Y-123.19
X177.8Y-125.73
X177.8Y-128.27
X180.34Y-87.63
X180.34Y-90.17
X180.34Y-92.71
X180.34Y-95.25
X180.34Y-97.79
X180.34Y-100.33
X180.34Y-102.87
X180.34Y-105.41
X180.34Y-107.95
X180.34Y-110.49
X180.34Y-113.03
X180.34Y-115.57
X180.34Y-118.11
X180.34Y-120.65
X180.34Y-123.19
X180.34Y-125.73
X180.34Y-128.27
X182.88Y-87.63
X182.88Y-90.17
X182.88Y-92.71
X182.88Y-95.25
X182.88Y-97.79
X182.88Y-100.33
X182.88Y-102.87
X182.88Y-105.41
X182.88Y-107.95
X182.88Y-110.49
X182.88Y-113.03
X182.88Y-115.57
X182.88Y-118.11
X182.88Y-120.65
X182.88Y-123.19
X182.88Y-125.73
X182.88Y-128.27
X185.42Y-87.63
X185.42Y-90.17
X185.42Y-92.71
X185.42Y-95.25
X185.42Y-97.79
X185.42Y-100.33
X185.42Y-102.87
X185.42Y-105.41
X185.42Y-107.95
X185.42Y-110.49
X185.42Y-113.03
X185.42Y-115.57
X185.42Y-118.11
X185.42Y-120.65
X185.42Y-123.19
X185.42Y-125.73
X185.42Y-128.27
X187.96Y-87.63
X187.96Y-90.17
X187.96Y-92.71
X187.96Y-95.25
X187.96Y-97.79
X187.96Y-100.33
X187.96Y-102.87
X187.96Y-105.41
X187.96Y-107.95
X187.96Y-110.49
X187.96Y-113.03
X187.96Y-115.57
X187.96Y-118.11
X187.96Y-120.65
X187.96Y-123.19
X187.96Y-125.73
X187.96Y-128.27
X190.5Y-87.63
X190.5Y-90.17
X190.5Y-92.71
X190.5Y-95.25
X190.5Y-97.79
X190.5Y-100.33
X190.5Y-102.87
X190.5Y-105.41
X190.5Y-107.95
X190.5Y-110.49
X190.5Y-113.03
X190.5Y-115.57
X190.5Y-118.11
X190.5Y-120.65
X190.5Y-123.19
X190.5Y-125.73
X190.5Y-128.27
X193.04Y-87.63
X193.04Y-90.17
X193.04Y-92.71
X193.04Y-95.25
X193.04Y-97.79
X193.04Y-100.33
X193.04Y-102.87
X193.04Y-105.41
X193.04Y-107.95
X193.04Y-110.49
X193.04Y-113.03
X193.04Y-115.57
X193.04Y-118.11
X193.04Y-120.65
X195.58Y-87.63
X195.58Y-90.17
X195.58Y-92.71
X195.58Y-95.25
X195.58Y-97.79
X195.58Y-100.33
X195.58Y-102.87
X195.58Y-105.41
X195.58Y-107.95
X195.58Y-110.49
X195.58Y-113.03
X195.58Y-115.57
X195.58Y-118.11
X195.58Y-120.65
X198.12Y-87.63
X198.12Y-90.17
X198.12Y-92.71
X198.12Y-95.25
X198.12Y-97.79
X198.12Y-100.33
X198.12Y-102.87
X198.12Y-105.41
X198.12Y-107.95
X198.12Y-110.49
X198.12Y-113.03
X198.12Y-115.57
X198.12Y-118.11
X198.12Y-120.65
T5
X151.93Y-76.73
X151.93Y-79.27
X154.47Y-76.73
X154.47Y-79.27
X157.01Y-76.73
X157.01Y-79.27
X159.55Y-76.73
X159.55Y-79.27
X162.09Y-76.73
X162.09Y-79.27
X164.63Y-76.73
X164.63Y-79.27
X167.17Y-76.73
X167.17Y-79.27
X169.71Y-76.73
X169.71Y-79.27
X172.25Y-76.73
X172.25Y-79.27
X174.79Y-76.73
X174.79Y-79.27
X177.33Y-76.73
X177.33Y-79.27
X179.87Y-76.73
X179.87Y-79.27
X182.41Y-76.73
X182.41Y-79.27
X184.95Y-76.73
X184.95Y-79.27
X187.49Y-76.73
X187.49Y-79.27
X190.03Y-76.73
X190.03Y-79.27
X192.57Y-76.73
X192.57Y-79.27
T0
M30
