G04 #@! TF.GenerationSoftware,KiCad,Pcbnew,7.0.5-4d25ed1034~172~ubuntu22.04.1*
G04 #@! TF.CreationDate,2023-06-02T09:39:04+03:00*
G04 #@! TF.ProjectId,AgonLight2-PROTO_Rev_A,41676f6e-4c69-4676-9874-322d50524f54,A*
G04 #@! TF.SameCoordinates,Original*
G04 #@! TF.FileFunction,Copper,L2,Bot*
G04 #@! TF.FilePolarity,Positive*
%FSLAX46Y46*%
G04 Gerber Fmt 4.6, Leading zero omitted, Abs format (unit mm)*
G04 Created by KiCad (PCBNEW 7.0.5-4d25ed1034~172~ubuntu22.04.1) date 2023-06-02 09:39:04*
%MOMM*%
%LPD*%
G01*
G04 APERTURE LIST*
G04 #@! TA.AperFunction,ComponentPad*
%ADD10R,1.778000X1.778000*%
G04 #@! TD*
G04 #@! TA.AperFunction,ComponentPad*
%ADD11C,1.524000*%
G04 #@! TD*
G04 #@! TA.AperFunction,SMDPad,CuDef*
%ADD12R,1.524000X3.556000*%
G04 #@! TD*
G04 #@! TA.AperFunction,ComponentPad*
%ADD13R,1.524000X1.524000*%
G04 #@! TD*
G04 #@! TA.AperFunction,ComponentPad*
%ADD14R,1.700000X1.700000*%
G04 #@! TD*
G04 #@! TA.AperFunction,ComponentPad*
%ADD15C,1.700000*%
G04 #@! TD*
G04 #@! TA.AperFunction,ViaPad*
%ADD16C,1.000000*%
G04 #@! TD*
G04 #@! TA.AperFunction,Conductor*
%ADD17C,1.778000*%
G04 #@! TD*
G04 #@! TA.AperFunction,Conductor*
%ADD18C,1.016000*%
G04 #@! TD*
G04 #@! TA.AperFunction,Conductor*
%ADD19C,1.270000*%
G04 #@! TD*
G04 #@! TA.AperFunction,Conductor*
%ADD20C,0.762000*%
G04 #@! TD*
G04 #@! TA.AperFunction,Conductor*
%ADD21C,0.304800*%
G04 #@! TD*
G04 #@! TA.AperFunction,Conductor*
%ADD22C,1.524000*%
G04 #@! TD*
G04 APERTURE END LIST*
D10*
X104140000Y-87630000D03*
D11*
X114300000Y-73025000D03*
X119380000Y-73025000D03*
D10*
X129540000Y-100330000D03*
X172720000Y-123190000D03*
X180340000Y-105410000D03*
X124460000Y-97790000D03*
X144780000Y-95250000D03*
X185420000Y-102870000D03*
X185420000Y-100330000D03*
X157480000Y-92710000D03*
X147320000Y-118110000D03*
X152400000Y-105410000D03*
X157480000Y-107950000D03*
X127000000Y-125730000D03*
X187960000Y-105410000D03*
X195580000Y-118110000D03*
X167640000Y-90170000D03*
X157480000Y-125730000D03*
X177800000Y-105410000D03*
X165100000Y-100330000D03*
X129540000Y-113030000D03*
X172720000Y-115570000D03*
X177800000Y-100330000D03*
X104140000Y-95250000D03*
X175260000Y-90170000D03*
X121920000Y-125730000D03*
X167640000Y-125730000D03*
X182880000Y-105410000D03*
X121920000Y-92710000D03*
X198120000Y-87630000D03*
X152400000Y-115570000D03*
X111760000Y-125730000D03*
X121920000Y-95250000D03*
X154940000Y-100330000D03*
X109220000Y-95250000D03*
X185420000Y-118110000D03*
X116840000Y-90170000D03*
X162560000Y-118110000D03*
X124460000Y-105410000D03*
X129540000Y-118110000D03*
X172720000Y-105410000D03*
X190500000Y-113030000D03*
X175260000Y-102870000D03*
X177800000Y-87630000D03*
X160020000Y-125730000D03*
X124460000Y-118110000D03*
X101600000Y-95250000D03*
X111760000Y-100330000D03*
X114300000Y-105410000D03*
X187960000Y-97790000D03*
X137160000Y-128270000D03*
X119380000Y-128270000D03*
X142240000Y-95250000D03*
X106680000Y-107950000D03*
X162560000Y-87630000D03*
X137160000Y-113030000D03*
X190500000Y-125730000D03*
X193040000Y-110490000D03*
X167640000Y-123190000D03*
X139700000Y-105410000D03*
X152400000Y-125730000D03*
X162560000Y-123190000D03*
X193040000Y-102870000D03*
X182880000Y-115570000D03*
X114300000Y-115570000D03*
X177800000Y-102870000D03*
X190500000Y-92710000D03*
X124460000Y-102870000D03*
X137160000Y-110490000D03*
X154940000Y-110490000D03*
X175260000Y-87630000D03*
X160020000Y-100330000D03*
X182880000Y-107950000D03*
X116840000Y-87630000D03*
X185420000Y-90170000D03*
X198120000Y-110490000D03*
X109220000Y-125730000D03*
X190500000Y-100330000D03*
X185420000Y-128270000D03*
X132080000Y-125730000D03*
X165100000Y-87630000D03*
X137160000Y-107950000D03*
X185420000Y-125730000D03*
X152400000Y-128270000D03*
X152400000Y-100330000D03*
X165100000Y-102870000D03*
X187960000Y-123190000D03*
X182880000Y-120650000D03*
X142240000Y-90170000D03*
X106680000Y-110490000D03*
X129540000Y-125730000D03*
X198120000Y-92710000D03*
X175260000Y-123190000D03*
X106680000Y-113030000D03*
X101600000Y-105410000D03*
X134620000Y-110490000D03*
X190500000Y-120650000D03*
X165100000Y-90170000D03*
X132080000Y-118110000D03*
X162560000Y-102870000D03*
X129540000Y-102870000D03*
X121920000Y-107950000D03*
X198120000Y-113030000D03*
X114300000Y-118110000D03*
X132080000Y-92710000D03*
X147320000Y-125730000D03*
X119380000Y-115570000D03*
X147320000Y-105410000D03*
X114300000Y-110490000D03*
X180340000Y-110490000D03*
X134620000Y-123190000D03*
X172720000Y-118110000D03*
X116840000Y-113030000D03*
X142240000Y-105410000D03*
X162560000Y-97790000D03*
X167640000Y-100330000D03*
X195580000Y-97790000D03*
X119380000Y-97790000D03*
X182880000Y-113030000D03*
X162560000Y-105410000D03*
X114300000Y-95250000D03*
X132080000Y-110490000D03*
X165100000Y-92710000D03*
X124460000Y-110490000D03*
X175260000Y-110490000D03*
X139700000Y-125730000D03*
X180340000Y-95250000D03*
X180340000Y-120650000D03*
X193040000Y-118110000D03*
X195580000Y-113030000D03*
X104140000Y-90170000D03*
X124460000Y-128270000D03*
X154940000Y-92710000D03*
X142240000Y-120650000D03*
X109220000Y-87630000D03*
X195580000Y-90170000D03*
X187960000Y-100330000D03*
X193040000Y-97790000D03*
X101600000Y-90170000D03*
X152400000Y-123190000D03*
X142240000Y-125730000D03*
X129540000Y-97790000D03*
X104140000Y-102870000D03*
X167640000Y-110490000D03*
X152400000Y-113030000D03*
X172720000Y-95250000D03*
X127000000Y-100330000D03*
X106680000Y-95250000D03*
X127000000Y-110490000D03*
X127000000Y-118110000D03*
X180340000Y-125730000D03*
X177800000Y-120650000D03*
X185420000Y-92710000D03*
X116840000Y-118110000D03*
X172720000Y-102870000D03*
X149860000Y-97790000D03*
X160020000Y-115570000D03*
X154940000Y-97790000D03*
X134620000Y-113030000D03*
X142240000Y-123190000D03*
X193040000Y-113030000D03*
X177800000Y-118110000D03*
X180340000Y-102870000D03*
X106680000Y-97790000D03*
X121920000Y-90170000D03*
X124460000Y-107950000D03*
X190500000Y-87630000D03*
X187960000Y-110490000D03*
X182880000Y-123190000D03*
X160020000Y-105410000D03*
X165100000Y-120650000D03*
X149860000Y-87630000D03*
X195580000Y-87630000D03*
X157480000Y-120650000D03*
X167640000Y-105410000D03*
X124460000Y-125730000D03*
X111760000Y-115570000D03*
X137160000Y-125730000D03*
X129540000Y-105410000D03*
X132080000Y-100330000D03*
X114300000Y-100330000D03*
X127000000Y-113030000D03*
X142240000Y-113030000D03*
X157480000Y-97790000D03*
X132080000Y-95250000D03*
X165100000Y-128270000D03*
X190500000Y-95250000D03*
X172720000Y-87630000D03*
X193040000Y-120650000D03*
X134620000Y-97790000D03*
X109220000Y-123190000D03*
X177800000Y-125730000D03*
X180340000Y-107950000D03*
X129540000Y-115570000D03*
X177800000Y-92710000D03*
X139700000Y-97790000D03*
X195580000Y-100330000D03*
X137160000Y-115570000D03*
X147320000Y-95250000D03*
X149860000Y-115570000D03*
X172720000Y-90170000D03*
X175260000Y-125730000D03*
X154940000Y-113030000D03*
X144780000Y-92710000D03*
X127000000Y-120650000D03*
X182880000Y-128270000D03*
X111760000Y-107950000D03*
X177800000Y-97790000D03*
X177800000Y-128270000D03*
X172720000Y-125730000D03*
X149860000Y-102870000D03*
X139700000Y-90170000D03*
X160020000Y-97790000D03*
X170180000Y-128270000D03*
X127000000Y-107950000D03*
X119380000Y-95250000D03*
X124460000Y-100330000D03*
X187960000Y-107950000D03*
X129540000Y-92710000D03*
X160020000Y-92710000D03*
X124460000Y-95250000D03*
X144780000Y-107950000D03*
X127000000Y-92710000D03*
X134620000Y-95250000D03*
X147320000Y-120650000D03*
X116840000Y-123190000D03*
X127000000Y-128270000D03*
X149860000Y-105410000D03*
X152400000Y-95250000D03*
X177800000Y-113030000D03*
X111760000Y-102870000D03*
X157480000Y-87630000D03*
X149860000Y-92710000D03*
X180340000Y-115570000D03*
X185420000Y-110490000D03*
X124460000Y-90170000D03*
X121920000Y-115570000D03*
X152400000Y-120650000D03*
X127000000Y-90170000D03*
X114300000Y-92710000D03*
X101600000Y-92710000D03*
X144780000Y-113030000D03*
X104140000Y-100330000D03*
X170180000Y-107950000D03*
X198120000Y-95250000D03*
X132080000Y-105410000D03*
X111760000Y-113030000D03*
X104140000Y-120650000D03*
D11*
X114300000Y-77470000D03*
X119380000Y-77470000D03*
D10*
X106680000Y-90170000D03*
X119380000Y-87630000D03*
X101600000Y-97790000D03*
X132080000Y-87630000D03*
X114300000Y-128270000D03*
X152400000Y-110490000D03*
X147320000Y-128270000D03*
X167640000Y-118110000D03*
X121920000Y-87630000D03*
X154940000Y-87630000D03*
X198120000Y-97790000D03*
X121920000Y-97790000D03*
X149860000Y-113030000D03*
X139700000Y-113030000D03*
X193040000Y-100330000D03*
X134620000Y-92710000D03*
X109220000Y-100330000D03*
X127000000Y-123190000D03*
X160020000Y-90170000D03*
X137160000Y-120650000D03*
X134620000Y-105410000D03*
X116840000Y-110490000D03*
X190500000Y-107950000D03*
X134620000Y-128270000D03*
X198120000Y-120650000D03*
X170180000Y-100330000D03*
X190500000Y-102870000D03*
X116840000Y-120650000D03*
X134620000Y-87630000D03*
X175260000Y-115570000D03*
X193040000Y-87630000D03*
X165100000Y-107950000D03*
X139700000Y-118110000D03*
X152400000Y-97790000D03*
X149860000Y-128270000D03*
X165100000Y-115570000D03*
X147320000Y-110490000D03*
X109220000Y-105410000D03*
X144780000Y-125730000D03*
X139700000Y-95250000D03*
X119380000Y-102870000D03*
X157480000Y-113030000D03*
X198120000Y-90170000D03*
X154940000Y-102870000D03*
X167640000Y-115570000D03*
X132080000Y-123190000D03*
X172720000Y-110490000D03*
X134620000Y-102870000D03*
X170180000Y-110490000D03*
X170180000Y-125730000D03*
X142240000Y-100330000D03*
X132080000Y-115570000D03*
X106680000Y-92710000D03*
X114300000Y-102870000D03*
X109220000Y-90170000D03*
X185420000Y-120650000D03*
X109220000Y-102870000D03*
X160020000Y-118110000D03*
X170180000Y-115570000D03*
X157480000Y-105410000D03*
X162560000Y-110490000D03*
X144780000Y-120650000D03*
X187960000Y-87630000D03*
X167640000Y-95250000D03*
X142240000Y-102870000D03*
X144780000Y-115570000D03*
X157480000Y-100330000D03*
X101600000Y-87630000D03*
X137160000Y-90170000D03*
X127000000Y-95250000D03*
X185420000Y-97790000D03*
X109220000Y-113030000D03*
X170180000Y-95250000D03*
X172720000Y-120650000D03*
X152400000Y-87630000D03*
X111760000Y-87630000D03*
X132080000Y-113030000D03*
X144780000Y-100330000D03*
X124460000Y-123190000D03*
X157480000Y-123190000D03*
X104140000Y-97790000D03*
X106680000Y-100330000D03*
X137160000Y-105410000D03*
X152400000Y-118110000D03*
X177800000Y-90170000D03*
X170180000Y-97790000D03*
X147320000Y-100330000D03*
X109220000Y-107950000D03*
X142240000Y-107950000D03*
X129540000Y-110490000D03*
X160020000Y-113030000D03*
X106680000Y-118110000D03*
X109220000Y-115570000D03*
X162560000Y-100330000D03*
X116840000Y-125730000D03*
X132080000Y-90170000D03*
X175260000Y-128270000D03*
X180340000Y-90170000D03*
X149860000Y-95250000D03*
X132080000Y-128270000D03*
X170180000Y-118110000D03*
X124460000Y-92710000D03*
X180340000Y-118110000D03*
X106680000Y-115570000D03*
X167640000Y-120650000D03*
X160020000Y-120650000D03*
X167640000Y-97790000D03*
X137160000Y-87630000D03*
X180340000Y-97790000D03*
X127000000Y-105410000D03*
X119380000Y-123190000D03*
X147320000Y-90170000D03*
X170180000Y-120650000D03*
X119380000Y-90170000D03*
X170180000Y-90170000D03*
X121920000Y-110490000D03*
X193040000Y-115570000D03*
X147320000Y-123190000D03*
X142240000Y-97790000D03*
X132080000Y-102870000D03*
X190500000Y-105410000D03*
X121920000Y-118110000D03*
X162560000Y-125730000D03*
X182880000Y-125730000D03*
X139700000Y-115570000D03*
X129540000Y-90170000D03*
X175260000Y-120650000D03*
X147320000Y-92710000D03*
D12*
X192570000Y-72326000D03*
X190030000Y-72326000D03*
X187490000Y-72326000D03*
X184950000Y-72326000D03*
X182410000Y-72326000D03*
X179870000Y-72326000D03*
X177330000Y-72326000D03*
X174790000Y-72326000D03*
X172250000Y-72326000D03*
X169710000Y-72326000D03*
X167170000Y-72326000D03*
X164630000Y-72326000D03*
X162090000Y-72326000D03*
X159550000Y-72326000D03*
X157010000Y-72326000D03*
X154470000Y-72326000D03*
X151930000Y-72326000D03*
D10*
X193040000Y-95250000D03*
X116840000Y-128270000D03*
X160020000Y-87630000D03*
X149860000Y-100330000D03*
X119380000Y-113030000D03*
X185420000Y-113030000D03*
X162560000Y-113030000D03*
X149860000Y-107950000D03*
X139700000Y-120650000D03*
X180340000Y-128270000D03*
X195580000Y-115570000D03*
X144780000Y-97790000D03*
X121920000Y-102870000D03*
X195580000Y-120650000D03*
X182880000Y-92710000D03*
X170180000Y-102870000D03*
X165100000Y-125730000D03*
X142240000Y-128270000D03*
X157480000Y-102870000D03*
X162560000Y-95250000D03*
X154940000Y-118110000D03*
X137160000Y-95250000D03*
X104140000Y-105410000D03*
X157480000Y-95250000D03*
X114300000Y-120650000D03*
X160020000Y-128270000D03*
X111760000Y-95250000D03*
X104140000Y-118110000D03*
X144780000Y-102870000D03*
X144780000Y-110490000D03*
X114300000Y-107950000D03*
X160020000Y-107950000D03*
X187960000Y-115570000D03*
X134620000Y-115570000D03*
X129540000Y-87630000D03*
X185420000Y-105410000D03*
X111760000Y-110490000D03*
X149860000Y-118110000D03*
X187960000Y-90170000D03*
X101600000Y-118110000D03*
X147320000Y-97790000D03*
X121920000Y-120650000D03*
X195580000Y-102870000D03*
X198120000Y-107950000D03*
X185420000Y-95250000D03*
X149860000Y-123190000D03*
X101600000Y-100330000D03*
X182880000Y-87630000D03*
X119380000Y-92710000D03*
X154940000Y-107950000D03*
X198120000Y-100330000D03*
X185420000Y-123190000D03*
X167640000Y-107950000D03*
X198120000Y-118110000D03*
X116840000Y-102870000D03*
X172720000Y-107950000D03*
X119380000Y-118110000D03*
X101600000Y-107950000D03*
X167640000Y-113030000D03*
X182880000Y-110490000D03*
X167640000Y-102870000D03*
X165100000Y-95250000D03*
X152400000Y-107950000D03*
X142240000Y-118110000D03*
X172720000Y-97790000D03*
X111760000Y-123190000D03*
X147320000Y-87630000D03*
X119380000Y-100330000D03*
X116840000Y-97790000D03*
D13*
X111760000Y-72390000D03*
D11*
X109220000Y-72390000D03*
D10*
X121920000Y-113030000D03*
X139700000Y-128270000D03*
X182880000Y-100330000D03*
X139700000Y-92710000D03*
X152400000Y-92710000D03*
X193040000Y-107950000D03*
X111760000Y-90170000D03*
X190500000Y-90170000D03*
X109220000Y-110490000D03*
X119380000Y-110490000D03*
X109220000Y-118110000D03*
X101600000Y-110490000D03*
X182880000Y-95250000D03*
X137160000Y-100330000D03*
X157480000Y-110490000D03*
X101600000Y-113030000D03*
X154940000Y-120650000D03*
X172720000Y-113030000D03*
X165100000Y-113030000D03*
X160020000Y-102870000D03*
X177800000Y-107950000D03*
X187960000Y-92710000D03*
X160020000Y-123190000D03*
X165100000Y-105410000D03*
X190500000Y-128270000D03*
X109220000Y-120650000D03*
X139700000Y-102870000D03*
X124460000Y-120650000D03*
X132080000Y-107950000D03*
X104140000Y-115570000D03*
X142240000Y-87630000D03*
X195580000Y-107950000D03*
X129540000Y-120650000D03*
X104140000Y-92710000D03*
X114300000Y-97790000D03*
X104140000Y-113030000D03*
X162560000Y-90170000D03*
X137160000Y-118110000D03*
X167640000Y-87630000D03*
X160020000Y-110490000D03*
X129540000Y-95250000D03*
X182880000Y-118110000D03*
X180340000Y-100330000D03*
X144780000Y-90170000D03*
X195580000Y-110490000D03*
X109220000Y-92710000D03*
X137160000Y-92710000D03*
X149860000Y-90170000D03*
X180340000Y-113030000D03*
X132080000Y-120650000D03*
X121920000Y-100330000D03*
X127000000Y-102870000D03*
X154940000Y-128270000D03*
X134620000Y-118110000D03*
X157480000Y-90170000D03*
X111760000Y-118110000D03*
X124460000Y-87630000D03*
X182880000Y-90170000D03*
X116840000Y-95250000D03*
X114300000Y-87630000D03*
X111760000Y-120650000D03*
X134620000Y-125730000D03*
X172720000Y-128270000D03*
X144780000Y-123190000D03*
X129540000Y-128270000D03*
X114300000Y-90170000D03*
X190500000Y-110490000D03*
X144780000Y-118110000D03*
X106680000Y-105410000D03*
X162560000Y-128270000D03*
X187960000Y-128270000D03*
X111760000Y-128270000D03*
X109220000Y-97790000D03*
X121920000Y-128270000D03*
D13*
X111760000Y-76835000D03*
D11*
X109220000Y-76835000D03*
D10*
X180340000Y-87630000D03*
X104140000Y-107950000D03*
X193040000Y-92710000D03*
X116840000Y-107950000D03*
X114300000Y-113030000D03*
X160020000Y-95250000D03*
X116840000Y-100330000D03*
X182880000Y-102870000D03*
X187960000Y-113030000D03*
X198120000Y-115570000D03*
X124460000Y-115570000D03*
X175260000Y-100330000D03*
X162560000Y-107950000D03*
X175260000Y-95250000D03*
X175260000Y-92710000D03*
X182880000Y-97790000D03*
X154940000Y-125730000D03*
X121920000Y-123190000D03*
X154940000Y-90170000D03*
X172720000Y-100330000D03*
X185420000Y-115570000D03*
X137160000Y-123190000D03*
X187960000Y-120650000D03*
X152400000Y-102870000D03*
X104140000Y-110490000D03*
X127000000Y-87630000D03*
X187960000Y-95250000D03*
X142240000Y-115570000D03*
X187960000Y-118110000D03*
X154940000Y-95250000D03*
X177800000Y-95250000D03*
X149860000Y-125730000D03*
X180340000Y-123190000D03*
X175260000Y-113030000D03*
X175260000Y-118110000D03*
X134620000Y-90170000D03*
X109220000Y-128270000D03*
D14*
X192570000Y-79270000D03*
D15*
X192570000Y-76730000D03*
X190030000Y-79270000D03*
X190030000Y-76730000D03*
X187490000Y-79270000D03*
X187490000Y-76730000D03*
X184950000Y-79270000D03*
X184950000Y-76730000D03*
X182410000Y-79270000D03*
X182410000Y-76730000D03*
X179870000Y-79270000D03*
X179870000Y-76730000D03*
X177330000Y-79270000D03*
X177330000Y-76730000D03*
X174790000Y-79270000D03*
X174790000Y-76730000D03*
X172250000Y-79270000D03*
X172250000Y-76730000D03*
X169710000Y-79270000D03*
X169710000Y-76730000D03*
X167170000Y-79270000D03*
X167170000Y-76730000D03*
X164630000Y-79270000D03*
X164630000Y-76730000D03*
X162090000Y-79270000D03*
X162090000Y-76730000D03*
X159550000Y-79270000D03*
X159550000Y-76730000D03*
X157010000Y-79270000D03*
X157010000Y-76730000D03*
X154470000Y-79270000D03*
X154470000Y-76730000D03*
X151930000Y-79270000D03*
X151930000Y-76730000D03*
D10*
X170180000Y-113030000D03*
X185420000Y-87630000D03*
X167640000Y-128270000D03*
X116840000Y-115570000D03*
X144780000Y-128270000D03*
X101600000Y-102870000D03*
X101600000Y-120650000D03*
X147320000Y-113030000D03*
X149860000Y-120650000D03*
X139700000Y-107950000D03*
X114300000Y-125730000D03*
X121920000Y-105410000D03*
X119380000Y-105410000D03*
X177800000Y-115570000D03*
X119380000Y-120650000D03*
X190500000Y-118110000D03*
X177800000Y-123190000D03*
X154940000Y-123190000D03*
X114300000Y-123190000D03*
X127000000Y-97790000D03*
X147320000Y-107950000D03*
X106680000Y-120650000D03*
X142240000Y-110490000D03*
X175260000Y-105410000D03*
X119380000Y-107950000D03*
X132080000Y-97790000D03*
X165100000Y-123190000D03*
X180340000Y-92710000D03*
X165100000Y-118110000D03*
X139700000Y-87630000D03*
X134620000Y-107950000D03*
X144780000Y-87630000D03*
X139700000Y-100330000D03*
X162560000Y-115570000D03*
X134620000Y-120650000D03*
X106680000Y-102870000D03*
X137160000Y-97790000D03*
X185420000Y-107950000D03*
X198120000Y-105410000D03*
X147320000Y-102870000D03*
X170180000Y-87630000D03*
X165100000Y-110490000D03*
X116840000Y-92710000D03*
X187960000Y-102870000D03*
X172720000Y-92710000D03*
X167640000Y-92710000D03*
X187960000Y-125730000D03*
X190500000Y-123190000D03*
X116840000Y-105410000D03*
X152400000Y-90170000D03*
X177800000Y-110490000D03*
X170180000Y-105410000D03*
X198120000Y-102870000D03*
X129540000Y-107950000D03*
X111760000Y-97790000D03*
X162560000Y-92710000D03*
X139700000Y-123190000D03*
X170180000Y-92710000D03*
X195580000Y-105410000D03*
X175260000Y-107950000D03*
X165100000Y-97790000D03*
X149860000Y-110490000D03*
X175260000Y-97790000D03*
X124460000Y-113030000D03*
X111760000Y-105410000D03*
X157480000Y-118110000D03*
X101600000Y-115570000D03*
X162560000Y-120650000D03*
X139700000Y-110490000D03*
X142240000Y-92710000D03*
X127000000Y-115570000D03*
X137160000Y-102870000D03*
X193040000Y-105410000D03*
X111760000Y-92710000D03*
X106680000Y-87630000D03*
X190500000Y-97790000D03*
X193040000Y-90170000D03*
X195580000Y-95250000D03*
X157480000Y-128270000D03*
X134620000Y-100330000D03*
X119380000Y-125730000D03*
X147320000Y-115570000D03*
X144780000Y-105410000D03*
X190500000Y-115570000D03*
X154940000Y-105410000D03*
X154940000Y-115570000D03*
X170180000Y-123190000D03*
X129540000Y-123190000D03*
X157480000Y-115570000D03*
X195580000Y-92710000D03*
D16*
X174117000Y-83058000D03*
X127000000Y-73660000D03*
X167259000Y-82004210D03*
X124460000Y-71120000D03*
X198755000Y-76200000D03*
X116840000Y-78105000D03*
X107950000Y-82677000D03*
X137160000Y-73660000D03*
X116840000Y-71120000D03*
X132080000Y-71120000D03*
X134620000Y-73660000D03*
X129540000Y-73660000D03*
X134620000Y-71120000D03*
X198755000Y-71120000D03*
X196850000Y-73660000D03*
X104140000Y-82677000D03*
X137160000Y-71120000D03*
X107315000Y-71120000D03*
X134620000Y-79629000D03*
X150241000Y-72263000D03*
X132080000Y-79629000D03*
X139700000Y-73660000D03*
X150241000Y-73406000D03*
X114300000Y-82677000D03*
X195834000Y-84226400D03*
X139700000Y-71120000D03*
X124460000Y-82677000D03*
X119380008Y-82677000D03*
X109220000Y-82677000D03*
X132080000Y-73660000D03*
X137160000Y-79629000D03*
X195834000Y-82042000D03*
X121920000Y-73660000D03*
X106680000Y-82677000D03*
X196596000Y-79883000D03*
X116840000Y-76200000D03*
X121920000Y-71120000D03*
X116840000Y-73660000D03*
X194945000Y-73660000D03*
X198755000Y-73660000D03*
X142240000Y-71120000D03*
X196850000Y-71120000D03*
X124460000Y-73660000D03*
X150241000Y-71120000D03*
X194945000Y-71120000D03*
X129540000Y-71120000D03*
X116840000Y-82677000D03*
X127000000Y-71120000D03*
X188961833Y-82702449D03*
X168656000Y-81153004D03*
X175011927Y-81920927D03*
X107950000Y-79756000D03*
X111760000Y-79756000D03*
X109220000Y-79756000D03*
X140970000Y-77343000D03*
X113030000Y-79756000D03*
X139700000Y-77343000D03*
X131191000Y-83786600D03*
X121920000Y-81280000D03*
X170942000Y-80518000D03*
X195961000Y-76835000D03*
X194310000Y-85725000D03*
X173482000Y-80645000D03*
X114300000Y-84201000D03*
X116840000Y-84624806D03*
X181402030Y-82850026D03*
X184914548Y-82827361D03*
X177693049Y-82414795D03*
X186101000Y-81432810D03*
X184912000Y-84201000D03*
X182371996Y-84201000D03*
D17*
X195580000Y-97790000D02*
X195580000Y-100330000D01*
D18*
X188061600Y-84226400D02*
X195834000Y-84226400D01*
D19*
X191008000Y-82042000D02*
X195834000Y-82042000D01*
D18*
X195834000Y-84226400D02*
X195834000Y-84709000D01*
D19*
X151596400Y-79603600D02*
X127924299Y-79603600D01*
D17*
X104140000Y-84455000D02*
X104140000Y-82677000D01*
X104140000Y-118110000D02*
X104140000Y-120650000D01*
X104140000Y-90170000D02*
X104140000Y-92710000D01*
D18*
X174117000Y-83058000D02*
X168312790Y-83058000D01*
D17*
X104140000Y-100330000D02*
X104140000Y-102870000D01*
X195580000Y-90170000D02*
X195580000Y-92710000D01*
X104140000Y-113030000D02*
X104140000Y-115570000D01*
D19*
X195834000Y-87376000D02*
X195834000Y-84709000D01*
D17*
X195580000Y-92710000D02*
X195580000Y-95250000D01*
D19*
X109220000Y-82677000D02*
X119380008Y-82677000D01*
D17*
X104140000Y-102870000D02*
X104140000Y-105410000D01*
X104140000Y-87630000D02*
X104140000Y-84455000D01*
D19*
X190030000Y-81064000D02*
X191008000Y-82042000D01*
D17*
X104140000Y-82677000D02*
X109220000Y-82677000D01*
D19*
X151930000Y-79270000D02*
X151596400Y-79603600D01*
D18*
X187490000Y-84798000D02*
X188061600Y-84226400D01*
X168312790Y-83058000D02*
X167259000Y-82004210D01*
D17*
X104140000Y-84455000D02*
X105918000Y-82677000D01*
X104140000Y-90170000D02*
X104140000Y-87630000D01*
X104140000Y-97790000D02*
X104140000Y-100330000D01*
X195580000Y-115570000D02*
X195580000Y-118110000D01*
X195580000Y-87630000D02*
X195580000Y-90170000D01*
X195580000Y-105410000D02*
X195580000Y-102870000D01*
X195580000Y-110490000D02*
X195580000Y-113030000D01*
X195580000Y-105410000D02*
X195580000Y-107950000D01*
X104140000Y-95250000D02*
X104140000Y-97790000D01*
D19*
X127924299Y-79603600D02*
X124850899Y-82677000D01*
X187490000Y-84798000D02*
X187490000Y-79270000D01*
D17*
X105918000Y-82677000D02*
X106680000Y-82677000D01*
D19*
X185420000Y-87630000D02*
X185420000Y-86868000D01*
X124850899Y-82677000D02*
X119380008Y-82677000D01*
X195580000Y-87630000D02*
X195834000Y-87376000D01*
X119380000Y-73025000D02*
X119380000Y-77470000D01*
D17*
X195580000Y-113030000D02*
X195580000Y-115570000D01*
X104140000Y-115570000D02*
X104140000Y-118110000D01*
X104140000Y-110490000D02*
X104140000Y-113030000D01*
X195580000Y-100330000D02*
X195580000Y-102870000D01*
X104140000Y-107950000D02*
X104140000Y-110490000D01*
D19*
X190030000Y-79270000D02*
X190030000Y-81064000D01*
X185420000Y-86868000D02*
X187490000Y-84798000D01*
D17*
X104140000Y-92710000D02*
X104140000Y-95250000D01*
X104140000Y-105410000D02*
X104140000Y-107950000D01*
X195580000Y-95250000D02*
X195580000Y-97790000D01*
X195580000Y-107950000D02*
X195580000Y-110490000D01*
X195580000Y-118110000D02*
X195580000Y-120650000D01*
D20*
X169417996Y-81915000D02*
X168656000Y-81153004D01*
D19*
X198120000Y-84328000D02*
X198120000Y-87630000D01*
D21*
X188746400Y-79780400D02*
X188961833Y-79995833D01*
X198120000Y-81915000D02*
X198120000Y-82296000D01*
D19*
X189260000Y-77500000D02*
X189291000Y-77531000D01*
X198120000Y-78740000D02*
X198120000Y-79883000D01*
D21*
X197104000Y-80899000D02*
X197421500Y-81216500D01*
X191643000Y-80899000D02*
X197104000Y-80899000D01*
X190831000Y-78131300D02*
X191286400Y-78586700D01*
X191286400Y-77986400D02*
X191286400Y-80542400D01*
X190831000Y-77903600D02*
X191286400Y-78359000D01*
D19*
X198120000Y-81026000D02*
X198120000Y-82296000D01*
D21*
X190831000Y-77531000D02*
X191286400Y-77986400D01*
D19*
X198120000Y-82296000D02*
X198120000Y-83185000D01*
D17*
X198120000Y-87630000D02*
X198120000Y-90170000D01*
D21*
X198120000Y-83185000D02*
X197993000Y-83312000D01*
X197993000Y-83312000D02*
X196723000Y-83312000D01*
D20*
X175006000Y-81915000D02*
X169417996Y-81915000D01*
D17*
X198120000Y-105410000D02*
X198120000Y-107950000D01*
X198120000Y-118110000D02*
X198120000Y-120650000D01*
D21*
X197485000Y-82931000D02*
X197485000Y-83693000D01*
X197485000Y-82931000D02*
X198120000Y-82296000D01*
D17*
X198120000Y-102870000D02*
X198120000Y-105410000D01*
D21*
X197104000Y-83312000D02*
X197485000Y-82931000D01*
X196723000Y-83312000D02*
X197104000Y-83312000D01*
X191415300Y-77531000D02*
X191870700Y-77986400D01*
D20*
X175011927Y-81920927D02*
X175006000Y-81915000D01*
D21*
X191286400Y-77986400D02*
X197366400Y-77986400D01*
X197421500Y-81216500D02*
X198120000Y-81915000D01*
D17*
X198120000Y-107950000D02*
X198120000Y-110490000D01*
X198120000Y-110490000D02*
X198120000Y-113030000D01*
D19*
X189291000Y-77531000D02*
X190831000Y-77531000D01*
D21*
X197104000Y-83312000D02*
X197485000Y-83693000D01*
X197421500Y-80581500D02*
X198120000Y-79883000D01*
X188961833Y-79995833D02*
X188961833Y-82702449D01*
X196723000Y-83312000D02*
X189571384Y-83312000D01*
D22*
X190030000Y-72326000D02*
X190030000Y-76730000D01*
D21*
X188746400Y-78013600D02*
X188746400Y-79780400D01*
X197421500Y-80581500D02*
X197421500Y-81216500D01*
D17*
X198120000Y-115570000D02*
X198120000Y-118110000D01*
X198120000Y-97790000D02*
X198120000Y-100330000D01*
D21*
X197366400Y-77986400D02*
X198120000Y-78740000D01*
X191286400Y-80542400D02*
X191643000Y-80899000D01*
X197104000Y-80899000D02*
X197993000Y-80899000D01*
D17*
X198120000Y-100330000D02*
X198120000Y-102870000D01*
X198120000Y-92710000D02*
X198120000Y-95250000D01*
D19*
X189260000Y-77500000D02*
X188746400Y-78013600D01*
D17*
X198120000Y-95250000D02*
X198120000Y-97790000D01*
X198120000Y-90170000D02*
X198120000Y-92710000D01*
D19*
X190030000Y-76730000D02*
X190030000Y-76746000D01*
X190030000Y-76746000D02*
X190900500Y-77616500D01*
D21*
X197485000Y-83693000D02*
X198120000Y-84328000D01*
X189571384Y-83312000D02*
X188961833Y-82702449D01*
X197104000Y-80899000D02*
X197421500Y-80581500D01*
D19*
X198120000Y-83185000D02*
X198120000Y-84328000D01*
X190030000Y-76730000D02*
X189260000Y-77500000D01*
D17*
X198120000Y-113030000D02*
X198120000Y-115570000D01*
D21*
X190831000Y-77531000D02*
X190831000Y-78131300D01*
X191161300Y-77531000D02*
X191616700Y-77986400D01*
X197993000Y-80899000D02*
X198120000Y-81026000D01*
D19*
X198120000Y-79883000D02*
X198120000Y-81026000D01*
D21*
X190831000Y-77531000D02*
X191415300Y-77531000D01*
D19*
X113665000Y-76835000D02*
X114300000Y-77470000D01*
X111760000Y-76835000D02*
X113665000Y-76835000D01*
X112395000Y-73025000D02*
X114300000Y-73025000D01*
X111760000Y-72390000D02*
X112395000Y-73025000D01*
D21*
X153622546Y-84582020D02*
X153622541Y-84582025D01*
X153622569Y-84582010D02*
X153622564Y-84582015D01*
X153622552Y-84582020D02*
X153622546Y-84582020D01*
X153622575Y-84582010D02*
X153622569Y-84582010D01*
X153159617Y-84582025D02*
X153159612Y-84582020D01*
X153622535Y-84582025D02*
X153622530Y-84582030D01*
X137198100Y-87630000D02*
X137160000Y-87630000D01*
X153622530Y-84582030D02*
X153391067Y-84582025D01*
X159554213Y-84582000D02*
X153622592Y-84582000D01*
X152233791Y-84582015D02*
X152233786Y-84582010D01*
X140246090Y-84582010D02*
X137198100Y-87630000D01*
X153622558Y-84582015D02*
X153622552Y-84582020D01*
X153622581Y-84582005D02*
X153622575Y-84582010D01*
X153622541Y-84582025D02*
X153622535Y-84582025D01*
X164630000Y-79270000D02*
X164630000Y-79506214D01*
X152696704Y-84582020D02*
X152696699Y-84582015D01*
X153391067Y-84582025D02*
X153159617Y-84582025D01*
X153622587Y-84582005D02*
X153622581Y-84582005D01*
X153622592Y-84582000D02*
X153622587Y-84582005D01*
X152696699Y-84582015D02*
X152233791Y-84582015D01*
X164630000Y-79506214D02*
X159554213Y-84582000D01*
X152233786Y-84582010D02*
X140246090Y-84582010D01*
X153622564Y-84582015D02*
X153622558Y-84582015D01*
X153159612Y-84582020D02*
X152696704Y-84582020D01*
X159091289Y-83464400D02*
X136245600Y-83464400D01*
X162090000Y-79270000D02*
X162090000Y-80465689D01*
X162090000Y-80465689D02*
X159091289Y-83464400D01*
X136245600Y-83464400D02*
X132080000Y-87630000D01*
D22*
X127059769Y-77343000D02*
X140970000Y-77343000D01*
X101600000Y-81280000D02*
X101600000Y-87630000D01*
X151930000Y-72326000D02*
X151930000Y-76730000D01*
X124646769Y-79756000D02*
X127059769Y-77343000D01*
X109220000Y-79756000D02*
X111760000Y-79756000D01*
X111760000Y-79756000D02*
X124646769Y-79756000D01*
D17*
X101600000Y-120650000D02*
X101600000Y-87630000D01*
D22*
X109220000Y-79756000D02*
X103124000Y-79756000D01*
X103124000Y-79756000D02*
X101600000Y-81280000D01*
D21*
X129540000Y-87630000D02*
X129540000Y-85437600D01*
X129540000Y-85437600D02*
X131191000Y-83786600D01*
X127000000Y-85753262D02*
X127000000Y-87630000D01*
X160806400Y-80959027D02*
X158885227Y-82880200D01*
D22*
X162090000Y-72326000D02*
X162090000Y-76730000D01*
D21*
X129873062Y-82880200D02*
X127000000Y-85753262D01*
X160806400Y-78013600D02*
X160806400Y-80959027D01*
X158885227Y-82880200D02*
X129873062Y-82880200D01*
X162090000Y-76730000D02*
X160806400Y-78013600D01*
X129641599Y-82321400D02*
X124460000Y-87503000D01*
X159550000Y-79270000D02*
X159550000Y-81425165D01*
X158653765Y-82321400D02*
X129641599Y-82321400D01*
X159550000Y-81425165D02*
X158653765Y-82321400D01*
X124460000Y-87503000D02*
X124460000Y-87630000D01*
D22*
X154470000Y-72326000D02*
X154470000Y-76730000D01*
D21*
X154470000Y-76730000D02*
X153213600Y-77986400D01*
X124775137Y-81280000D02*
X121920000Y-81280000D01*
X127543737Y-78511400D02*
X124775137Y-81280000D01*
X153213600Y-77986400D02*
X150992298Y-77986400D01*
X150992298Y-77986400D02*
X150467298Y-78511400D01*
X150467298Y-78511400D02*
X127543737Y-78511400D01*
X170993600Y-80466400D02*
X170993600Y-77986400D01*
X170993600Y-77986400D02*
X172250000Y-76730000D01*
D22*
X172250000Y-72326000D02*
X172250000Y-76730000D01*
D21*
X170942000Y-80518000D02*
X170993600Y-80466400D01*
X151539400Y-86258410D02*
X146151590Y-86258410D01*
X154316968Y-86258405D02*
X154316963Y-86258410D01*
X154316928Y-86258425D02*
X154316922Y-86258425D01*
D22*
X169710000Y-72326000D02*
X169710000Y-76730000D01*
D21*
X154316922Y-86258425D02*
X154316917Y-86258430D01*
X154316911Y-86258430D02*
X154316905Y-86258435D01*
X154316888Y-86258440D02*
X154316883Y-86258445D01*
X167728800Y-80593518D02*
X166802482Y-80593518D01*
X154316945Y-86258415D02*
X154316940Y-86258420D01*
X163830000Y-82677000D02*
X160248599Y-86258400D01*
X154316917Y-86258430D02*
X154316911Y-86258430D01*
X154316883Y-86258445D02*
X154085420Y-86258440D01*
X160248599Y-86258400D02*
X154316980Y-86258400D01*
X168426400Y-79895918D02*
X167728800Y-80593518D01*
X166802482Y-80593518D02*
X164719000Y-82677000D01*
X152928139Y-86258425D02*
X152465231Y-86258425D01*
X154316951Y-86258415D02*
X154316945Y-86258415D01*
X152465226Y-86258420D02*
X152002318Y-86258420D01*
X168426400Y-78013600D02*
X168426400Y-79895918D01*
X154316963Y-86258410D02*
X154316957Y-86258410D01*
X154316894Y-86258440D02*
X154316888Y-86258440D01*
X154316934Y-86258420D02*
X154316928Y-86258425D01*
X169710000Y-76730000D02*
X168426400Y-78013600D01*
X154316899Y-86258435D02*
X154316894Y-86258440D01*
X152465231Y-86258425D02*
X152465226Y-86258420D01*
X152002318Y-86258420D02*
X152002313Y-86258415D01*
X153391052Y-86258430D02*
X152928144Y-86258430D01*
X151539405Y-86258415D02*
X151539400Y-86258410D01*
X154316940Y-86258420D02*
X154316934Y-86258420D01*
X154316905Y-86258435D02*
X154316899Y-86258435D01*
X154316980Y-86258400D02*
X154316974Y-86258405D01*
X153853970Y-86258440D02*
X153853965Y-86258435D01*
X154316974Y-86258405D02*
X154316968Y-86258405D01*
X146151590Y-86258410D02*
X144780000Y-87630000D01*
X154085420Y-86258440D02*
X153853970Y-86258440D01*
X154316957Y-86258410D02*
X154316951Y-86258415D01*
X153853965Y-86258435D02*
X153391057Y-86258435D01*
X153391057Y-86258435D02*
X153391052Y-86258430D01*
X152002313Y-86258415D02*
X151539405Y-86258415D01*
X152928144Y-86258430D02*
X152928139Y-86258425D01*
X164719000Y-82677000D02*
X163830000Y-82677000D01*
X154085477Y-85699620D02*
X154085471Y-85699620D01*
X154085443Y-85699635D02*
X154085437Y-85699635D01*
X153159606Y-85699630D02*
X153159601Y-85699625D01*
X167170000Y-79337000D02*
X164388800Y-82118200D01*
X160017137Y-85699600D02*
X154085517Y-85699600D01*
X153853969Y-85699635D02*
X153622519Y-85699635D01*
X154085466Y-85699625D02*
X154085460Y-85699625D01*
X154085454Y-85699630D02*
X154085448Y-85699630D01*
X163598538Y-82118200D02*
X160017137Y-85699600D01*
X151770867Y-85699615D02*
X151770862Y-85699610D01*
X167170000Y-79270000D02*
X167170000Y-79337000D01*
X154085483Y-85699615D02*
X154085477Y-85699620D01*
X153159601Y-85699625D02*
X152696693Y-85699625D01*
X153622514Y-85699630D02*
X153159606Y-85699630D01*
X164388800Y-82118200D02*
X163598538Y-82118200D01*
X154085471Y-85699620D02*
X154085466Y-85699625D01*
X151770862Y-85699610D02*
X144170390Y-85699610D01*
X154085489Y-85699615D02*
X154085483Y-85699615D01*
X154085432Y-85699640D02*
X153853969Y-85699635D01*
X144170390Y-85699610D02*
X142240000Y-87630000D01*
X154085500Y-85699610D02*
X154085494Y-85699610D01*
X153622519Y-85699635D02*
X153622514Y-85699630D01*
X154085437Y-85699635D02*
X154085432Y-85699640D01*
X152233780Y-85699620D02*
X152233775Y-85699615D01*
X154085506Y-85699605D02*
X154085500Y-85699610D01*
X154085460Y-85699625D02*
X154085454Y-85699630D01*
X152696688Y-85699620D02*
X152233780Y-85699620D01*
X154085512Y-85699605D02*
X154085506Y-85699605D01*
X152696693Y-85699625D02*
X152696688Y-85699620D01*
X152233775Y-85699615D02*
X151770867Y-85699615D01*
X154085517Y-85699600D02*
X154085512Y-85699605D01*
X154085494Y-85699610D02*
X154085489Y-85699615D01*
X154085448Y-85699630D02*
X154085443Y-85699635D01*
X163367076Y-81559400D02*
X159785671Y-85140805D01*
X167170000Y-76730000D02*
X165886400Y-78013600D01*
D22*
X167170000Y-72326000D02*
X167170000Y-76730000D01*
D21*
X164157338Y-81559400D02*
X163367076Y-81559400D01*
X159785671Y-85140805D02*
X142189195Y-85140805D01*
X165886400Y-78013600D02*
X165886400Y-79830338D01*
X142189195Y-85140805D02*
X139700000Y-87630000D01*
X165886400Y-79830338D02*
X164157338Y-81559400D01*
X138226800Y-84023200D02*
X134620000Y-87630000D01*
X163346400Y-79999552D02*
X159322751Y-84023200D01*
X164630000Y-76730000D02*
X163346400Y-78013600D01*
X159322751Y-84023200D02*
X138226800Y-84023200D01*
X163346400Y-78013600D02*
X163346400Y-79999552D01*
D22*
X164630000Y-72326000D02*
X164630000Y-76730000D01*
D19*
X195961000Y-76835000D02*
X192570000Y-73444000D01*
X192570000Y-73444000D02*
X192570000Y-72326000D01*
X195961000Y-76835000D02*
X194475000Y-76835000D01*
X192675000Y-76835000D02*
X195961000Y-76835000D01*
X189230000Y-85725000D02*
X187960000Y-86995000D01*
D22*
X192570000Y-72326000D02*
X192570000Y-74930000D01*
D19*
X192570000Y-76730000D02*
X192675000Y-76835000D01*
D22*
X192570000Y-74930000D02*
X192570000Y-76730000D01*
D19*
X194310000Y-85725000D02*
X189230000Y-85725000D01*
X194475000Y-76835000D02*
X192570000Y-74930000D01*
X187960000Y-86995000D02*
X187960000Y-87630000D01*
D21*
X162560000Y-87630000D02*
X164084000Y-86106000D01*
X168331524Y-86106000D02*
X169880924Y-84556600D01*
X176786649Y-81975851D02*
X177330000Y-81432500D01*
X169880924Y-84556600D02*
X174720877Y-84556600D01*
X177330000Y-81432500D02*
X177330000Y-79270000D01*
X174720877Y-84556600D02*
X176786649Y-82490827D01*
X164084000Y-86106000D02*
X168331524Y-86106000D01*
X176786649Y-82490827D02*
X176786649Y-81975851D01*
X168100062Y-85547200D02*
X169649462Y-83997800D01*
X160020000Y-87630000D02*
X162102800Y-85547200D01*
X176046400Y-82440814D02*
X176046400Y-78013600D01*
X174489414Y-83997800D02*
X176046400Y-82440814D01*
X169649462Y-83997800D02*
X174489414Y-83997800D01*
X162102800Y-85547200D02*
X168100062Y-85547200D01*
X176046400Y-78013600D02*
X177330000Y-76730000D01*
D22*
X177330000Y-72326000D02*
X177330000Y-76730000D01*
D21*
X173482000Y-80645000D02*
X173506400Y-80620600D01*
D22*
X174790000Y-72326000D02*
X174790000Y-76730000D01*
D21*
X173506400Y-80620600D02*
X173506400Y-78013600D01*
X173506400Y-78013600D02*
X174790000Y-76730000D01*
X152722161Y-81762600D02*
X152490699Y-81762595D01*
X130584105Y-81762600D02*
X130352643Y-81762595D01*
X157378400Y-81762600D02*
X152722161Y-81762600D01*
X130352643Y-81762595D02*
X130352638Y-81762600D01*
X128818585Y-81762600D02*
X124983185Y-85598000D01*
X152490694Y-81762600D02*
X130584105Y-81762600D01*
X108712000Y-85598000D02*
X106680000Y-87630000D01*
X158266400Y-80874600D02*
X157378400Y-81762600D01*
X130352638Y-81762600D02*
X128818585Y-81762600D01*
D22*
X159550000Y-72326000D02*
X159550000Y-76730000D01*
D21*
X159550000Y-76730000D02*
X158266400Y-78013600D01*
X152490699Y-81762595D02*
X152490694Y-81762600D01*
X124983185Y-85598000D02*
X108712000Y-85598000D01*
X158266400Y-78013600D02*
X158266400Y-80874600D01*
X155726400Y-78013600D02*
X155726400Y-80112600D01*
X152027781Y-80644995D02*
X152027775Y-80644995D01*
X129178697Y-80644995D02*
X128947235Y-80644990D01*
X157010000Y-76730000D02*
X155726400Y-78013600D01*
X125282261Y-83718400D02*
X116306600Y-83718400D01*
X130352654Y-80644990D02*
X130121204Y-80644990D01*
X152490715Y-80644995D02*
X152490710Y-80644990D01*
X152027775Y-80644995D02*
X152027769Y-80645000D01*
X130121204Y-80644990D02*
X129889741Y-80644985D01*
D22*
X157010000Y-72326000D02*
X157010000Y-76730000D01*
D21*
X128947219Y-80645000D02*
X128355661Y-80645000D01*
X152953623Y-80644995D02*
X152490715Y-80644995D01*
X155194000Y-80645000D02*
X152953628Y-80645000D01*
X152027797Y-80644985D02*
X152027792Y-80644990D01*
X152953628Y-80645000D02*
X152953623Y-80644995D01*
X128947235Y-80644990D02*
X128947230Y-80644995D01*
X152490710Y-80644990D02*
X152259259Y-80644990D01*
X130815572Y-80645000D02*
X130815567Y-80644995D01*
X152027769Y-80645000D02*
X130815572Y-80645000D01*
X128355661Y-80645000D02*
X125282261Y-83718400D01*
X155726400Y-80112600D02*
X155194000Y-80645000D01*
X152027786Y-80644990D02*
X152027781Y-80644995D01*
X116306600Y-83718400D02*
X115824000Y-84201000D01*
X128947224Y-80644995D02*
X128947219Y-80645000D01*
X152027792Y-80644990D02*
X152027786Y-80644990D01*
X129889741Y-80644985D02*
X129889736Y-80644990D01*
X130352659Y-80644995D02*
X130352654Y-80644990D01*
X129178702Y-80644990D02*
X129178697Y-80644995D01*
X152259259Y-80644990D02*
X152027797Y-80644985D01*
X129889736Y-80644990D02*
X129178702Y-80644990D01*
X115824000Y-84201000D02*
X114300000Y-84201000D01*
X130815567Y-80644995D02*
X130352659Y-80644995D01*
X128947230Y-80644995D02*
X128947224Y-80644995D01*
X130584110Y-81203800D02*
X130584105Y-81203795D01*
X152259237Y-81203795D02*
X152259232Y-81203800D01*
X152259248Y-81203790D02*
X152259243Y-81203795D01*
X152722161Y-81203795D02*
X152490710Y-81203795D01*
X130352654Y-81203795D02*
X130121192Y-81203790D01*
X125166117Y-84624806D02*
X116840000Y-84624806D01*
X130584105Y-81203795D02*
X130352654Y-81203795D01*
X152259232Y-81203800D02*
X130584110Y-81203800D01*
X130121176Y-81203800D02*
X129410148Y-81203800D01*
X152259243Y-81203795D02*
X152259237Y-81203795D01*
X128587123Y-81203800D02*
X125166117Y-84624806D01*
X130121181Y-81203795D02*
X130121176Y-81203800D01*
X130121192Y-81203790D02*
X130121187Y-81203795D01*
X129178686Y-81203795D02*
X129178681Y-81203800D01*
X152490710Y-81203795D02*
X152259248Y-81203790D01*
X129410148Y-81203800D02*
X129178686Y-81203795D01*
X156667200Y-81203800D02*
X152722166Y-81203800D01*
X157010000Y-80861000D02*
X156667200Y-81203800D01*
X129178681Y-81203800D02*
X128587123Y-81203800D01*
X130121187Y-81203795D02*
X130121181Y-81203795D01*
X152722166Y-81203800D02*
X152722161Y-81203795D01*
X157010000Y-79270000D02*
X157010000Y-80861000D01*
X172720000Y-87630000D02*
X174117000Y-86233000D01*
X175946950Y-86233000D02*
X179832000Y-82347950D01*
X174117000Y-86233000D02*
X175946950Y-86233000D01*
X179832000Y-79308000D02*
X179870000Y-79270000D01*
X179832000Y-82347950D02*
X179832000Y-79308000D01*
X177800000Y-87630000D02*
X181402030Y-84027970D01*
X181402030Y-84027970D02*
X181402030Y-82850026D01*
X184950000Y-79270000D02*
X184950000Y-82791909D01*
X184950000Y-82791909D02*
X184914548Y-82827361D01*
X181153600Y-81816612D02*
X181153600Y-77986400D01*
X175340212Y-87630000D02*
X181153600Y-81816612D01*
X175260000Y-87630000D02*
X175340212Y-87630000D01*
D22*
X182410000Y-72326000D02*
X182410000Y-76730000D01*
D21*
X181153600Y-77986400D02*
X182410000Y-76730000D01*
X172135800Y-85674200D02*
X175715488Y-85674200D01*
X178599449Y-81063449D02*
X178599449Y-78000551D01*
X170180000Y-87630000D02*
X172135800Y-85674200D01*
X175715488Y-85674200D02*
X179070000Y-82319688D01*
X179070000Y-81534000D02*
X178599449Y-81063449D01*
D22*
X179870000Y-72326000D02*
X179870000Y-76730000D01*
D21*
X179070000Y-82319688D02*
X179070000Y-81534000D01*
X178599449Y-78000551D02*
X179870000Y-76730000D01*
X186208595Y-78011405D02*
X186208595Y-81325215D01*
X186208595Y-81325215D02*
X186101000Y-81432810D01*
X170154600Y-85115400D02*
X174980600Y-85115400D01*
D22*
X187490000Y-72326000D02*
X187490000Y-76730000D01*
D21*
X177681205Y-82414795D02*
X177693049Y-82414795D01*
X167640000Y-87630000D02*
X170154600Y-85115400D01*
X174980600Y-85115400D02*
X177681205Y-82414795D01*
X187490000Y-76730000D02*
X186208595Y-78011405D01*
X182880000Y-87630000D02*
X184912000Y-85598000D01*
X182410000Y-84162996D02*
X182371996Y-84201000D01*
X184912000Y-85598000D02*
X184912000Y-84201000D01*
X182410000Y-79270000D02*
X182410000Y-84162996D01*
X183666400Y-84303600D02*
X180340000Y-87630000D01*
X183666400Y-78013600D02*
X183666400Y-84303600D01*
D22*
X184950000Y-72326000D02*
X184950000Y-76730000D01*
D21*
X184950000Y-76730000D02*
X183666400Y-78013600D01*
G04 #@! TA.AperFunction,Conductor*
G36*
X145840190Y-70274502D02*
G01*
X145886683Y-70328158D01*
X145896787Y-70398432D01*
X145867293Y-70463012D01*
X145807567Y-70501396D01*
X145778775Y-70506321D01*
X145627403Y-70514388D01*
X145627385Y-70514390D01*
X145259000Y-70573743D01*
X144899012Y-70671916D01*
X144899009Y-70671917D01*
X144551514Y-70807791D01*
X144551507Y-70807793D01*
X144551497Y-70807798D01*
X144551488Y-70807802D01*
X144551485Y-70807804D01*
X144220399Y-70979845D01*
X144220396Y-70979847D01*
X143909452Y-71186119D01*
X143909445Y-71186124D01*
X143622202Y-71424268D01*
X143361883Y-71691612D01*
X143131464Y-71985100D01*
X142933543Y-72301425D01*
X142770370Y-72636986D01*
X142770369Y-72636987D01*
X142643788Y-72987992D01*
X142643786Y-72987998D01*
X142555232Y-73350468D01*
X142555228Y-73350491D01*
X142505706Y-73720304D01*
X142505705Y-73720313D01*
X142495772Y-74093310D01*
X142495772Y-74093316D01*
X142525542Y-74465259D01*
X142594683Y-74831943D01*
X142594686Y-74831952D01*
X142702399Y-75189180D01*
X142702403Y-75189189D01*
X142847484Y-75532956D01*
X142847492Y-75532973D01*
X142983092Y-75777772D01*
X143028293Y-75859374D01*
X143239055Y-76159427D01*
X143242772Y-76164718D01*
X143242777Y-76164724D01*
X143488482Y-76445526D01*
X143488484Y-76445528D01*
X143758812Y-76695081D01*
X143762655Y-76698629D01*
X144062171Y-76921151D01*
X144062172Y-76921153D01*
X144062176Y-76921155D01*
X144062177Y-76921156D01*
X144383655Y-77110585D01*
X144723446Y-77264770D01*
X145077702Y-77381964D01*
X145077710Y-77381965D01*
X145077711Y-77381966D01*
X145133341Y-77393997D01*
X145442408Y-77460839D01*
X145442410Y-77460839D01*
X145442414Y-77460840D01*
X145813418Y-77500500D01*
X145813425Y-77500500D01*
X145813431Y-77500501D01*
X145813436Y-77500501D01*
X146093206Y-77500501D01*
X146093213Y-77500501D01*
X146216123Y-77493950D01*
X146372596Y-77485611D01*
X146372601Y-77485610D01*
X146372609Y-77485610D01*
X146740995Y-77426257D01*
X147100986Y-77328084D01*
X147448503Y-77192202D01*
X147779607Y-77020151D01*
X148090547Y-76813881D01*
X148377801Y-76575728D01*
X148638114Y-76308391D01*
X148868535Y-76014899D01*
X149066455Y-75698578D01*
X149229631Y-75363011D01*
X149330404Y-75083567D01*
X149356211Y-75012007D01*
X149356213Y-75012001D01*
X149400200Y-74831952D01*
X149444769Y-74649524D01*
X149494294Y-74279688D01*
X149501042Y-74026298D01*
X149504227Y-73906689D01*
X149504227Y-73906683D01*
X149474457Y-73534740D01*
X149452045Y-73415880D01*
X149405317Y-73168059D01*
X149362181Y-73025000D01*
X149297600Y-72810819D01*
X149297596Y-72810810D01*
X149291961Y-72797459D01*
X149152511Y-72467033D01*
X148971707Y-72140626D01*
X148757232Y-71835287D01*
X148757227Y-71835281D01*
X148757222Y-71835275D01*
X148511517Y-71554473D01*
X148511515Y-71554471D01*
X148237344Y-71301370D01*
X147937828Y-71078848D01*
X147937827Y-71078846D01*
X147769813Y-70979845D01*
X147616345Y-70889415D01*
X147276554Y-70735230D01*
X146922298Y-70618036D01*
X146922297Y-70618035D01*
X146922288Y-70618033D01*
X146557585Y-70539159D01*
X146245385Y-70505786D01*
X146179776Y-70478657D01*
X146139250Y-70420363D01*
X146136673Y-70349413D01*
X146172863Y-70288333D01*
X146236331Y-70256516D01*
X146258778Y-70254500D01*
X150822296Y-70254500D01*
X150890417Y-70274502D01*
X150936910Y-70328158D01*
X150947014Y-70398432D01*
X150932264Y-70436921D01*
X150933015Y-70437232D01*
X150928266Y-70448696D01*
X150913500Y-70522930D01*
X150913500Y-74991333D01*
X150909644Y-75022268D01*
X150908272Y-75027681D01*
X150821399Y-76705902D01*
X150821273Y-76709118D01*
X150821214Y-76711289D01*
X150821016Y-76725217D01*
X150820768Y-76729883D01*
X150820768Y-76730007D01*
X150839654Y-76933819D01*
X150890176Y-77111384D01*
X150895672Y-77130701D01*
X150986912Y-77313935D01*
X150986913Y-77313936D01*
X151034965Y-77377568D01*
X151060055Y-77443984D01*
X151045255Y-77513421D01*
X150995264Y-77563833D01*
X150934415Y-77579500D01*
X150927849Y-77579500D01*
X150906449Y-77586453D01*
X150887227Y-77591068D01*
X150864995Y-77594589D01*
X150864991Y-77594590D01*
X150844935Y-77604809D01*
X150826677Y-77612372D01*
X150805268Y-77619328D01*
X150787049Y-77632565D01*
X150770196Y-77642891D01*
X150750152Y-77653104D01*
X150750145Y-77653109D01*
X150667725Y-77735525D01*
X150667690Y-77735565D01*
X150335658Y-78067596D01*
X150273348Y-78101620D01*
X150246565Y-78104500D01*
X141925360Y-78104500D01*
X141857239Y-78084498D01*
X141810746Y-78030842D01*
X141800642Y-77960568D01*
X141817511Y-77916543D01*
X141816360Y-77915928D01*
X141834856Y-77881325D01*
X141913667Y-77733880D01*
X141971792Y-77542269D01*
X141975380Y-77505842D01*
X141991418Y-77343003D01*
X141991418Y-77342996D01*
X141971793Y-77143738D01*
X141971793Y-77143736D01*
X141971792Y-77143733D01*
X141971792Y-77143731D01*
X141913667Y-76952120D01*
X141901036Y-76928490D01*
X141839498Y-76813359D01*
X141819278Y-76775531D01*
X141692252Y-76620748D01*
X141537469Y-76493722D01*
X141537467Y-76493721D01*
X141537466Y-76493720D01*
X141360883Y-76399334D01*
X141360877Y-76399332D01*
X141304700Y-76382291D01*
X141169269Y-76341208D01*
X141169266Y-76341207D01*
X141169261Y-76341206D01*
X141019942Y-76326500D01*
X141019934Y-76326500D01*
X127112795Y-76326500D01*
X127106615Y-76326196D01*
X127059771Y-76321582D01*
X127059764Y-76321582D01*
X127012917Y-76326195D01*
X127012912Y-76326197D01*
X126860507Y-76341206D01*
X126860500Y-76341207D01*
X126860500Y-76341208D01*
X126668888Y-76399332D01*
X126646679Y-76406069D01*
X126646497Y-76406380D01*
X126619631Y-76425661D01*
X126492296Y-76493723D01*
X126432293Y-76542967D01*
X126337518Y-76620746D01*
X126307643Y-76657148D01*
X126303488Y-76661731D01*
X125267680Y-77697541D01*
X124262626Y-78702595D01*
X124200314Y-78736620D01*
X124173531Y-78739500D01*
X119420872Y-78739500D01*
X119381107Y-78727824D01*
X119362605Y-78737293D01*
X119339127Y-78739500D01*
X114345971Y-78739500D01*
X114299726Y-78725921D01*
X114277507Y-78737293D01*
X114254029Y-78739500D01*
X103177026Y-78739500D01*
X103170846Y-78739196D01*
X103124002Y-78734582D01*
X103123995Y-78734582D01*
X103077148Y-78739195D01*
X103077143Y-78739197D01*
X102924739Y-78754206D01*
X102924736Y-78754206D01*
X102764665Y-78802764D01*
X102764665Y-78802763D01*
X102733125Y-78812330D01*
X102733120Y-78812332D01*
X102556529Y-78906722D01*
X102499202Y-78953769D01*
X102401749Y-79033746D01*
X102371875Y-79070148D01*
X102367720Y-79074731D01*
X100918731Y-80523720D01*
X100914148Y-80527874D01*
X100877747Y-80557749D01*
X100750720Y-80712533D01*
X100656334Y-80889116D01*
X100656332Y-80889122D01*
X100598206Y-81080736D01*
X100598206Y-81080739D01*
X100590426Y-81159744D01*
X100578581Y-81279998D01*
X100578581Y-81280001D01*
X100583196Y-81326854D01*
X100583500Y-81333033D01*
X100583500Y-85794514D01*
X100580521Y-85819214D01*
X100580549Y-85819218D01*
X100580369Y-85820476D01*
X100579888Y-85824467D01*
X100579674Y-85825339D01*
X100579673Y-85825344D01*
X100579673Y-85825345D01*
X100518748Y-86251821D01*
X100489314Y-86316426D01*
X100429622Y-86354864D01*
X100394015Y-86360000D01*
X100380500Y-86360000D01*
X100312379Y-86339998D01*
X100265886Y-86286342D01*
X100254500Y-86234000D01*
X100254500Y-74232372D01*
X100274502Y-74164251D01*
X100328158Y-74117758D01*
X100398432Y-74107654D01*
X100463012Y-74137148D01*
X100501396Y-74196874D01*
X100506098Y-74222319D01*
X100525542Y-74465259D01*
X100594683Y-74831943D01*
X100594686Y-74831952D01*
X100702399Y-75189180D01*
X100702403Y-75189189D01*
X100847484Y-75532956D01*
X100847492Y-75532973D01*
X100983091Y-75777772D01*
X101028293Y-75859374D01*
X101239055Y-76159427D01*
X101242772Y-76164718D01*
X101242777Y-76164724D01*
X101488482Y-76445526D01*
X101488484Y-76445528D01*
X101758812Y-76695081D01*
X101762655Y-76698629D01*
X102062171Y-76921151D01*
X102062172Y-76921153D01*
X102062176Y-76921155D01*
X102062177Y-76921156D01*
X102383655Y-77110585D01*
X102723446Y-77264770D01*
X103077702Y-77381964D01*
X103077710Y-77381965D01*
X103077711Y-77381966D01*
X103133341Y-77393997D01*
X103442408Y-77460839D01*
X103442410Y-77460839D01*
X103442414Y-77460840D01*
X103813418Y-77500500D01*
X103813425Y-77500500D01*
X103813431Y-77500501D01*
X103813436Y-77500501D01*
X104093206Y-77500501D01*
X104093213Y-77500501D01*
X104216123Y-77493950D01*
X104372596Y-77485611D01*
X104372601Y-77485610D01*
X104372609Y-77485610D01*
X104740995Y-77426257D01*
X105100986Y-77328084D01*
X105448503Y-77192202D01*
X105779607Y-77020151D01*
X106058707Y-76835003D01*
X108198582Y-76835003D01*
X108218206Y-77034261D01*
X108218206Y-77034263D01*
X108276332Y-77225877D01*
X108276334Y-77225883D01*
X108370720Y-77402466D01*
X108370722Y-77402469D01*
X108497748Y-77557252D01*
X108652531Y-77684278D01*
X108652533Y-77684279D01*
X108811509Y-77769254D01*
X108829120Y-77778667D01*
X109020731Y-77836792D01*
X109020735Y-77836792D01*
X109020737Y-77836793D01*
X109219997Y-77856418D01*
X109220000Y-77856418D01*
X109220003Y-77856418D01*
X109419261Y-77836793D01*
X109419263Y-77836793D01*
X109419264Y-77836792D01*
X109419269Y-77836792D01*
X109610880Y-77778667D01*
X109787469Y-77684278D01*
X109863279Y-77622063D01*
X110743500Y-77622063D01*
X110743501Y-77622073D01*
X110758265Y-77696300D01*
X110814516Y-77780484D01*
X110898697Y-77836733D01*
X110898699Y-77836734D01*
X110972933Y-77851500D01*
X112547066Y-77851499D01*
X112554225Y-77851499D01*
X112556190Y-77851530D01*
X112562351Y-77851721D01*
X112570595Y-77851979D01*
X112964265Y-77786367D01*
X113034747Y-77794898D01*
X113060328Y-77809665D01*
X113156372Y-77881325D01*
X113597896Y-78210754D01*
X113597899Y-78210755D01*
X113604744Y-78215057D01*
X113611200Y-78219705D01*
X113658007Y-78258119D01*
X113732529Y-78319276D01*
X113732531Y-78319278D01*
X113890843Y-78403898D01*
X113909120Y-78413667D01*
X114100731Y-78471792D01*
X114100735Y-78471792D01*
X114100737Y-78471793D01*
X114266379Y-78488107D01*
X114297756Y-78500776D01*
X114310473Y-78492604D01*
X114333621Y-78488107D01*
X114499261Y-78471793D01*
X114499263Y-78471793D01*
X114499264Y-78471792D01*
X114499269Y-78471792D01*
X114565121Y-78451816D01*
X119116603Y-78451816D01*
X119180831Y-78471300D01*
X119351477Y-78488107D01*
X119376591Y-78498248D01*
X119385374Y-78492604D01*
X119408521Y-78488107D01*
X119579173Y-78471298D01*
X119643395Y-78451816D01*
X119643396Y-78451815D01*
X119380001Y-78188420D01*
X119380000Y-78188420D01*
X119116603Y-78451816D01*
X114565121Y-78451816D01*
X114690880Y-78413667D01*
X114867469Y-78319278D01*
X115022252Y-78192252D01*
X115149278Y-78037469D01*
X115243667Y-77860880D01*
X115301792Y-77669269D01*
X115301793Y-77669261D01*
X115321418Y-77470003D01*
X115321418Y-77470002D01*
X118359084Y-77470002D01*
X118378699Y-77669164D01*
X118398183Y-77733395D01*
X118661580Y-77469999D01*
X118627573Y-77435992D01*
X118926190Y-77435992D01*
X118936327Y-77571265D01*
X118985887Y-77697541D01*
X119070465Y-77803599D01*
X119182547Y-77880016D01*
X119312173Y-77920000D01*
X119413724Y-77920000D01*
X119514138Y-77904865D01*
X119636357Y-77846007D01*
X119735798Y-77753740D01*
X119803625Y-77636260D01*
X119833810Y-77504008D01*
X119831262Y-77470000D01*
X120098420Y-77470000D01*
X120361815Y-77733396D01*
X120361816Y-77733395D01*
X120381298Y-77669173D01*
X120400916Y-77470001D01*
X120400916Y-77469996D01*
X120381300Y-77270831D01*
X120361816Y-77206603D01*
X120098420Y-77469999D01*
X120098420Y-77470000D01*
X119831262Y-77470000D01*
X119823673Y-77368735D01*
X119774113Y-77242459D01*
X119689535Y-77136401D01*
X119577453Y-77059984D01*
X119447827Y-77020000D01*
X119346276Y-77020000D01*
X119245862Y-77035135D01*
X119123643Y-77093993D01*
X119024202Y-77186260D01*
X118956375Y-77303740D01*
X118926190Y-77435992D01*
X118627573Y-77435992D01*
X118398183Y-77206602D01*
X118378700Y-77270830D01*
X118359084Y-77469997D01*
X118359084Y-77470002D01*
X115321418Y-77470002D01*
X115321418Y-77469996D01*
X115301793Y-77270738D01*
X115301793Y-77270736D01*
X115301792Y-77270733D01*
X115301792Y-77270731D01*
X115243667Y-77079120D01*
X115220156Y-77035135D01*
X115149279Y-76902533D01*
X115149278Y-76902531D01*
X115022252Y-76747748D01*
X114867469Y-76620722D01*
X114867467Y-76620721D01*
X114867466Y-76620720D01*
X114690883Y-76526334D01*
X114690877Y-76526332D01*
X114687778Y-76525392D01*
X114669812Y-76518401D01*
X114669028Y-76518025D01*
X114669022Y-76518021D01*
X114653997Y-76512543D01*
X114595996Y-76491398D01*
X114590952Y-76488183D01*
X119116602Y-76488183D01*
X119379999Y-76751580D01*
X119380000Y-76751580D01*
X119643396Y-76488183D01*
X119579164Y-76468699D01*
X119380003Y-76449084D01*
X119379997Y-76449084D01*
X119180830Y-76468700D01*
X119116602Y-76488183D01*
X114590952Y-76488183D01*
X114550058Y-76462115D01*
X114350488Y-76262545D01*
X114337646Y-76247509D01*
X114329669Y-76236530D01*
X114278712Y-76190647D01*
X114276320Y-76188377D01*
X114261012Y-76173068D01*
X114261006Y-76173063D01*
X114244168Y-76159427D01*
X114241660Y-76157285D01*
X114192195Y-76112748D01*
X114190715Y-76111415D01*
X114178961Y-76104629D01*
X114162667Y-76093430D01*
X114152123Y-76084891D01*
X114091050Y-76053774D01*
X114088167Y-76052209D01*
X114028785Y-76017925D01*
X114015872Y-76013729D01*
X113997613Y-76006165D01*
X113985524Y-76000006D01*
X113985522Y-76000005D01*
X113961258Y-75993503D01*
X113919284Y-75982256D01*
X113916167Y-75981333D01*
X113892672Y-75973699D01*
X113850957Y-75960144D01*
X113837463Y-75958726D01*
X113818033Y-75955125D01*
X113804919Y-75951611D01*
X113804908Y-75951610D01*
X113750622Y-75948765D01*
X113736457Y-75948023D01*
X113733175Y-75947765D01*
X113711624Y-75945500D01*
X113711620Y-75945500D01*
X113689944Y-75945500D01*
X113686671Y-75945414D01*
X113658703Y-75943949D01*
X113618191Y-75941825D01*
X113604786Y-75943949D01*
X113585075Y-75945500D01*
X113345066Y-75945500D01*
X113323128Y-75942594D01*
X113322991Y-75943419D01*
X113316886Y-75942401D01*
X113316885Y-75942401D01*
X113067717Y-75900873D01*
X112565343Y-75817144D01*
X112565299Y-75817138D01*
X112554771Y-75815826D01*
X112554753Y-75815824D01*
X112554728Y-75815821D01*
X112552601Y-75815644D01*
X112547491Y-75815219D01*
X112526232Y-75814329D01*
X112517301Y-75816099D01*
X112492821Y-75818500D01*
X110972936Y-75818500D01*
X110972926Y-75818501D01*
X110898699Y-75833265D01*
X110814515Y-75889516D01*
X110758266Y-75973697D01*
X110743500Y-76047930D01*
X110743500Y-77622063D01*
X109863279Y-77622063D01*
X109942252Y-77557252D01*
X110069278Y-77402469D01*
X110163667Y-77225880D01*
X110221792Y-77034269D01*
X110223182Y-77020154D01*
X110241418Y-76835003D01*
X110241418Y-76834996D01*
X110221793Y-76635738D01*
X110221793Y-76635736D01*
X110221792Y-76635733D01*
X110221792Y-76635731D01*
X110163667Y-76444120D01*
X110153800Y-76425661D01*
X110069279Y-76267533D01*
X110069278Y-76267531D01*
X109942252Y-76112748D01*
X109787469Y-75985722D01*
X109787467Y-75985721D01*
X109787466Y-75985720D01*
X109610883Y-75891334D01*
X109610877Y-75891332D01*
X109419460Y-75833266D01*
X109419269Y-75833208D01*
X109419268Y-75833207D01*
X109419262Y-75833206D01*
X109220003Y-75813582D01*
X109219997Y-75813582D01*
X109020738Y-75833206D01*
X109020736Y-75833206D01*
X108829122Y-75891332D01*
X108829116Y-75891334D01*
X108652533Y-75985720D01*
X108497748Y-76112748D01*
X108370720Y-76267533D01*
X108276334Y-76444116D01*
X108276332Y-76444122D01*
X108218206Y-76635736D01*
X108218206Y-76635738D01*
X108198582Y-76834996D01*
X108198582Y-76835003D01*
X106058707Y-76835003D01*
X106090547Y-76813881D01*
X106377801Y-76575728D01*
X106638114Y-76308391D01*
X106868535Y-76014899D01*
X107066455Y-75698578D01*
X107229631Y-75363011D01*
X107330404Y-75083567D01*
X107356211Y-75012007D01*
X107356213Y-75012001D01*
X107400200Y-74831952D01*
X107444769Y-74649524D01*
X107494294Y-74279688D01*
X107501042Y-74026298D01*
X107504227Y-73906689D01*
X107504227Y-73906683D01*
X107474457Y-73534740D01*
X107452045Y-73415880D01*
X107405317Y-73168059D01*
X107362181Y-73025000D01*
X107297600Y-72810819D01*
X107297596Y-72810810D01*
X107291961Y-72797459D01*
X107152511Y-72467033D01*
X107109842Y-72390003D01*
X108198582Y-72390003D01*
X108218206Y-72589261D01*
X108218206Y-72589263D01*
X108276332Y-72780877D01*
X108276334Y-72780883D01*
X108370720Y-72957466D01*
X108370722Y-72957469D01*
X108497748Y-73112252D01*
X108652531Y-73239278D01*
X108829120Y-73333667D01*
X109020731Y-73391792D01*
X109020735Y-73391792D01*
X109020737Y-73391793D01*
X109219997Y-73411418D01*
X109220000Y-73411418D01*
X109220003Y-73411418D01*
X109419261Y-73391793D01*
X109419263Y-73391793D01*
X109419264Y-73391792D01*
X109419269Y-73391792D01*
X109610880Y-73333667D01*
X109787469Y-73239278D01*
X109863279Y-73177063D01*
X110743500Y-73177063D01*
X110743501Y-73177073D01*
X110758265Y-73251300D01*
X110814516Y-73335484D01*
X110898697Y-73391733D01*
X110898699Y-73391734D01*
X110972933Y-73406500D01*
X111466366Y-73406499D01*
X111534487Y-73426501D01*
X111555461Y-73443404D01*
X111709509Y-73597452D01*
X111722348Y-73612483D01*
X111730332Y-73623472D01*
X111756954Y-73647442D01*
X111781297Y-73669360D01*
X111783652Y-73671595D01*
X111798992Y-73686935D01*
X111815843Y-73700581D01*
X111818327Y-73702702D01*
X111869285Y-73748585D01*
X111878851Y-73754107D01*
X111881034Y-73755368D01*
X111897333Y-73766570D01*
X111907872Y-73775105D01*
X111907877Y-73775108D01*
X111968939Y-73806220D01*
X111971838Y-73807794D01*
X112004285Y-73826527D01*
X112031215Y-73842075D01*
X112044126Y-73846270D01*
X112062379Y-73853830D01*
X112074476Y-73859994D01*
X112140707Y-73877740D01*
X112143828Y-73878664D01*
X112209044Y-73899855D01*
X112222530Y-73901272D01*
X112241969Y-73904874D01*
X112255085Y-73908389D01*
X112255091Y-73908389D01*
X112255094Y-73908390D01*
X112294173Y-73910436D01*
X112323554Y-73911976D01*
X112326815Y-73912232D01*
X112348380Y-73914500D01*
X112370056Y-73914500D01*
X112373328Y-73914585D01*
X112432609Y-73917691D01*
X112441808Y-73918174D01*
X112441808Y-73918173D01*
X112441810Y-73918174D01*
X112455214Y-73916050D01*
X112474925Y-73914500D01*
X112730041Y-73914500D01*
X112759058Y-73918582D01*
X112759095Y-73918383D01*
X112763876Y-73919259D01*
X112764801Y-73919389D01*
X112765178Y-73919498D01*
X114268468Y-74044772D01*
X114273826Y-74045107D01*
X114277440Y-74045258D01*
X114277448Y-74045258D01*
X114277464Y-74045259D01*
X114287968Y-74045485D01*
X114287970Y-74045484D01*
X114288829Y-74045503D01*
X114293658Y-74045792D01*
X114300000Y-74046418D01*
X114300001Y-74046418D01*
X114499261Y-74026793D01*
X114499263Y-74026793D01*
X114499264Y-74026792D01*
X114499269Y-74026792D01*
X114565121Y-74006816D01*
X119116603Y-74006816D01*
X119180831Y-74026300D01*
X119379997Y-74045916D01*
X119380002Y-74045916D01*
X119579173Y-74026298D01*
X119643395Y-74006816D01*
X119643396Y-74006815D01*
X119380001Y-73743420D01*
X119380000Y-73743420D01*
X119116603Y-74006816D01*
X114565121Y-74006816D01*
X114690880Y-73968667D01*
X114867469Y-73874278D01*
X115022252Y-73747252D01*
X115149278Y-73592469D01*
X115243667Y-73415880D01*
X115301792Y-73224269D01*
X115301793Y-73224261D01*
X115321418Y-73025003D01*
X115321418Y-73025002D01*
X118359084Y-73025002D01*
X118378699Y-73224164D01*
X118398183Y-73288395D01*
X118661580Y-73024999D01*
X118627573Y-72990992D01*
X118926190Y-72990992D01*
X118936327Y-73126265D01*
X118985887Y-73252541D01*
X119070465Y-73358599D01*
X119182547Y-73435016D01*
X119312173Y-73475000D01*
X119413724Y-73475000D01*
X119514138Y-73459865D01*
X119636357Y-73401007D01*
X119735798Y-73308740D01*
X119803625Y-73191260D01*
X119833810Y-73059008D01*
X119831261Y-73024999D01*
X120098418Y-73024999D01*
X120361815Y-73288396D01*
X120361816Y-73288395D01*
X120381298Y-73224173D01*
X120400916Y-73025001D01*
X120400916Y-73024996D01*
X120381300Y-72825831D01*
X120361816Y-72761603D01*
X120361815Y-72761602D01*
X120098418Y-73024999D01*
X119831261Y-73024999D01*
X119823673Y-72923735D01*
X119774113Y-72797459D01*
X119689535Y-72691401D01*
X119577453Y-72614984D01*
X119447827Y-72575000D01*
X119346276Y-72575000D01*
X119245862Y-72590135D01*
X119123643Y-72648993D01*
X119024202Y-72741260D01*
X118956375Y-72858740D01*
X118926190Y-72990992D01*
X118627573Y-72990992D01*
X118398183Y-72761602D01*
X118378700Y-72825830D01*
X118359084Y-73024997D01*
X118359084Y-73025002D01*
X115321418Y-73025002D01*
X115321418Y-73024996D01*
X115301793Y-72825738D01*
X115301793Y-72825736D01*
X115301792Y-72825733D01*
X115301792Y-72825731D01*
X115243667Y-72634120D01*
X115220156Y-72590135D01*
X115149279Y-72457533D01*
X115149278Y-72457531D01*
X115022252Y-72302748D01*
X114867469Y-72175722D01*
X114867467Y-72175721D01*
X114867466Y-72175720D01*
X114690883Y-72081334D01*
X114690877Y-72081332D01*
X114565117Y-72043183D01*
X119116602Y-72043183D01*
X119379999Y-72306580D01*
X119380000Y-72306580D01*
X119643396Y-72043183D01*
X119579164Y-72023699D01*
X119380003Y-72004084D01*
X119379997Y-72004084D01*
X119180830Y-72023700D01*
X119116602Y-72043183D01*
X114565117Y-72043183D01*
X114499269Y-72023208D01*
X114499268Y-72023207D01*
X114499262Y-72023206D01*
X114300003Y-72003582D01*
X114300001Y-72003582D01*
X114300000Y-72003582D01*
X114288138Y-72004750D01*
X114282574Y-72005298D01*
X114275450Y-72005594D01*
X114265799Y-72005449D01*
X113339902Y-72082607D01*
X113270355Y-72068331D01*
X113259573Y-72061899D01*
X113174623Y-72005298D01*
X112832634Y-71777434D01*
X112787035Y-71723016D01*
X112776499Y-71672577D01*
X112776499Y-71602936D01*
X112776498Y-71602927D01*
X112761734Y-71528699D01*
X112761733Y-71528697D01*
X112705484Y-71444516D01*
X112705483Y-71444515D01*
X112621302Y-71388266D01*
X112547067Y-71373500D01*
X110972936Y-71373500D01*
X110972926Y-71373501D01*
X110898699Y-71388265D01*
X110814515Y-71444516D01*
X110758266Y-71528697D01*
X110743500Y-71602930D01*
X110743500Y-73177063D01*
X109863279Y-73177063D01*
X109942252Y-73112252D01*
X110069278Y-72957469D01*
X110163667Y-72780880D01*
X110221792Y-72589269D01*
X110221793Y-72589261D01*
X110241418Y-72390003D01*
X110241418Y-72389996D01*
X110221793Y-72190738D01*
X110221793Y-72190736D01*
X110221792Y-72190733D01*
X110221792Y-72190731D01*
X110163667Y-71999120D01*
X110069278Y-71822531D01*
X109942252Y-71667748D01*
X109787469Y-71540722D01*
X109787467Y-71540721D01*
X109787466Y-71540720D01*
X109610883Y-71446334D01*
X109610877Y-71446332D01*
X109419460Y-71388266D01*
X109419269Y-71388208D01*
X109419268Y-71388207D01*
X109419262Y-71388206D01*
X109220003Y-71368582D01*
X109219997Y-71368582D01*
X109020738Y-71388206D01*
X109020736Y-71388206D01*
X108829122Y-71446332D01*
X108829116Y-71446334D01*
X108652533Y-71540720D01*
X108497748Y-71667748D01*
X108370720Y-71822533D01*
X108276334Y-71999116D01*
X108276332Y-71999122D01*
X108218206Y-72190736D01*
X108218206Y-72190738D01*
X108198582Y-72389996D01*
X108198582Y-72390003D01*
X107109842Y-72390003D01*
X106971707Y-72140626D01*
X106757232Y-71835287D01*
X106757227Y-71835281D01*
X106757222Y-71835275D01*
X106511517Y-71554473D01*
X106511515Y-71554471D01*
X106237344Y-71301370D01*
X105937828Y-71078848D01*
X105937827Y-71078846D01*
X105769813Y-70979845D01*
X105616345Y-70889415D01*
X105276554Y-70735230D01*
X104922298Y-70618036D01*
X104922297Y-70618035D01*
X104922288Y-70618033D01*
X104557585Y-70539159D01*
X104245385Y-70505786D01*
X104179776Y-70478657D01*
X104139250Y-70420363D01*
X104136673Y-70349413D01*
X104172863Y-70288333D01*
X104236331Y-70256516D01*
X104258778Y-70254500D01*
X145772069Y-70254500D01*
X145840190Y-70274502D01*
G37*
G04 #@! TD.AperFunction*
G04 #@! TA.AperFunction,Conductor*
G36*
X153744908Y-78258584D02*
G01*
X153778743Y-78321000D01*
X153773462Y-78391800D01*
X153740428Y-78440521D01*
X153650267Y-78522714D01*
X153526913Y-78686063D01*
X153435671Y-78869301D01*
X153379654Y-79066180D01*
X153360768Y-79269995D01*
X153360768Y-79270004D01*
X153379654Y-79473819D01*
X153412755Y-79590156D01*
X153435672Y-79670701D01*
X153526912Y-79853935D01*
X153526913Y-79853936D01*
X153650267Y-80017285D01*
X153652133Y-80018986D01*
X153652764Y-80020024D01*
X153654192Y-80021591D01*
X153653885Y-80021870D01*
X153688999Y-80079662D01*
X153687209Y-80150636D01*
X153647331Y-80209375D01*
X153582027Y-80237230D01*
X153567246Y-80238100D01*
X153028257Y-80238100D01*
X153028195Y-80238095D01*
X153018069Y-80238095D01*
X152985647Y-80238095D01*
X152565344Y-80238095D01*
X152565282Y-80238090D01*
X152555156Y-80238090D01*
X152522734Y-80238090D01*
X152249076Y-80238090D01*
X152231852Y-80238089D01*
X152163732Y-80218083D01*
X152142763Y-80201184D01*
X151930000Y-79988420D01*
X151717226Y-80201195D01*
X151654913Y-80235220D01*
X151628130Y-80238100D01*
X130890201Y-80238100D01*
X130890139Y-80238095D01*
X130880013Y-80238095D01*
X130847591Y-80238095D01*
X130427288Y-80238095D01*
X130427226Y-80238090D01*
X130417100Y-80238090D01*
X130384678Y-80238090D01*
X130111022Y-80238090D01*
X129964348Y-80238086D01*
X129964334Y-80238085D01*
X129954187Y-80238085D01*
X129899944Y-80238085D01*
X129899909Y-80238084D01*
X129857726Y-80238084D01*
X129857725Y-80238084D01*
X129855152Y-80238084D01*
X129855130Y-80238085D01*
X129815169Y-80238085D01*
X129815107Y-80238090D01*
X129109172Y-80238090D01*
X129109124Y-80238092D01*
X129021844Y-80238091D01*
X129021830Y-80238090D01*
X129011681Y-80238090D01*
X128957438Y-80238090D01*
X128957403Y-80238089D01*
X128915220Y-80238089D01*
X128915219Y-80238089D01*
X128912646Y-80238089D01*
X128912624Y-80238090D01*
X128873005Y-80238090D01*
X128872876Y-80238100D01*
X128420107Y-80238100D01*
X128291215Y-80238100D01*
X128281565Y-80241235D01*
X128269800Y-80245057D01*
X128250586Y-80249669D01*
X128228355Y-80253190D01*
X128228352Y-80253191D01*
X128208301Y-80263408D01*
X128190040Y-80270972D01*
X128168631Y-80277928D01*
X128150412Y-80291165D01*
X128133559Y-80301491D01*
X128113515Y-80311704D01*
X128113511Y-80311707D01*
X128072862Y-80352353D01*
X128072859Y-80352358D01*
X125150623Y-83274595D01*
X125088311Y-83308621D01*
X125061528Y-83311500D01*
X116272002Y-83311500D01*
X116271978Y-83311501D01*
X116242151Y-83311501D01*
X116220753Y-83318453D01*
X116201538Y-83323067D01*
X116182882Y-83326022D01*
X116179294Y-83326591D01*
X116179293Y-83326591D01*
X116179291Y-83326592D01*
X116159228Y-83336814D01*
X116140972Y-83344376D01*
X116119567Y-83351331D01*
X116101354Y-83364563D01*
X116084509Y-83374885D01*
X116064450Y-83385106D01*
X116064445Y-83385110D01*
X116048499Y-83401057D01*
X116041525Y-83408031D01*
X116041522Y-83408034D01*
X116039056Y-83410499D01*
X116039051Y-83410504D01*
X115692362Y-83757195D01*
X115630049Y-83791220D01*
X115603266Y-83794100D01*
X115384324Y-83794100D01*
X115339281Y-83785774D01*
X114594728Y-83500772D01*
X114594725Y-83500771D01*
X114594724Y-83500771D01*
X114589627Y-83499862D01*
X114581352Y-83498386D01*
X114561867Y-83493274D01*
X114468954Y-83460763D01*
X114300000Y-83441726D01*
X114299999Y-83441726D01*
X114275423Y-83444495D01*
X114131046Y-83460763D01*
X114131043Y-83460763D01*
X114131043Y-83460764D01*
X113970562Y-83516918D01*
X113970560Y-83516919D01*
X113826600Y-83607375D01*
X113826597Y-83607377D01*
X113706377Y-83727597D01*
X113706375Y-83727600D01*
X113615919Y-83871560D01*
X113615918Y-83871562D01*
X113569798Y-84003366D01*
X113559763Y-84032046D01*
X113540726Y-84201000D01*
X113559763Y-84369954D01*
X113603772Y-84495726D01*
X113615918Y-84530437D01*
X113615919Y-84530439D01*
X113706375Y-84674399D01*
X113706377Y-84674402D01*
X113826597Y-84794622D01*
X113826600Y-84794624D01*
X113970563Y-84885082D01*
X114131046Y-84941237D01*
X114131053Y-84941237D01*
X114135526Y-84942259D01*
X114197488Y-84976918D01*
X114230875Y-85039574D01*
X114225088Y-85110335D01*
X114181964Y-85166733D01*
X114115194Y-85190864D01*
X114107488Y-85191100D01*
X108776446Y-85191100D01*
X108647554Y-85191100D01*
X108636516Y-85194685D01*
X108626139Y-85198057D01*
X108606925Y-85202669D01*
X108584694Y-85206190D01*
X108584691Y-85206191D01*
X108564640Y-85216408D01*
X108546379Y-85223972D01*
X108524970Y-85230928D01*
X108506751Y-85244165D01*
X108489898Y-85254491D01*
X108469850Y-85264706D01*
X108469848Y-85264708D01*
X108446923Y-85287634D01*
X107972661Y-85761894D01*
X107931777Y-85789210D01*
X106576681Y-86350412D01*
X106528470Y-86360000D01*
X102805986Y-86360000D01*
X102737865Y-86339998D01*
X102691372Y-86286342D01*
X102681252Y-86251819D01*
X102659282Y-86098032D01*
X102620327Y-85825346D01*
X102620325Y-85825339D01*
X102619601Y-85822134D01*
X102616500Y-85794351D01*
X102616500Y-83776341D01*
X102616500Y-81753234D01*
X102636501Y-81685117D01*
X102653399Y-81664147D01*
X103508143Y-80809404D01*
X103570456Y-80775379D01*
X103597239Y-80772500D01*
X109170066Y-80772500D01*
X111710066Y-80772500D01*
X121121141Y-80772500D01*
X121189262Y-80792502D01*
X121235755Y-80846158D01*
X121245859Y-80916432D01*
X121237566Y-80943643D01*
X121238255Y-80943884D01*
X121188258Y-81086768D01*
X121179763Y-81111046D01*
X121160726Y-81280000D01*
X121179763Y-81448954D01*
X121220032Y-81564036D01*
X121235918Y-81609437D01*
X121235919Y-81609439D01*
X121326375Y-81753399D01*
X121326377Y-81753402D01*
X121446597Y-81873622D01*
X121446600Y-81873624D01*
X121590563Y-81964082D01*
X121751046Y-82020237D01*
X121920000Y-82039274D01*
X122088954Y-82020237D01*
X122182419Y-81987531D01*
X122202803Y-81982264D01*
X122214724Y-81980228D01*
X122776700Y-81765114D01*
X122959280Y-81695226D01*
X123004323Y-81686900D01*
X124839581Y-81686900D01*
X124839583Y-81686900D01*
X124860993Y-81679943D01*
X124880201Y-81675331D01*
X124902443Y-81671809D01*
X124922496Y-81661590D01*
X124940760Y-81654025D01*
X124962169Y-81647070D01*
X124980377Y-81633840D01*
X124997235Y-81623509D01*
X125017288Y-81613292D01*
X125108429Y-81522151D01*
X125145321Y-81485259D01*
X125145334Y-81485244D01*
X125761081Y-80869498D01*
X127675374Y-78955205D01*
X127737687Y-78921179D01*
X127764470Y-78918300D01*
X150531742Y-78918300D01*
X150531744Y-78918300D01*
X150553154Y-78911343D01*
X150572362Y-78906731D01*
X150594604Y-78903209D01*
X150614657Y-78892990D01*
X150632921Y-78885425D01*
X150654330Y-78878470D01*
X150660864Y-78873722D01*
X150727729Y-78849861D01*
X150796881Y-78865937D01*
X150846364Y-78916849D01*
X150860467Y-78986430D01*
X150856119Y-79010135D01*
X150840149Y-79066265D01*
X150821270Y-79269999D01*
X150840148Y-79473731D01*
X150877293Y-79604285D01*
X151420575Y-79061002D01*
X151386441Y-79157047D01*
X151376123Y-79307886D01*
X151406884Y-79455915D01*
X151476442Y-79590156D01*
X151579638Y-79700652D01*
X151708819Y-79779209D01*
X151854404Y-79820000D01*
X151967622Y-79820000D01*
X152079783Y-79804584D01*
X152218458Y-79744349D01*
X152335739Y-79648934D01*
X152422928Y-79525415D01*
X152473559Y-79382953D01*
X152483877Y-79232114D01*
X152453116Y-79084085D01*
X152443019Y-79064600D01*
X152982704Y-79604285D01*
X152982704Y-79604284D01*
X153019851Y-79473730D01*
X153038729Y-79269999D01*
X153019851Y-79066269D01*
X152963861Y-78869485D01*
X152963859Y-78869480D01*
X152872659Y-78686327D01*
X152803868Y-78595232D01*
X152778778Y-78528816D01*
X152793578Y-78459380D01*
X152843569Y-78408967D01*
X152904418Y-78393300D01*
X153278044Y-78393300D01*
X153278046Y-78393300D01*
X153299456Y-78386343D01*
X153318664Y-78381731D01*
X153340906Y-78378209D01*
X153360959Y-78367990D01*
X153379223Y-78360425D01*
X153400632Y-78353470D01*
X153418840Y-78340240D01*
X153435698Y-78329909D01*
X153455751Y-78319692D01*
X153488228Y-78287213D01*
X153533646Y-78258121D01*
X153611873Y-78229216D01*
X153682700Y-78224369D01*
X153744908Y-78258584D01*
G37*
G04 #@! TD.AperFunction*
G04 #@! TA.AperFunction,Conductor*
G36*
X188302595Y-79364174D02*
G01*
X188336620Y-79426487D01*
X188339500Y-79453270D01*
X188339500Y-79844846D01*
X188339499Y-79844846D01*
X188346455Y-79866255D01*
X188351068Y-79885470D01*
X188354590Y-79907706D01*
X188364808Y-79927759D01*
X188372374Y-79946024D01*
X188379329Y-79967431D01*
X188379331Y-79967435D01*
X188392562Y-79985645D01*
X188402891Y-80002501D01*
X188413108Y-80022551D01*
X188436034Y-80045477D01*
X188499738Y-80109181D01*
X188518028Y-80127471D01*
X188552054Y-80189783D01*
X188554933Y-80216566D01*
X188554932Y-81618125D01*
X188546606Y-81663168D01*
X188261603Y-82407727D01*
X188261602Y-82407728D01*
X188259219Y-82421092D01*
X188254107Y-82440577D01*
X188221597Y-82533488D01*
X188221597Y-82533491D01*
X188221596Y-82533495D01*
X188202559Y-82702449D01*
X188221596Y-82871403D01*
X188221597Y-82871405D01*
X188277751Y-83031886D01*
X188277752Y-83031888D01*
X188368208Y-83175848D01*
X188368210Y-83175851D01*
X188488432Y-83296073D01*
X188628067Y-83383811D01*
X188632396Y-83386531D01*
X188673914Y-83401058D01*
X188693332Y-83409756D01*
X188703595Y-83415439D01*
X188703598Y-83415440D01*
X189013994Y-83514626D01*
X189256118Y-83591996D01*
X189299535Y-83618457D01*
X189300323Y-83617473D01*
X189303056Y-83619659D01*
X189306360Y-83622617D01*
X189306861Y-83622922D01*
X189308223Y-83624284D01*
X189308242Y-83624301D01*
X189329233Y-83645292D01*
X189349287Y-83655510D01*
X189366139Y-83665837D01*
X189384352Y-83679070D01*
X189405762Y-83686026D01*
X189424019Y-83693588D01*
X189444078Y-83703809D01*
X189457740Y-83705972D01*
X189466310Y-83707330D01*
X189485537Y-83711946D01*
X189506937Y-83718899D01*
X189536762Y-83718899D01*
X189536786Y-83718900D01*
X189539360Y-83718900D01*
X189686464Y-83718900D01*
X189691326Y-83719087D01*
X189697655Y-83719578D01*
X189697661Y-83719576D01*
X189707159Y-83719012D01*
X189710907Y-83718900D01*
X196690976Y-83718900D01*
X196883266Y-83718900D01*
X196951387Y-83738902D01*
X196972361Y-83755805D01*
X197193595Y-83977039D01*
X197227621Y-84039351D01*
X197230500Y-84066134D01*
X197230500Y-85780507D01*
X197225652Y-85815122D01*
X197096083Y-86268615D01*
X197058136Y-86328620D01*
X196993773Y-86358583D01*
X196974931Y-86360000D01*
X195194385Y-86360000D01*
X195126264Y-86339998D01*
X195079771Y-86286342D01*
X195069667Y-86216068D01*
X195082645Y-86178569D01*
X195081887Y-86178232D01*
X195084573Y-86172200D01*
X195160625Y-86001385D01*
X195199500Y-85818490D01*
X195199500Y-85631510D01*
X195160625Y-85448615D01*
X195084573Y-85277800D01*
X195084571Y-85277797D01*
X195084570Y-85277795D01*
X194974667Y-85126527D01*
X194835715Y-85001414D01*
X194835709Y-85001410D01*
X194673791Y-84907928D01*
X194673779Y-84907922D01*
X194495961Y-84850146D01*
X194495958Y-84850145D01*
X194495956Y-84850145D01*
X194409434Y-84841051D01*
X194356623Y-84835500D01*
X194356620Y-84835500D01*
X189309925Y-84835500D01*
X189290215Y-84833949D01*
X189276806Y-84831825D01*
X189234258Y-84834056D01*
X189208334Y-84835414D01*
X189205064Y-84835500D01*
X189183380Y-84835500D01*
X189183376Y-84835500D01*
X189183364Y-84835501D01*
X189161812Y-84837766D01*
X189158527Y-84838024D01*
X189090086Y-84841611D01*
X189076975Y-84845124D01*
X189057545Y-84848725D01*
X189044048Y-84850144D01*
X189044045Y-84850144D01*
X189044044Y-84850145D01*
X189006118Y-84862467D01*
X188978850Y-84871327D01*
X188975693Y-84872262D01*
X188967717Y-84874399D01*
X188909471Y-84890006D01*
X188909469Y-84890007D01*
X188897375Y-84896169D01*
X188879131Y-84903727D01*
X188866215Y-84907925D01*
X188806841Y-84942203D01*
X188803945Y-84943775D01*
X188742875Y-84974893D01*
X188732329Y-84983433D01*
X188716044Y-84994625D01*
X188704288Y-85001412D01*
X188704285Y-85001414D01*
X188653344Y-85047281D01*
X188650839Y-85049420D01*
X188633995Y-85063061D01*
X188633992Y-85063063D01*
X188618657Y-85078398D01*
X188616267Y-85080665D01*
X188565330Y-85126529D01*
X188557346Y-85137518D01*
X188544511Y-85152544D01*
X188215256Y-85481800D01*
X188209052Y-85487240D01*
X188190281Y-85501642D01*
X188154997Y-85541869D01*
X188152182Y-85544874D01*
X187387545Y-86309510D01*
X187372517Y-86322347D01*
X187356191Y-86334210D01*
X187354801Y-86332297D01*
X187300530Y-86358351D01*
X187280212Y-86360000D01*
X185029633Y-86360000D01*
X184961512Y-86339998D01*
X184915019Y-86286342D01*
X184904915Y-86216068D01*
X184934409Y-86151488D01*
X184940538Y-86144904D01*
X184976053Y-86109389D01*
X185222366Y-85863077D01*
X185222366Y-85863076D01*
X185245292Y-85840151D01*
X185255510Y-85820094D01*
X185265834Y-85803247D01*
X185279070Y-85785032D01*
X185286025Y-85763623D01*
X185293590Y-85745359D01*
X185303809Y-85725306D01*
X185307331Y-85703064D01*
X185311943Y-85683856D01*
X185318900Y-85662446D01*
X185318900Y-85533554D01*
X185318900Y-85285320D01*
X185327226Y-85240278D01*
X185612228Y-84495724D01*
X185614611Y-84482356D01*
X185619718Y-84462883D01*
X185652237Y-84369954D01*
X185671274Y-84201000D01*
X185652237Y-84032046D01*
X185596082Y-83871563D01*
X185505624Y-83727600D01*
X185505622Y-83727597D01*
X185382532Y-83604507D01*
X185348506Y-83542195D01*
X185353571Y-83471380D01*
X185385032Y-83428076D01*
X185382945Y-83425989D01*
X185508170Y-83300763D01*
X185508172Y-83300761D01*
X185598630Y-83156798D01*
X185654785Y-82996315D01*
X185673822Y-82827361D01*
X185654785Y-82658407D01*
X185625544Y-82574843D01*
X185619590Y-82549953D01*
X185619136Y-82546561D01*
X185618484Y-82541689D01*
X185600045Y-82487761D01*
X185506784Y-82215007D01*
X185503671Y-82144079D01*
X185539398Y-82082727D01*
X185602624Y-82050431D01*
X185673273Y-82057443D01*
X185693043Y-82067555D01*
X185721372Y-82085355D01*
X185771563Y-82116892D01*
X185932046Y-82173047D01*
X186101000Y-82192084D01*
X186269954Y-82173047D01*
X186430437Y-82116892D01*
X186574400Y-82026434D01*
X186694624Y-81906210D01*
X186785082Y-81762247D01*
X186841237Y-81601764D01*
X186860274Y-81432810D01*
X186841237Y-81263856D01*
X186836557Y-81250481D01*
X186818501Y-81198880D01*
X186813409Y-81173189D01*
X186812727Y-81173295D01*
X186811784Y-81167179D01*
X186811784Y-81167176D01*
X186644948Y-80516784D01*
X186619446Y-80417367D01*
X186615495Y-80386060D01*
X186615495Y-80252003D01*
X186635497Y-80183882D01*
X186689153Y-80137389D01*
X186759427Y-80127285D01*
X186817427Y-80151453D01*
X186821837Y-80154783D01*
X186995796Y-80262493D01*
X186995803Y-80262496D01*
X187186577Y-80336403D01*
X187186576Y-80336403D01*
X187387701Y-80374000D01*
X187592299Y-80374000D01*
X187793420Y-80336404D01*
X187793420Y-80336403D01*
X187825539Y-80323960D01*
X187825540Y-80323959D01*
X187285449Y-79783868D01*
X187414404Y-79820000D01*
X187527622Y-79820000D01*
X187639783Y-79804584D01*
X187778458Y-79744349D01*
X187895739Y-79648934D01*
X187982928Y-79525415D01*
X188033559Y-79382953D01*
X188043877Y-79232114D01*
X188013116Y-79084085D01*
X188003018Y-79064598D01*
X188302595Y-79364174D01*
G37*
G04 #@! TD.AperFunction*
G04 #@! TA.AperFunction,Conductor*
G36*
X199687621Y-70274502D02*
G01*
X199734114Y-70328158D01*
X199745500Y-70380500D01*
X199745500Y-86234000D01*
X199725498Y-86302121D01*
X199671842Y-86348614D01*
X199619500Y-86360000D01*
X199265069Y-86360000D01*
X199196948Y-86339998D01*
X199150455Y-86286342D01*
X199143917Y-86268615D01*
X199014348Y-85815123D01*
X199009500Y-85780508D01*
X199009500Y-78693382D01*
X199009500Y-78693380D01*
X198994855Y-78554044D01*
X198949353Y-78414002D01*
X198937077Y-78376220D01*
X198937071Y-78376208D01*
X198843589Y-78214290D01*
X198843585Y-78214284D01*
X198718472Y-78075332D01*
X198567204Y-77965429D01*
X198562777Y-77963458D01*
X198396385Y-77889375D01*
X198328473Y-77874940D01*
X198213491Y-77850500D01*
X198213490Y-77850500D01*
X198026510Y-77850500D01*
X198026509Y-77850500D01*
X197911522Y-77874940D01*
X197840731Y-77869537D01*
X197796231Y-77840788D01*
X197714643Y-77759200D01*
X197631477Y-77676034D01*
X197608551Y-77653108D01*
X197588501Y-77642891D01*
X197571645Y-77632562D01*
X197553435Y-77619331D01*
X197553431Y-77619329D01*
X197532024Y-77612374D01*
X197513759Y-77604808D01*
X197493706Y-77594590D01*
X197471470Y-77591068D01*
X197452255Y-77586455D01*
X197430846Y-77579500D01*
X197398424Y-77579500D01*
X196770186Y-77579500D01*
X196702065Y-77559498D01*
X196655572Y-77505842D01*
X196645468Y-77435568D01*
X196664511Y-77384879D01*
X196666404Y-77381964D01*
X196693429Y-77340347D01*
X196695260Y-77337684D01*
X196735573Y-77282200D01*
X196741094Y-77269796D01*
X196750527Y-77252425D01*
X196757916Y-77241049D01*
X196782492Y-77177023D01*
X196783742Y-77174009D01*
X196811625Y-77111385D01*
X196814445Y-77098112D01*
X196820061Y-77079152D01*
X196824924Y-77066488D01*
X196835652Y-76998744D01*
X196836242Y-76995563D01*
X196850500Y-76928490D01*
X196850500Y-76914924D01*
X196852051Y-76895212D01*
X196854174Y-76881810D01*
X196850584Y-76813336D01*
X196850499Y-76810060D01*
X196850499Y-76781648D01*
X196850500Y-76741510D01*
X196847678Y-76728232D01*
X196845098Y-76708627D01*
X196844388Y-76695090D01*
X196844388Y-76695085D01*
X196826646Y-76628875D01*
X196825878Y-76625675D01*
X196824831Y-76620748D01*
X196811625Y-76558615D01*
X196806102Y-76546210D01*
X196799508Y-76527590D01*
X196795994Y-76514475D01*
X196764873Y-76453398D01*
X196763460Y-76450437D01*
X196735573Y-76387800D01*
X196727595Y-76376820D01*
X196717268Y-76359966D01*
X196711107Y-76347875D01*
X196711104Y-76347871D01*
X196711102Y-76347867D01*
X196679130Y-76308387D01*
X196667955Y-76294587D01*
X196665972Y-76292003D01*
X196625669Y-76236530D01*
X196625668Y-76236529D01*
X196625666Y-76236526D01*
X196574711Y-76190647D01*
X196572337Y-76188394D01*
X193623405Y-73239462D01*
X193589379Y-73177150D01*
X193586500Y-73150367D01*
X193586500Y-72273292D01*
X193586499Y-72273267D01*
X193586499Y-70522936D01*
X193586498Y-70522927D01*
X193581644Y-70498527D01*
X193571734Y-70448699D01*
X193571732Y-70448696D01*
X193566985Y-70437233D01*
X193568577Y-70436573D01*
X193551724Y-70382747D01*
X193570508Y-70314280D01*
X193623326Y-70266838D01*
X193677704Y-70254500D01*
X199619500Y-70254500D01*
X199687621Y-70274502D01*
G37*
G04 #@! TD.AperFunction*
G04 #@! TA.AperFunction,Conductor*
G36*
X167841045Y-81020420D02*
G01*
X167887538Y-81074076D01*
X167898132Y-81140524D01*
X167897593Y-81145313D01*
X167896726Y-81153004D01*
X167915763Y-81321958D01*
X167960201Y-81448956D01*
X167971918Y-81482441D01*
X167971919Y-81482443D01*
X168062374Y-81626402D01*
X168062375Y-81626403D01*
X168062376Y-81626404D01*
X168136936Y-81700964D01*
X168140247Y-81704543D01*
X168141483Y-81705988D01*
X168152248Y-81718577D01*
X168152252Y-81718581D01*
X168160139Y-81724791D01*
X168165708Y-81729736D01*
X168182600Y-81746628D01*
X168205918Y-81761279D01*
X168211338Y-81765100D01*
X168925008Y-82326981D01*
X168925020Y-82326987D01*
X168927310Y-82328500D01*
X168944149Y-82341807D01*
X168974982Y-82370763D01*
X168976401Y-82372139D01*
X168996897Y-82392635D01*
X169002468Y-82396956D01*
X169006982Y-82400812D01*
X169041490Y-82433217D01*
X169041493Y-82433219D01*
X169041495Y-82433220D01*
X169059324Y-82443022D01*
X169075847Y-82453875D01*
X169091929Y-82466349D01*
X169135371Y-82485148D01*
X169140703Y-82487761D01*
X169182189Y-82510567D01*
X169182190Y-82510567D01*
X169182193Y-82510569D01*
X169201914Y-82515632D01*
X169220616Y-82522037D01*
X169239285Y-82530116D01*
X169239286Y-82530116D01*
X169239288Y-82530117D01*
X169269449Y-82534893D01*
X169286044Y-82537522D01*
X169291856Y-82538724D01*
X169337714Y-82550500D01*
X169358062Y-82550500D01*
X169377771Y-82552050D01*
X169397875Y-82555235D01*
X169432010Y-82552008D01*
X169445007Y-82550780D01*
X169450940Y-82550500D01*
X173989772Y-82550500D01*
X174014353Y-82552920D01*
X174024806Y-82555000D01*
X174161066Y-82555000D01*
X174190122Y-82558396D01*
X174290636Y-82582217D01*
X174308341Y-82587819D01*
X174316187Y-82590955D01*
X174319985Y-82592109D01*
X174337279Y-82595789D01*
X174363206Y-82601308D01*
X174363210Y-82601309D01*
X174363213Y-82601309D01*
X174363221Y-82601311D01*
X174949548Y-82674646D01*
X175014656Y-82702947D01*
X175054131Y-82761958D01*
X175055435Y-82832943D01*
X175023003Y-82888766D01*
X174357776Y-83553995D01*
X174295463Y-83588020D01*
X174268680Y-83590900D01*
X169614864Y-83590900D01*
X169614840Y-83590901D01*
X169585013Y-83590901D01*
X169563615Y-83597853D01*
X169544400Y-83602467D01*
X169525744Y-83605422D01*
X169522156Y-83605991D01*
X169522155Y-83605991D01*
X169522153Y-83605992D01*
X169502090Y-83616214D01*
X169483835Y-83623775D01*
X169478700Y-83625444D01*
X169462429Y-83630731D01*
X169444216Y-83643963D01*
X169427371Y-83654285D01*
X169407312Y-83664506D01*
X169407307Y-83664510D01*
X169392750Y-83679068D01*
X169384387Y-83687431D01*
X169384384Y-83687434D01*
X168672938Y-84398881D01*
X167968424Y-85103395D01*
X167906112Y-85137420D01*
X167879329Y-85140300D01*
X162246332Y-85140300D01*
X162178211Y-85120298D01*
X162131718Y-85066642D01*
X162121614Y-84996368D01*
X162151108Y-84931788D01*
X162157237Y-84925204D01*
X162232296Y-84850146D01*
X163961639Y-83120804D01*
X164023952Y-83086779D01*
X164050735Y-83083900D01*
X164783444Y-83083900D01*
X164783446Y-83083900D01*
X164804856Y-83076943D01*
X164824064Y-83072331D01*
X164846306Y-83068809D01*
X164866359Y-83058590D01*
X164884623Y-83051025D01*
X164906032Y-83044070D01*
X164924240Y-83030840D01*
X164941098Y-83020509D01*
X164961151Y-83010292D01*
X165052292Y-82919151D01*
X165111787Y-82859656D01*
X165111798Y-82859643D01*
X166934122Y-81037320D01*
X166996432Y-81003297D01*
X167023215Y-81000418D01*
X167772924Y-81000418D01*
X167841045Y-81020420D01*
G37*
G04 #@! TD.AperFunction*
G04 #@! TA.AperFunction,Conductor*
G36*
X190823392Y-80163879D02*
G01*
X190868977Y-80218308D01*
X190879500Y-80268717D01*
X190879500Y-80606846D01*
X190879499Y-80606846D01*
X190886455Y-80628255D01*
X190891068Y-80647470D01*
X190894590Y-80669706D01*
X190904808Y-80689759D01*
X190912374Y-80708024D01*
X190919329Y-80729431D01*
X190919331Y-80729435D01*
X190932562Y-80747645D01*
X190942891Y-80764501D01*
X190953108Y-80784551D01*
X190976034Y-80807477D01*
X191309708Y-81141151D01*
X191355857Y-81187300D01*
X191400849Y-81232292D01*
X191420897Y-81242507D01*
X191437755Y-81252837D01*
X191455968Y-81266070D01*
X191477375Y-81273025D01*
X191495637Y-81280589D01*
X191515694Y-81290809D01*
X191537933Y-81294331D01*
X191557140Y-81298942D01*
X191578554Y-81305900D01*
X191610976Y-81305900D01*
X196883267Y-81305900D01*
X196951388Y-81325902D01*
X196972361Y-81342804D01*
X197088208Y-81458651D01*
X197111133Y-81481576D01*
X197111134Y-81481577D01*
X197193597Y-81564040D01*
X197227620Y-81626348D01*
X197230500Y-81653132D01*
X197230500Y-82557865D01*
X197210498Y-82625986D01*
X197193595Y-82646960D01*
X197078599Y-82761958D01*
X196972362Y-82868195D01*
X196910050Y-82902220D01*
X196883266Y-82905100D01*
X189963013Y-82905100D01*
X189894892Y-82885098D01*
X189848399Y-82831442D01*
X189847699Y-82829881D01*
X189695889Y-82485148D01*
X189665873Y-82416988D01*
X189665872Y-82416987D01*
X189664465Y-82413791D01*
X189663285Y-82410922D01*
X189579517Y-82192083D01*
X189484525Y-81943919D01*
X189377059Y-81663169D01*
X189368733Y-81618126D01*
X189368733Y-80381710D01*
X189388735Y-80313589D01*
X189442391Y-80267096D01*
X189512665Y-80256992D01*
X189540250Y-80264219D01*
X189726577Y-80336403D01*
X189726576Y-80336403D01*
X189927701Y-80374000D01*
X190132299Y-80374000D01*
X190333423Y-80336403D01*
X190524196Y-80262496D01*
X190524203Y-80262493D01*
X190687170Y-80161589D01*
X190755617Y-80142735D01*
X190823392Y-80163879D01*
G37*
G04 #@! TD.AperFunction*
G04 #@! TA.AperFunction,Conductor*
G36*
X197192071Y-78413302D02*
G01*
X197238564Y-78466958D01*
X197248668Y-78537232D01*
X197246270Y-78547537D01*
X197246517Y-78547590D01*
X197245144Y-78554045D01*
X197230500Y-78693376D01*
X197230500Y-80144865D01*
X197210498Y-80212986D01*
X197193595Y-80233960D01*
X197168295Y-80259261D01*
X197138700Y-80288855D01*
X197119819Y-80307737D01*
X197119817Y-80307740D01*
X196972360Y-80455196D01*
X196910051Y-80489220D01*
X196883267Y-80492100D01*
X193713184Y-80492100D01*
X193645063Y-80472098D01*
X193598570Y-80418442D01*
X193588466Y-80348168D01*
X193608420Y-80296097D01*
X193625100Y-80271134D01*
X193659734Y-80219301D01*
X193674500Y-80145067D01*
X193674499Y-78519299D01*
X193694501Y-78451179D01*
X193748157Y-78404686D01*
X193800499Y-78393300D01*
X197123950Y-78393300D01*
X197192071Y-78413302D01*
G37*
G04 #@! TD.AperFunction*
G04 #@! TA.AperFunction,Conductor*
G36*
X186946441Y-79157047D02*
G01*
X186936123Y-79307886D01*
X186966884Y-79455915D01*
X186976979Y-79475398D01*
X186860675Y-79359094D01*
X186826649Y-79296782D01*
X186831714Y-79225967D01*
X186860675Y-79180904D01*
X186980574Y-79061004D01*
X186946441Y-79157047D01*
G37*
G04 #@! TD.AperFunction*
G04 #@! TA.AperFunction,Conductor*
G36*
X151974031Y-78611713D02*
G01*
X152019094Y-78640674D01*
X152134551Y-78756131D01*
X152005596Y-78720000D01*
X151892378Y-78720000D01*
X151780217Y-78735416D01*
X151720010Y-78761567D01*
X151840904Y-78640674D01*
X151903216Y-78606649D01*
X151974031Y-78611713D01*
G37*
G04 #@! TD.AperFunction*
G04 #@! TA.AperFunction,Conductor*
G36*
X187534031Y-78611714D02*
G01*
X187579094Y-78640674D01*
X187694551Y-78756131D01*
X187565596Y-78720000D01*
X187452378Y-78720000D01*
X187340217Y-78735416D01*
X187280012Y-78761566D01*
X187400904Y-78640675D01*
X187463216Y-78606649D01*
X187534031Y-78611714D01*
G37*
G04 #@! TD.AperFunction*
G04 #@! TA.AperFunction,Conductor*
G36*
X175007543Y-81424872D02*
G01*
X175011879Y-81432707D01*
X175011953Y-81434000D01*
X175012927Y-81920950D01*
X175011953Y-82407698D01*
X175008510Y-82415965D01*
X175000230Y-82419375D01*
X174998801Y-82419285D01*
X174395427Y-82343817D01*
X174391629Y-82342663D01*
X174379568Y-82336607D01*
X174379567Y-82336606D01*
X174379566Y-82336606D01*
X174206123Y-82295500D01*
X174024806Y-82295500D01*
X174016533Y-82292073D01*
X174013106Y-82283800D01*
X174013106Y-81544450D01*
X174016533Y-81536177D01*
X174023488Y-81532824D01*
X174998938Y-81422397D01*
X175007543Y-81424872D01*
G37*
G04 #@! TD.AperFunction*
G04 #@! TA.AperFunction,Conductor*
G36*
X146351648Y-86111765D02*
G01*
X146357508Y-86118536D01*
X146358105Y-86122225D01*
X146358105Y-86408430D01*
X146357175Y-86413001D01*
X146316334Y-86509227D01*
X146312064Y-86514384D01*
X146247516Y-86557515D01*
X146247515Y-86557516D01*
X146191266Y-86641698D01*
X146176500Y-86715933D01*
X146176500Y-86836329D01*
X146175570Y-86840900D01*
X145673687Y-88023440D01*
X145667300Y-88029717D01*
X145658346Y-88029639D01*
X145658076Y-88029521D01*
X144783419Y-87632008D01*
X144777305Y-87625465D01*
X144777300Y-87625451D01*
X144451067Y-86752370D01*
X144451381Y-86743421D01*
X144457932Y-86737315D01*
X144458286Y-86737190D01*
X146342717Y-86111122D01*
X146351648Y-86111765D01*
G37*
G04 #@! TD.AperFunction*
G04 #@! TA.AperFunction,Conductor*
G36*
X181751586Y-86007610D02*
G01*
X181755381Y-86010146D01*
X181959853Y-86214618D01*
X181963280Y-86222891D01*
X181962390Y-86227368D01*
X181833961Y-86537473D01*
X181829652Y-86542724D01*
X181807515Y-86557517D01*
X181751266Y-86641698D01*
X181736499Y-86715933D01*
X181736499Y-86770481D01*
X181735609Y-86774958D01*
X181233472Y-87987435D01*
X181227140Y-87993767D01*
X181218195Y-87993772D01*
X180343784Y-87632562D01*
X180337446Y-87626236D01*
X180337437Y-87626215D01*
X179976227Y-86751804D01*
X179976236Y-86742849D01*
X179982563Y-86736527D01*
X181742634Y-86007609D01*
X181751586Y-86007610D01*
G37*
G04 #@! TD.AperFunction*
G04 #@! TA.AperFunction,Conductor*
G36*
X169051586Y-86007610D02*
G01*
X169055381Y-86010146D01*
X169259853Y-86214618D01*
X169263280Y-86222891D01*
X169262390Y-86227368D01*
X169133961Y-86537473D01*
X169129652Y-86542724D01*
X169107515Y-86557517D01*
X169051266Y-86641698D01*
X169036500Y-86715933D01*
X169036500Y-86770481D01*
X169035610Y-86774958D01*
X168533472Y-87987435D01*
X168527140Y-87993767D01*
X168518195Y-87993772D01*
X167643784Y-87632562D01*
X167637446Y-87626236D01*
X167637437Y-87626215D01*
X167276227Y-86751804D01*
X167276236Y-86742849D01*
X167282563Y-86736527D01*
X167820392Y-86513790D01*
X167824870Y-86512900D01*
X168395971Y-86512900D01*
X168395971Y-86512899D01*
X168425930Y-86503165D01*
X168427710Y-86502737D01*
X168458830Y-86497809D01*
X168458835Y-86497807D01*
X168486901Y-86483505D01*
X168488578Y-86482809D01*
X168518556Y-86473070D01*
X168544053Y-86454543D01*
X168545600Y-86453596D01*
X168573675Y-86439292D01*
X168664816Y-86348151D01*
X168664815Y-86348151D01*
X168977365Y-86035601D01*
X168981147Y-86033073D01*
X169042634Y-86007609D01*
X169051586Y-86007610D01*
G37*
G04 #@! TD.AperFunction*
G04 #@! TA.AperFunction,Conductor*
G36*
X115292484Y-84045723D02*
G01*
X115298984Y-84051880D01*
X115300000Y-84056649D01*
X115300000Y-84345350D01*
X115296573Y-84353623D01*
X115292483Y-84356277D01*
X114501956Y-84658876D01*
X114493004Y-84658633D01*
X114486972Y-84652446D01*
X114300871Y-84205495D01*
X114300855Y-84196544D01*
X114486973Y-83749551D01*
X114493316Y-83743232D01*
X114501956Y-83743123D01*
X115292484Y-84045723D01*
G37*
G04 #@! TD.AperFunction*
G04 #@! TA.AperFunction,Conductor*
G36*
X190789163Y-75033427D02*
G01*
X190792574Y-75041095D01*
X190879363Y-76717709D01*
X190876369Y-76726148D01*
X190868284Y-76729998D01*
X190867693Y-76730014D01*
X190029999Y-76730999D01*
X189192306Y-76730014D01*
X189184037Y-76726577D01*
X189180620Y-76718300D01*
X189180636Y-76717709D01*
X189267426Y-75041095D01*
X189271276Y-75033010D01*
X189279110Y-75030000D01*
X190780890Y-75030000D01*
X190789163Y-75033427D01*
G37*
G04 #@! TD.AperFunction*
G04 #@! TA.AperFunction,Conductor*
G36*
X174280990Y-86086508D02*
G01*
X174286936Y-86093204D01*
X174287580Y-86097033D01*
X174287580Y-86383078D01*
X174286693Y-86387546D01*
X174228866Y-86527507D01*
X174224553Y-86532767D01*
X174187516Y-86557515D01*
X174187515Y-86557516D01*
X174131266Y-86641698D01*
X174116500Y-86715933D01*
X174116500Y-86797154D01*
X174115613Y-86801622D01*
X173613596Y-88016687D01*
X173607270Y-88023024D01*
X173598315Y-88023032D01*
X173598009Y-88022901D01*
X172723432Y-87631981D01*
X172717277Y-87625476D01*
X172717272Y-87625462D01*
X172384804Y-86752270D01*
X172385062Y-86743321D01*
X172391575Y-86737175D01*
X172391873Y-86737065D01*
X174272052Y-86085977D01*
X174280990Y-86086508D01*
G37*
G04 #@! TD.AperFunction*
G04 #@! TA.AperFunction,Conductor*
G36*
X184291586Y-86007610D02*
G01*
X184295381Y-86010146D01*
X184499853Y-86214618D01*
X184503280Y-86222891D01*
X184502390Y-86227368D01*
X184373961Y-86537473D01*
X184369652Y-86542724D01*
X184347515Y-86557517D01*
X184291266Y-86641698D01*
X184276500Y-86715933D01*
X184276500Y-86770481D01*
X184275610Y-86774958D01*
X183773472Y-87987435D01*
X183767140Y-87993767D01*
X183758195Y-87993772D01*
X182883784Y-87632562D01*
X182877446Y-87626236D01*
X182877437Y-87626215D01*
X182516227Y-86751804D01*
X182516236Y-86742849D01*
X182522563Y-86736527D01*
X184282634Y-86007609D01*
X184291586Y-86007610D01*
G37*
G04 #@! TD.AperFunction*
G04 #@! TA.AperFunction,Conductor*
G36*
X122912484Y-81124723D02*
G01*
X122918984Y-81130880D01*
X122920000Y-81135649D01*
X122920000Y-81424350D01*
X122916573Y-81432623D01*
X122912483Y-81435277D01*
X122121956Y-81737876D01*
X122113004Y-81737633D01*
X122106972Y-81731446D01*
X121920871Y-81284495D01*
X121920855Y-81275544D01*
X122106973Y-80828551D01*
X122113316Y-80822232D01*
X122121956Y-80822123D01*
X122912484Y-81124723D01*
G37*
G04 #@! TD.AperFunction*
G04 #@! TA.AperFunction,Conductor*
G36*
X155229163Y-75033427D02*
G01*
X155232574Y-75041095D01*
X155319363Y-76717709D01*
X155316369Y-76726148D01*
X155308284Y-76729998D01*
X155307693Y-76730014D01*
X154469999Y-76730999D01*
X153632306Y-76730014D01*
X153624037Y-76726577D01*
X153620620Y-76718300D01*
X153620636Y-76717709D01*
X153707426Y-75041095D01*
X153711276Y-75033010D01*
X153719110Y-75030000D01*
X155220890Y-75030000D01*
X155229163Y-75033427D01*
G37*
G04 #@! TD.AperFunction*
G04 #@! TA.AperFunction,Conductor*
G36*
X141111586Y-86007610D02*
G01*
X141115381Y-86010146D01*
X141319853Y-86214618D01*
X141323280Y-86222891D01*
X141322390Y-86227368D01*
X141193961Y-86537473D01*
X141189652Y-86542724D01*
X141167515Y-86557517D01*
X141111266Y-86641698D01*
X141096500Y-86715933D01*
X141096500Y-86770481D01*
X141095610Y-86774958D01*
X140593472Y-87987435D01*
X140587140Y-87993767D01*
X140578195Y-87993772D01*
X139703784Y-87632562D01*
X139697446Y-87626236D01*
X139697437Y-87626215D01*
X139336227Y-86751804D01*
X139336236Y-86742849D01*
X139342563Y-86736527D01*
X141102634Y-86007609D01*
X141111586Y-86007610D01*
G37*
G04 #@! TD.AperFunction*
G04 #@! TA.AperFunction,Conductor*
G36*
X163855916Y-76409349D02*
G01*
X164626215Y-76727438D01*
X164632552Y-76733761D01*
X164632562Y-76733785D01*
X164950643Y-77504067D01*
X164950634Y-77513022D01*
X164944295Y-77519347D01*
X164943884Y-77519508D01*
X163542710Y-78037246D01*
X163533762Y-78036899D01*
X163530382Y-78034544D01*
X163325455Y-77829617D01*
X163322028Y-77821344D01*
X163322753Y-77817289D01*
X163432844Y-77519347D01*
X163840491Y-76416114D01*
X163846573Y-76409542D01*
X163855521Y-76409195D01*
X163855916Y-76409349D01*
G37*
G04 #@! TD.AperFunction*
G04 #@! TA.AperFunction,Conductor*
G36*
X102360126Y-85855427D02*
G01*
X102363435Y-85862045D01*
X102488173Y-86735212D01*
X102485951Y-86743887D01*
X102484869Y-86745135D01*
X101608278Y-87622712D01*
X101600007Y-87626144D01*
X101591732Y-87622722D01*
X101591722Y-87622713D01*
X101591721Y-87622712D01*
X100715129Y-86745133D01*
X100711708Y-86736860D01*
X100711825Y-86735224D01*
X100836565Y-85862044D01*
X100841127Y-85854340D01*
X100848147Y-85852000D01*
X102351853Y-85852000D01*
X102360126Y-85855427D01*
G37*
G04 #@! TD.AperFunction*
G04 #@! TA.AperFunction,Conductor*
G36*
X182414484Y-79270863D02*
G01*
X183184078Y-79590619D01*
X183190403Y-79596958D01*
X183190394Y-79605913D01*
X183190217Y-79606317D01*
X182565534Y-80963193D01*
X182558961Y-80969275D01*
X182554906Y-80970000D01*
X182265094Y-80970000D01*
X182256821Y-80966573D01*
X182254466Y-80963193D01*
X181629781Y-79606315D01*
X181629435Y-79597369D01*
X181635517Y-79590796D01*
X181635892Y-79590631D01*
X182405511Y-79270864D01*
X182414466Y-79270856D01*
X182414484Y-79270863D01*
G37*
G04 #@! TD.AperFunction*
G04 #@! TA.AperFunction,Conductor*
G36*
X189437251Y-76137359D02*
G01*
X189438344Y-76138322D01*
X190030717Y-76729303D01*
X190621677Y-77321655D01*
X190625094Y-77329932D01*
X190621657Y-77338201D01*
X190620564Y-77339164D01*
X189285080Y-78374774D01*
X189276442Y-78377136D01*
X189269637Y-78373801D01*
X188386198Y-77490362D01*
X188382771Y-77482089D01*
X188385223Y-77474923D01*
X189420835Y-76139434D01*
X189428613Y-76134997D01*
X189437251Y-76137359D01*
G37*
G04 #@! TD.AperFunction*
G04 #@! TA.AperFunction,Conductor*
G36*
X180629163Y-75033427D02*
G01*
X180632574Y-75041095D01*
X180719363Y-76717709D01*
X180716369Y-76726148D01*
X180708284Y-76729998D01*
X180707693Y-76730014D01*
X179869999Y-76730999D01*
X179032306Y-76730014D01*
X179024037Y-76726577D01*
X179020620Y-76718300D01*
X179020636Y-76717709D01*
X179107426Y-75041095D01*
X179111276Y-75033010D01*
X179119110Y-75030000D01*
X180620890Y-75030000D01*
X180629163Y-75033427D01*
G37*
G04 #@! TD.AperFunction*
G04 #@! TA.AperFunction,Conductor*
G36*
X163971586Y-86007610D02*
G01*
X163975381Y-86010146D01*
X164179853Y-86214618D01*
X164183280Y-86222891D01*
X164182390Y-86227368D01*
X164053961Y-86537473D01*
X164049652Y-86542724D01*
X164027515Y-86557517D01*
X163971266Y-86641698D01*
X163956500Y-86715933D01*
X163956500Y-86770481D01*
X163955610Y-86774958D01*
X163453472Y-87987435D01*
X163447140Y-87993767D01*
X163438195Y-87993772D01*
X162563784Y-87632562D01*
X162557446Y-87626236D01*
X162557437Y-87626215D01*
X162196227Y-86751804D01*
X162196236Y-86742849D01*
X162202563Y-86736527D01*
X163962634Y-86007609D01*
X163971586Y-86007610D01*
G37*
G04 #@! TD.AperFunction*
G04 #@! TA.AperFunction,Conductor*
G36*
X177334484Y-79270863D02*
G01*
X178104078Y-79590619D01*
X178110403Y-79596958D01*
X178110394Y-79605913D01*
X178110217Y-79606317D01*
X177485534Y-80963193D01*
X177478961Y-80969275D01*
X177474906Y-80970000D01*
X177185094Y-80970000D01*
X177176821Y-80966573D01*
X177174466Y-80963193D01*
X176549781Y-79606315D01*
X176549435Y-79597369D01*
X176555517Y-79590796D01*
X176555892Y-79590631D01*
X177325511Y-79270864D01*
X177334466Y-79270856D01*
X177334484Y-79270863D01*
G37*
G04 #@! TD.AperFunction*
G04 #@! TA.AperFunction,Conductor*
G36*
X179874484Y-79270863D02*
G01*
X180643797Y-79590502D01*
X180650122Y-79596841D01*
X180650113Y-79605796D01*
X180649811Y-79606461D01*
X179987612Y-80955895D01*
X179980891Y-80961813D01*
X179977109Y-80962441D01*
X179687268Y-80962441D01*
X179678995Y-80959014D01*
X179676540Y-80955409D01*
X179089447Y-79606187D01*
X179089289Y-79597236D01*
X179095508Y-79590793D01*
X179095627Y-79590741D01*
X179865511Y-79270864D01*
X179874466Y-79270856D01*
X179874484Y-79270863D01*
G37*
G04 #@! TD.AperFunction*
G04 #@! TA.AperFunction,Conductor*
G36*
X108091586Y-86007610D02*
G01*
X108095381Y-86010146D01*
X108299853Y-86214618D01*
X108303280Y-86222891D01*
X108302390Y-86227368D01*
X108173961Y-86537473D01*
X108169652Y-86542724D01*
X108147515Y-86557517D01*
X108091266Y-86641698D01*
X108076500Y-86715933D01*
X108076500Y-86770481D01*
X108075610Y-86774958D01*
X107573472Y-87987435D01*
X107567140Y-87993767D01*
X107558195Y-87993772D01*
X106683784Y-87632562D01*
X106677446Y-87626236D01*
X106677437Y-87626215D01*
X106316227Y-86751804D01*
X106316236Y-86742849D01*
X106322563Y-86736527D01*
X108082634Y-86007609D01*
X108091586Y-86007610D01*
G37*
G04 #@! TD.AperFunction*
G04 #@! TA.AperFunction,Conductor*
G36*
X188249163Y-75033427D02*
G01*
X188252574Y-75041095D01*
X188339363Y-76717709D01*
X188336369Y-76726148D01*
X188328284Y-76729998D01*
X188327693Y-76730014D01*
X187490000Y-76730999D01*
X186652306Y-76730014D01*
X186644037Y-76726577D01*
X186640620Y-76718300D01*
X186640636Y-76717709D01*
X186727426Y-75041095D01*
X186731276Y-75033010D01*
X186739110Y-75030000D01*
X188240890Y-75030000D01*
X188249163Y-75033427D01*
G37*
G04 #@! TD.AperFunction*
G04 #@! TA.AperFunction,Conductor*
G36*
X189114456Y-81705876D02*
G01*
X189117110Y-81709966D01*
X189419709Y-82500492D01*
X189419466Y-82509444D01*
X189413279Y-82515476D01*
X188966330Y-82701576D01*
X188957376Y-82701593D01*
X188957336Y-82701576D01*
X188510386Y-82515476D01*
X188504065Y-82509132D01*
X188503956Y-82500492D01*
X188806556Y-81709966D01*
X188812714Y-81703465D01*
X188817483Y-81702449D01*
X189106183Y-81702449D01*
X189114456Y-81705876D01*
G37*
G04 #@! TD.AperFunction*
G04 #@! TA.AperFunction,Conductor*
G36*
X113054732Y-76205725D02*
G01*
X113455294Y-76351753D01*
X114580141Y-76761825D01*
X114586740Y-76767878D01*
X114587126Y-76776824D01*
X114586949Y-76777281D01*
X114301892Y-77467837D01*
X114299342Y-77471654D01*
X113768341Y-78001671D01*
X113760065Y-78005090D01*
X113753079Y-78002767D01*
X113043729Y-77473508D01*
X113039148Y-77465814D01*
X113039026Y-77464131D01*
X113039026Y-76216718D01*
X113042453Y-76208445D01*
X113050726Y-76205018D01*
X113054732Y-76205725D01*
G37*
G04 #@! TD.AperFunction*
G04 #@! TA.AperFunction,Conductor*
G36*
X130739565Y-83599586D02*
G01*
X131187203Y-83784037D01*
X131193546Y-83790357D01*
X131193563Y-83790397D01*
X131378012Y-84238031D01*
X131377995Y-84246985D01*
X131371963Y-84253172D01*
X130599007Y-84598188D01*
X130590055Y-84598431D01*
X130585965Y-84595777D01*
X130381822Y-84391634D01*
X130378395Y-84383361D01*
X130379409Y-84378597D01*
X130724428Y-83605634D01*
X130730928Y-83599478D01*
X130739565Y-83599586D01*
G37*
G04 #@! TD.AperFunction*
G04 #@! TA.AperFunction,Conductor*
G36*
X178089163Y-75033427D02*
G01*
X178092574Y-75041095D01*
X178179363Y-76717709D01*
X178176369Y-76726148D01*
X178168284Y-76729998D01*
X178167693Y-76730014D01*
X177330000Y-76730999D01*
X176492306Y-76730014D01*
X176484037Y-76726577D01*
X176480620Y-76718300D01*
X176480636Y-76717709D01*
X176567426Y-75041095D01*
X176571276Y-75033010D01*
X176579110Y-75030000D01*
X178080890Y-75030000D01*
X178089163Y-75033427D01*
G37*
G04 #@! TD.AperFunction*
G04 #@! TA.AperFunction,Conductor*
G36*
X114295874Y-72266782D02*
G01*
X114299976Y-72274742D01*
X114300016Y-72275699D01*
X114301000Y-73025015D01*
X114300016Y-73774300D01*
X114296578Y-73782569D01*
X114288301Y-73785985D01*
X114287344Y-73785945D01*
X112786728Y-73660894D01*
X112778768Y-73656792D01*
X112776000Y-73649234D01*
X112776000Y-72400766D01*
X112779427Y-72392493D01*
X112786728Y-72389106D01*
X112786727Y-72389106D01*
X114287345Y-72264054D01*
X114295874Y-72266782D01*
G37*
G04 #@! TD.AperFunction*
G04 #@! TA.AperFunction,Conductor*
G36*
X162849163Y-75033427D02*
G01*
X162852574Y-75041095D01*
X162939363Y-76717709D01*
X162936369Y-76726148D01*
X162928284Y-76729998D01*
X162927693Y-76730014D01*
X162090000Y-76730999D01*
X161252306Y-76730014D01*
X161244037Y-76726577D01*
X161240620Y-76718300D01*
X161240636Y-76717709D01*
X161327426Y-75041095D01*
X161331276Y-75033010D01*
X161339110Y-75030000D01*
X162840890Y-75030000D01*
X162849163Y-75033427D01*
G37*
G04 #@! TD.AperFunction*
G04 #@! TA.AperFunction,Conductor*
G36*
X177241527Y-82227745D02*
G01*
X177689252Y-82412232D01*
X177695595Y-82418552D01*
X177695612Y-82418592D01*
X177880018Y-82866124D01*
X177880001Y-82875078D01*
X177873865Y-82881311D01*
X177096267Y-83219388D01*
X177087314Y-83219544D01*
X177083329Y-83216931D01*
X176879179Y-83012781D01*
X176875752Y-83004508D01*
X176876808Y-82999650D01*
X176895701Y-82958258D01*
X176898064Y-82954855D01*
X177097015Y-82755905D01*
X177097016Y-82755902D01*
X177097671Y-82755248D01*
X177097676Y-82755241D01*
X177119941Y-82732978D01*
X177134245Y-82704903D01*
X177135199Y-82703348D01*
X177153718Y-82677859D01*
X177163456Y-82647886D01*
X177164147Y-82646217D01*
X177178458Y-82618133D01*
X177183386Y-82587008D01*
X177183815Y-82585225D01*
X177193548Y-82555274D01*
X177193548Y-82523103D01*
X177193549Y-82523078D01*
X177193549Y-82308282D01*
X177194604Y-82303426D01*
X177226429Y-82233704D01*
X177232981Y-82227602D01*
X177241527Y-82227745D01*
G37*
G04 #@! TD.AperFunction*
G04 #@! TA.AperFunction,Conductor*
G36*
X157769163Y-75033427D02*
G01*
X157772574Y-75041095D01*
X157859363Y-76717709D01*
X157856369Y-76726148D01*
X157848284Y-76729998D01*
X157847693Y-76730014D01*
X157010000Y-76730999D01*
X156172306Y-76730014D01*
X156164037Y-76726577D01*
X156160620Y-76718300D01*
X156160636Y-76717709D01*
X156247426Y-75041095D01*
X156251276Y-75033010D01*
X156259110Y-75030000D01*
X157760890Y-75030000D01*
X157769163Y-75033427D01*
G37*
G04 #@! TD.AperFunction*
G04 #@! TA.AperFunction,Conductor*
G36*
X170469163Y-75033427D02*
G01*
X170472574Y-75041095D01*
X170559363Y-76717709D01*
X170556369Y-76726148D01*
X170548284Y-76729998D01*
X170547693Y-76730014D01*
X169709999Y-76730999D01*
X168872306Y-76730014D01*
X168864037Y-76726577D01*
X168860620Y-76718300D01*
X168860636Y-76717709D01*
X168947426Y-75041095D01*
X168951276Y-75033010D01*
X168959110Y-75030000D01*
X170460890Y-75030000D01*
X170469163Y-75033427D01*
G37*
G04 #@! TD.AperFunction*
G04 #@! TA.AperFunction,Conductor*
G36*
X186360191Y-80457639D02*
G01*
X186363251Y-80463005D01*
X186560422Y-81231654D01*
X186559158Y-81240519D01*
X186553586Y-81245362D01*
X186105497Y-81431937D01*
X186096543Y-81431954D01*
X186096503Y-81431937D01*
X185650911Y-81246402D01*
X185644590Y-81240058D01*
X185644607Y-81231104D01*
X185645059Y-81230144D01*
X186052898Y-80460433D01*
X186059799Y-80454728D01*
X186063236Y-80454212D01*
X186351918Y-80454212D01*
X186360191Y-80457639D01*
G37*
G04 #@! TD.AperFunction*
G04 #@! TA.AperFunction,Conductor*
G36*
X171145758Y-79531691D02*
G01*
X171148618Y-79536367D01*
X171400626Y-80316402D01*
X171399909Y-80325328D01*
X171393990Y-80330800D01*
X170946497Y-80517127D01*
X170937543Y-80517144D01*
X170937503Y-80517127D01*
X170491192Y-80331293D01*
X170484871Y-80324949D01*
X170484888Y-80315995D01*
X170485000Y-80315736D01*
X170838088Y-79535142D01*
X170844621Y-79529016D01*
X170848749Y-79528264D01*
X171137485Y-79528264D01*
X171145758Y-79531691D01*
G37*
G04 #@! TD.AperFunction*
G04 #@! TA.AperFunction,Conductor*
G36*
X117832484Y-84469529D02*
G01*
X117838984Y-84475686D01*
X117840000Y-84480455D01*
X117840000Y-84769156D01*
X117836573Y-84777429D01*
X117832483Y-84780083D01*
X117041956Y-85082682D01*
X117033004Y-85082439D01*
X117026972Y-85076252D01*
X116840871Y-84629301D01*
X116840855Y-84620350D01*
X117026973Y-84173357D01*
X117033316Y-84167038D01*
X117041956Y-84166929D01*
X117832484Y-84469529D01*
G37*
G04 #@! TD.AperFunction*
G04 #@! TA.AperFunction,Conductor*
G36*
X173658809Y-79653280D02*
G01*
X173661563Y-79657641D01*
X173940232Y-80443207D01*
X173939768Y-80452150D01*
X173933702Y-80457920D01*
X173486497Y-80644127D01*
X173477543Y-80644144D01*
X173477503Y-80644127D01*
X173030853Y-80458152D01*
X173024532Y-80451808D01*
X173024545Y-80442862D01*
X173351004Y-79657064D01*
X173357343Y-79650739D01*
X173361809Y-79649853D01*
X173650536Y-79649853D01*
X173658809Y-79653280D01*
G37*
G04 #@! TD.AperFunction*
G04 #@! TA.AperFunction,Conductor*
G36*
X129695173Y-85855427D02*
G01*
X129695909Y-85856235D01*
X130422206Y-86732800D01*
X130424846Y-86741357D01*
X130421475Y-86748533D01*
X129548278Y-87622712D01*
X129540007Y-87626144D01*
X129531732Y-87622722D01*
X129531722Y-87622713D01*
X129531721Y-87622712D01*
X128658522Y-86748531D01*
X128655102Y-86740258D01*
X128657792Y-86732802D01*
X129384091Y-85856235D01*
X129392008Y-85852051D01*
X129393100Y-85852000D01*
X129686900Y-85852000D01*
X129695173Y-85855427D01*
G37*
G04 #@! TD.AperFunction*
G04 #@! TA.AperFunction,Conductor*
G36*
X183169163Y-75033427D02*
G01*
X183172574Y-75041095D01*
X183259363Y-76717709D01*
X183256369Y-76726148D01*
X183248284Y-76729998D01*
X183247693Y-76730014D01*
X182410000Y-76730999D01*
X181572306Y-76730014D01*
X181564037Y-76726577D01*
X181560620Y-76718300D01*
X181560636Y-76717709D01*
X181647426Y-75041095D01*
X181651276Y-75033010D01*
X181659110Y-75030000D01*
X183160890Y-75030000D01*
X183169163Y-75033427D01*
G37*
G04 #@! TD.AperFunction*
G04 #@! TA.AperFunction,Conductor*
G36*
X168935916Y-76409349D02*
G01*
X169706215Y-76727438D01*
X169712552Y-76733761D01*
X169712562Y-76733785D01*
X170030643Y-77504067D01*
X170030634Y-77513022D01*
X170024295Y-77519347D01*
X170023884Y-77519508D01*
X168622710Y-78037246D01*
X168613762Y-78036899D01*
X168610382Y-78034544D01*
X168405455Y-77829617D01*
X168402028Y-77821344D01*
X168402753Y-77817289D01*
X168512844Y-77519347D01*
X168920491Y-76416114D01*
X168926573Y-76409542D01*
X168935521Y-76409195D01*
X168935916Y-76409349D01*
G37*
G04 #@! TD.AperFunction*
G04 #@! TA.AperFunction,Conductor*
G36*
X112528480Y-71886606D02*
G01*
X113278787Y-72386527D01*
X113283772Y-72393965D01*
X113284000Y-72396263D01*
X113284000Y-73644231D01*
X113280573Y-73652504D01*
X113272300Y-73655931D01*
X113268909Y-73655429D01*
X111616855Y-73155078D01*
X111609930Y-73149400D01*
X111608773Y-73141587D01*
X111757748Y-72396263D01*
X111758048Y-72394758D01*
X111763030Y-72387319D01*
X111763035Y-72387314D01*
X112515515Y-71886602D01*
X112524300Y-71884873D01*
X112528480Y-71886606D01*
G37*
G04 #@! TD.AperFunction*
G04 #@! TA.AperFunction,Conductor*
G36*
X160309163Y-75033427D02*
G01*
X160312574Y-75041095D01*
X160399363Y-76717709D01*
X160396369Y-76726148D01*
X160388284Y-76729998D01*
X160387693Y-76730014D01*
X159549999Y-76730999D01*
X158712306Y-76730014D01*
X158704037Y-76726577D01*
X158700620Y-76718300D01*
X158700636Y-76717709D01*
X158787426Y-75041095D01*
X158791276Y-75033010D01*
X158799110Y-75030000D01*
X160300890Y-75030000D01*
X160309163Y-75033427D01*
G37*
G04 #@! TD.AperFunction*
G04 #@! TA.AperFunction,Conductor*
G36*
X133491586Y-86007610D02*
G01*
X133495381Y-86010146D01*
X133699853Y-86214618D01*
X133703280Y-86222891D01*
X133702390Y-86227368D01*
X133573961Y-86537473D01*
X133569652Y-86542724D01*
X133547515Y-86557517D01*
X133491266Y-86641698D01*
X133476500Y-86715933D01*
X133476500Y-86770480D01*
X133475610Y-86774957D01*
X132973471Y-87987435D01*
X132967139Y-87993767D01*
X132958194Y-87993772D01*
X132083784Y-87632562D01*
X132077446Y-87626236D01*
X132077437Y-87626215D01*
X131716227Y-86751804D01*
X131716236Y-86742849D01*
X131722563Y-86736527D01*
X133482634Y-86007609D01*
X133491586Y-86007610D01*
G37*
G04 #@! TD.AperFunction*
G04 #@! TA.AperFunction,Conductor*
G36*
X166396276Y-78949498D02*
G01*
X167166215Y-79267438D01*
X167172552Y-79273761D01*
X167490142Y-80042854D01*
X167490764Y-80044359D01*
X167490755Y-80053314D01*
X167484416Y-80059639D01*
X167484293Y-80059689D01*
X167168839Y-80185782D01*
X167164496Y-80186618D01*
X166738032Y-80186618D01*
X166708079Y-80196350D01*
X166706295Y-80196779D01*
X166675175Y-80201709D01*
X166647104Y-80216011D01*
X166645409Y-80216713D01*
X166615451Y-80226447D01*
X166589961Y-80244966D01*
X166588396Y-80245925D01*
X166560332Y-80260225D01*
X166533977Y-80286578D01*
X166533977Y-80286579D01*
X166280852Y-80539703D01*
X166276922Y-80542294D01*
X166123008Y-80603817D01*
X166114054Y-80603706D01*
X166110392Y-80601226D01*
X165908946Y-80399780D01*
X165905519Y-80391507D01*
X165908945Y-80383235D01*
X166196766Y-80095415D01*
X166196765Y-80095414D01*
X166200193Y-80091988D01*
X166200193Y-80091987D01*
X166209803Y-80082377D01*
X166219692Y-80072489D01*
X166233996Y-80044414D01*
X166234943Y-80042867D01*
X166253470Y-80017370D01*
X166263209Y-79987392D01*
X166263905Y-79985715D01*
X166278207Y-79957649D01*
X166278209Y-79957644D01*
X166283137Y-79926527D01*
X166283566Y-79924741D01*
X166293300Y-79894784D01*
X166293300Y-79765892D01*
X166293300Y-79765891D01*
X166293300Y-79219562D01*
X166293906Y-79215848D01*
X166380723Y-78956600D01*
X166386599Y-78949843D01*
X166395532Y-78949221D01*
X166396276Y-78949498D01*
G37*
G04 #@! TD.AperFunction*
G04 #@! TA.AperFunction,Conductor*
G36*
X192583863Y-75882642D02*
G01*
X194239605Y-76198187D01*
X194247090Y-76203102D01*
X194249114Y-76209680D01*
X194249114Y-77459041D01*
X194245687Y-77467314D01*
X194238179Y-77470716D01*
X192582449Y-77579184D01*
X192573969Y-77576305D01*
X192570009Y-77568274D01*
X192569985Y-77567564D01*
X192569000Y-76730000D01*
X192569983Y-75894121D01*
X192573420Y-75885853D01*
X192581697Y-75882436D01*
X192583863Y-75882642D01*
G37*
G04 #@! TD.AperFunction*
G04 #@! TA.AperFunction,Conductor*
G36*
X163857192Y-78949876D02*
G01*
X164626215Y-79267438D01*
X164632552Y-79273761D01*
X164632562Y-79273785D01*
X164951073Y-80045109D01*
X164951064Y-80054064D01*
X164945360Y-80060104D01*
X163684771Y-80670829D01*
X163675832Y-80671352D01*
X163671397Y-80668573D01*
X163470382Y-80467558D01*
X163466955Y-80459285D01*
X163470380Y-80451015D01*
X163656766Y-80264630D01*
X163656767Y-80264627D01*
X163657422Y-80263973D01*
X163657427Y-80263966D01*
X163679692Y-80241703D01*
X163693994Y-80213631D01*
X163694944Y-80212081D01*
X163713470Y-80186584D01*
X163723210Y-80156602D01*
X163723898Y-80154942D01*
X163738209Y-80126858D01*
X163743137Y-80095735D01*
X163743566Y-80093952D01*
X163753299Y-80063999D01*
X163753299Y-80031828D01*
X163753300Y-80031803D01*
X163753300Y-79307590D01*
X163753657Y-79304721D01*
X163761481Y-79273785D01*
X163841388Y-78957820D01*
X163846738Y-78950643D01*
X163855599Y-78949349D01*
X163857192Y-78949876D01*
G37*
G04 #@! TD.AperFunction*
G04 #@! TA.AperFunction,Conductor*
G36*
X181635916Y-76409349D02*
G01*
X182406215Y-76727438D01*
X182412552Y-76733761D01*
X182412562Y-76733785D01*
X182730643Y-77504067D01*
X182730634Y-77513022D01*
X182724295Y-77519347D01*
X182723884Y-77519508D01*
X181322710Y-78037246D01*
X181313762Y-78036899D01*
X181310382Y-78034544D01*
X181105455Y-77829617D01*
X181102028Y-77821344D01*
X181102753Y-77817289D01*
X181212844Y-77519347D01*
X181620491Y-76416114D01*
X181626573Y-76409542D01*
X181635521Y-76409195D01*
X181635916Y-76409349D01*
G37*
G04 #@! TD.AperFunction*
G04 #@! TA.AperFunction,Conductor*
G36*
X153695916Y-76409349D02*
G01*
X154466215Y-76727438D01*
X154472552Y-76733761D01*
X154472562Y-76733785D01*
X154790643Y-77504067D01*
X154790634Y-77513022D01*
X154784295Y-77519347D01*
X154783884Y-77519508D01*
X153382710Y-78037246D01*
X153373762Y-78036899D01*
X153370382Y-78034544D01*
X153165455Y-77829617D01*
X153162028Y-77821344D01*
X153162753Y-77817289D01*
X153272844Y-77519347D01*
X153680491Y-76416114D01*
X153686573Y-76409542D01*
X153695521Y-76409195D01*
X153695916Y-76409349D01*
G37*
G04 #@! TD.AperFunction*
G04 #@! TA.AperFunction,Conductor*
G36*
X186715916Y-76409349D02*
G01*
X187486215Y-76727438D01*
X187492552Y-76733761D01*
X187492562Y-76733785D01*
X187810643Y-77504067D01*
X187810634Y-77513022D01*
X187804295Y-77519347D01*
X187803884Y-77519508D01*
X186402710Y-78037246D01*
X186393762Y-78036899D01*
X186390382Y-78034544D01*
X186185455Y-77829617D01*
X186182028Y-77821344D01*
X186182753Y-77817289D01*
X186292844Y-77519347D01*
X186700491Y-76416114D01*
X186706573Y-76409542D01*
X186715521Y-76409195D01*
X186715916Y-76409349D01*
G37*
G04 #@! TD.AperFunction*
G04 #@! TA.AperFunction,Conductor*
G36*
X185102308Y-81837840D02*
G01*
X185105106Y-81842328D01*
X185372941Y-82625646D01*
X185372375Y-82634583D01*
X185366367Y-82640232D01*
X184919045Y-82826488D01*
X184910091Y-82826505D01*
X184910051Y-82826488D01*
X184463538Y-82640570D01*
X184457217Y-82634226D01*
X184457234Y-82625272D01*
X184457288Y-82625144D01*
X184794194Y-81842328D01*
X184794555Y-81841487D01*
X184800973Y-81835243D01*
X184805302Y-81834413D01*
X185094035Y-81834413D01*
X185102308Y-81837840D01*
G37*
G04 #@! TD.AperFunction*
G04 #@! TA.AperFunction,Conductor*
G36*
X184175916Y-76409349D02*
G01*
X184946215Y-76727438D01*
X184952552Y-76733761D01*
X184952562Y-76733785D01*
X185270643Y-77504067D01*
X185270634Y-77513022D01*
X185264295Y-77519347D01*
X185263884Y-77519508D01*
X183862710Y-78037246D01*
X183853762Y-78036899D01*
X183850382Y-78034544D01*
X183645455Y-77829617D01*
X183642028Y-77821344D01*
X183642753Y-77817289D01*
X183752844Y-77519347D01*
X184160491Y-76416114D01*
X184166573Y-76409542D01*
X184175521Y-76409195D01*
X184175916Y-76409349D01*
G37*
G04 #@! TD.AperFunction*
G04 #@! TA.AperFunction,Conductor*
G36*
X171591586Y-86007610D02*
G01*
X171595381Y-86010146D01*
X171799853Y-86214618D01*
X171803280Y-86222891D01*
X171802390Y-86227368D01*
X171673961Y-86537473D01*
X171669652Y-86542724D01*
X171647515Y-86557517D01*
X171591266Y-86641698D01*
X171576500Y-86715933D01*
X171576500Y-86770481D01*
X171575610Y-86774958D01*
X171073472Y-87987435D01*
X171067140Y-87993767D01*
X171058195Y-87993772D01*
X170183784Y-87632562D01*
X170177446Y-87626236D01*
X170177437Y-87626215D01*
X169816227Y-86751804D01*
X169816236Y-86742849D01*
X169822563Y-86736527D01*
X171582634Y-86007609D01*
X171591586Y-86007610D01*
G37*
G04 #@! TD.AperFunction*
G04 #@! TA.AperFunction,Conductor*
G36*
X166395916Y-76409349D02*
G01*
X167166215Y-76727438D01*
X167172552Y-76733761D01*
X167172562Y-76733785D01*
X167490643Y-77504067D01*
X167490634Y-77513022D01*
X167484295Y-77519347D01*
X167483884Y-77519508D01*
X166082710Y-78037246D01*
X166073762Y-78036899D01*
X166070382Y-78034544D01*
X165865455Y-77829617D01*
X165862028Y-77821344D01*
X165862753Y-77817289D01*
X165972844Y-77519347D01*
X166380491Y-76416114D01*
X166386573Y-76409542D01*
X166395521Y-76409195D01*
X166395916Y-76409349D01*
G37*
G04 #@! TD.AperFunction*
G04 #@! TA.AperFunction,Conductor*
G36*
X157783522Y-79590388D02*
G01*
X157789847Y-79596727D01*
X157789838Y-79605682D01*
X157789412Y-79606593D01*
X157048053Y-81031677D01*
X157041195Y-81037435D01*
X157032274Y-81036656D01*
X157029401Y-81034550D01*
X156826552Y-80831701D01*
X156824303Y-80828544D01*
X156230129Y-79606445D01*
X156229594Y-79597508D01*
X156235536Y-79590809D01*
X156236148Y-79590533D01*
X157006222Y-79271152D01*
X157015174Y-79271149D01*
X157783522Y-79590388D01*
G37*
G04 #@! TD.AperFunction*
G04 #@! TA.AperFunction,Conductor*
G36*
X193329163Y-75033427D02*
G01*
X193332574Y-75041095D01*
X193419363Y-76717709D01*
X193416369Y-76726148D01*
X193408284Y-76729998D01*
X193407693Y-76730014D01*
X192570000Y-76730999D01*
X191732306Y-76730014D01*
X191724037Y-76726577D01*
X191720620Y-76718300D01*
X191720636Y-76717709D01*
X191807426Y-75041095D01*
X191811276Y-75033010D01*
X191819110Y-75030000D01*
X193320890Y-75030000D01*
X193329163Y-75033427D01*
G37*
G04 #@! TD.AperFunction*
G04 #@! TA.AperFunction,Conductor*
G36*
X179211586Y-86007610D02*
G01*
X179215381Y-86010146D01*
X179419853Y-86214618D01*
X179423280Y-86222891D01*
X179422390Y-86227368D01*
X179293961Y-86537473D01*
X179289652Y-86542724D01*
X179267515Y-86557517D01*
X179211266Y-86641698D01*
X179196500Y-86715933D01*
X179196500Y-86770481D01*
X179195610Y-86774958D01*
X178693472Y-87987435D01*
X178687140Y-87993767D01*
X178678195Y-87993772D01*
X177803784Y-87632562D01*
X177797446Y-87626236D01*
X177797437Y-87626215D01*
X177436227Y-86751804D01*
X177436236Y-86742849D01*
X177442563Y-86736527D01*
X179202634Y-86007609D01*
X179211586Y-86007610D01*
G37*
G04 #@! TD.AperFunction*
G04 #@! TA.AperFunction,Conductor*
G36*
X198754448Y-85855427D02*
G01*
X198757425Y-85860486D01*
X199007110Y-86734385D01*
X199006088Y-86743281D01*
X199004138Y-86745867D01*
X198128278Y-87622712D01*
X198120007Y-87626144D01*
X198111732Y-87622722D01*
X198111722Y-87622713D01*
X198111721Y-87622712D01*
X197235859Y-86745865D01*
X197232439Y-86737592D01*
X197232888Y-86734391D01*
X197482575Y-85860485D01*
X197488143Y-85853472D01*
X197493825Y-85852000D01*
X198746175Y-85852000D01*
X198754448Y-85855427D01*
G37*
G04 #@! TD.AperFunction*
G04 #@! TA.AperFunction,Conductor*
G36*
X173009163Y-75033427D02*
G01*
X173012574Y-75041095D01*
X173099363Y-76717709D01*
X173096369Y-76726148D01*
X173088284Y-76729998D01*
X173087693Y-76730014D01*
X172250000Y-76730999D01*
X171412306Y-76730014D01*
X171404037Y-76726577D01*
X171400620Y-76718300D01*
X171400636Y-76717709D01*
X171487426Y-75041095D01*
X171491276Y-75033010D01*
X171499110Y-75030000D01*
X173000890Y-75030000D01*
X173009163Y-75033427D01*
G37*
G04 #@! TD.AperFunction*
G04 #@! TA.AperFunction,Conductor*
G36*
X156235916Y-76409349D02*
G01*
X157006215Y-76727438D01*
X157012552Y-76733761D01*
X157012562Y-76733785D01*
X157330643Y-77504067D01*
X157330634Y-77513022D01*
X157324295Y-77519347D01*
X157323884Y-77519508D01*
X155922710Y-78037246D01*
X155913762Y-78036899D01*
X155910382Y-78034544D01*
X155705455Y-77829617D01*
X155702028Y-77821344D01*
X155702753Y-77817289D01*
X155812844Y-77519347D01*
X156220491Y-76416114D01*
X156226573Y-76409542D01*
X156235521Y-76409195D01*
X156235916Y-76409349D01*
G37*
G04 #@! TD.AperFunction*
G04 #@! TA.AperFunction,Conductor*
G36*
X167929163Y-75033427D02*
G01*
X167932574Y-75041095D01*
X168019363Y-76717709D01*
X168016369Y-76726148D01*
X168008284Y-76729998D01*
X168007693Y-76730014D01*
X167170000Y-76730999D01*
X166332306Y-76730014D01*
X166324037Y-76726577D01*
X166320620Y-76718300D01*
X166320636Y-76717709D01*
X166407426Y-75041095D01*
X166411276Y-75033010D01*
X166419110Y-75030000D01*
X167920890Y-75030000D01*
X167929163Y-75033427D01*
G37*
G04 #@! TD.AperFunction*
G04 #@! TA.AperFunction,Conductor*
G36*
X138571669Y-86045686D02*
G01*
X138575279Y-86048144D01*
X138779815Y-86252680D01*
X138783242Y-86260953D01*
X138782323Y-86265498D01*
X138673002Y-86524799D01*
X138668721Y-86529982D01*
X138627516Y-86557515D01*
X138627515Y-86557516D01*
X138571266Y-86641698D01*
X138556500Y-86715933D01*
X138556500Y-86798768D01*
X138555581Y-86803313D01*
X138053541Y-87994116D01*
X138047169Y-88000408D01*
X138038224Y-88000356D01*
X137163772Y-87632590D01*
X137157475Y-87626224D01*
X137157466Y-87626203D01*
X136823659Y-86803313D01*
X136802823Y-86751947D01*
X136802889Y-86742994D01*
X136809266Y-86736709D01*
X138562717Y-86045532D01*
X138571669Y-86045686D01*
G37*
G04 #@! TD.AperFunction*
G04 #@! TA.AperFunction,Conductor*
G36*
X136031586Y-86007610D02*
G01*
X136035381Y-86010146D01*
X136239853Y-86214618D01*
X136243280Y-86222891D01*
X136242390Y-86227368D01*
X136113961Y-86537473D01*
X136109652Y-86542724D01*
X136087515Y-86557517D01*
X136031266Y-86641698D01*
X136016500Y-86715933D01*
X136016500Y-86770481D01*
X136015610Y-86774958D01*
X135513472Y-87987435D01*
X135507140Y-87993767D01*
X135498195Y-87993772D01*
X134623784Y-87632562D01*
X134617446Y-87626236D01*
X134617437Y-87626215D01*
X134256227Y-86751804D01*
X134256236Y-86742849D01*
X134262563Y-86736527D01*
X136022634Y-86007609D01*
X136031586Y-86007610D01*
G37*
G04 #@! TD.AperFunction*
G04 #@! TA.AperFunction,Conductor*
G36*
X161431586Y-86007610D02*
G01*
X161435381Y-86010146D01*
X161639853Y-86214618D01*
X161643280Y-86222891D01*
X161642390Y-86227368D01*
X161513961Y-86537473D01*
X161509652Y-86542724D01*
X161487515Y-86557517D01*
X161431266Y-86641698D01*
X161416500Y-86715933D01*
X161416500Y-86770481D01*
X161415610Y-86774958D01*
X160913472Y-87987435D01*
X160907140Y-87993767D01*
X160898195Y-87993772D01*
X160023784Y-87632562D01*
X160017446Y-87626236D01*
X160017437Y-87626215D01*
X159656227Y-86751804D01*
X159656236Y-86742849D01*
X159662563Y-86736527D01*
X159832402Y-86666190D01*
X159836880Y-86665300D01*
X160313046Y-86665300D01*
X160313046Y-86665299D01*
X160343005Y-86655565D01*
X160344785Y-86655137D01*
X160375905Y-86650209D01*
X160375910Y-86650207D01*
X160403976Y-86635905D01*
X160405653Y-86635209D01*
X160435631Y-86625470D01*
X160461128Y-86606943D01*
X160462675Y-86605996D01*
X160490750Y-86591692D01*
X160581891Y-86500551D01*
X160581890Y-86500551D01*
X160827329Y-86255111D01*
X160831114Y-86252581D01*
X161422634Y-86007609D01*
X161431586Y-86007610D01*
G37*
G04 #@! TD.AperFunction*
G04 #@! TA.AperFunction,Conductor*
G36*
X185363446Y-84387972D02*
G01*
X185369767Y-84394316D01*
X185369876Y-84402956D01*
X185067277Y-85193483D01*
X185061119Y-85199984D01*
X185056350Y-85201000D01*
X184767650Y-85201000D01*
X184759377Y-85197573D01*
X184756723Y-85193483D01*
X184454123Y-84402956D01*
X184454366Y-84394004D01*
X184460551Y-84387973D01*
X184907504Y-84201871D01*
X184916455Y-84201855D01*
X185363446Y-84387972D01*
G37*
G04 #@! TD.AperFunction*
G04 #@! TA.AperFunction,Conductor*
G36*
X169016783Y-80808763D02*
G01*
X169017686Y-80809782D01*
X169626086Y-81582538D01*
X169628511Y-81591159D01*
X169625166Y-81598049D01*
X169101045Y-82122170D01*
X169092772Y-82125597D01*
X169085534Y-82123090D01*
X168312778Y-81514690D01*
X168308398Y-81506880D01*
X168310823Y-81498259D01*
X168311719Y-81497247D01*
X168471663Y-81336662D01*
X168655277Y-81152314D01*
X168850919Y-80957451D01*
X169000237Y-80808729D01*
X169008516Y-80805320D01*
X169016783Y-80808763D01*
G37*
G04 #@! TD.AperFunction*
G04 #@! TA.AperFunction,Conductor*
G36*
X175549163Y-75033427D02*
G01*
X175552574Y-75041095D01*
X175639363Y-76717709D01*
X175636369Y-76726148D01*
X175628284Y-76729998D01*
X175627693Y-76730014D01*
X174789999Y-76730999D01*
X173952306Y-76730014D01*
X173944037Y-76726577D01*
X173940620Y-76718300D01*
X173940636Y-76717709D01*
X174027426Y-75041095D01*
X174031276Y-75033010D01*
X174039110Y-75030000D01*
X175540890Y-75030000D01*
X175549163Y-75033427D01*
G37*
G04 #@! TD.AperFunction*
G04 #@! TA.AperFunction,Conductor*
G36*
X125748513Y-86010278D02*
G01*
X125953195Y-86214961D01*
X125956622Y-86223234D01*
X125955975Y-86227071D01*
X125352975Y-87964199D01*
X125347025Y-87970891D01*
X125338085Y-87971415D01*
X125337693Y-87971271D01*
X124463823Y-87632463D01*
X124457348Y-87626277D01*
X124073475Y-86751703D01*
X124073288Y-86742753D01*
X124079477Y-86736293D01*
X125735529Y-86007840D01*
X125744482Y-86007647D01*
X125748513Y-86010278D01*
G37*
G04 #@! TD.AperFunction*
G04 #@! TA.AperFunction,Conductor*
G36*
X179095916Y-76409349D02*
G01*
X179866215Y-76727438D01*
X179872552Y-76733761D01*
X179872562Y-76733785D01*
X180190643Y-77504067D01*
X180190634Y-77513022D01*
X180184295Y-77519347D01*
X180183884Y-77519508D01*
X178782710Y-78037246D01*
X178773762Y-78036899D01*
X178770382Y-78034544D01*
X178565455Y-77829617D01*
X178562028Y-77821344D01*
X178562753Y-77817289D01*
X178672844Y-77519347D01*
X179080491Y-76416114D01*
X179086573Y-76409542D01*
X179095521Y-76409195D01*
X179095916Y-76409349D01*
G37*
G04 #@! TD.AperFunction*
G04 #@! TA.AperFunction,Conductor*
G36*
X182562285Y-83211986D02*
G01*
X182565093Y-83216503D01*
X182830426Y-83999303D01*
X182829836Y-84008238D01*
X182823842Y-84013860D01*
X182376493Y-84200127D01*
X182367539Y-84200144D01*
X182367499Y-84200127D01*
X181921018Y-84014222D01*
X181914697Y-84007878D01*
X181914714Y-83998924D01*
X181914782Y-83998764D01*
X182254545Y-83215602D01*
X182260981Y-83209377D01*
X182265278Y-83208559D01*
X182554012Y-83208559D01*
X182562285Y-83211986D01*
G37*
G04 #@! TD.AperFunction*
G04 #@! TA.AperFunction,Conductor*
G36*
X171475916Y-76409349D02*
G01*
X172246215Y-76727438D01*
X172252552Y-76733761D01*
X172252562Y-76733785D01*
X172570643Y-77504067D01*
X172570634Y-77513022D01*
X172564295Y-77519347D01*
X172563884Y-77519508D01*
X171162710Y-78037246D01*
X171153762Y-78036899D01*
X171150382Y-78034544D01*
X170945455Y-77829617D01*
X170942028Y-77821344D01*
X170942753Y-77817289D01*
X171052844Y-77519347D01*
X171460491Y-76416114D01*
X171466573Y-76409542D01*
X171475521Y-76409195D01*
X171475916Y-76409349D01*
G37*
G04 #@! TD.AperFunction*
G04 #@! TA.AperFunction,Conductor*
G36*
X188401879Y-85671679D02*
G01*
X188402437Y-85672202D01*
X189286490Y-86556255D01*
X189289917Y-86564528D01*
X189289300Y-86568279D01*
X188852516Y-87858885D01*
X188846617Y-87865623D01*
X188838403Y-87866435D01*
X187963988Y-87631965D01*
X187956884Y-87626512D01*
X187956872Y-87626490D01*
X187452567Y-86748253D01*
X187451419Y-86739372D01*
X187453917Y-86734712D01*
X188385369Y-85672759D01*
X188393400Y-85668800D01*
X188401879Y-85671679D01*
G37*
G04 #@! TD.AperFunction*
G04 #@! TA.AperFunction,Conductor*
G36*
X174015916Y-76409349D02*
G01*
X174786215Y-76727438D01*
X174792552Y-76733761D01*
X174792562Y-76733785D01*
X175110643Y-77504067D01*
X175110634Y-77513022D01*
X175104295Y-77519347D01*
X175103884Y-77519508D01*
X173702710Y-78037246D01*
X173693762Y-78036899D01*
X173690382Y-78034544D01*
X173485455Y-77829617D01*
X173482028Y-77821344D01*
X173482753Y-77817289D01*
X173592844Y-77519347D01*
X174000491Y-76416114D01*
X174006573Y-76409542D01*
X174015521Y-76409195D01*
X174015916Y-76409349D01*
G37*
G04 #@! TD.AperFunction*
G04 #@! TA.AperFunction,Conductor*
G36*
X143651586Y-86007610D02*
G01*
X143655381Y-86010146D01*
X143859853Y-86214618D01*
X143863280Y-86222891D01*
X143862390Y-86227368D01*
X143733961Y-86537473D01*
X143729652Y-86542724D01*
X143707515Y-86557517D01*
X143651266Y-86641698D01*
X143636500Y-86715933D01*
X143636500Y-86770481D01*
X143635610Y-86774958D01*
X143133472Y-87987435D01*
X143127140Y-87993767D01*
X143118195Y-87993772D01*
X142243784Y-87632562D01*
X142237446Y-87626236D01*
X142237437Y-87626215D01*
X141876227Y-86751804D01*
X141876236Y-86742849D01*
X141882563Y-86736527D01*
X143642634Y-86007609D01*
X143651586Y-86007610D01*
G37*
G04 #@! TD.AperFunction*
G04 #@! TA.AperFunction,Conductor*
G36*
X190637670Y-76138871D02*
G01*
X190639009Y-76140477D01*
X191343958Y-77159459D01*
X191345847Y-77168213D01*
X191342609Y-77174389D01*
X190458514Y-78058484D01*
X190450241Y-78061911D01*
X190443415Y-78059714D01*
X190441703Y-78058484D01*
X189440131Y-77339066D01*
X189435412Y-77331457D01*
X189437455Y-77322738D01*
X189438668Y-77321308D01*
X190029293Y-76729293D01*
X190621126Y-76138849D01*
X190629401Y-76135434D01*
X190637670Y-76138871D01*
G37*
G04 #@! TD.AperFunction*
G04 #@! TA.AperFunction,Conductor*
G36*
X112527934Y-76073989D02*
G01*
X113274224Y-76198370D01*
X113281821Y-76203111D01*
X113284000Y-76209911D01*
X113284000Y-77460088D01*
X113280573Y-77468361D01*
X113274223Y-77471629D01*
X112527934Y-77596010D01*
X112519211Y-77593990D01*
X112517743Y-77592748D01*
X112216470Y-77291871D01*
X111767288Y-76843277D01*
X111763857Y-76835008D01*
X111767277Y-76826733D01*
X112517743Y-76077250D01*
X112526019Y-76073830D01*
X112527934Y-76073989D01*
G37*
G04 #@! TD.AperFunction*
G04 #@! TA.AperFunction,Conductor*
G36*
X176555916Y-76409349D02*
G01*
X177326215Y-76727438D01*
X177332552Y-76733761D01*
X177332562Y-76733785D01*
X177650643Y-77504067D01*
X177650634Y-77513022D01*
X177644295Y-77519347D01*
X177643884Y-77519508D01*
X176242710Y-78037246D01*
X176233762Y-78036899D01*
X176230382Y-78034544D01*
X176025455Y-77829617D01*
X176022028Y-77821344D01*
X176022753Y-77817289D01*
X176132844Y-77519347D01*
X176540491Y-76416114D01*
X176546573Y-76409542D01*
X176555521Y-76409195D01*
X176555916Y-76409349D01*
G37*
G04 #@! TD.AperFunction*
G04 #@! TA.AperFunction,Conductor*
G36*
X152689163Y-75033427D02*
G01*
X152692574Y-75041095D01*
X152779363Y-76717709D01*
X152776369Y-76726148D01*
X152768284Y-76729998D01*
X152767693Y-76730014D01*
X151930000Y-76730999D01*
X151092306Y-76730014D01*
X151084037Y-76726577D01*
X151080620Y-76718300D01*
X151080636Y-76717709D01*
X151167426Y-75041095D01*
X151171276Y-75033010D01*
X151179110Y-75030000D01*
X152680890Y-75030000D01*
X152689163Y-75033427D01*
G37*
G04 #@! TD.AperFunction*
G04 #@! TA.AperFunction,Conductor*
G36*
X161315916Y-76409349D02*
G01*
X162086215Y-76727438D01*
X162092552Y-76733761D01*
X162092562Y-76733785D01*
X162410643Y-77504067D01*
X162410634Y-77513022D01*
X162404295Y-77519347D01*
X162403884Y-77519508D01*
X161002710Y-78037246D01*
X160993762Y-78036899D01*
X160990382Y-78034544D01*
X160785455Y-77829617D01*
X160782028Y-77821344D01*
X160782753Y-77817289D01*
X160892844Y-77519347D01*
X161300491Y-76416114D01*
X161306573Y-76409542D01*
X161315521Y-76409195D01*
X161315916Y-76409349D01*
G37*
G04 #@! TD.AperFunction*
G04 #@! TA.AperFunction,Conductor*
G36*
X185709163Y-75033427D02*
G01*
X185712574Y-75041095D01*
X185799363Y-76717709D01*
X185796369Y-76726148D01*
X185788284Y-76729998D01*
X185787693Y-76730014D01*
X184949999Y-76730999D01*
X184112306Y-76730014D01*
X184104037Y-76726577D01*
X184100620Y-76718300D01*
X184100636Y-76717709D01*
X184187426Y-75041095D01*
X184191276Y-75033010D01*
X184199110Y-75030000D01*
X185700890Y-75030000D01*
X185709163Y-75033427D01*
G37*
G04 #@! TD.AperFunction*
G04 #@! TA.AperFunction,Conductor*
G36*
X158775916Y-76409349D02*
G01*
X159546215Y-76727438D01*
X159552552Y-76733761D01*
X159552562Y-76733785D01*
X159870643Y-77504067D01*
X159870634Y-77513022D01*
X159864295Y-77519347D01*
X159863884Y-77519508D01*
X158462710Y-78037246D01*
X158453762Y-78036899D01*
X158450382Y-78034544D01*
X158245455Y-77829617D01*
X158242028Y-77821344D01*
X158242753Y-77817289D01*
X158352844Y-77519347D01*
X158760491Y-76416114D01*
X158766573Y-76409542D01*
X158775521Y-76409195D01*
X158775916Y-76409349D01*
G37*
G04 #@! TD.AperFunction*
G04 #@! TA.AperFunction,Conductor*
G36*
X181853476Y-83036998D02*
G01*
X181859797Y-83043342D01*
X181859906Y-83051982D01*
X181557307Y-83842509D01*
X181551149Y-83849010D01*
X181546380Y-83850026D01*
X181257680Y-83850026D01*
X181249407Y-83846599D01*
X181246753Y-83842509D01*
X180944153Y-83051982D01*
X180944396Y-83043030D01*
X180950581Y-83036999D01*
X181397534Y-82850897D01*
X181406485Y-82850881D01*
X181853476Y-83036998D01*
G37*
G04 #@! TD.AperFunction*
G04 #@! TA.AperFunction,Conductor*
G36*
X159554484Y-79270863D02*
G01*
X160324078Y-79590619D01*
X160330403Y-79596958D01*
X160330394Y-79605913D01*
X160330217Y-79606317D01*
X159705534Y-80963193D01*
X159698961Y-80969275D01*
X159694906Y-80970000D01*
X159405094Y-80970000D01*
X159396821Y-80966573D01*
X159394466Y-80963193D01*
X158769781Y-79606315D01*
X158769435Y-79597369D01*
X158775517Y-79590796D01*
X158775892Y-79590631D01*
X159545511Y-79270864D01*
X159554466Y-79270856D01*
X159554484Y-79270863D01*
G37*
G04 #@! TD.AperFunction*
G04 #@! TA.AperFunction,Conductor*
G36*
X162096237Y-79274836D02*
G01*
X162683642Y-79863624D01*
X162687059Y-79871901D01*
X162684484Y-79879210D01*
X161849330Y-80919873D01*
X161841479Y-80924180D01*
X161832882Y-80921675D01*
X161831932Y-80920823D01*
X161627776Y-80716667D01*
X161624802Y-80711619D01*
X161307578Y-79605311D01*
X161308592Y-79596417D01*
X161314341Y-79591282D01*
X162083473Y-79272292D01*
X162092428Y-79272289D01*
X162096237Y-79274836D01*
G37*
G04 #@! TD.AperFunction*
G04 #@! TA.AperFunction,Conductor*
G36*
X184954484Y-79270863D02*
G01*
X185724078Y-79590619D01*
X185730403Y-79596958D01*
X185730394Y-79605913D01*
X185730217Y-79606317D01*
X185105534Y-80963193D01*
X185098961Y-80969275D01*
X185094906Y-80970000D01*
X184805094Y-80970000D01*
X184796821Y-80966573D01*
X184794466Y-80963193D01*
X184169781Y-79606315D01*
X184169435Y-79597369D01*
X184175517Y-79590796D01*
X184175892Y-79590631D01*
X184945511Y-79270864D01*
X184954466Y-79270856D01*
X184954484Y-79270863D01*
G37*
G04 #@! TD.AperFunction*
G04 #@! TA.AperFunction,Conductor*
G36*
X189422159Y-82515481D02*
G01*
X189428381Y-82521572D01*
X189508034Y-82702449D01*
X189706683Y-83153547D01*
X189708357Y-83157347D01*
X189709349Y-83162062D01*
X189709349Y-83448378D01*
X189705922Y-83456651D01*
X189697649Y-83460078D01*
X189694088Y-83459523D01*
X188782584Y-83168253D01*
X188775746Y-83162470D01*
X188775000Y-83153547D01*
X188775322Y-83152664D01*
X188958980Y-82706944D01*
X188965298Y-82700603D01*
X189413207Y-82515474D01*
X189422159Y-82515481D01*
G37*
G04 #@! TD.AperFunction*
G04 #@! TA.AperFunction,Conductor*
G36*
X165389163Y-75033427D02*
G01*
X165392574Y-75041095D01*
X165479363Y-76717709D01*
X165476369Y-76726148D01*
X165468284Y-76729998D01*
X165467693Y-76730014D01*
X164629999Y-76730999D01*
X163792306Y-76730014D01*
X163784037Y-76726577D01*
X163780620Y-76718300D01*
X163780636Y-76717709D01*
X163867426Y-75041095D01*
X163871276Y-75033010D01*
X163879110Y-75030000D01*
X165380890Y-75030000D01*
X165389163Y-75033427D01*
G37*
G04 #@! TD.AperFunction*
G04 #@! TA.AperFunction,Conductor*
G36*
X176678480Y-86093457D02*
G01*
X176879771Y-86294748D01*
X176883198Y-86303021D01*
X176882246Y-86307644D01*
X176795204Y-86510019D01*
X176790956Y-86515124D01*
X176727516Y-86557515D01*
X176727515Y-86557516D01*
X176671266Y-86641698D01*
X176656499Y-86715933D01*
X176656500Y-86830107D01*
X176655548Y-86834730D01*
X176153618Y-88001740D01*
X176147201Y-88007986D01*
X176138256Y-88007869D01*
X175857112Y-87887230D01*
X175263757Y-87632622D01*
X175257506Y-87626210D01*
X174910266Y-86752113D01*
X174910396Y-86743162D01*
X174916819Y-86736923D01*
X174917023Y-86736844D01*
X175113641Y-86663706D01*
X175175669Y-86640634D01*
X175179748Y-86639900D01*
X176011397Y-86639900D01*
X176011397Y-86639899D01*
X176041356Y-86630165D01*
X176043136Y-86629737D01*
X176074256Y-86624809D01*
X176074261Y-86624807D01*
X176102327Y-86610505D01*
X176104004Y-86609809D01*
X176133982Y-86600070D01*
X176159479Y-86581543D01*
X176161026Y-86580596D01*
X176189101Y-86566292D01*
X176280242Y-86475151D01*
X176280241Y-86475151D01*
X176661936Y-86093456D01*
X176670207Y-86090030D01*
X176678480Y-86093457D01*
G37*
G04 #@! TD.AperFunction*
G04 #@! TA.AperFunction,Conductor*
G36*
X127155173Y-85855427D02*
G01*
X127155909Y-85856235D01*
X127882206Y-86732800D01*
X127884846Y-86741357D01*
X127881475Y-86748532D01*
X127499801Y-87130636D01*
X127008277Y-87622713D01*
X127000006Y-87626144D01*
X126991732Y-87622722D01*
X126118523Y-86748532D01*
X126115102Y-86740258D01*
X126117792Y-86732802D01*
X126844090Y-85856235D01*
X126852008Y-85852051D01*
X126853100Y-85852000D01*
X127146900Y-85852000D01*
X127155173Y-85855427D01*
G37*
G04 #@! TD.AperFunction*
M02*
